<?xml version="1.0" encoding="utf-8" standalone="no"?>
<!DOCTYPE svg PUBLIC "-//W3C//DTD SVG 1.1//EN"
  "http://www.w3.org/Graphics/SVG/1.1/DTD/svg11.dtd">
<svg xmlns:xlink="http://www.w3.org/1999/xlink" width="1130.4pt" height="78.784615pt" viewBox="0 0 1130.4 78.784615" xmlns="http://www.w3.org/2000/svg" version="1.1">
 <metadata>
  <rdf:RDF xmlns:dc="http://purl.org/dc/elements/1.1/" xmlns:cc="http://creativecommons.org/ns#" xmlns:rdf="http://www.w3.org/1999/02/22-rdf-syntax-ns#">
   <cc:Work>
    <dc:type rdf:resource="http://purl.org/dc/dcmitype/StillImage"/>
    <dc:date>2025-05-10T21:57:50.208050</dc:date>
    <dc:format>image/svg+xml</dc:format>
    <dc:creator>
     <cc:Agent>
      <dc:title>Matplotlib v3.6.3, https://matplotlib.org/</dc:title>
     </cc:Agent>
    </dc:creator>
   </cc:Work>
  </rdf:RDF>
 </metadata>
 <defs>
  <style type="text/css">*{stroke-linejoin: round; stroke-linecap: butt}</style>
 </defs>
 <g id="figure_1">
  <g id="patch_1">
   <path d="M 0 78.784615 
L 1130.4 78.784615 
L 1130.4 0 
L 0 0 
z
" style="fill: #ffffff"/>
  </g>
  <g id="axes_1">
   <g id="PatchCollection_1">
    <path d="M 7.2 28.661538 
L 28.661538 28.661538 
L 28.661538 7.2 
L 7.2 7.2 
z
" clip-path="url(#pb36bde9843)" style="fill: #fcb225; stroke: #000000; stroke-width: 0.615385"/>
    <path d="M 28.661538 28.661538 
L 50.123077 28.661538 
L 50.123077 7.2 
L 28.661538 7.2 
z
" clip-path="url(#pb36bde9843)" style="fill: #fcb225; stroke: #000000; stroke-width: 0.615385"/>
    <path d="M 50.123077 28.661538 
L 71.584615 28.661538 
L 71.584615 7.2 
L 50.123077 7.2 
z
" clip-path="url(#pb36bde9843)" style="fill: #fcb225; stroke: #000000; stroke-width: 0.615385"/>
    <path d="M 114.507692 28.661538 
L 135.969231 28.661538 
L 135.969231 7.2 
L 114.507692 7.2 
z
" clip-path="url(#pb36bde9843)" style="fill: #5add4a; stroke: #000000; stroke-width: 0.615385"/>
    <path d="M 135.969231 28.661538 
L 157.430769 28.661538 
L 157.430769 7.2 
L 135.969231 7.2 
z
" clip-path="url(#pb36bde9843)" style="fill: #60bdfd; stroke: #000000; stroke-width: 0.615385"/>
    <path d="M 157.430769 28.661538 
L 178.892308 28.661538 
L 178.892308 7.2 
L 157.430769 7.2 
z
" clip-path="url(#pb36bde9843)" style="fill: #fcb225; stroke: #000000; stroke-width: 0.615385"/>
    <path d="M 178.892308 28.661538 
L 200.353846 28.661538 
L 200.353846 7.2 
L 178.892308 7.2 
z
" clip-path="url(#pb36bde9843)" style="fill: #5add4a; stroke: #000000; stroke-width: 0.615385"/>
    <path d="M 200.353846 28.661538 
L 221.815385 28.661538 
L 221.815385 7.2 
L 200.353846 7.2 
z
" clip-path="url(#pb36bde9843)" style="fill: #60bdfd; stroke: #000000; stroke-width: 0.615385"/>
    <path d="M 221.815385 28.661538 
L 243.276923 28.661538 
L 243.276923 7.2 
L 221.815385 7.2 
z
" clip-path="url(#pb36bde9843)" style="fill: #fcb225; stroke: #000000; stroke-width: 0.615385"/>
    <path d="M 243.276923 28.661538 
L 264.738462 28.661538 
L 264.738462 7.2 
L 243.276923 7.2 
z
" clip-path="url(#pb36bde9843)" style="fill: #5add4a; stroke: #000000; stroke-width: 0.615385"/>
    <path d="M 264.738462 28.661538 
L 286.2 28.661538 
L 286.2 7.2 
L 264.738462 7.2 
z
" clip-path="url(#pb36bde9843)" style="fill: #60bdfd; stroke: #000000; stroke-width: 0.615385"/>
    <path d="M 286.2 28.661538 
L 307.661538 28.661538 
L 307.661538 7.2 
L 286.2 7.2 
z
" clip-path="url(#pb36bde9843)" style="fill: #fcb225; stroke: #000000; stroke-width: 0.615385"/>
    <path d="M 307.661538 28.661538 
L 329.123077 28.661538 
L 329.123077 7.2 
L 307.661538 7.2 
z
" clip-path="url(#pb36bde9843)" style="fill: #5add4a; stroke: #000000; stroke-width: 0.615385"/>
    <path d="M 329.123077 28.661538 
L 350.584615 28.661538 
L 350.584615 7.2 
L 329.123077 7.2 
z
" clip-path="url(#pb36bde9843)" style="fill: #60bdfd; stroke: #000000; stroke-width: 0.615385"/>
    <path d="M 350.584615 28.661538 
L 372.046154 28.661538 
L 372.046154 7.2 
L 350.584615 7.2 
z
" clip-path="url(#pb36bde9843)" style="fill: #fcb225; stroke: #000000; stroke-width: 0.615385"/>
    <path d="M 372.046154 28.661538 
L 393.507692 28.661538 
L 393.507692 7.2 
L 372.046154 7.2 
z
" clip-path="url(#pb36bde9843)" style="fill: #5add4a; stroke: #000000; stroke-width: 0.615385"/>
    <path d="M 393.507692 28.661538 
L 414.969231 28.661538 
L 414.969231 7.2 
L 393.507692 7.2 
z
" clip-path="url(#pb36bde9843)" style="fill: #60bdfd; stroke: #000000; stroke-width: 0.615385"/>
    <path d="M 414.969231 28.661538 
L 436.430769 28.661538 
L 436.430769 7.2 
L 414.969231 7.2 
z
" clip-path="url(#pb36bde9843)" style="fill: #fcb225; stroke: #000000; stroke-width: 0.615385"/>
    <path d="M 436.430769 28.661538 
L 457.892308 28.661538 
L 457.892308 7.2 
L 436.430769 7.2 
z
" clip-path="url(#pb36bde9843)" style="fill: #5add4a; stroke: #000000; stroke-width: 0.615385"/>
    <path d="M 457.892308 28.661538 
L 479.353846 28.661538 
L 479.353846 7.2 
L 457.892308 7.2 
z
" clip-path="url(#pb36bde9843)" style="fill: #60bdfd; stroke: #000000; stroke-width: 0.615385"/>
    <path d="M 479.353846 28.661538 
L 500.815385 28.661538 
L 500.815385 7.2 
L 479.353846 7.2 
z
" clip-path="url(#pb36bde9843)" style="fill: #fcb225; stroke: #000000; stroke-width: 0.615385"/>
    <path d="M 500.815385 28.661538 
L 522.276923 28.661538 
L 522.276923 7.2 
L 500.815385 7.2 
z
" clip-path="url(#pb36bde9843)" style="fill: #5add4a; stroke: #000000; stroke-width: 0.615385"/>
    <path d="M 522.276923 28.661538 
L 543.738462 28.661538 
L 543.738462 7.2 
L 522.276923 7.2 
z
" clip-path="url(#pb36bde9843)" style="fill: #60bdfd; stroke: #000000; stroke-width: 0.615385"/>
    <path d="M 543.738462 28.661538 
L 565.2 28.661538 
L 565.2 7.2 
L 543.738462 7.2 
z
" clip-path="url(#pb36bde9843)" style="fill: #fcb225; stroke: #000000; stroke-width: 0.615385"/>
    <path d="M 565.2 28.661538 
L 586.661538 28.661538 
L 586.661538 7.2 
L 565.2 7.2 
z
" clip-path="url(#pb36bde9843)" style="fill: #5add4a; stroke: #000000; stroke-width: 0.615385"/>
    <path d="M 586.661538 28.661538 
L 608.123077 28.661538 
L 608.123077 7.2 
L 586.661538 7.2 
z
" clip-path="url(#pb36bde9843)" style="fill: #60bdfd; stroke: #000000; stroke-width: 0.615385"/>
    <path d="M 608.123077 28.661538 
L 629.584615 28.661538 
L 629.584615 7.2 
L 608.123077 7.2 
z
" clip-path="url(#pb36bde9843)" style="fill: #5add4a; stroke: #000000; stroke-width: 0.615385"/>
    <path d="M 629.584615 28.661538 
L 651.046154 28.661538 
L 651.046154 7.2 
L 629.584615 7.2 
z
" clip-path="url(#pb36bde9843)" style="fill: #60bdfd; stroke: #000000; stroke-width: 0.615385"/>
    <path d="M 651.046154 28.661538 
L 672.507692 28.661538 
L 672.507692 7.2 
L 651.046154 7.2 
z
" clip-path="url(#pb36bde9843)" style="fill: #5add4a; stroke: #000000; stroke-width: 0.615385"/>
    <path d="M 672.507692 28.661538 
L 693.969231 28.661538 
L 693.969231 7.2 
L 672.507692 7.2 
z
" clip-path="url(#pb36bde9843)" style="fill: #60bdfd; stroke: #000000; stroke-width: 0.615385"/>
    <path d="M 28.661538 50.123077 
L 50.123077 50.123077 
L 50.123077 28.661538 
L 28.661538 28.661538 
z
" clip-path="url(#pb36bde9843)" style="fill: #fcb225; stroke: #000000; stroke-width: 0.615385"/>
    <path d="M 50.123077 50.123077 
L 71.584615 50.123077 
L 71.584615 28.661538 
L 50.123077 28.661538 
z
" clip-path="url(#pb36bde9843)" style="fill: #fcb225; stroke: #000000; stroke-width: 0.615385"/>
    <path d="M 93.046154 50.123077 
L 114.507692 50.123077 
L 114.507692 28.661538 
L 93.046154 28.661538 
z
" clip-path="url(#pb36bde9843)" style="fill: #5add4a; stroke: #000000; stroke-width: 0.615385"/>
    <path d="M 114.507692 50.123077 
L 135.969231 50.123077 
L 135.969231 28.661538 
L 114.507692 28.661538 
z
" clip-path="url(#pb36bde9843)" style="fill: #fcb225; stroke: #000000; stroke-width: 0.615385"/>
    <path d="M 135.969231 50.123077 
L 157.430769 50.123077 
L 157.430769 28.661538 
L 135.969231 28.661538 
z
" clip-path="url(#pb36bde9843)" style="fill: #5add4a; stroke: #000000; stroke-width: 0.615385"/>
    <path d="M 157.430769 50.123077 
L 178.892308 50.123077 
L 178.892308 28.661538 
L 157.430769 28.661538 
z
" clip-path="url(#pb36bde9843)" style="fill: #60bdfd; stroke: #000000; stroke-width: 0.615385"/>
    <path d="M 178.892308 50.123077 
L 200.353846 50.123077 
L 200.353846 28.661538 
L 178.892308 28.661538 
z
" clip-path="url(#pb36bde9843)" style="fill: #fcb225; stroke: #000000; stroke-width: 0.615385"/>
    <path d="M 200.353846 50.123077 
L 221.815385 50.123077 
L 221.815385 28.661538 
L 200.353846 28.661538 
z
" clip-path="url(#pb36bde9843)" style="fill: #5add4a; stroke: #000000; stroke-width: 0.615385"/>
    <path d="M 221.815385 50.123077 
L 243.276923 50.123077 
L 243.276923 28.661538 
L 221.815385 28.661538 
z
" clip-path="url(#pb36bde9843)" style="fill: #60bdfd; stroke: #000000; stroke-width: 0.615385"/>
    <path d="M 243.276923 50.123077 
L 264.738462 50.123077 
L 264.738462 28.661538 
L 243.276923 28.661538 
z
" clip-path="url(#pb36bde9843)" style="fill: #fcb225; stroke: #000000; stroke-width: 0.615385"/>
    <path d="M 264.738462 50.123077 
L 286.2 50.123077 
L 286.2 28.661538 
L 264.738462 28.661538 
z
" clip-path="url(#pb36bde9843)" style="fill: #5add4a; stroke: #000000; stroke-width: 0.615385"/>
    <path d="M 286.2 50.123077 
L 307.661538 50.123077 
L 307.661538 28.661538 
L 286.2 28.661538 
z
" clip-path="url(#pb36bde9843)" style="fill: #60bdfd; stroke: #000000; stroke-width: 0.615385"/>
    <path d="M 307.661538 50.123077 
L 329.123077 50.123077 
L 329.123077 28.661538 
L 307.661538 28.661538 
z
" clip-path="url(#pb36bde9843)" style="fill: #fcb225; stroke: #000000; stroke-width: 0.615385"/>
    <path d="M 329.123077 50.123077 
L 350.584615 50.123077 
L 350.584615 28.661538 
L 329.123077 28.661538 
z
" clip-path="url(#pb36bde9843)" style="fill: #5add4a; stroke: #000000; stroke-width: 0.615385"/>
    <path d="M 350.584615 50.123077 
L 372.046154 50.123077 
L 372.046154 28.661538 
L 350.584615 28.661538 
z
" clip-path="url(#pb36bde9843)" style="fill: #60bdfd; stroke: #000000; stroke-width: 0.615385"/>
    <path d="M 372.046154 50.123077 
L 393.507692 50.123077 
L 393.507692 28.661538 
L 372.046154 28.661538 
z
" clip-path="url(#pb36bde9843)" style="fill: #fcb225; stroke: #000000; stroke-width: 0.615385"/>
    <path d="M 393.507692 50.123077 
L 414.969231 50.123077 
L 414.969231 28.661538 
L 393.507692 28.661538 
z
" clip-path="url(#pb36bde9843)" style="fill: #5add4a; stroke: #000000; stroke-width: 0.615385"/>
    <path d="M 414.969231 50.123077 
L 436.430769 50.123077 
L 436.430769 28.661538 
L 414.969231 28.661538 
z
" clip-path="url(#pb36bde9843)" style="fill: #60bdfd; stroke: #000000; stroke-width: 0.615385"/>
    <path d="M 436.430769 50.123077 
L 457.892308 50.123077 
L 457.892308 28.661538 
L 436.430769 28.661538 
z
" clip-path="url(#pb36bde9843)" style="fill: #fcb225; stroke: #000000; stroke-width: 0.615385"/>
    <path d="M 457.892308 50.123077 
L 479.353846 50.123077 
L 479.353846 28.661538 
L 457.892308 28.661538 
z
" clip-path="url(#pb36bde9843)" style="fill: #5add4a; stroke: #000000; stroke-width: 0.615385"/>
    <path d="M 479.353846 50.123077 
L 500.815385 50.123077 
L 500.815385 28.661538 
L 479.353846 28.661538 
z
" clip-path="url(#pb36bde9843)" style="fill: #60bdfd; stroke: #000000; stroke-width: 0.615385"/>
    <path d="M 500.815385 50.123077 
L 522.276923 50.123077 
L 522.276923 28.661538 
L 500.815385 28.661538 
z
" clip-path="url(#pb36bde9843)" style="fill: #fcb225; stroke: #000000; stroke-width: 0.615385"/>
    <path d="M 522.276923 50.123077 
L 543.738462 50.123077 
L 543.738462 28.661538 
L 522.276923 28.661538 
z
" clip-path="url(#pb36bde9843)" style="fill: #5add4a; stroke: #000000; stroke-width: 0.615385"/>
    <path d="M 543.738462 50.123077 
L 565.2 50.123077 
L 565.2 28.661538 
L 543.738462 28.661538 
z
" clip-path="url(#pb36bde9843)" style="fill: #60bdfd; stroke: #000000; stroke-width: 0.615385"/>
    <path d="M 565.2 50.123077 
L 586.661538 50.123077 
L 586.661538 28.661538 
L 565.2 28.661538 
z
" clip-path="url(#pb36bde9843)" style="fill: #fcb225; stroke: #000000; stroke-width: 0.615385"/>
    <path d="M 586.661538 50.123077 
L 608.123077 50.123077 
L 608.123077 28.661538 
L 586.661538 28.661538 
z
" clip-path="url(#pb36bde9843)" style="fill: #5add4a; stroke: #000000; stroke-width: 0.615385"/>
    <path d="M 608.123077 50.123077 
L 629.584615 50.123077 
L 629.584615 28.661538 
L 608.123077 28.661538 
z
" clip-path="url(#pb36bde9843)" style="fill: #60bdfd; stroke: #000000; stroke-width: 0.615385"/>
    <path d="M 629.584615 50.123077 
L 651.046154 50.123077 
L 651.046154 28.661538 
L 629.584615 28.661538 
z
" clip-path="url(#pb36bde9843)" style="fill: #5add4a; stroke: #000000; stroke-width: 0.615385"/>
    <path d="M 651.046154 50.123077 
L 672.507692 50.123077 
L 672.507692 28.661538 
L 651.046154 28.661538 
z
" clip-path="url(#pb36bde9843)" style="fill: #60bdfd; stroke: #000000; stroke-width: 0.615385"/>
    <path d="M 672.507692 50.123077 
L 693.969231 50.123077 
L 693.969231 28.661538 
L 672.507692 28.661538 
z
" clip-path="url(#pb36bde9843)" style="fill: #60bdfd; stroke: #000000; stroke-width: 0.615385"/>
    <path d="M 50.123077 71.584615 
L 71.584615 71.584615 
L 71.584615 50.123077 
L 50.123077 50.123077 
z
" clip-path="url(#pb36bde9843)" style="fill: #fcb225; stroke: #000000; stroke-width: 0.615385"/>
    <path d="M 71.584615 71.584615 
L 93.046154 71.584615 
L 93.046154 50.123077 
L 71.584615 50.123077 
z
" clip-path="url(#pb36bde9843)" style="fill: #5add4a; stroke: #000000; stroke-width: 0.615385"/>
    <path d="M 93.046154 71.584615 
L 114.507692 71.584615 
L 114.507692 50.123077 
L 93.046154 50.123077 
z
" clip-path="url(#pb36bde9843)" style="fill: #fcb225; stroke: #000000; stroke-width: 0.615385"/>
    <path d="M 114.507692 71.584615 
L 135.969231 71.584615 
L 135.969231 50.123077 
L 114.507692 50.123077 
z
" clip-path="url(#pb36bde9843)" style="fill: #5add4a; stroke: #000000; stroke-width: 0.615385"/>
    <path d="M 135.969231 71.584615 
L 157.430769 71.584615 
L 157.430769 50.123077 
L 135.969231 50.123077 
z
" clip-path="url(#pb36bde9843)" style="fill: #fcb225; stroke: #000000; stroke-width: 0.615385"/>
    <path d="M 157.430769 71.584615 
L 178.892308 71.584615 
L 178.892308 50.123077 
L 157.430769 50.123077 
z
" clip-path="url(#pb36bde9843)" style="fill: #5add4a; stroke: #000000; stroke-width: 0.615385"/>
    <path d="M 178.892308 71.584615 
L 200.353846 71.584615 
L 200.353846 50.123077 
L 178.892308 50.123077 
z
" clip-path="url(#pb36bde9843)" style="fill: #60bdfd; stroke: #000000; stroke-width: 0.615385"/>
    <path d="M 200.353846 71.584615 
L 221.815385 71.584615 
L 221.815385 50.123077 
L 200.353846 50.123077 
z
" clip-path="url(#pb36bde9843)" style="fill: #fcb225; stroke: #000000; stroke-width: 0.615385"/>
    <path d="M 221.815385 71.584615 
L 243.276923 71.584615 
L 243.276923 50.123077 
L 221.815385 50.123077 
z
" clip-path="url(#pb36bde9843)" style="fill: #5add4a; stroke: #000000; stroke-width: 0.615385"/>
    <path d="M 243.276923 71.584615 
L 264.738462 71.584615 
L 264.738462 50.123077 
L 243.276923 50.123077 
z
" clip-path="url(#pb36bde9843)" style="fill: #60bdfd; stroke: #000000; stroke-width: 0.615385"/>
    <path d="M 264.738462 71.584615 
L 286.2 71.584615 
L 286.2 50.123077 
L 264.738462 50.123077 
z
" clip-path="url(#pb36bde9843)" style="fill: #fcb225; stroke: #000000; stroke-width: 0.615385"/>
    <path d="M 286.2 71.584615 
L 307.661538 71.584615 
L 307.661538 50.123077 
L 286.2 50.123077 
z
" clip-path="url(#pb36bde9843)" style="fill: #5add4a; stroke: #000000; stroke-width: 0.615385"/>
    <path d="M 307.661538 71.584615 
L 329.123077 71.584615 
L 329.123077 50.123077 
L 307.661538 50.123077 
z
" clip-path="url(#pb36bde9843)" style="fill: #60bdfd; stroke: #000000; stroke-width: 0.615385"/>
    <path d="M 329.123077 71.584615 
L 350.584615 71.584615 
L 350.584615 50.123077 
L 329.123077 50.123077 
z
" clip-path="url(#pb36bde9843)" style="fill: #fcb225; stroke: #000000; stroke-width: 0.615385"/>
    <path d="M 350.584615 71.584615 
L 372.046154 71.584615 
L 372.046154 50.123077 
L 350.584615 50.123077 
z
" clip-path="url(#pb36bde9843)" style="fill: #5add4a; stroke: #000000; stroke-width: 0.615385"/>
    <path d="M 372.046154 71.584615 
L 393.507692 71.584615 
L 393.507692 50.123077 
L 372.046154 50.123077 
z
" clip-path="url(#pb36bde9843)" style="fill: #60bdfd; stroke: #000000; stroke-width: 0.615385"/>
    <path d="M 393.507692 71.584615 
L 414.969231 71.584615 
L 414.969231 50.123077 
L 393.507692 50.123077 
z
" clip-path="url(#pb36bde9843)" style="fill: #fcb225; stroke: #000000; stroke-width: 0.615385"/>
    <path d="M 414.969231 71.584615 
L 436.430769 71.584615 
L 436.430769 50.123077 
L 414.969231 50.123077 
z
" clip-path="url(#pb36bde9843)" style="fill: #5add4a; stroke: #000000; stroke-width: 0.615385"/>
    <path d="M 436.430769 71.584615 
L 457.892308 71.584615 
L 457.892308 50.123077 
L 436.430769 50.123077 
z
" clip-path="url(#pb36bde9843)" style="fill: #60bdfd; stroke: #000000; stroke-width: 0.615385"/>
    <path d="M 457.892308 71.584615 
L 479.353846 71.584615 
L 479.353846 50.123077 
L 457.892308 50.123077 
z
" clip-path="url(#pb36bde9843)" style="fill: #fcb225; stroke: #000000; stroke-width: 0.615385"/>
    <path d="M 479.353846 71.584615 
L 500.815385 71.584615 
L 500.815385 50.123077 
L 479.353846 50.123077 
z
" clip-path="url(#pb36bde9843)" style="fill: #5add4a; stroke: #000000; stroke-width: 0.615385"/>
    <path d="M 500.815385 71.584615 
L 522.276923 71.584615 
L 522.276923 50.123077 
L 500.815385 50.123077 
z
" clip-path="url(#pb36bde9843)" style="fill: #60bdfd; stroke: #000000; stroke-width: 0.615385"/>
    <path d="M 522.276923 71.584615 
L 543.738462 71.584615 
L 543.738462 50.123077 
L 522.276923 50.123077 
z
" clip-path="url(#pb36bde9843)" style="fill: #fcb225; stroke: #000000; stroke-width: 0.615385"/>
    <path d="M 543.738462 71.584615 
L 565.2 71.584615 
L 565.2 50.123077 
L 543.738462 50.123077 
z
" clip-path="url(#pb36bde9843)" style="fill: #5add4a; stroke: #000000; stroke-width: 0.615385"/>
    <path d="M 565.2 71.584615 
L 586.661538 71.584615 
L 586.661538 50.123077 
L 565.2 50.123077 
z
" clip-path="url(#pb36bde9843)" style="fill: #60bdfd; stroke: #000000; stroke-width: 0.615385"/>
    <path d="M 586.661538 71.584615 
L 608.123077 71.584615 
L 608.123077 50.123077 
L 586.661538 50.123077 
z
" clip-path="url(#pb36bde9843)" style="fill: #fcb225; stroke: #000000; stroke-width: 0.615385"/>
    <path d="M 608.123077 71.584615 
L 629.584615 71.584615 
L 629.584615 50.123077 
L 608.123077 50.123077 
z
" clip-path="url(#pb36bde9843)" style="fill: #5add4a; stroke: #000000; stroke-width: 0.615385"/>
    <path d="M 629.584615 71.584615 
L 651.046154 71.584615 
L 651.046154 50.123077 
L 629.584615 50.123077 
z
" clip-path="url(#pb36bde9843)" style="fill: #60bdfd; stroke: #000000; stroke-width: 0.615385"/>
    <path d="M 651.046154 71.584615 
L 672.507692 71.584615 
L 672.507692 50.123077 
L 651.046154 50.123077 
z
" clip-path="url(#pb36bde9843)" style="fill: #60bdfd; stroke: #000000; stroke-width: 0.615385"/>
    <path d="M 672.507692 71.584615 
L 693.969231 71.584615 
L 693.969231 50.123077 
L 672.507692 50.123077 
z
" clip-path="url(#pb36bde9843)" style="fill: #60bdfd; stroke: #000000; stroke-width: 0.615385"/>
   </g>
   <g id="text_1">
    <!-- 0 -->
    <g transform="translate(14.015385 22.292692) scale(0.123077 -0.123077)">
     <defs>
      <path id="DejaVuSans-30" d="M 2034 4250 
Q 1547 4250 1301 3770 
Q 1056 3291 1056 2328 
Q 1056 1369 1301 889 
Q 1547 409 2034 409 
Q 2525 409 2770 889 
Q 3016 1369 3016 2328 
Q 3016 3291 2770 3770 
Q 2525 4250 2034 4250 
z
M 2034 4750 
Q 2819 4750 3233 4129 
Q 3647 3509 3647 2328 
Q 3647 1150 3233 529 
Q 2819 -91 2034 -91 
Q 1250 -91 836 529 
Q 422 1150 422 2328 
Q 422 3509 836 4129 
Q 1250 4750 2034 4750 
z
" transform="scale(0.015625)"/>
     </defs>
     <use xlink:href="#DejaVuSans-30"/>
    </g>
   </g>
   <g id="text_2">
    <!-- 1 -->
    <g transform="translate(35.476923 22.292692) scale(0.123077 -0.123077)">
     <defs>
      <path id="DejaVuSans-31" d="M 794 531 
L 1825 531 
L 1825 4091 
L 703 3866 
L 703 4441 
L 1819 4666 
L 2450 4666 
L 2450 531 
L 3481 531 
L 3481 0 
L 794 0 
L 794 531 
z
" transform="scale(0.015625)"/>
     </defs>
     <use xlink:href="#DejaVuSans-31"/>
    </g>
   </g>
   <g id="text_3">
    <!-- 2 -->
    <g transform="translate(56.938462 22.292692) scale(0.123077 -0.123077)">
     <defs>
      <path id="DejaVuSans-32" d="M 1228 531 
L 3431 531 
L 3431 0 
L 469 0 
L 469 531 
Q 828 903 1448 1529 
Q 2069 2156 2228 2338 
Q 2531 2678 2651 2914 
Q 2772 3150 2772 3378 
Q 2772 3750 2511 3984 
Q 2250 4219 1831 4219 
Q 1534 4219 1204 4116 
Q 875 4013 500 3803 
L 500 4441 
Q 881 4594 1212 4672 
Q 1544 4750 1819 4750 
Q 2544 4750 2975 4387 
Q 3406 4025 3406 3419 
Q 3406 3131 3298 2873 
Q 3191 2616 2906 2266 
Q 2828 2175 2409 1742 
Q 1991 1309 1228 531 
z
" transform="scale(0.015625)"/>
     </defs>
     <use xlink:href="#DejaVuSans-32"/>
    </g>
   </g>
   <g id="text_4">
    <!-- 0 -->
    <g transform="translate(121.323077 22.292692) scale(0.123077 -0.123077)">
     <use xlink:href="#DejaVuSans-30"/>
    </g>
   </g>
   <g id="text_5">
    <!-- 0 -->
    <g transform="translate(142.784615 22.292692) scale(0.123077 -0.123077)">
     <use xlink:href="#DejaVuSans-30"/>
    </g>
   </g>
   <g id="text_6">
    <!-- 3 -->
    <g transform="translate(164.246154 22.292692) scale(0.123077 -0.123077)">
     <defs>
      <path id="DejaVuSans-33" d="M 2597 2516 
Q 3050 2419 3304 2112 
Q 3559 1806 3559 1356 
Q 3559 666 3084 287 
Q 2609 -91 1734 -91 
Q 1441 -91 1130 -33 
Q 819 25 488 141 
L 488 750 
Q 750 597 1062 519 
Q 1375 441 1716 441 
Q 2309 441 2620 675 
Q 2931 909 2931 1356 
Q 2931 1769 2642 2001 
Q 2353 2234 1838 2234 
L 1294 2234 
L 1294 2753 
L 1863 2753 
Q 2328 2753 2575 2939 
Q 2822 3125 2822 3475 
Q 2822 3834 2567 4026 
Q 2313 4219 1838 4219 
Q 1578 4219 1281 4162 
Q 984 4106 628 3988 
L 628 4550 
Q 988 4650 1302 4700 
Q 1616 4750 1894 4750 
Q 2613 4750 3031 4423 
Q 3450 4097 3450 3541 
Q 3450 3153 3228 2886 
Q 3006 2619 2597 2516 
z
" transform="scale(0.015625)"/>
     </defs>
     <use xlink:href="#DejaVuSans-33"/>
    </g>
   </g>
   <g id="text_7">
    <!-- 1 -->
    <g transform="translate(185.707692 22.292692) scale(0.123077 -0.123077)">
     <use xlink:href="#DejaVuSans-31"/>
    </g>
   </g>
   <g id="text_8">
    <!-- 1 -->
    <g transform="translate(207.169231 22.292692) scale(0.123077 -0.123077)">
     <use xlink:href="#DejaVuSans-31"/>
    </g>
   </g>
   <g id="text_9">
    <!-- 4 -->
    <g transform="translate(228.630769 22.292692) scale(0.123077 -0.123077)">
     <defs>
      <path id="DejaVuSans-34" d="M 2419 4116 
L 825 1625 
L 2419 1625 
L 2419 4116 
z
M 2253 4666 
L 3047 4666 
L 3047 1625 
L 3713 1625 
L 3713 1100 
L 3047 1100 
L 3047 0 
L 2419 0 
L 2419 1100 
L 313 1100 
L 313 1709 
L 2253 4666 
z
" transform="scale(0.015625)"/>
     </defs>
     <use xlink:href="#DejaVuSans-34"/>
    </g>
   </g>
   <g id="text_10">
    <!-- 2 -->
    <g transform="translate(250.092308 22.292692) scale(0.123077 -0.123077)">
     <use xlink:href="#DejaVuSans-32"/>
    </g>
   </g>
   <g id="text_11">
    <!-- 2 -->
    <g transform="translate(271.553846 22.292692) scale(0.123077 -0.123077)">
     <use xlink:href="#DejaVuSans-32"/>
    </g>
   </g>
   <g id="text_12">
    <!-- 5 -->
    <g transform="translate(293.015385 22.292692) scale(0.123077 -0.123077)">
     <defs>
      <path id="DejaVuSans-35" d="M 691 4666 
L 3169 4666 
L 3169 4134 
L 1269 4134 
L 1269 2991 
Q 1406 3038 1543 3061 
Q 1681 3084 1819 3084 
Q 2600 3084 3056 2656 
Q 3513 2228 3513 1497 
Q 3513 744 3044 326 
Q 2575 -91 1722 -91 
Q 1428 -91 1123 -41 
Q 819 9 494 109 
L 494 744 
Q 775 591 1075 516 
Q 1375 441 1709 441 
Q 2250 441 2565 725 
Q 2881 1009 2881 1497 
Q 2881 1984 2565 2268 
Q 2250 2553 1709 2553 
Q 1456 2553 1204 2497 
Q 953 2441 691 2322 
L 691 4666 
z
" transform="scale(0.015625)"/>
     </defs>
     <use xlink:href="#DejaVuSans-35"/>
    </g>
   </g>
   <g id="text_13">
    <!-- 3 -->
    <g transform="translate(314.476923 22.292692) scale(0.123077 -0.123077)">
     <use xlink:href="#DejaVuSans-33"/>
    </g>
   </g>
   <g id="text_14">
    <!-- 3 -->
    <g transform="translate(335.938462 22.292692) scale(0.123077 -0.123077)">
     <use xlink:href="#DejaVuSans-33"/>
    </g>
   </g>
   <g id="text_15">
    <!-- 6 -->
    <g transform="translate(357.4 22.292692) scale(0.123077 -0.123077)">
     <defs>
      <path id="DejaVuSans-36" d="M 2113 2584 
Q 1688 2584 1439 2293 
Q 1191 2003 1191 1497 
Q 1191 994 1439 701 
Q 1688 409 2113 409 
Q 2538 409 2786 701 
Q 3034 994 3034 1497 
Q 3034 2003 2786 2293 
Q 2538 2584 2113 2584 
z
M 3366 4563 
L 3366 3988 
Q 3128 4100 2886 4159 
Q 2644 4219 2406 4219 
Q 1781 4219 1451 3797 
Q 1122 3375 1075 2522 
Q 1259 2794 1537 2939 
Q 1816 3084 2150 3084 
Q 2853 3084 3261 2657 
Q 3669 2231 3669 1497 
Q 3669 778 3244 343 
Q 2819 -91 2113 -91 
Q 1303 -91 875 529 
Q 447 1150 447 2328 
Q 447 3434 972 4092 
Q 1497 4750 2381 4750 
Q 2619 4750 2861 4703 
Q 3103 4656 3366 4563 
z
" transform="scale(0.015625)"/>
     </defs>
     <use xlink:href="#DejaVuSans-36"/>
    </g>
   </g>
   <g id="text_16">
    <!-- 4 -->
    <g transform="translate(378.861538 22.292692) scale(0.123077 -0.123077)">
     <use xlink:href="#DejaVuSans-34"/>
    </g>
   </g>
   <g id="text_17">
    <!-- 4 -->
    <g transform="translate(400.323077 22.292692) scale(0.123077 -0.123077)">
     <use xlink:href="#DejaVuSans-34"/>
    </g>
   </g>
   <g id="text_18">
    <!-- 7 -->
    <g transform="translate(421.784615 22.292692) scale(0.123077 -0.123077)">
     <defs>
      <path id="DejaVuSans-37" d="M 525 4666 
L 3525 4666 
L 3525 4397 
L 1831 0 
L 1172 0 
L 2766 4134 
L 525 4134 
L 525 4666 
z
" transform="scale(0.015625)"/>
     </defs>
     <use xlink:href="#DejaVuSans-37"/>
    </g>
   </g>
   <g id="text_19">
    <!-- 5 -->
    <g transform="translate(443.246154 22.292692) scale(0.123077 -0.123077)">
     <use xlink:href="#DejaVuSans-35"/>
    </g>
   </g>
   <g id="text_20">
    <!-- 5 -->
    <g transform="translate(464.707692 22.292692) scale(0.123077 -0.123077)">
     <use xlink:href="#DejaVuSans-35"/>
    </g>
   </g>
   <g id="text_21">
    <!-- 8 -->
    <g transform="translate(486.169231 22.292692) scale(0.123077 -0.123077)">
     <defs>
      <path id="DejaVuSans-38" d="M 2034 2216 
Q 1584 2216 1326 1975 
Q 1069 1734 1069 1313 
Q 1069 891 1326 650 
Q 1584 409 2034 409 
Q 2484 409 2743 651 
Q 3003 894 3003 1313 
Q 3003 1734 2745 1975 
Q 2488 2216 2034 2216 
z
M 1403 2484 
Q 997 2584 770 2862 
Q 544 3141 544 3541 
Q 544 4100 942 4425 
Q 1341 4750 2034 4750 
Q 2731 4750 3128 4425 
Q 3525 4100 3525 3541 
Q 3525 3141 3298 2862 
Q 3072 2584 2669 2484 
Q 3125 2378 3379 2068 
Q 3634 1759 3634 1313 
Q 3634 634 3220 271 
Q 2806 -91 2034 -91 
Q 1263 -91 848 271 
Q 434 634 434 1313 
Q 434 1759 690 2068 
Q 947 2378 1403 2484 
z
M 1172 3481 
Q 1172 3119 1398 2916 
Q 1625 2713 2034 2713 
Q 2441 2713 2670 2916 
Q 2900 3119 2900 3481 
Q 2900 3844 2670 4047 
Q 2441 4250 2034 4250 
Q 1625 4250 1398 4047 
Q 1172 3844 1172 3481 
z
" transform="scale(0.015625)"/>
     </defs>
     <use xlink:href="#DejaVuSans-38"/>
    </g>
   </g>
   <g id="text_22">
    <!-- 6 -->
    <g transform="translate(507.630769 22.292692) scale(0.123077 -0.123077)">
     <use xlink:href="#DejaVuSans-36"/>
    </g>
   </g>
   <g id="text_23">
    <!-- 6 -->
    <g transform="translate(529.092308 22.292692) scale(0.123077 -0.123077)">
     <use xlink:href="#DejaVuSans-36"/>
    </g>
   </g>
   <g id="text_24">
    <!-- 9 -->
    <g transform="translate(550.553846 22.292692) scale(0.123077 -0.123077)">
     <defs>
      <path id="DejaVuSans-39" d="M 703 97 
L 703 672 
Q 941 559 1184 500 
Q 1428 441 1663 441 
Q 2288 441 2617 861 
Q 2947 1281 2994 2138 
Q 2813 1869 2534 1725 
Q 2256 1581 1919 1581 
Q 1219 1581 811 2004 
Q 403 2428 403 3163 
Q 403 3881 828 4315 
Q 1253 4750 1959 4750 
Q 2769 4750 3195 4129 
Q 3622 3509 3622 2328 
Q 3622 1225 3098 567 
Q 2575 -91 1691 -91 
Q 1453 -91 1209 -44 
Q 966 3 703 97 
z
M 1959 2075 
Q 2384 2075 2632 2365 
Q 2881 2656 2881 3163 
Q 2881 3666 2632 3958 
Q 2384 4250 1959 4250 
Q 1534 4250 1286 3958 
Q 1038 3666 1038 3163 
Q 1038 2656 1286 2365 
Q 1534 2075 1959 2075 
z
" transform="scale(0.015625)"/>
     </defs>
     <use xlink:href="#DejaVuSans-39"/>
    </g>
   </g>
   <g id="text_25">
    <!-- 7 -->
    <g transform="translate(572.015385 22.292692) scale(0.123077 -0.123077)">
     <use xlink:href="#DejaVuSans-37"/>
    </g>
   </g>
   <g id="text_26">
    <!-- 7 -->
    <g transform="translate(593.476923 22.292692) scale(0.123077 -0.123077)">
     <use xlink:href="#DejaVuSans-37"/>
    </g>
   </g>
   <g id="text_27">
    <!-- 8 -->
    <g transform="translate(614.938462 22.292692) scale(0.123077 -0.123077)">
     <use xlink:href="#DejaVuSans-38"/>
    </g>
   </g>
   <g id="text_28">
    <!-- 8 -->
    <g transform="translate(636.4 22.292692) scale(0.123077 -0.123077)">
     <use xlink:href="#DejaVuSans-38"/>
    </g>
   </g>
   <g id="text_29">
    <!-- 9 -->
    <g transform="translate(657.861538 22.292692) scale(0.123077 -0.123077)">
     <use xlink:href="#DejaVuSans-39"/>
    </g>
   </g>
   <g id="text_30">
    <!-- 9 -->
    <g transform="translate(679.323077 22.292692) scale(0.123077 -0.123077)">
     <use xlink:href="#DejaVuSans-39"/>
    </g>
   </g>
   <g id="text_31">
    <!-- 0 -->
    <g transform="translate(35.476923 43.754231) scale(0.123077 -0.123077)">
     <use xlink:href="#DejaVuSans-30"/>
    </g>
   </g>
   <g id="text_32">
    <!-- 1 -->
    <g transform="translate(56.938462 43.754231) scale(0.123077 -0.123077)">
     <use xlink:href="#DejaVuSans-31"/>
    </g>
   </g>
   <g id="text_33">
    <!-- 0 -->
    <g transform="translate(99.861538 43.754231) scale(0.123077 -0.123077)">
     <use xlink:href="#DejaVuSans-30"/>
    </g>
   </g>
   <g id="text_34">
    <!-- 2 -->
    <g transform="translate(121.323077 43.754231) scale(0.123077 -0.123077)">
     <use xlink:href="#DejaVuSans-32"/>
    </g>
   </g>
   <g id="text_35">
    <!-- 1 -->
    <g transform="translate(142.784615 43.754231) scale(0.123077 -0.123077)">
     <use xlink:href="#DejaVuSans-31"/>
    </g>
   </g>
   <g id="text_36">
    <!-- 0 -->
    <g transform="translate(164.246154 43.754231) scale(0.123077 -0.123077)">
     <use xlink:href="#DejaVuSans-30"/>
    </g>
   </g>
   <g id="text_37">
    <!-- 3 -->
    <g transform="translate(185.707692 43.754231) scale(0.123077 -0.123077)">
     <use xlink:href="#DejaVuSans-33"/>
    </g>
   </g>
   <g id="text_38">
    <!-- 2 -->
    <g transform="translate(207.169231 43.754231) scale(0.123077 -0.123077)">
     <use xlink:href="#DejaVuSans-32"/>
    </g>
   </g>
   <g id="text_39">
    <!-- 1 -->
    <g transform="translate(228.630769 43.754231) scale(0.123077 -0.123077)">
     <use xlink:href="#DejaVuSans-31"/>
    </g>
   </g>
   <g id="text_40">
    <!-- 4 -->
    <g transform="translate(250.092308 43.754231) scale(0.123077 -0.123077)">
     <use xlink:href="#DejaVuSans-34"/>
    </g>
   </g>
   <g id="text_41">
    <!-- 3 -->
    <g transform="translate(271.553846 43.754231) scale(0.123077 -0.123077)">
     <use xlink:href="#DejaVuSans-33"/>
    </g>
   </g>
   <g id="text_42">
    <!-- 2 -->
    <g transform="translate(293.015385 43.754231) scale(0.123077 -0.123077)">
     <use xlink:href="#DejaVuSans-32"/>
    </g>
   </g>
   <g id="text_43">
    <!-- 5 -->
    <g transform="translate(314.476923 43.754231) scale(0.123077 -0.123077)">
     <use xlink:href="#DejaVuSans-35"/>
    </g>
   </g>
   <g id="text_44">
    <!-- 4 -->
    <g transform="translate(335.938462 43.754231) scale(0.123077 -0.123077)">
     <use xlink:href="#DejaVuSans-34"/>
    </g>
   </g>
   <g id="text_45">
    <!-- 3 -->
    <g transform="translate(357.4 43.754231) scale(0.123077 -0.123077)">
     <use xlink:href="#DejaVuSans-33"/>
    </g>
   </g>
   <g id="text_46">
    <!-- 6 -->
    <g transform="translate(378.861538 43.754231) scale(0.123077 -0.123077)">
     <use xlink:href="#DejaVuSans-36"/>
    </g>
   </g>
   <g id="text_47">
    <!-- 5 -->
    <g transform="translate(400.323077 43.754231) scale(0.123077 -0.123077)">
     <use xlink:href="#DejaVuSans-35"/>
    </g>
   </g>
   <g id="text_48">
    <!-- 4 -->
    <g transform="translate(421.784615 43.754231) scale(0.123077 -0.123077)">
     <use xlink:href="#DejaVuSans-34"/>
    </g>
   </g>
   <g id="text_49">
    <!-- 7 -->
    <g transform="translate(443.246154 43.754231) scale(0.123077 -0.123077)">
     <use xlink:href="#DejaVuSans-37"/>
    </g>
   </g>
   <g id="text_50">
    <!-- 6 -->
    <g transform="translate(464.707692 43.754231) scale(0.123077 -0.123077)">
     <use xlink:href="#DejaVuSans-36"/>
    </g>
   </g>
   <g id="text_51">
    <!-- 5 -->
    <g transform="translate(486.169231 43.754231) scale(0.123077 -0.123077)">
     <use xlink:href="#DejaVuSans-35"/>
    </g>
   </g>
   <g id="text_52">
    <!-- 8 -->
    <g transform="translate(507.630769 43.754231) scale(0.123077 -0.123077)">
     <use xlink:href="#DejaVuSans-38"/>
    </g>
   </g>
   <g id="text_53">
    <!-- 7 -->
    <g transform="translate(529.092308 43.754231) scale(0.123077 -0.123077)">
     <use xlink:href="#DejaVuSans-37"/>
    </g>
   </g>
   <g id="text_54">
    <!-- 6 -->
    <g transform="translate(550.553846 43.754231) scale(0.123077 -0.123077)">
     <use xlink:href="#DejaVuSans-36"/>
    </g>
   </g>
   <g id="text_55">
    <!-- 9 -->
    <g transform="translate(572.015385 43.754231) scale(0.123077 -0.123077)">
     <use xlink:href="#DejaVuSans-39"/>
    </g>
   </g>
   <g id="text_56">
    <!-- 8 -->
    <g transform="translate(593.476923 43.754231) scale(0.123077 -0.123077)">
     <use xlink:href="#DejaVuSans-38"/>
    </g>
   </g>
   <g id="text_57">
    <!-- 7 -->
    <g transform="translate(614.938462 43.754231) scale(0.123077 -0.123077)">
     <use xlink:href="#DejaVuSans-37"/>
    </g>
   </g>
   <g id="text_58">
    <!-- 9 -->
    <g transform="translate(636.4 43.754231) scale(0.123077 -0.123077)">
     <use xlink:href="#DejaVuSans-39"/>
    </g>
   </g>
   <g id="text_59">
    <!-- 8 -->
    <g transform="translate(657.861538 43.754231) scale(0.123077 -0.123077)">
     <use xlink:href="#DejaVuSans-38"/>
    </g>
   </g>
   <g id="text_60">
    <!-- 9 -->
    <g transform="translate(679.323077 43.754231) scale(0.123077 -0.123077)">
     <use xlink:href="#DejaVuSans-39"/>
    </g>
   </g>
   <g id="text_61">
    <!-- 0 -->
    <g transform="translate(56.938462 65.215769) scale(0.123077 -0.123077)">
     <use xlink:href="#DejaVuSans-30"/>
    </g>
   </g>
   <g id="text_62">
    <!-- 0 -->
    <g transform="translate(78.4 65.215769) scale(0.123077 -0.123077)">
     <use xlink:href="#DejaVuSans-30"/>
    </g>
   </g>
   <g id="text_63">
    <!-- 1 -->
    <g transform="translate(99.861538 65.215769) scale(0.123077 -0.123077)">
     <use xlink:href="#DejaVuSans-31"/>
    </g>
   </g>
   <g id="text_64">
    <!-- 1 -->
    <g transform="translate(121.323077 65.215769) scale(0.123077 -0.123077)">
     <use xlink:href="#DejaVuSans-31"/>
    </g>
   </g>
   <g id="text_65">
    <!-- 2 -->
    <g transform="translate(142.784615 65.215769) scale(0.123077 -0.123077)">
     <use xlink:href="#DejaVuSans-32"/>
    </g>
   </g>
   <g id="text_66">
    <!-- 2 -->
    <g transform="translate(164.246154 65.215769) scale(0.123077 -0.123077)">
     <use xlink:href="#DejaVuSans-32"/>
    </g>
   </g>
   <g id="text_67">
    <!-- 0 -->
    <g transform="translate(185.707692 65.215769) scale(0.123077 -0.123077)">
     <use xlink:href="#DejaVuSans-30"/>
    </g>
   </g>
   <g id="text_68">
    <!-- 3 -->
    <g transform="translate(207.169231 65.215769) scale(0.123077 -0.123077)">
     <use xlink:href="#DejaVuSans-33"/>
    </g>
   </g>
   <g id="text_69">
    <!-- 3 -->
    <g transform="translate(228.630769 65.215769) scale(0.123077 -0.123077)">
     <use xlink:href="#DejaVuSans-33"/>
    </g>
   </g>
   <g id="text_70">
    <!-- 1 -->
    <g transform="translate(250.092308 65.215769) scale(0.123077 -0.123077)">
     <use xlink:href="#DejaVuSans-31"/>
    </g>
   </g>
   <g id="text_71">
    <!-- 4 -->
    <g transform="translate(271.553846 65.215769) scale(0.123077 -0.123077)">
     <use xlink:href="#DejaVuSans-34"/>
    </g>
   </g>
   <g id="text_72">
    <!-- 4 -->
    <g transform="translate(293.015385 65.215769) scale(0.123077 -0.123077)">
     <use xlink:href="#DejaVuSans-34"/>
    </g>
   </g>
   <g id="text_73">
    <!-- 2 -->
    <g transform="translate(314.476923 65.215769) scale(0.123077 -0.123077)">
     <use xlink:href="#DejaVuSans-32"/>
    </g>
   </g>
   <g id="text_74">
    <!-- 5 -->
    <g transform="translate(335.938462 65.215769) scale(0.123077 -0.123077)">
     <use xlink:href="#DejaVuSans-35"/>
    </g>
   </g>
   <g id="text_75">
    <!-- 5 -->
    <g transform="translate(357.4 65.215769) scale(0.123077 -0.123077)">
     <use xlink:href="#DejaVuSans-35"/>
    </g>
   </g>
   <g id="text_76">
    <!-- 3 -->
    <g transform="translate(378.861538 65.215769) scale(0.123077 -0.123077)">
     <use xlink:href="#DejaVuSans-33"/>
    </g>
   </g>
   <g id="text_77">
    <!-- 6 -->
    <g transform="translate(400.323077 65.215769) scale(0.123077 -0.123077)">
     <use xlink:href="#DejaVuSans-36"/>
    </g>
   </g>
   <g id="text_78">
    <!-- 6 -->
    <g transform="translate(421.784615 65.215769) scale(0.123077 -0.123077)">
     <use xlink:href="#DejaVuSans-36"/>
    </g>
   </g>
   <g id="text_79">
    <!-- 4 -->
    <g transform="translate(443.246154 65.215769) scale(0.123077 -0.123077)">
     <use xlink:href="#DejaVuSans-34"/>
    </g>
   </g>
   <g id="text_80">
    <!-- 7 -->
    <g transform="translate(464.707692 65.215769) scale(0.123077 -0.123077)">
     <use xlink:href="#DejaVuSans-37"/>
    </g>
   </g>
   <g id="text_81">
    <!-- 7 -->
    <g transform="translate(486.169231 65.215769) scale(0.123077 -0.123077)">
     <use xlink:href="#DejaVuSans-37"/>
    </g>
   </g>
   <g id="text_82">
    <!-- 5 -->
    <g transform="translate(507.630769 65.215769) scale(0.123077 -0.123077)">
     <use xlink:href="#DejaVuSans-35"/>
    </g>
   </g>
   <g id="text_83">
    <!-- 8 -->
    <g transform="translate(529.092308 65.215769) scale(0.123077 -0.123077)">
     <use xlink:href="#DejaVuSans-38"/>
    </g>
   </g>
   <g id="text_84">
    <!-- 8 -->
    <g transform="translate(550.553846 65.215769) scale(0.123077 -0.123077)">
     <use xlink:href="#DejaVuSans-38"/>
    </g>
   </g>
   <g id="text_85">
    <!-- 6 -->
    <g transform="translate(572.015385 65.215769) scale(0.123077 -0.123077)">
     <use xlink:href="#DejaVuSans-36"/>
    </g>
   </g>
   <g id="text_86">
    <!-- 9 -->
    <g transform="translate(593.476923 65.215769) scale(0.123077 -0.123077)">
     <use xlink:href="#DejaVuSans-39"/>
    </g>
   </g>
   <g id="text_87">
    <!-- 9 -->
    <g transform="translate(614.938462 65.215769) scale(0.123077 -0.123077)">
     <use xlink:href="#DejaVuSans-39"/>
    </g>
   </g>
   <g id="text_88">
    <!-- 7 -->
    <g transform="translate(636.4 65.215769) scale(0.123077 -0.123077)">
     <use xlink:href="#DejaVuSans-37"/>
    </g>
   </g>
   <g id="text_89">
    <!-- 8 -->
    <g transform="translate(657.861538 65.215769) scale(0.123077 -0.123077)">
     <use xlink:href="#DejaVuSans-38"/>
    </g>
   </g>
   <g id="text_90">
    <!-- 9 -->
    <g transform="translate(679.323077 65.215769) scale(0.123077 -0.123077)">
     <use xlink:href="#DejaVuSans-39"/>
    </g>
   </g>
  </g>
 </g>
 <defs>
  <clipPath id="pb36bde9843">
   <rect x="7.2" y="7.2" width="1116" height="64.384615"/>
  </clipPath>
 </defs>
</svg>
