<?xml version="1.0" encoding="utf-8" standalone="no"?>
<!DOCTYPE svg PUBLIC "-//W3C//DTD SVG 1.1//EN"
  "http://www.w3.org/Graphics/SVG/1.1/DTD/svg11.dtd">
<svg xmlns:xlink="http://www.w3.org/1999/xlink" width="1130.4pt" height="153.9pt" viewBox="0 0 1130.4 153.9" xmlns="http://www.w3.org/2000/svg" version="1.1">
 <metadata>
  <rdf:RDF xmlns:dc="http://purl.org/dc/elements/1.1/" xmlns:cc="http://creativecommons.org/ns#" xmlns:rdf="http://www.w3.org/1999/02/22-rdf-syntax-ns#">
   <cc:Work>
    <dc:type rdf:resource="http://purl.org/dc/dcmitype/StillImage"/>
    <dc:date>2025-05-10T21:57:42.069740</dc:date>
    <dc:format>image/svg+xml</dc:format>
    <dc:creator>
     <cc:Agent>
      <dc:title>Matplotlib v3.6.3, https://matplotlib.org/</dc:title>
     </cc:Agent>
    </dc:creator>
   </cc:Work>
  </rdf:RDF>
 </metadata>
 <defs>
  <style type="text/css">*{stroke-linejoin: round; stroke-linecap: butt}</style>
 </defs>
 <g id="figure_1">
  <g id="patch_1">
   <path d="M 0 153.9 
L 1130.4 153.9 
L 1130.4 0 
L 0 0 
z
" style="fill: #ffffff"/>
  </g>
  <g id="axes_1">
   <g id="PatchCollection_1">
    <path d="M 7.2 42.075 
L 42.075 42.075 
L 42.075 7.2 
L 7.2 7.2 
z
" clip-path="url(#p3172b104ec)" style="fill: #fcb225; stroke: #000000"/>
    <path d="M 42.075 42.075 
L 76.95 42.075 
L 76.95 7.2 
L 42.075 7.2 
z
" clip-path="url(#p3172b104ec)" style="fill: #fcb225; stroke: #000000"/>
    <path d="M 76.95 42.075 
L 111.825 42.075 
L 111.825 7.2 
L 76.95 7.2 
z
" clip-path="url(#p3172b104ec)" style="fill: #fcb225; stroke: #000000"/>
    <path d="M 111.825 42.075 
L 146.7 42.075 
L 146.7 7.2 
L 111.825 7.2 
z
" clip-path="url(#p3172b104ec)" style="fill: #fcb225; stroke: #000000"/>
    <path d="M 251.325 42.075 
L 286.2 42.075 
L 286.2 7.2 
L 251.325 7.2 
z
" clip-path="url(#p3172b104ec)" style="fill: #5add4a; stroke: #000000"/>
    <path d="M 286.2 42.075 
L 321.075 42.075 
L 321.075 7.2 
L 286.2 7.2 
z
" clip-path="url(#p3172b104ec)" style="fill: #60bdfd; stroke: #000000"/>
    <path d="M 321.075 42.075 
L 355.95 42.075 
L 355.95 7.2 
L 321.075 7.2 
z
" clip-path="url(#p3172b104ec)" style="fill: #5add4a; stroke: #000000"/>
    <path d="M 355.95 42.075 
L 390.825 42.075 
L 390.825 7.2 
L 355.95 7.2 
z
" clip-path="url(#p3172b104ec)" style="fill: #60bdfd; stroke: #000000"/>
    <path d="M 390.825 42.075 
L 425.7 42.075 
L 425.7 7.2 
L 390.825 7.2 
z
" clip-path="url(#p3172b104ec)" style="fill: #5add4a; stroke: #000000"/>
    <path d="M 425.7 42.075 
L 460.575 42.075 
L 460.575 7.2 
L 425.7 7.2 
z
" clip-path="url(#p3172b104ec)" style="fill: #60bdfd; stroke: #000000"/>
    <path d="M 460.575 42.075 
L 495.45 42.075 
L 495.45 7.2 
L 460.575 7.2 
z
" clip-path="url(#p3172b104ec)" style="fill: #5add4a; stroke: #000000"/>
    <path d="M 495.45 42.075 
L 530.325 42.075 
L 530.325 7.2 
L 495.45 7.2 
z
" clip-path="url(#p3172b104ec)" style="fill: #60bdfd; stroke: #000000"/>
    <path d="M 42.075 76.95 
L 76.95 76.95 
L 76.95 42.075 
L 42.075 42.075 
z
" clip-path="url(#p3172b104ec)" style="fill: #fcb225; stroke: #000000"/>
    <path d="M 76.95 76.95 
L 111.825 76.95 
L 111.825 42.075 
L 76.95 42.075 
z
" clip-path="url(#p3172b104ec)" style="fill: #fcb225; stroke: #000000"/>
    <path d="M 111.825 76.95 
L 146.7 76.95 
L 146.7 42.075 
L 111.825 42.075 
z
" clip-path="url(#p3172b104ec)" style="fill: #fcb225; stroke: #000000"/>
    <path d="M 216.45 76.95 
L 251.325 76.95 
L 251.325 42.075 
L 216.45 42.075 
z
" clip-path="url(#p3172b104ec)" style="fill: #5add4a; stroke: #000000"/>
    <path d="M 251.325 76.95 
L 286.2 76.95 
L 286.2 42.075 
L 251.325 42.075 
z
" clip-path="url(#p3172b104ec)" style="fill: #fcb225; stroke: #000000"/>
    <path d="M 286.2 76.95 
L 321.075 76.95 
L 321.075 42.075 
L 286.2 42.075 
z
" clip-path="url(#p3172b104ec)" style="fill: #5add4a; stroke: #000000"/>
    <path d="M 321.075 76.95 
L 355.95 76.95 
L 355.95 42.075 
L 321.075 42.075 
z
" clip-path="url(#p3172b104ec)" style="fill: #60bdfd; stroke: #000000"/>
    <path d="M 355.95 76.95 
L 390.825 76.95 
L 390.825 42.075 
L 355.95 42.075 
z
" clip-path="url(#p3172b104ec)" style="fill: #5add4a; stroke: #000000"/>
    <path d="M 390.825 76.95 
L 425.7 76.95 
L 425.7 42.075 
L 390.825 42.075 
z
" clip-path="url(#p3172b104ec)" style="fill: #60bdfd; stroke: #000000"/>
    <path d="M 425.7 76.95 
L 460.575 76.95 
L 460.575 42.075 
L 425.7 42.075 
z
" clip-path="url(#p3172b104ec)" style="fill: #5add4a; stroke: #000000"/>
    <path d="M 460.575 76.95 
L 495.45 76.95 
L 495.45 42.075 
L 460.575 42.075 
z
" clip-path="url(#p3172b104ec)" style="fill: #60bdfd; stroke: #000000"/>
    <path d="M 495.45 76.95 
L 530.325 76.95 
L 530.325 42.075 
L 495.45 42.075 
z
" clip-path="url(#p3172b104ec)" style="fill: #60bdfd; stroke: #000000"/>
    <path d="M 76.95 111.825 
L 111.825 111.825 
L 111.825 76.95 
L 76.95 76.95 
z
" clip-path="url(#p3172b104ec)" style="fill: #fcb225; stroke: #000000"/>
    <path d="M 111.825 111.825 
L 146.7 111.825 
L 146.7 76.95 
L 111.825 76.95 
z
" clip-path="url(#p3172b104ec)" style="fill: #fcb225; stroke: #000000"/>
    <path d="M 181.575 111.825 
L 216.45 111.825 
L 216.45 76.95 
L 181.575 76.95 
z
" clip-path="url(#p3172b104ec)" style="fill: #5add4a; stroke: #000000"/>
    <path d="M 216.45 111.825 
L 251.325 111.825 
L 251.325 76.95 
L 216.45 76.95 
z
" clip-path="url(#p3172b104ec)" style="fill: #fcb225; stroke: #000000"/>
    <path d="M 251.325 111.825 
L 286.2 111.825 
L 286.2 76.95 
L 251.325 76.95 
z
" clip-path="url(#p3172b104ec)" style="fill: #5add4a; stroke: #000000"/>
    <path d="M 286.2 111.825 
L 321.075 111.825 
L 321.075 76.95 
L 286.2 76.95 
z
" clip-path="url(#p3172b104ec)" style="fill: #fcb225; stroke: #000000"/>
    <path d="M 321.075 111.825 
L 355.95 111.825 
L 355.95 76.95 
L 321.075 76.95 
z
" clip-path="url(#p3172b104ec)" style="fill: #5add4a; stroke: #000000"/>
    <path d="M 355.95 111.825 
L 390.825 111.825 
L 390.825 76.95 
L 355.95 76.95 
z
" clip-path="url(#p3172b104ec)" style="fill: #60bdfd; stroke: #000000"/>
    <path d="M 390.825 111.825 
L 425.7 111.825 
L 425.7 76.95 
L 390.825 76.95 
z
" clip-path="url(#p3172b104ec)" style="fill: #5add4a; stroke: #000000"/>
    <path d="M 425.7 111.825 
L 460.575 111.825 
L 460.575 76.95 
L 425.7 76.95 
z
" clip-path="url(#p3172b104ec)" style="fill: #60bdfd; stroke: #000000"/>
    <path d="M 460.575 111.825 
L 495.45 111.825 
L 495.45 76.95 
L 460.575 76.95 
z
" clip-path="url(#p3172b104ec)" style="fill: #60bdfd; stroke: #000000"/>
    <path d="M 495.45 111.825 
L 530.325 111.825 
L 530.325 76.95 
L 495.45 76.95 
z
" clip-path="url(#p3172b104ec)" style="fill: #60bdfd; stroke: #000000"/>
    <path d="M 111.825 146.7 
L 146.7 146.7 
L 146.7 111.825 
L 111.825 111.825 
z
" clip-path="url(#p3172b104ec)" style="fill: #fcb225; stroke: #000000"/>
    <path d="M 146.7 146.7 
L 181.575 146.7 
L 181.575 111.825 
L 146.7 111.825 
z
" clip-path="url(#p3172b104ec)" style="fill: #5add4a; stroke: #000000"/>
    <path d="M 181.575 146.7 
L 216.45 146.7 
L 216.45 111.825 
L 181.575 111.825 
z
" clip-path="url(#p3172b104ec)" style="fill: #fcb225; stroke: #000000"/>
    <path d="M 216.45 146.7 
L 251.325 146.7 
L 251.325 111.825 
L 216.45 111.825 
z
" clip-path="url(#p3172b104ec)" style="fill: #5add4a; stroke: #000000"/>
    <path d="M 251.325 146.7 
L 286.2 146.7 
L 286.2 111.825 
L 251.325 111.825 
z
" clip-path="url(#p3172b104ec)" style="fill: #fcb225; stroke: #000000"/>
    <path d="M 286.2 146.7 
L 321.075 146.7 
L 321.075 111.825 
L 286.2 111.825 
z
" clip-path="url(#p3172b104ec)" style="fill: #5add4a; stroke: #000000"/>
    <path d="M 321.075 146.7 
L 355.95 146.7 
L 355.95 111.825 
L 321.075 111.825 
z
" clip-path="url(#p3172b104ec)" style="fill: #fcb225; stroke: #000000"/>
    <path d="M 355.95 146.7 
L 390.825 146.7 
L 390.825 111.825 
L 355.95 111.825 
z
" clip-path="url(#p3172b104ec)" style="fill: #5add4a; stroke: #000000"/>
    <path d="M 390.825 146.7 
L 425.7 146.7 
L 425.7 111.825 
L 390.825 111.825 
z
" clip-path="url(#p3172b104ec)" style="fill: #60bdfd; stroke: #000000"/>
    <path d="M 425.7 146.7 
L 460.575 146.7 
L 460.575 111.825 
L 425.7 111.825 
z
" clip-path="url(#p3172b104ec)" style="fill: #60bdfd; stroke: #000000"/>
    <path d="M 460.575 146.7 
L 495.45 146.7 
L 495.45 111.825 
L 460.575 111.825 
z
" clip-path="url(#p3172b104ec)" style="fill: #60bdfd; stroke: #000000"/>
    <path d="M 495.45 146.7 
L 530.325 146.7 
L 530.325 111.825 
L 495.45 111.825 
z
" clip-path="url(#p3172b104ec)" style="fill: #60bdfd; stroke: #000000"/>
   </g>
   <g id="text_1">
    <!-- 0 -->
    <g transform="translate(18.275 31.725625) scale(0.2 -0.2)">
     <defs>
      <path id="DejaVuSans-30" d="M 2034 4250 
Q 1547 4250 1301 3770 
Q 1056 3291 1056 2328 
Q 1056 1369 1301 889 
Q 1547 409 2034 409 
Q 2525 409 2770 889 
Q 3016 1369 3016 2328 
Q 3016 3291 2770 3770 
Q 2525 4250 2034 4250 
z
M 2034 4750 
Q 2819 4750 3233 4129 
Q 3647 3509 3647 2328 
Q 3647 1150 3233 529 
Q 2819 -91 2034 -91 
Q 1250 -91 836 529 
Q 422 1150 422 2328 
Q 422 3509 836 4129 
Q 1250 4750 2034 4750 
z
" transform="scale(0.015625)"/>
     </defs>
     <use xlink:href="#DejaVuSans-30"/>
    </g>
   </g>
   <g id="text_2">
    <!-- 1 -->
    <g transform="translate(53.15 31.725625) scale(0.2 -0.2)">
     <defs>
      <path id="DejaVuSans-31" d="M 794 531 
L 1825 531 
L 1825 4091 
L 703 3866 
L 703 4441 
L 1819 4666 
L 2450 4666 
L 2450 531 
L 3481 531 
L 3481 0 
L 794 0 
L 794 531 
z
" transform="scale(0.015625)"/>
     </defs>
     <use xlink:href="#DejaVuSans-31"/>
    </g>
   </g>
   <g id="text_3">
    <!-- 2 -->
    <g transform="translate(88.025 31.725625) scale(0.2 -0.2)">
     <defs>
      <path id="DejaVuSans-32" d="M 1228 531 
L 3431 531 
L 3431 0 
L 469 0 
L 469 531 
Q 828 903 1448 1529 
Q 2069 2156 2228 2338 
Q 2531 2678 2651 2914 
Q 2772 3150 2772 3378 
Q 2772 3750 2511 3984 
Q 2250 4219 1831 4219 
Q 1534 4219 1204 4116 
Q 875 4013 500 3803 
L 500 4441 
Q 881 4594 1212 4672 
Q 1544 4750 1819 4750 
Q 2544 4750 2975 4387 
Q 3406 4025 3406 3419 
Q 3406 3131 3298 2873 
Q 3191 2616 2906 2266 
Q 2828 2175 2409 1742 
Q 1991 1309 1228 531 
z
" transform="scale(0.015625)"/>
     </defs>
     <use xlink:href="#DejaVuSans-32"/>
    </g>
   </g>
   <g id="text_4">
    <!-- 3 -->
    <g transform="translate(122.9 31.725625) scale(0.2 -0.2)">
     <defs>
      <path id="DejaVuSans-33" d="M 2597 2516 
Q 3050 2419 3304 2112 
Q 3559 1806 3559 1356 
Q 3559 666 3084 287 
Q 2609 -91 1734 -91 
Q 1441 -91 1130 -33 
Q 819 25 488 141 
L 488 750 
Q 750 597 1062 519 
Q 1375 441 1716 441 
Q 2309 441 2620 675 
Q 2931 909 2931 1356 
Q 2931 1769 2642 2001 
Q 2353 2234 1838 2234 
L 1294 2234 
L 1294 2753 
L 1863 2753 
Q 2328 2753 2575 2939 
Q 2822 3125 2822 3475 
Q 2822 3834 2567 4026 
Q 2313 4219 1838 4219 
Q 1578 4219 1281 4162 
Q 984 4106 628 3988 
L 628 4550 
Q 988 4650 1302 4700 
Q 1616 4750 1894 4750 
Q 2613 4750 3031 4423 
Q 3450 4097 3450 3541 
Q 3450 3153 3228 2886 
Q 3006 2619 2597 2516 
z
" transform="scale(0.015625)"/>
     </defs>
     <use xlink:href="#DejaVuSans-33"/>
    </g>
   </g>
   <g id="text_5">
    <!-- 0 -->
    <g transform="translate(262.4 31.725625) scale(0.2 -0.2)">
     <use xlink:href="#DejaVuSans-30"/>
    </g>
   </g>
   <g id="text_6">
    <!-- 0 -->
    <g transform="translate(297.275 31.725625) scale(0.2 -0.2)">
     <use xlink:href="#DejaVuSans-30"/>
    </g>
   </g>
   <g id="text_7">
    <!-- 1 -->
    <g transform="translate(332.15 31.725625) scale(0.2 -0.2)">
     <use xlink:href="#DejaVuSans-31"/>
    </g>
   </g>
   <g id="text_8">
    <!-- 1 -->
    <g transform="translate(367.025 31.725625) scale(0.2 -0.2)">
     <use xlink:href="#DejaVuSans-31"/>
    </g>
   </g>
   <g id="text_9">
    <!-- 2 -->
    <g transform="translate(401.9 31.725625) scale(0.2 -0.2)">
     <use xlink:href="#DejaVuSans-32"/>
    </g>
   </g>
   <g id="text_10">
    <!-- 2 -->
    <g transform="translate(436.775 31.725625) scale(0.2 -0.2)">
     <use xlink:href="#DejaVuSans-32"/>
    </g>
   </g>
   <g id="text_11">
    <!-- 3 -->
    <g transform="translate(471.65 31.725625) scale(0.2 -0.2)">
     <use xlink:href="#DejaVuSans-33"/>
    </g>
   </g>
   <g id="text_12">
    <!-- 3 -->
    <g transform="translate(506.525 31.725625) scale(0.2 -0.2)">
     <use xlink:href="#DejaVuSans-33"/>
    </g>
   </g>
   <g id="text_13">
    <!-- 0 -->
    <g transform="translate(53.15 66.600625) scale(0.2 -0.2)">
     <use xlink:href="#DejaVuSans-30"/>
    </g>
   </g>
   <g id="text_14">
    <!-- 1 -->
    <g transform="translate(88.025 66.600625) scale(0.2 -0.2)">
     <use xlink:href="#DejaVuSans-31"/>
    </g>
   </g>
   <g id="text_15">
    <!-- 2 -->
    <g transform="translate(122.9 66.600625) scale(0.2 -0.2)">
     <use xlink:href="#DejaVuSans-32"/>
    </g>
   </g>
   <g id="text_16">
    <!-- 0 -->
    <g transform="translate(227.525 66.600625) scale(0.2 -0.2)">
     <use xlink:href="#DejaVuSans-30"/>
    </g>
   </g>
   <g id="text_17">
    <!-- 3 -->
    <g transform="translate(262.4 66.600625) scale(0.2 -0.2)">
     <use xlink:href="#DejaVuSans-33"/>
    </g>
   </g>
   <g id="text_18">
    <!-- 1 -->
    <g transform="translate(297.275 66.600625) scale(0.2 -0.2)">
     <use xlink:href="#DejaVuSans-31"/>
    </g>
   </g>
   <g id="text_19">
    <!-- 0 -->
    <g transform="translate(332.15 66.600625) scale(0.2 -0.2)">
     <use xlink:href="#DejaVuSans-30"/>
    </g>
   </g>
   <g id="text_20">
    <!-- 2 -->
    <g transform="translate(367.025 66.600625) scale(0.2 -0.2)">
     <use xlink:href="#DejaVuSans-32"/>
    </g>
   </g>
   <g id="text_21">
    <!-- 1 -->
    <g transform="translate(401.9 66.600625) scale(0.2 -0.2)">
     <use xlink:href="#DejaVuSans-31"/>
    </g>
   </g>
   <g id="text_22">
    <!-- 3 -->
    <g transform="translate(436.775 66.600625) scale(0.2 -0.2)">
     <use xlink:href="#DejaVuSans-33"/>
    </g>
   </g>
   <g id="text_23">
    <!-- 2 -->
    <g transform="translate(471.65 66.600625) scale(0.2 -0.2)">
     <use xlink:href="#DejaVuSans-32"/>
    </g>
   </g>
   <g id="text_24">
    <!-- 3 -->
    <g transform="translate(506.525 66.600625) scale(0.2 -0.2)">
     <use xlink:href="#DejaVuSans-33"/>
    </g>
   </g>
   <g id="text_25">
    <!-- 0 -->
    <g transform="translate(88.025 101.475625) scale(0.2 -0.2)">
     <use xlink:href="#DejaVuSans-30"/>
    </g>
   </g>
   <g id="text_26">
    <!-- 1 -->
    <g transform="translate(122.9 101.475625) scale(0.2 -0.2)">
     <use xlink:href="#DejaVuSans-31"/>
    </g>
   </g>
   <g id="text_27">
    <!-- 0 -->
    <g transform="translate(192.65 101.475625) scale(0.2 -0.2)">
     <use xlink:href="#DejaVuSans-30"/>
    </g>
   </g>
   <g id="text_28">
    <!-- 2 -->
    <g transform="translate(227.525 101.475625) scale(0.2 -0.2)">
     <use xlink:href="#DejaVuSans-32"/>
    </g>
   </g>
   <g id="text_29">
    <!-- 1 -->
    <g transform="translate(262.4 101.475625) scale(0.2 -0.2)">
     <use xlink:href="#DejaVuSans-31"/>
    </g>
   </g>
   <g id="text_30">
    <!-- 3 -->
    <g transform="translate(297.275 101.475625) scale(0.2 -0.2)">
     <use xlink:href="#DejaVuSans-33"/>
    </g>
   </g>
   <g id="text_31">
    <!-- 2 -->
    <g transform="translate(332.15 101.475625) scale(0.2 -0.2)">
     <use xlink:href="#DejaVuSans-32"/>
    </g>
   </g>
   <g id="text_32">
    <!-- 0 -->
    <g transform="translate(367.025 101.475625) scale(0.2 -0.2)">
     <use xlink:href="#DejaVuSans-30"/>
    </g>
   </g>
   <g id="text_33">
    <!-- 3 -->
    <g transform="translate(401.9 101.475625) scale(0.2 -0.2)">
     <use xlink:href="#DejaVuSans-33"/>
    </g>
   </g>
   <g id="text_34">
    <!-- 1 -->
    <g transform="translate(436.775 101.475625) scale(0.2 -0.2)">
     <use xlink:href="#DejaVuSans-31"/>
    </g>
   </g>
   <g id="text_35">
    <!-- 2 -->
    <g transform="translate(471.65 101.475625) scale(0.2 -0.2)">
     <use xlink:href="#DejaVuSans-32"/>
    </g>
   </g>
   <g id="text_36">
    <!-- 3 -->
    <g transform="translate(506.525 101.475625) scale(0.2 -0.2)">
     <use xlink:href="#DejaVuSans-33"/>
    </g>
   </g>
   <g id="text_37">
    <!-- 0 -->
    <g transform="translate(122.9 136.350625) scale(0.2 -0.2)">
     <use xlink:href="#DejaVuSans-30"/>
    </g>
   </g>
   <g id="text_38">
    <!-- 0 -->
    <g transform="translate(157.775 136.350625) scale(0.2 -0.2)">
     <use xlink:href="#DejaVuSans-30"/>
    </g>
   </g>
   <g id="text_39">
    <!-- 1 -->
    <g transform="translate(192.65 136.350625) scale(0.2 -0.2)">
     <use xlink:href="#DejaVuSans-31"/>
    </g>
   </g>
   <g id="text_40">
    <!-- 1 -->
    <g transform="translate(227.525 136.350625) scale(0.2 -0.2)">
     <use xlink:href="#DejaVuSans-31"/>
    </g>
   </g>
   <g id="text_41">
    <!-- 2 -->
    <g transform="translate(262.4 136.350625) scale(0.2 -0.2)">
     <use xlink:href="#DejaVuSans-32"/>
    </g>
   </g>
   <g id="text_42">
    <!-- 2 -->
    <g transform="translate(297.275 136.350625) scale(0.2 -0.2)">
     <use xlink:href="#DejaVuSans-32"/>
    </g>
   </g>
   <g id="text_43">
    <!-- 3 -->
    <g transform="translate(332.15 136.350625) scale(0.2 -0.2)">
     <use xlink:href="#DejaVuSans-33"/>
    </g>
   </g>
   <g id="text_44">
    <!-- 3 -->
    <g transform="translate(367.025 136.350625) scale(0.2 -0.2)">
     <use xlink:href="#DejaVuSans-33"/>
    </g>
   </g>
   <g id="text_45">
    <!-- 0 -->
    <g transform="translate(401.9 136.350625) scale(0.2 -0.2)">
     <use xlink:href="#DejaVuSans-30"/>
    </g>
   </g>
   <g id="text_46">
    <!-- 1 -->
    <g transform="translate(436.775 136.350625) scale(0.2 -0.2)">
     <use xlink:href="#DejaVuSans-31"/>
    </g>
   </g>
   <g id="text_47">
    <!-- 2 -->
    <g transform="translate(471.65 136.350625) scale(0.2 -0.2)">
     <use xlink:href="#DejaVuSans-32"/>
    </g>
   </g>
   <g id="text_48">
    <!-- 3 -->
    <g transform="translate(506.525 136.350625) scale(0.2 -0.2)">
     <use xlink:href="#DejaVuSans-33"/>
    </g>
   </g>
  </g>
 </g>
 <defs>
  <clipPath id="p3172b104ec">
   <rect x="7.2" y="7.2" width="1116" height="139.5"/>
  </clipPath>
 </defs>
</svg>
