<?xml version="1.0" encoding="utf-8" standalone="no"?>
<!DOCTYPE svg PUBLIC "-//W3C//DTD SVG 1.1//EN"
  "http://www.w3.org/Graphics/SVG/1.1/DTD/svg11.dtd">
<svg xmlns:xlink="http://www.w3.org/1999/xlink" width="1130.4pt" height="141.218182pt" viewBox="0 0 1130.4 141.218182" xmlns="http://www.w3.org/2000/svg" version="1.1">
 <metadata>
  <rdf:RDF xmlns:dc="http://purl.org/dc/elements/1.1/" xmlns:cc="http://creativecommons.org/ns#" xmlns:rdf="http://www.w3.org/1999/02/22-rdf-syntax-ns#">
   <cc:Work>
    <dc:type rdf:resource="http://purl.org/dc/dcmitype/StillImage"/>
    <dc:date>2025-05-10T21:57:44.363021</dc:date>
    <dc:format>image/svg+xml</dc:format>
    <dc:creator>
     <cc:Agent>
      <dc:title>Matplotlib v3.6.3, https://matplotlib.org/</dc:title>
     </cc:Agent>
    </dc:creator>
   </cc:Work>
  </rdf:RDF>
 </metadata>
 <defs>
  <style type="text/css">*{stroke-linejoin: round; stroke-linecap: butt}</style>
 </defs>
 <g id="figure_1">
  <g id="patch_1">
   <path d="M 0 141.218182 
L 1130.4 141.218182 
L 1130.4 -0 
L 0 -0 
z
" style="fill: #ffffff"/>
  </g>
  <g id="axes_1">
   <g id="PatchCollection_1">
    <path d="M 7.2 32.563636 
L 32.563636 32.563636 
L 32.563636 7.2 
L 7.2 7.2 
z
" clip-path="url(#p65439c7d2d)" style="fill: #fcb225; stroke: #000000; stroke-width: 0.727273"/>
    <path d="M 32.563636 32.563636 
L 57.927273 32.563636 
L 57.927273 7.2 
L 32.563636 7.2 
z
" clip-path="url(#p65439c7d2d)" style="fill: #fcb225; stroke: #000000; stroke-width: 0.727273"/>
    <path d="M 57.927273 32.563636 
L 83.290909 32.563636 
L 83.290909 7.2 
L 57.927273 7.2 
z
" clip-path="url(#p65439c7d2d)" style="fill: #fcb225; stroke: #000000; stroke-width: 0.727273"/>
    <path d="M 83.290909 32.563636 
L 108.654545 32.563636 
L 108.654545 7.2 
L 83.290909 7.2 
z
" clip-path="url(#p65439c7d2d)" style="fill: #fcb225; stroke: #000000; stroke-width: 0.727273"/>
    <path d="M 108.654545 32.563636 
L 134.018182 32.563636 
L 134.018182 7.2 
L 108.654545 7.2 
z
" clip-path="url(#p65439c7d2d)" style="fill: #fcb225; stroke: #000000; stroke-width: 0.727273"/>
    <path d="M 235.472727 32.563636 
L 260.836364 32.563636 
L 260.836364 7.2 
L 235.472727 7.2 
z
" clip-path="url(#p65439c7d2d)" style="fill: #5add4a; stroke: #000000; stroke-width: 0.727273"/>
    <path d="M 260.836364 32.563636 
L 286.2 32.563636 
L 286.2 7.2 
L 260.836364 7.2 
z
" clip-path="url(#p65439c7d2d)" style="fill: #60bdfd; stroke: #000000; stroke-width: 0.727273"/>
    <path d="M 286.2 32.563636 
L 311.563636 32.563636 
L 311.563636 7.2 
L 286.2 7.2 
z
" clip-path="url(#p65439c7d2d)" style="fill: #fcb225; stroke: #000000; stroke-width: 0.727273"/>
    <path d="M 311.563636 32.563636 
L 336.927273 32.563636 
L 336.927273 7.2 
L 311.563636 7.2 
z
" clip-path="url(#p65439c7d2d)" style="fill: #5add4a; stroke: #000000; stroke-width: 0.727273"/>
    <path d="M 336.927273 32.563636 
L 362.290909 32.563636 
L 362.290909 7.2 
L 336.927273 7.2 
z
" clip-path="url(#p65439c7d2d)" style="fill: #60bdfd; stroke: #000000; stroke-width: 0.727273"/>
    <path d="M 362.290909 32.563636 
L 387.654545 32.563636 
L 387.654545 7.2 
L 362.290909 7.2 
z
" clip-path="url(#p65439c7d2d)" style="fill: #5add4a; stroke: #000000; stroke-width: 0.727273"/>
    <path d="M 387.654545 32.563636 
L 413.018182 32.563636 
L 413.018182 7.2 
L 387.654545 7.2 
z
" clip-path="url(#p65439c7d2d)" style="fill: #60bdfd; stroke: #000000; stroke-width: 0.727273"/>
    <path d="M 413.018182 32.563636 
L 438.381818 32.563636 
L 438.381818 7.2 
L 413.018182 7.2 
z
" clip-path="url(#p65439c7d2d)" style="fill: #5add4a; stroke: #000000; stroke-width: 0.727273"/>
    <path d="M 438.381818 32.563636 
L 463.745455 32.563636 
L 463.745455 7.2 
L 438.381818 7.2 
z
" clip-path="url(#p65439c7d2d)" style="fill: #60bdfd; stroke: #000000; stroke-width: 0.727273"/>
    <path d="M 463.745455 32.563636 
L 489.109091 32.563636 
L 489.109091 7.2 
L 463.745455 7.2 
z
" clip-path="url(#p65439c7d2d)" style="fill: #5add4a; stroke: #000000; stroke-width: 0.727273"/>
    <path d="M 489.109091 32.563636 
L 514.472727 32.563636 
L 514.472727 7.2 
L 489.109091 7.2 
z
" clip-path="url(#p65439c7d2d)" style="fill: #60bdfd; stroke: #000000; stroke-width: 0.727273"/>
    <path d="M 514.472727 32.563636 
L 539.836364 32.563636 
L 539.836364 7.2 
L 514.472727 7.2 
z
" clip-path="url(#p65439c7d2d)" style="fill: #5add4a; stroke: #000000; stroke-width: 0.727273"/>
    <path d="M 539.836364 32.563636 
L 565.2 32.563636 
L 565.2 7.2 
L 539.836364 7.2 
z
" clip-path="url(#p65439c7d2d)" style="fill: #60bdfd; stroke: #000000; stroke-width: 0.727273"/>
    <path d="M 32.563636 57.927273 
L 57.927273 57.927273 
L 57.927273 32.563636 
L 32.563636 32.563636 
z
" clip-path="url(#p65439c7d2d)" style="fill: #fcb225; stroke: #000000; stroke-width: 0.727273"/>
    <path d="M 57.927273 57.927273 
L 83.290909 57.927273 
L 83.290909 32.563636 
L 57.927273 32.563636 
z
" clip-path="url(#p65439c7d2d)" style="fill: #fcb225; stroke: #000000; stroke-width: 0.727273"/>
    <path d="M 83.290909 57.927273 
L 108.654545 57.927273 
L 108.654545 32.563636 
L 83.290909 32.563636 
z
" clip-path="url(#p65439c7d2d)" style="fill: #fcb225; stroke: #000000; stroke-width: 0.727273"/>
    <path d="M 108.654545 57.927273 
L 134.018182 57.927273 
L 134.018182 32.563636 
L 108.654545 32.563636 
z
" clip-path="url(#p65439c7d2d)" style="fill: #fcb225; stroke: #000000; stroke-width: 0.727273"/>
    <path d="M 210.109091 57.927273 
L 235.472727 57.927273 
L 235.472727 32.563636 
L 210.109091 32.563636 
z
" clip-path="url(#p65439c7d2d)" style="fill: #5add4a; stroke: #000000; stroke-width: 0.727273"/>
    <path d="M 235.472727 57.927273 
L 260.836364 57.927273 
L 260.836364 32.563636 
L 235.472727 32.563636 
z
" clip-path="url(#p65439c7d2d)" style="fill: #fcb225; stroke: #000000; stroke-width: 0.727273"/>
    <path d="M 260.836364 57.927273 
L 286.2 57.927273 
L 286.2 32.563636 
L 260.836364 32.563636 
z
" clip-path="url(#p65439c7d2d)" style="fill: #5add4a; stroke: #000000; stroke-width: 0.727273"/>
    <path d="M 286.2 57.927273 
L 311.563636 57.927273 
L 311.563636 32.563636 
L 286.2 32.563636 
z
" clip-path="url(#p65439c7d2d)" style="fill: #60bdfd; stroke: #000000; stroke-width: 0.727273"/>
    <path d="M 311.563636 57.927273 
L 336.927273 57.927273 
L 336.927273 32.563636 
L 311.563636 32.563636 
z
" clip-path="url(#p65439c7d2d)" style="fill: #fcb225; stroke: #000000; stroke-width: 0.727273"/>
    <path d="M 336.927273 57.927273 
L 362.290909 57.927273 
L 362.290909 32.563636 
L 336.927273 32.563636 
z
" clip-path="url(#p65439c7d2d)" style="fill: #5add4a; stroke: #000000; stroke-width: 0.727273"/>
    <path d="M 362.290909 57.927273 
L 387.654545 57.927273 
L 387.654545 32.563636 
L 362.290909 32.563636 
z
" clip-path="url(#p65439c7d2d)" style="fill: #60bdfd; stroke: #000000; stroke-width: 0.727273"/>
    <path d="M 387.654545 57.927273 
L 413.018182 57.927273 
L 413.018182 32.563636 
L 387.654545 32.563636 
z
" clip-path="url(#p65439c7d2d)" style="fill: #5add4a; stroke: #000000; stroke-width: 0.727273"/>
    <path d="M 413.018182 57.927273 
L 438.381818 57.927273 
L 438.381818 32.563636 
L 413.018182 32.563636 
z
" clip-path="url(#p65439c7d2d)" style="fill: #60bdfd; stroke: #000000; stroke-width: 0.727273"/>
    <path d="M 438.381818 57.927273 
L 463.745455 57.927273 
L 463.745455 32.563636 
L 438.381818 32.563636 
z
" clip-path="url(#p65439c7d2d)" style="fill: #5add4a; stroke: #000000; stroke-width: 0.727273"/>
    <path d="M 463.745455 57.927273 
L 489.109091 57.927273 
L 489.109091 32.563636 
L 463.745455 32.563636 
z
" clip-path="url(#p65439c7d2d)" style="fill: #60bdfd; stroke: #000000; stroke-width: 0.727273"/>
    <path d="M 489.109091 57.927273 
L 514.472727 57.927273 
L 514.472727 32.563636 
L 489.109091 32.563636 
z
" clip-path="url(#p65439c7d2d)" style="fill: #5add4a; stroke: #000000; stroke-width: 0.727273"/>
    <path d="M 514.472727 57.927273 
L 539.836364 57.927273 
L 539.836364 32.563636 
L 514.472727 32.563636 
z
" clip-path="url(#p65439c7d2d)" style="fill: #60bdfd; stroke: #000000; stroke-width: 0.727273"/>
    <path d="M 539.836364 57.927273 
L 565.2 57.927273 
L 565.2 32.563636 
L 539.836364 32.563636 
z
" clip-path="url(#p65439c7d2d)" style="fill: #60bdfd; stroke: #000000; stroke-width: 0.727273"/>
    <path d="M 57.927273 83.290909 
L 83.290909 83.290909 
L 83.290909 57.927273 
L 57.927273 57.927273 
z
" clip-path="url(#p65439c7d2d)" style="fill: #fcb225; stroke: #000000; stroke-width: 0.727273"/>
    <path d="M 83.290909 83.290909 
L 108.654545 83.290909 
L 108.654545 57.927273 
L 83.290909 57.927273 
z
" clip-path="url(#p65439c7d2d)" style="fill: #fcb225; stroke: #000000; stroke-width: 0.727273"/>
    <path d="M 108.654545 83.290909 
L 134.018182 83.290909 
L 134.018182 57.927273 
L 108.654545 57.927273 
z
" clip-path="url(#p65439c7d2d)" style="fill: #fcb225; stroke: #000000; stroke-width: 0.727273"/>
    <path d="M 184.745455 83.290909 
L 210.109091 83.290909 
L 210.109091 57.927273 
L 184.745455 57.927273 
z
" clip-path="url(#p65439c7d2d)" style="fill: #5add4a; stroke: #000000; stroke-width: 0.727273"/>
    <path d="M 210.109091 83.290909 
L 235.472727 83.290909 
L 235.472727 57.927273 
L 210.109091 57.927273 
z
" clip-path="url(#p65439c7d2d)" style="fill: #fcb225; stroke: #000000; stroke-width: 0.727273"/>
    <path d="M 235.472727 83.290909 
L 260.836364 83.290909 
L 260.836364 57.927273 
L 235.472727 57.927273 
z
" clip-path="url(#p65439c7d2d)" style="fill: #5add4a; stroke: #000000; stroke-width: 0.727273"/>
    <path d="M 260.836364 83.290909 
L 286.2 83.290909 
L 286.2 57.927273 
L 260.836364 57.927273 
z
" clip-path="url(#p65439c7d2d)" style="fill: #fcb225; stroke: #000000; stroke-width: 0.727273"/>
    <path d="M 286.2 83.290909 
L 311.563636 83.290909 
L 311.563636 57.927273 
L 286.2 57.927273 
z
" clip-path="url(#p65439c7d2d)" style="fill: #5add4a; stroke: #000000; stroke-width: 0.727273"/>
    <path d="M 311.563636 83.290909 
L 336.927273 83.290909 
L 336.927273 57.927273 
L 311.563636 57.927273 
z
" clip-path="url(#p65439c7d2d)" style="fill: #60bdfd; stroke: #000000; stroke-width: 0.727273"/>
    <path d="M 336.927273 83.290909 
L 362.290909 83.290909 
L 362.290909 57.927273 
L 336.927273 57.927273 
z
" clip-path="url(#p65439c7d2d)" style="fill: #fcb225; stroke: #000000; stroke-width: 0.727273"/>
    <path d="M 362.290909 83.290909 
L 387.654545 83.290909 
L 387.654545 57.927273 
L 362.290909 57.927273 
z
" clip-path="url(#p65439c7d2d)" style="fill: #5add4a; stroke: #000000; stroke-width: 0.727273"/>
    <path d="M 387.654545 83.290909 
L 413.018182 83.290909 
L 413.018182 57.927273 
L 387.654545 57.927273 
z
" clip-path="url(#p65439c7d2d)" style="fill: #60bdfd; stroke: #000000; stroke-width: 0.727273"/>
    <path d="M 413.018182 83.290909 
L 438.381818 83.290909 
L 438.381818 57.927273 
L 413.018182 57.927273 
z
" clip-path="url(#p65439c7d2d)" style="fill: #5add4a; stroke: #000000; stroke-width: 0.727273"/>
    <path d="M 438.381818 83.290909 
L 463.745455 83.290909 
L 463.745455 57.927273 
L 438.381818 57.927273 
z
" clip-path="url(#p65439c7d2d)" style="fill: #60bdfd; stroke: #000000; stroke-width: 0.727273"/>
    <path d="M 463.745455 83.290909 
L 489.109091 83.290909 
L 489.109091 57.927273 
L 463.745455 57.927273 
z
" clip-path="url(#p65439c7d2d)" style="fill: #5add4a; stroke: #000000; stroke-width: 0.727273"/>
    <path d="M 489.109091 83.290909 
L 514.472727 83.290909 
L 514.472727 57.927273 
L 489.109091 57.927273 
z
" clip-path="url(#p65439c7d2d)" style="fill: #60bdfd; stroke: #000000; stroke-width: 0.727273"/>
    <path d="M 514.472727 83.290909 
L 539.836364 83.290909 
L 539.836364 57.927273 
L 514.472727 57.927273 
z
" clip-path="url(#p65439c7d2d)" style="fill: #60bdfd; stroke: #000000; stroke-width: 0.727273"/>
    <path d="M 539.836364 83.290909 
L 565.2 83.290909 
L 565.2 57.927273 
L 539.836364 57.927273 
z
" clip-path="url(#p65439c7d2d)" style="fill: #60bdfd; stroke: #000000; stroke-width: 0.727273"/>
    <path d="M 83.290909 108.654545 
L 108.654545 108.654545 
L 108.654545 83.290909 
L 83.290909 83.290909 
z
" clip-path="url(#p65439c7d2d)" style="fill: #fcb225; stroke: #000000; stroke-width: 0.727273"/>
    <path d="M 108.654545 108.654545 
L 134.018182 108.654545 
L 134.018182 83.290909 
L 108.654545 83.290909 
z
" clip-path="url(#p65439c7d2d)" style="fill: #fcb225; stroke: #000000; stroke-width: 0.727273"/>
    <path d="M 159.381818 108.654545 
L 184.745455 108.654545 
L 184.745455 83.290909 
L 159.381818 83.290909 
z
" clip-path="url(#p65439c7d2d)" style="fill: #5add4a; stroke: #000000; stroke-width: 0.727273"/>
    <path d="M 184.745455 108.654545 
L 210.109091 108.654545 
L 210.109091 83.290909 
L 184.745455 83.290909 
z
" clip-path="url(#p65439c7d2d)" style="fill: #fcb225; stroke: #000000; stroke-width: 0.727273"/>
    <path d="M 210.109091 108.654545 
L 235.472727 108.654545 
L 235.472727 83.290909 
L 210.109091 83.290909 
z
" clip-path="url(#p65439c7d2d)" style="fill: #5add4a; stroke: #000000; stroke-width: 0.727273"/>
    <path d="M 235.472727 108.654545 
L 260.836364 108.654545 
L 260.836364 83.290909 
L 235.472727 83.290909 
z
" clip-path="url(#p65439c7d2d)" style="fill: #fcb225; stroke: #000000; stroke-width: 0.727273"/>
    <path d="M 260.836364 108.654545 
L 286.2 108.654545 
L 286.2 83.290909 
L 260.836364 83.290909 
z
" clip-path="url(#p65439c7d2d)" style="fill: #5add4a; stroke: #000000; stroke-width: 0.727273"/>
    <path d="M 286.2 108.654545 
L 311.563636 108.654545 
L 311.563636 83.290909 
L 286.2 83.290909 
z
" clip-path="url(#p65439c7d2d)" style="fill: #fcb225; stroke: #000000; stroke-width: 0.727273"/>
    <path d="M 311.563636 108.654545 
L 336.927273 108.654545 
L 336.927273 83.290909 
L 311.563636 83.290909 
z
" clip-path="url(#p65439c7d2d)" style="fill: #5add4a; stroke: #000000; stroke-width: 0.727273"/>
    <path d="M 336.927273 108.654545 
L 362.290909 108.654545 
L 362.290909 83.290909 
L 336.927273 83.290909 
z
" clip-path="url(#p65439c7d2d)" style="fill: #60bdfd; stroke: #000000; stroke-width: 0.727273"/>
    <path d="M 362.290909 108.654545 
L 387.654545 108.654545 
L 387.654545 83.290909 
L 362.290909 83.290909 
z
" clip-path="url(#p65439c7d2d)" style="fill: #fcb225; stroke: #000000; stroke-width: 0.727273"/>
    <path d="M 387.654545 108.654545 
L 413.018182 108.654545 
L 413.018182 83.290909 
L 387.654545 83.290909 
z
" clip-path="url(#p65439c7d2d)" style="fill: #5add4a; stroke: #000000; stroke-width: 0.727273"/>
    <path d="M 413.018182 108.654545 
L 438.381818 108.654545 
L 438.381818 83.290909 
L 413.018182 83.290909 
z
" clip-path="url(#p65439c7d2d)" style="fill: #60bdfd; stroke: #000000; stroke-width: 0.727273"/>
    <path d="M 438.381818 108.654545 
L 463.745455 108.654545 
L 463.745455 83.290909 
L 438.381818 83.290909 
z
" clip-path="url(#p65439c7d2d)" style="fill: #5add4a; stroke: #000000; stroke-width: 0.727273"/>
    <path d="M 463.745455 108.654545 
L 489.109091 108.654545 
L 489.109091 83.290909 
L 463.745455 83.290909 
z
" clip-path="url(#p65439c7d2d)" style="fill: #60bdfd; stroke: #000000; stroke-width: 0.727273"/>
    <path d="M 489.109091 108.654545 
L 514.472727 108.654545 
L 514.472727 83.290909 
L 489.109091 83.290909 
z
" clip-path="url(#p65439c7d2d)" style="fill: #60bdfd; stroke: #000000; stroke-width: 0.727273"/>
    <path d="M 514.472727 108.654545 
L 539.836364 108.654545 
L 539.836364 83.290909 
L 514.472727 83.290909 
z
" clip-path="url(#p65439c7d2d)" style="fill: #60bdfd; stroke: #000000; stroke-width: 0.727273"/>
    <path d="M 539.836364 108.654545 
L 565.2 108.654545 
L 565.2 83.290909 
L 539.836364 83.290909 
z
" clip-path="url(#p65439c7d2d)" style="fill: #60bdfd; stroke: #000000; stroke-width: 0.727273"/>
    <path d="M 108.654545 134.018182 
L 134.018182 134.018182 
L 134.018182 108.654545 
L 108.654545 108.654545 
z
" clip-path="url(#p65439c7d2d)" style="fill: #fcb225; stroke: #000000; stroke-width: 0.727273"/>
    <path d="M 134.018182 134.018182 
L 159.381818 134.018182 
L 159.381818 108.654545 
L 134.018182 108.654545 
z
" clip-path="url(#p65439c7d2d)" style="fill: #5add4a; stroke: #000000; stroke-width: 0.727273"/>
    <path d="M 159.381818 134.018182 
L 184.745455 134.018182 
L 184.745455 108.654545 
L 159.381818 108.654545 
z
" clip-path="url(#p65439c7d2d)" style="fill: #fcb225; stroke: #000000; stroke-width: 0.727273"/>
    <path d="M 184.745455 134.018182 
L 210.109091 134.018182 
L 210.109091 108.654545 
L 184.745455 108.654545 
z
" clip-path="url(#p65439c7d2d)" style="fill: #5add4a; stroke: #000000; stroke-width: 0.727273"/>
    <path d="M 210.109091 134.018182 
L 235.472727 134.018182 
L 235.472727 108.654545 
L 210.109091 108.654545 
z
" clip-path="url(#p65439c7d2d)" style="fill: #fcb225; stroke: #000000; stroke-width: 0.727273"/>
    <path d="M 235.472727 134.018182 
L 260.836364 134.018182 
L 260.836364 108.654545 
L 235.472727 108.654545 
z
" clip-path="url(#p65439c7d2d)" style="fill: #5add4a; stroke: #000000; stroke-width: 0.727273"/>
    <path d="M 260.836364 134.018182 
L 286.2 134.018182 
L 286.2 108.654545 
L 260.836364 108.654545 
z
" clip-path="url(#p65439c7d2d)" style="fill: #fcb225; stroke: #000000; stroke-width: 0.727273"/>
    <path d="M 286.2 134.018182 
L 311.563636 134.018182 
L 311.563636 108.654545 
L 286.2 108.654545 
z
" clip-path="url(#p65439c7d2d)" style="fill: #5add4a; stroke: #000000; stroke-width: 0.727273"/>
    <path d="M 311.563636 134.018182 
L 336.927273 134.018182 
L 336.927273 108.654545 
L 311.563636 108.654545 
z
" clip-path="url(#p65439c7d2d)" style="fill: #fcb225; stroke: #000000; stroke-width: 0.727273"/>
    <path d="M 336.927273 134.018182 
L 362.290909 134.018182 
L 362.290909 108.654545 
L 336.927273 108.654545 
z
" clip-path="url(#p65439c7d2d)" style="fill: #5add4a; stroke: #000000; stroke-width: 0.727273"/>
    <path d="M 362.290909 134.018182 
L 387.654545 134.018182 
L 387.654545 108.654545 
L 362.290909 108.654545 
z
" clip-path="url(#p65439c7d2d)" style="fill: #60bdfd; stroke: #000000; stroke-width: 0.727273"/>
    <path d="M 387.654545 134.018182 
L 413.018182 134.018182 
L 413.018182 108.654545 
L 387.654545 108.654545 
z
" clip-path="url(#p65439c7d2d)" style="fill: #fcb225; stroke: #000000; stroke-width: 0.727273"/>
    <path d="M 413.018182 134.018182 
L 438.381818 134.018182 
L 438.381818 108.654545 
L 413.018182 108.654545 
z
" clip-path="url(#p65439c7d2d)" style="fill: #5add4a; stroke: #000000; stroke-width: 0.727273"/>
    <path d="M 438.381818 134.018182 
L 463.745455 134.018182 
L 463.745455 108.654545 
L 438.381818 108.654545 
z
" clip-path="url(#p65439c7d2d)" style="fill: #60bdfd; stroke: #000000; stroke-width: 0.727273"/>
    <path d="M 463.745455 134.018182 
L 489.109091 134.018182 
L 489.109091 108.654545 
L 463.745455 108.654545 
z
" clip-path="url(#p65439c7d2d)" style="fill: #60bdfd; stroke: #000000; stroke-width: 0.727273"/>
    <path d="M 489.109091 134.018182 
L 514.472727 134.018182 
L 514.472727 108.654545 
L 489.109091 108.654545 
z
" clip-path="url(#p65439c7d2d)" style="fill: #60bdfd; stroke: #000000; stroke-width: 0.727273"/>
    <path d="M 514.472727 134.018182 
L 539.836364 134.018182 
L 539.836364 108.654545 
L 514.472727 108.654545 
z
" clip-path="url(#p65439c7d2d)" style="fill: #60bdfd; stroke: #000000; stroke-width: 0.727273"/>
    <path d="M 539.836364 134.018182 
L 565.2 134.018182 
L 565.2 108.654545 
L 539.836364 108.654545 
z
" clip-path="url(#p65439c7d2d)" style="fill: #60bdfd; stroke: #000000; stroke-width: 0.727273"/>
   </g>
   <g id="text_1">
    <!-- 0 -->
    <g transform="translate(15.254545 25.036818) scale(0.145455 -0.145455)">
     <defs>
      <path id="DejaVuSans-30" d="M 2034 4250 
Q 1547 4250 1301 3770 
Q 1056 3291 1056 2328 
Q 1056 1369 1301 889 
Q 1547 409 2034 409 
Q 2525 409 2770 889 
Q 3016 1369 3016 2328 
Q 3016 3291 2770 3770 
Q 2525 4250 2034 4250 
z
M 2034 4750 
Q 2819 4750 3233 4129 
Q 3647 3509 3647 2328 
Q 3647 1150 3233 529 
Q 2819 -91 2034 -91 
Q 1250 -91 836 529 
Q 422 1150 422 2328 
Q 422 3509 836 4129 
Q 1250 4750 2034 4750 
z
" transform="scale(0.015625)"/>
     </defs>
     <use xlink:href="#DejaVuSans-30"/>
    </g>
   </g>
   <g id="text_2">
    <!-- 1 -->
    <g transform="translate(40.618182 25.036818) scale(0.145455 -0.145455)">
     <defs>
      <path id="DejaVuSans-31" d="M 794 531 
L 1825 531 
L 1825 4091 
L 703 3866 
L 703 4441 
L 1819 4666 
L 2450 4666 
L 2450 531 
L 3481 531 
L 3481 0 
L 794 0 
L 794 531 
z
" transform="scale(0.015625)"/>
     </defs>
     <use xlink:href="#DejaVuSans-31"/>
    </g>
   </g>
   <g id="text_3">
    <!-- 2 -->
    <g transform="translate(65.981818 25.036818) scale(0.145455 -0.145455)">
     <defs>
      <path id="DejaVuSans-32" d="M 1228 531 
L 3431 531 
L 3431 0 
L 469 0 
L 469 531 
Q 828 903 1448 1529 
Q 2069 2156 2228 2338 
Q 2531 2678 2651 2914 
Q 2772 3150 2772 3378 
Q 2772 3750 2511 3984 
Q 2250 4219 1831 4219 
Q 1534 4219 1204 4116 
Q 875 4013 500 3803 
L 500 4441 
Q 881 4594 1212 4672 
Q 1544 4750 1819 4750 
Q 2544 4750 2975 4387 
Q 3406 4025 3406 3419 
Q 3406 3131 3298 2873 
Q 3191 2616 2906 2266 
Q 2828 2175 2409 1742 
Q 1991 1309 1228 531 
z
" transform="scale(0.015625)"/>
     </defs>
     <use xlink:href="#DejaVuSans-32"/>
    </g>
   </g>
   <g id="text_4">
    <!-- 3 -->
    <g transform="translate(91.345455 25.036818) scale(0.145455 -0.145455)">
     <defs>
      <path id="DejaVuSans-33" d="M 2597 2516 
Q 3050 2419 3304 2112 
Q 3559 1806 3559 1356 
Q 3559 666 3084 287 
Q 2609 -91 1734 -91 
Q 1441 -91 1130 -33 
Q 819 25 488 141 
L 488 750 
Q 750 597 1062 519 
Q 1375 441 1716 441 
Q 2309 441 2620 675 
Q 2931 909 2931 1356 
Q 2931 1769 2642 2001 
Q 2353 2234 1838 2234 
L 1294 2234 
L 1294 2753 
L 1863 2753 
Q 2328 2753 2575 2939 
Q 2822 3125 2822 3475 
Q 2822 3834 2567 4026 
Q 2313 4219 1838 4219 
Q 1578 4219 1281 4162 
Q 984 4106 628 3988 
L 628 4550 
Q 988 4650 1302 4700 
Q 1616 4750 1894 4750 
Q 2613 4750 3031 4423 
Q 3450 4097 3450 3541 
Q 3450 3153 3228 2886 
Q 3006 2619 2597 2516 
z
" transform="scale(0.015625)"/>
     </defs>
     <use xlink:href="#DejaVuSans-33"/>
    </g>
   </g>
   <g id="text_5">
    <!-- 4 -->
    <g transform="translate(116.709091 25.036818) scale(0.145455 -0.145455)">
     <defs>
      <path id="DejaVuSans-34" d="M 2419 4116 
L 825 1625 
L 2419 1625 
L 2419 4116 
z
M 2253 4666 
L 3047 4666 
L 3047 1625 
L 3713 1625 
L 3713 1100 
L 3047 1100 
L 3047 0 
L 2419 0 
L 2419 1100 
L 313 1100 
L 313 1709 
L 2253 4666 
z
" transform="scale(0.015625)"/>
     </defs>
     <use xlink:href="#DejaVuSans-34"/>
    </g>
   </g>
   <g id="text_6">
    <!-- 0 -->
    <g transform="translate(243.527273 25.036818) scale(0.145455 -0.145455)">
     <use xlink:href="#DejaVuSans-30"/>
    </g>
   </g>
   <g id="text_7">
    <!-- 0 -->
    <g transform="translate(268.890909 25.036818) scale(0.145455 -0.145455)">
     <use xlink:href="#DejaVuSans-30"/>
    </g>
   </g>
   <g id="text_8">
    <!-- 5 -->
    <g transform="translate(294.254545 25.036818) scale(0.145455 -0.145455)">
     <defs>
      <path id="DejaVuSans-35" d="M 691 4666 
L 3169 4666 
L 3169 4134 
L 1269 4134 
L 1269 2991 
Q 1406 3038 1543 3061 
Q 1681 3084 1819 3084 
Q 2600 3084 3056 2656 
Q 3513 2228 3513 1497 
Q 3513 744 3044 326 
Q 2575 -91 1722 -91 
Q 1428 -91 1123 -41 
Q 819 9 494 109 
L 494 744 
Q 775 591 1075 516 
Q 1375 441 1709 441 
Q 2250 441 2565 725 
Q 2881 1009 2881 1497 
Q 2881 1984 2565 2268 
Q 2250 2553 1709 2553 
Q 1456 2553 1204 2497 
Q 953 2441 691 2322 
L 691 4666 
z
" transform="scale(0.015625)"/>
     </defs>
     <use xlink:href="#DejaVuSans-35"/>
    </g>
   </g>
   <g id="text_9">
    <!-- 1 -->
    <g transform="translate(319.618182 25.036818) scale(0.145455 -0.145455)">
     <use xlink:href="#DejaVuSans-31"/>
    </g>
   </g>
   <g id="text_10">
    <!-- 1 -->
    <g transform="translate(344.981818 25.036818) scale(0.145455 -0.145455)">
     <use xlink:href="#DejaVuSans-31"/>
    </g>
   </g>
   <g id="text_11">
    <!-- 2 -->
    <g transform="translate(370.345455 25.036818) scale(0.145455 -0.145455)">
     <use xlink:href="#DejaVuSans-32"/>
    </g>
   </g>
   <g id="text_12">
    <!-- 2 -->
    <g transform="translate(395.709091 25.036818) scale(0.145455 -0.145455)">
     <use xlink:href="#DejaVuSans-32"/>
    </g>
   </g>
   <g id="text_13">
    <!-- 3 -->
    <g transform="translate(421.072727 25.036818) scale(0.145455 -0.145455)">
     <use xlink:href="#DejaVuSans-33"/>
    </g>
   </g>
   <g id="text_14">
    <!-- 3 -->
    <g transform="translate(446.436364 25.036818) scale(0.145455 -0.145455)">
     <use xlink:href="#DejaVuSans-33"/>
    </g>
   </g>
   <g id="text_15">
    <!-- 4 -->
    <g transform="translate(471.8 25.036818) scale(0.145455 -0.145455)">
     <use xlink:href="#DejaVuSans-34"/>
    </g>
   </g>
   <g id="text_16">
    <!-- 4 -->
    <g transform="translate(497.163636 25.036818) scale(0.145455 -0.145455)">
     <use xlink:href="#DejaVuSans-34"/>
    </g>
   </g>
   <g id="text_17">
    <!-- 5 -->
    <g transform="translate(522.527273 25.036818) scale(0.145455 -0.145455)">
     <use xlink:href="#DejaVuSans-35"/>
    </g>
   </g>
   <g id="text_18">
    <!-- 5 -->
    <g transform="translate(547.890909 25.036818) scale(0.145455 -0.145455)">
     <use xlink:href="#DejaVuSans-35"/>
    </g>
   </g>
   <g id="text_19">
    <!-- 0 -->
    <g transform="translate(40.618182 50.400455) scale(0.145455 -0.145455)">
     <use xlink:href="#DejaVuSans-30"/>
    </g>
   </g>
   <g id="text_20">
    <!-- 1 -->
    <g transform="translate(65.981818 50.400455) scale(0.145455 -0.145455)">
     <use xlink:href="#DejaVuSans-31"/>
    </g>
   </g>
   <g id="text_21">
    <!-- 2 -->
    <g transform="translate(91.345455 50.400455) scale(0.145455 -0.145455)">
     <use xlink:href="#DejaVuSans-32"/>
    </g>
   </g>
   <g id="text_22">
    <!-- 3 -->
    <g transform="translate(116.709091 50.400455) scale(0.145455 -0.145455)">
     <use xlink:href="#DejaVuSans-33"/>
    </g>
   </g>
   <g id="text_23">
    <!-- 0 -->
    <g transform="translate(218.163636 50.400455) scale(0.145455 -0.145455)">
     <use xlink:href="#DejaVuSans-30"/>
    </g>
   </g>
   <g id="text_24">
    <!-- 4 -->
    <g transform="translate(243.527273 50.400455) scale(0.145455 -0.145455)">
     <use xlink:href="#DejaVuSans-34"/>
    </g>
   </g>
   <g id="text_25">
    <!-- 1 -->
    <g transform="translate(268.890909 50.400455) scale(0.145455 -0.145455)">
     <use xlink:href="#DejaVuSans-31"/>
    </g>
   </g>
   <g id="text_26">
    <!-- 0 -->
    <g transform="translate(294.254545 50.400455) scale(0.145455 -0.145455)">
     <use xlink:href="#DejaVuSans-30"/>
    </g>
   </g>
   <g id="text_27">
    <!-- 5 -->
    <g transform="translate(319.618182 50.400455) scale(0.145455 -0.145455)">
     <use xlink:href="#DejaVuSans-35"/>
    </g>
   </g>
   <g id="text_28">
    <!-- 2 -->
    <g transform="translate(344.981818 50.400455) scale(0.145455 -0.145455)">
     <use xlink:href="#DejaVuSans-32"/>
    </g>
   </g>
   <g id="text_29">
    <!-- 1 -->
    <g transform="translate(370.345455 50.400455) scale(0.145455 -0.145455)">
     <use xlink:href="#DejaVuSans-31"/>
    </g>
   </g>
   <g id="text_30">
    <!-- 3 -->
    <g transform="translate(395.709091 50.400455) scale(0.145455 -0.145455)">
     <use xlink:href="#DejaVuSans-33"/>
    </g>
   </g>
   <g id="text_31">
    <!-- 2 -->
    <g transform="translate(421.072727 50.400455) scale(0.145455 -0.145455)">
     <use xlink:href="#DejaVuSans-32"/>
    </g>
   </g>
   <g id="text_32">
    <!-- 4 -->
    <g transform="translate(446.436364 50.400455) scale(0.145455 -0.145455)">
     <use xlink:href="#DejaVuSans-34"/>
    </g>
   </g>
   <g id="text_33">
    <!-- 3 -->
    <g transform="translate(471.8 50.400455) scale(0.145455 -0.145455)">
     <use xlink:href="#DejaVuSans-33"/>
    </g>
   </g>
   <g id="text_34">
    <!-- 5 -->
    <g transform="translate(497.163636 50.400455) scale(0.145455 -0.145455)">
     <use xlink:href="#DejaVuSans-35"/>
    </g>
   </g>
   <g id="text_35">
    <!-- 4 -->
    <g transform="translate(522.527273 50.400455) scale(0.145455 -0.145455)">
     <use xlink:href="#DejaVuSans-34"/>
    </g>
   </g>
   <g id="text_36">
    <!-- 5 -->
    <g transform="translate(547.890909 50.400455) scale(0.145455 -0.145455)">
     <use xlink:href="#DejaVuSans-35"/>
    </g>
   </g>
   <g id="text_37">
    <!-- 0 -->
    <g transform="translate(65.981818 75.764091) scale(0.145455 -0.145455)">
     <use xlink:href="#DejaVuSans-30"/>
    </g>
   </g>
   <g id="text_38">
    <!-- 1 -->
    <g transform="translate(91.345455 75.764091) scale(0.145455 -0.145455)">
     <use xlink:href="#DejaVuSans-31"/>
    </g>
   </g>
   <g id="text_39">
    <!-- 2 -->
    <g transform="translate(116.709091 75.764091) scale(0.145455 -0.145455)">
     <use xlink:href="#DejaVuSans-32"/>
    </g>
   </g>
   <g id="text_40">
    <!-- 0 -->
    <g transform="translate(192.8 75.764091) scale(0.145455 -0.145455)">
     <use xlink:href="#DejaVuSans-30"/>
    </g>
   </g>
   <g id="text_41">
    <!-- 3 -->
    <g transform="translate(218.163636 75.764091) scale(0.145455 -0.145455)">
     <use xlink:href="#DejaVuSans-33"/>
    </g>
   </g>
   <g id="text_42">
    <!-- 1 -->
    <g transform="translate(243.527273 75.764091) scale(0.145455 -0.145455)">
     <use xlink:href="#DejaVuSans-31"/>
    </g>
   </g>
   <g id="text_43">
    <!-- 4 -->
    <g transform="translate(268.890909 75.764091) scale(0.145455 -0.145455)">
     <use xlink:href="#DejaVuSans-34"/>
    </g>
   </g>
   <g id="text_44">
    <!-- 2 -->
    <g transform="translate(294.254545 75.764091) scale(0.145455 -0.145455)">
     <use xlink:href="#DejaVuSans-32"/>
    </g>
   </g>
   <g id="text_45">
    <!-- 0 -->
    <g transform="translate(319.618182 75.764091) scale(0.145455 -0.145455)">
     <use xlink:href="#DejaVuSans-30"/>
    </g>
   </g>
   <g id="text_46">
    <!-- 5 -->
    <g transform="translate(344.981818 75.764091) scale(0.145455 -0.145455)">
     <use xlink:href="#DejaVuSans-35"/>
    </g>
   </g>
   <g id="text_47">
    <!-- 3 -->
    <g transform="translate(370.345455 75.764091) scale(0.145455 -0.145455)">
     <use xlink:href="#DejaVuSans-33"/>
    </g>
   </g>
   <g id="text_48">
    <!-- 1 -->
    <g transform="translate(395.709091 75.764091) scale(0.145455 -0.145455)">
     <use xlink:href="#DejaVuSans-31"/>
    </g>
   </g>
   <g id="text_49">
    <!-- 4 -->
    <g transform="translate(421.072727 75.764091) scale(0.145455 -0.145455)">
     <use xlink:href="#DejaVuSans-34"/>
    </g>
   </g>
   <g id="text_50">
    <!-- 2 -->
    <g transform="translate(446.436364 75.764091) scale(0.145455 -0.145455)">
     <use xlink:href="#DejaVuSans-32"/>
    </g>
   </g>
   <g id="text_51">
    <!-- 5 -->
    <g transform="translate(471.8 75.764091) scale(0.145455 -0.145455)">
     <use xlink:href="#DejaVuSans-35"/>
    </g>
   </g>
   <g id="text_52">
    <!-- 3 -->
    <g transform="translate(497.163636 75.764091) scale(0.145455 -0.145455)">
     <use xlink:href="#DejaVuSans-33"/>
    </g>
   </g>
   <g id="text_53">
    <!-- 4 -->
    <g transform="translate(522.527273 75.764091) scale(0.145455 -0.145455)">
     <use xlink:href="#DejaVuSans-34"/>
    </g>
   </g>
   <g id="text_54">
    <!-- 5 -->
    <g transform="translate(547.890909 75.764091) scale(0.145455 -0.145455)">
     <use xlink:href="#DejaVuSans-35"/>
    </g>
   </g>
   <g id="text_55">
    <!-- 0 -->
    <g transform="translate(91.345455 101.127727) scale(0.145455 -0.145455)">
     <use xlink:href="#DejaVuSans-30"/>
    </g>
   </g>
   <g id="text_56">
    <!-- 1 -->
    <g transform="translate(116.709091 101.127727) scale(0.145455 -0.145455)">
     <use xlink:href="#DejaVuSans-31"/>
    </g>
   </g>
   <g id="text_57">
    <!-- 0 -->
    <g transform="translate(167.436364 101.127727) scale(0.145455 -0.145455)">
     <use xlink:href="#DejaVuSans-30"/>
    </g>
   </g>
   <g id="text_58">
    <!-- 2 -->
    <g transform="translate(192.8 101.127727) scale(0.145455 -0.145455)">
     <use xlink:href="#DejaVuSans-32"/>
    </g>
   </g>
   <g id="text_59">
    <!-- 1 -->
    <g transform="translate(218.163636 101.127727) scale(0.145455 -0.145455)">
     <use xlink:href="#DejaVuSans-31"/>
    </g>
   </g>
   <g id="text_60">
    <!-- 3 -->
    <g transform="translate(243.527273 101.127727) scale(0.145455 -0.145455)">
     <use xlink:href="#DejaVuSans-33"/>
    </g>
   </g>
   <g id="text_61">
    <!-- 2 -->
    <g transform="translate(268.890909 101.127727) scale(0.145455 -0.145455)">
     <use xlink:href="#DejaVuSans-32"/>
    </g>
   </g>
   <g id="text_62">
    <!-- 4 -->
    <g transform="translate(294.254545 101.127727) scale(0.145455 -0.145455)">
     <use xlink:href="#DejaVuSans-34"/>
    </g>
   </g>
   <g id="text_63">
    <!-- 3 -->
    <g transform="translate(319.618182 101.127727) scale(0.145455 -0.145455)">
     <use xlink:href="#DejaVuSans-33"/>
    </g>
   </g>
   <g id="text_64">
    <!-- 0 -->
    <g transform="translate(344.981818 101.127727) scale(0.145455 -0.145455)">
     <use xlink:href="#DejaVuSans-30"/>
    </g>
   </g>
   <g id="text_65">
    <!-- 5 -->
    <g transform="translate(370.345455 101.127727) scale(0.145455 -0.145455)">
     <use xlink:href="#DejaVuSans-35"/>
    </g>
   </g>
   <g id="text_66">
    <!-- 4 -->
    <g transform="translate(395.709091 101.127727) scale(0.145455 -0.145455)">
     <use xlink:href="#DejaVuSans-34"/>
    </g>
   </g>
   <g id="text_67">
    <!-- 1 -->
    <g transform="translate(421.072727 101.127727) scale(0.145455 -0.145455)">
     <use xlink:href="#DejaVuSans-31"/>
    </g>
   </g>
   <g id="text_68">
    <!-- 5 -->
    <g transform="translate(446.436364 101.127727) scale(0.145455 -0.145455)">
     <use xlink:href="#DejaVuSans-35"/>
    </g>
   </g>
   <g id="text_69">
    <!-- 2 -->
    <g transform="translate(471.8 101.127727) scale(0.145455 -0.145455)">
     <use xlink:href="#DejaVuSans-32"/>
    </g>
   </g>
   <g id="text_70">
    <!-- 3 -->
    <g transform="translate(497.163636 101.127727) scale(0.145455 -0.145455)">
     <use xlink:href="#DejaVuSans-33"/>
    </g>
   </g>
   <g id="text_71">
    <!-- 4 -->
    <g transform="translate(522.527273 101.127727) scale(0.145455 -0.145455)">
     <use xlink:href="#DejaVuSans-34"/>
    </g>
   </g>
   <g id="text_72">
    <!-- 5 -->
    <g transform="translate(547.890909 101.127727) scale(0.145455 -0.145455)">
     <use xlink:href="#DejaVuSans-35"/>
    </g>
   </g>
   <g id="text_73">
    <!-- 0 -->
    <g transform="translate(116.709091 126.491364) scale(0.145455 -0.145455)">
     <use xlink:href="#DejaVuSans-30"/>
    </g>
   </g>
   <g id="text_74">
    <!-- 0 -->
    <g transform="translate(142.072727 126.491364) scale(0.145455 -0.145455)">
     <use xlink:href="#DejaVuSans-30"/>
    </g>
   </g>
   <g id="text_75">
    <!-- 1 -->
    <g transform="translate(167.436364 126.491364) scale(0.145455 -0.145455)">
     <use xlink:href="#DejaVuSans-31"/>
    </g>
   </g>
   <g id="text_76">
    <!-- 1 -->
    <g transform="translate(192.8 126.491364) scale(0.145455 -0.145455)">
     <use xlink:href="#DejaVuSans-31"/>
    </g>
   </g>
   <g id="text_77">
    <!-- 2 -->
    <g transform="translate(218.163636 126.491364) scale(0.145455 -0.145455)">
     <use xlink:href="#DejaVuSans-32"/>
    </g>
   </g>
   <g id="text_78">
    <!-- 2 -->
    <g transform="translate(243.527273 126.491364) scale(0.145455 -0.145455)">
     <use xlink:href="#DejaVuSans-32"/>
    </g>
   </g>
   <g id="text_79">
    <!-- 3 -->
    <g transform="translate(268.890909 126.491364) scale(0.145455 -0.145455)">
     <use xlink:href="#DejaVuSans-33"/>
    </g>
   </g>
   <g id="text_80">
    <!-- 3 -->
    <g transform="translate(294.254545 126.491364) scale(0.145455 -0.145455)">
     <use xlink:href="#DejaVuSans-33"/>
    </g>
   </g>
   <g id="text_81">
    <!-- 4 -->
    <g transform="translate(319.618182 126.491364) scale(0.145455 -0.145455)">
     <use xlink:href="#DejaVuSans-34"/>
    </g>
   </g>
   <g id="text_82">
    <!-- 4 -->
    <g transform="translate(344.981818 126.491364) scale(0.145455 -0.145455)">
     <use xlink:href="#DejaVuSans-34"/>
    </g>
   </g>
   <g id="text_83">
    <!-- 0 -->
    <g transform="translate(370.345455 126.491364) scale(0.145455 -0.145455)">
     <use xlink:href="#DejaVuSans-30"/>
    </g>
   </g>
   <g id="text_84">
    <!-- 5 -->
    <g transform="translate(395.709091 126.491364) scale(0.145455 -0.145455)">
     <use xlink:href="#DejaVuSans-35"/>
    </g>
   </g>
   <g id="text_85">
    <!-- 5 -->
    <g transform="translate(421.072727 126.491364) scale(0.145455 -0.145455)">
     <use xlink:href="#DejaVuSans-35"/>
    </g>
   </g>
   <g id="text_86">
    <!-- 1 -->
    <g transform="translate(446.436364 126.491364) scale(0.145455 -0.145455)">
     <use xlink:href="#DejaVuSans-31"/>
    </g>
   </g>
   <g id="text_87">
    <!-- 2 -->
    <g transform="translate(471.8 126.491364) scale(0.145455 -0.145455)">
     <use xlink:href="#DejaVuSans-32"/>
    </g>
   </g>
   <g id="text_88">
    <!-- 3 -->
    <g transform="translate(497.163636 126.491364) scale(0.145455 -0.145455)">
     <use xlink:href="#DejaVuSans-33"/>
    </g>
   </g>
   <g id="text_89">
    <!-- 4 -->
    <g transform="translate(522.527273 126.491364) scale(0.145455 -0.145455)">
     <use xlink:href="#DejaVuSans-34"/>
    </g>
   </g>
   <g id="text_90">
    <!-- 5 -->
    <g transform="translate(547.890909 126.491364) scale(0.145455 -0.145455)">
     <use xlink:href="#DejaVuSans-35"/>
    </g>
   </g>
  </g>
 </g>
 <defs>
  <clipPath id="p65439c7d2d">
   <rect x="7.2" y="7.2" width="1116" height="126.818182"/>
  </clipPath>
 </defs>
</svg>
