<?xml version="1.0" encoding="utf-8" standalone="no"?>
<!DOCTYPE svg PUBLIC "-//W3C//DTD SVG 1.1//EN"
  "http://www.w3.org/Graphics/SVG/1.1/DTD/svg11.dtd">
<svg xmlns:xlink="http://www.w3.org/1999/xlink" width="1130.4pt" height="207.553846pt" viewBox="0 0 1130.4 207.553846" xmlns="http://www.w3.org/2000/svg" version="1.1">
 <metadata>
  <rdf:RDF xmlns:dc="http://purl.org/dc/elements/1.1/" xmlns:cc="http://creativecommons.org/ns#" xmlns:rdf="http://www.w3.org/1999/02/22-rdf-syntax-ns#">
   <cc:Work>
    <dc:type rdf:resource="http://purl.org/dc/dcmitype/StillImage"/>
    <dc:date>2025-05-10T21:57:42.620368</dc:date>
    <dc:format>image/svg+xml</dc:format>
    <dc:creator>
     <cc:Agent>
      <dc:title>Matplotlib v3.6.3, https://matplotlib.org/</dc:title>
     </cc:Agent>
    </dc:creator>
   </cc:Work>
  </rdf:RDF>
 </metadata>
 <defs>
  <style type="text/css">*{stroke-linejoin: round; stroke-linecap: butt}</style>
 </defs>
 <g id="figure_1">
  <g id="patch_1">
   <path d="M 0 207.553846 
L 1130.4 207.553846 
L 1130.4 0 
L 0 0 
z
" style="fill: #ffffff"/>
  </g>
  <g id="axes_1">
   <g id="PatchCollection_1">
    <path d="M 7.2 28.661538 
L 28.661538 28.661538 
L 28.661538 7.2 
L 7.2 7.2 
z
" clip-path="url(#pbf83df61e5)" style="fill: #fcb225; stroke: #000000; stroke-width: 0.615385"/>
    <path d="M 28.661538 28.661538 
L 50.123077 28.661538 
L 50.123077 7.2 
L 28.661538 7.2 
z
" clip-path="url(#pbf83df61e5)" style="fill: #fcb225; stroke: #000000; stroke-width: 0.615385"/>
    <path d="M 50.123077 28.661538 
L 71.584615 28.661538 
L 71.584615 7.2 
L 50.123077 7.2 
z
" clip-path="url(#pbf83df61e5)" style="fill: #fcb225; stroke: #000000; stroke-width: 0.615385"/>
    <path d="M 71.584615 28.661538 
L 93.046154 28.661538 
L 93.046154 7.2 
L 71.584615 7.2 
z
" clip-path="url(#pbf83df61e5)" style="fill: #fcb225; stroke: #000000; stroke-width: 0.615385"/>
    <path d="M 372.046154 28.661538 
L 393.507692 28.661538 
L 393.507692 7.2 
L 372.046154 7.2 
z
" clip-path="url(#pbf83df61e5)" style="fill: #5add4a; stroke: #000000; stroke-width: 0.615385"/>
    <path d="M 393.507692 28.661538 
L 414.969231 28.661538 
L 414.969231 7.2 
L 393.507692 7.2 
z
" clip-path="url(#pbf83df61e5)" style="fill: #60bdfd; stroke: #000000; stroke-width: 0.615385"/>
    <path d="M 414.969231 28.661538 
L 436.430769 28.661538 
L 436.430769 7.2 
L 414.969231 7.2 
z
" clip-path="url(#pbf83df61e5)" style="fill: #5add4a; stroke: #000000; stroke-width: 0.615385"/>
    <path d="M 436.430769 28.661538 
L 457.892308 28.661538 
L 457.892308 7.2 
L 436.430769 7.2 
z
" clip-path="url(#pbf83df61e5)" style="fill: #60bdfd; stroke: #000000; stroke-width: 0.615385"/>
    <path d="M 457.892308 28.661538 
L 479.353846 28.661538 
L 479.353846 7.2 
L 457.892308 7.2 
z
" clip-path="url(#pbf83df61e5)" style="fill: #5add4a; stroke: #000000; stroke-width: 0.615385"/>
    <path d="M 479.353846 28.661538 
L 500.815385 28.661538 
L 500.815385 7.2 
L 479.353846 7.2 
z
" clip-path="url(#pbf83df61e5)" style="fill: #60bdfd; stroke: #000000; stroke-width: 0.615385"/>
    <path d="M 500.815385 28.661538 
L 522.276923 28.661538 
L 522.276923 7.2 
L 500.815385 7.2 
z
" clip-path="url(#pbf83df61e5)" style="fill: #5add4a; stroke: #000000; stroke-width: 0.615385"/>
    <path d="M 522.276923 28.661538 
L 543.738462 28.661538 
L 543.738462 7.2 
L 522.276923 7.2 
z
" clip-path="url(#pbf83df61e5)" style="fill: #60bdfd; stroke: #000000; stroke-width: 0.615385"/>
    <path d="M 28.661538 50.123077 
L 50.123077 50.123077 
L 50.123077 28.661538 
L 28.661538 28.661538 
z
" clip-path="url(#pbf83df61e5)" style="fill: #fcb225; stroke: #000000; stroke-width: 0.615385"/>
    <path d="M 50.123077 50.123077 
L 71.584615 50.123077 
L 71.584615 28.661538 
L 50.123077 28.661538 
z
" clip-path="url(#pbf83df61e5)" style="fill: #fcb225; stroke: #000000; stroke-width: 0.615385"/>
    <path d="M 71.584615 50.123077 
L 93.046154 50.123077 
L 93.046154 28.661538 
L 71.584615 28.661538 
z
" clip-path="url(#pbf83df61e5)" style="fill: #fcb225; stroke: #000000; stroke-width: 0.615385"/>
    <path d="M 93.046154 50.123077 
L 114.507692 50.123077 
L 114.507692 28.661538 
L 93.046154 28.661538 
z
" clip-path="url(#pbf83df61e5)" style="fill: #fcb225; stroke: #000000; stroke-width: 0.615385"/>
    <path d="M 350.584615 50.123077 
L 372.046154 50.123077 
L 372.046154 28.661538 
L 350.584615 28.661538 
z
" clip-path="url(#pbf83df61e5)" style="fill: #5add4a; stroke: #000000; stroke-width: 0.615385"/>
    <path d="M 393.507692 50.123077 
L 414.969231 50.123077 
L 414.969231 28.661538 
L 393.507692 28.661538 
z
" clip-path="url(#pbf83df61e5)" style="fill: #5add4a; stroke: #000000; stroke-width: 0.615385"/>
    <path d="M 414.969231 50.123077 
L 436.430769 50.123077 
L 436.430769 28.661538 
L 414.969231 28.661538 
z
" clip-path="url(#pbf83df61e5)" style="fill: #60bdfd; stroke: #000000; stroke-width: 0.615385"/>
    <path d="M 436.430769 50.123077 
L 457.892308 50.123077 
L 457.892308 28.661538 
L 436.430769 28.661538 
z
" clip-path="url(#pbf83df61e5)" style="fill: #5add4a; stroke: #000000; stroke-width: 0.615385"/>
    <path d="M 457.892308 50.123077 
L 479.353846 50.123077 
L 479.353846 28.661538 
L 457.892308 28.661538 
z
" clip-path="url(#pbf83df61e5)" style="fill: #60bdfd; stroke: #000000; stroke-width: 0.615385"/>
    <path d="M 479.353846 50.123077 
L 500.815385 50.123077 
L 500.815385 28.661538 
L 479.353846 28.661538 
z
" clip-path="url(#pbf83df61e5)" style="fill: #5add4a; stroke: #000000; stroke-width: 0.615385"/>
    <path d="M 500.815385 50.123077 
L 522.276923 50.123077 
L 522.276923 28.661538 
L 500.815385 28.661538 
z
" clip-path="url(#pbf83df61e5)" style="fill: #60bdfd; stroke: #000000; stroke-width: 0.615385"/>
    <path d="M 522.276923 50.123077 
L 543.738462 50.123077 
L 543.738462 28.661538 
L 522.276923 28.661538 
z
" clip-path="url(#pbf83df61e5)" style="fill: #60bdfd; stroke: #000000; stroke-width: 0.615385"/>
    <path d="M 50.123077 71.584615 
L 71.584615 71.584615 
L 71.584615 50.123077 
L 50.123077 50.123077 
z
" clip-path="url(#pbf83df61e5)" style="fill: #fcb225; stroke: #000000; stroke-width: 0.615385"/>
    <path d="M 71.584615 71.584615 
L 93.046154 71.584615 
L 93.046154 50.123077 
L 71.584615 50.123077 
z
" clip-path="url(#pbf83df61e5)" style="fill: #fcb225; stroke: #000000; stroke-width: 0.615385"/>
    <path d="M 93.046154 71.584615 
L 114.507692 71.584615 
L 114.507692 50.123077 
L 93.046154 50.123077 
z
" clip-path="url(#pbf83df61e5)" style="fill: #fcb225; stroke: #000000; stroke-width: 0.615385"/>
    <path d="M 114.507692 71.584615 
L 135.969231 71.584615 
L 135.969231 50.123077 
L 114.507692 50.123077 
z
" clip-path="url(#pbf83df61e5)" style="fill: #fcb225; stroke: #000000; stroke-width: 0.615385"/>
    <path d="M 329.123077 71.584615 
L 350.584615 71.584615 
L 350.584615 50.123077 
L 329.123077 50.123077 
z
" clip-path="url(#pbf83df61e5)" style="fill: #5add4a; stroke: #000000; stroke-width: 0.615385"/>
    <path d="M 372.046154 71.584615 
L 393.507692 71.584615 
L 393.507692 50.123077 
L 372.046154 50.123077 
z
" clip-path="url(#pbf83df61e5)" style="fill: #5add4a; stroke: #000000; stroke-width: 0.615385"/>
    <path d="M 414.969231 71.584615 
L 436.430769 71.584615 
L 436.430769 50.123077 
L 414.969231 50.123077 
z
" clip-path="url(#pbf83df61e5)" style="fill: #5add4a; stroke: #000000; stroke-width: 0.615385"/>
    <path d="M 436.430769 71.584615 
L 457.892308 71.584615 
L 457.892308 50.123077 
L 436.430769 50.123077 
z
" clip-path="url(#pbf83df61e5)" style="fill: #60bdfd; stroke: #000000; stroke-width: 0.615385"/>
    <path d="M 457.892308 71.584615 
L 479.353846 71.584615 
L 479.353846 50.123077 
L 457.892308 50.123077 
z
" clip-path="url(#pbf83df61e5)" style="fill: #5add4a; stroke: #000000; stroke-width: 0.615385"/>
    <path d="M 479.353846 71.584615 
L 500.815385 71.584615 
L 500.815385 50.123077 
L 479.353846 50.123077 
z
" clip-path="url(#pbf83df61e5)" style="fill: #60bdfd; stroke: #000000; stroke-width: 0.615385"/>
    <path d="M 500.815385 71.584615 
L 522.276923 71.584615 
L 522.276923 50.123077 
L 500.815385 50.123077 
z
" clip-path="url(#pbf83df61e5)" style="fill: #60bdfd; stroke: #000000; stroke-width: 0.615385"/>
    <path d="M 522.276923 71.584615 
L 543.738462 71.584615 
L 543.738462 50.123077 
L 522.276923 50.123077 
z
" clip-path="url(#pbf83df61e5)" style="fill: #60bdfd; stroke: #000000; stroke-width: 0.615385"/>
    <path d="M 71.584615 93.046154 
L 93.046154 93.046154 
L 93.046154 71.584615 
L 71.584615 71.584615 
z
" clip-path="url(#pbf83df61e5)" style="fill: #fcb225; stroke: #000000; stroke-width: 0.615385"/>
    <path d="M 93.046154 93.046154 
L 114.507692 93.046154 
L 114.507692 71.584615 
L 93.046154 71.584615 
z
" clip-path="url(#pbf83df61e5)" style="fill: #fcb225; stroke: #000000; stroke-width: 0.615385"/>
    <path d="M 114.507692 93.046154 
L 135.969231 93.046154 
L 135.969231 71.584615 
L 114.507692 71.584615 
z
" clip-path="url(#pbf83df61e5)" style="fill: #fcb225; stroke: #000000; stroke-width: 0.615385"/>
    <path d="M 135.969231 93.046154 
L 157.430769 93.046154 
L 157.430769 71.584615 
L 135.969231 71.584615 
z
" clip-path="url(#pbf83df61e5)" style="fill: #fcb225; stroke: #000000; stroke-width: 0.615385"/>
    <path d="M 307.661538 93.046154 
L 329.123077 93.046154 
L 329.123077 71.584615 
L 307.661538 71.584615 
z
" clip-path="url(#pbf83df61e5)" style="fill: #5add4a; stroke: #000000; stroke-width: 0.615385"/>
    <path d="M 350.584615 93.046154 
L 372.046154 93.046154 
L 372.046154 71.584615 
L 350.584615 71.584615 
z
" clip-path="url(#pbf83df61e5)" style="fill: #5add4a; stroke: #000000; stroke-width: 0.615385"/>
    <path d="M 393.507692 93.046154 
L 414.969231 93.046154 
L 414.969231 71.584615 
L 393.507692 71.584615 
z
" clip-path="url(#pbf83df61e5)" style="fill: #5add4a; stroke: #000000; stroke-width: 0.615385"/>
    <path d="M 436.430769 93.046154 
L 457.892308 93.046154 
L 457.892308 71.584615 
L 436.430769 71.584615 
z
" clip-path="url(#pbf83df61e5)" style="fill: #5add4a; stroke: #000000; stroke-width: 0.615385"/>
    <path d="M 457.892308 93.046154 
L 479.353846 93.046154 
L 479.353846 71.584615 
L 457.892308 71.584615 
z
" clip-path="url(#pbf83df61e5)" style="fill: #60bdfd; stroke: #000000; stroke-width: 0.615385"/>
    <path d="M 479.353846 93.046154 
L 500.815385 93.046154 
L 500.815385 71.584615 
L 479.353846 71.584615 
z
" clip-path="url(#pbf83df61e5)" style="fill: #60bdfd; stroke: #000000; stroke-width: 0.615385"/>
    <path d="M 500.815385 93.046154 
L 522.276923 93.046154 
L 522.276923 71.584615 
L 500.815385 71.584615 
z
" clip-path="url(#pbf83df61e5)" style="fill: #60bdfd; stroke: #000000; stroke-width: 0.615385"/>
    <path d="M 522.276923 93.046154 
L 543.738462 93.046154 
L 543.738462 71.584615 
L 522.276923 71.584615 
z
" clip-path="url(#pbf83df61e5)" style="fill: #60bdfd; stroke: #000000; stroke-width: 0.615385"/>
    <path d="M 93.046154 114.507692 
L 114.507692 114.507692 
L 114.507692 93.046154 
L 93.046154 93.046154 
z
" clip-path="url(#pbf83df61e5)" style="fill: #fcb225; stroke: #000000; stroke-width: 0.615385"/>
    <path d="M 114.507692 114.507692 
L 135.969231 114.507692 
L 135.969231 93.046154 
L 114.507692 93.046154 
z
" clip-path="url(#pbf83df61e5)" style="fill: #fcb225; stroke: #000000; stroke-width: 0.615385"/>
    <path d="M 135.969231 114.507692 
L 157.430769 114.507692 
L 157.430769 93.046154 
L 135.969231 93.046154 
z
" clip-path="url(#pbf83df61e5)" style="fill: #fcb225; stroke: #000000; stroke-width: 0.615385"/>
    <path d="M 157.430769 114.507692 
L 178.892308 114.507692 
L 178.892308 93.046154 
L 157.430769 93.046154 
z
" clip-path="url(#pbf83df61e5)" style="fill: #fcb225; stroke: #000000; stroke-width: 0.615385"/>
    <path d="M 286.2 114.507692 
L 307.661538 114.507692 
L 307.661538 93.046154 
L 286.2 93.046154 
z
" clip-path="url(#pbf83df61e5)" style="fill: #5add4a; stroke: #000000; stroke-width: 0.615385"/>
    <path d="M 329.123077 114.507692 
L 350.584615 114.507692 
L 350.584615 93.046154 
L 329.123077 93.046154 
z
" clip-path="url(#pbf83df61e5)" style="fill: #5add4a; stroke: #000000; stroke-width: 0.615385"/>
    <path d="M 372.046154 114.507692 
L 393.507692 114.507692 
L 393.507692 93.046154 
L 372.046154 93.046154 
z
" clip-path="url(#pbf83df61e5)" style="fill: #5add4a; stroke: #000000; stroke-width: 0.615385"/>
    <path d="M 414.969231 114.507692 
L 436.430769 114.507692 
L 436.430769 93.046154 
L 414.969231 93.046154 
z
" clip-path="url(#pbf83df61e5)" style="fill: #5add4a; stroke: #000000; stroke-width: 0.615385"/>
    <path d="M 457.892308 114.507692 
L 479.353846 114.507692 
L 479.353846 93.046154 
L 457.892308 93.046154 
z
" clip-path="url(#pbf83df61e5)" style="fill: #60bdfd; stroke: #000000; stroke-width: 0.615385"/>
    <path d="M 479.353846 114.507692 
L 500.815385 114.507692 
L 500.815385 93.046154 
L 479.353846 93.046154 
z
" clip-path="url(#pbf83df61e5)" style="fill: #60bdfd; stroke: #000000; stroke-width: 0.615385"/>
    <path d="M 500.815385 114.507692 
L 522.276923 114.507692 
L 522.276923 93.046154 
L 500.815385 93.046154 
z
" clip-path="url(#pbf83df61e5)" style="fill: #60bdfd; stroke: #000000; stroke-width: 0.615385"/>
    <path d="M 522.276923 114.507692 
L 543.738462 114.507692 
L 543.738462 93.046154 
L 522.276923 93.046154 
z
" clip-path="url(#pbf83df61e5)" style="fill: #60bdfd; stroke: #000000; stroke-width: 0.615385"/>
    <path d="M 114.507692 135.969231 
L 135.969231 135.969231 
L 135.969231 114.507692 
L 114.507692 114.507692 
z
" clip-path="url(#pbf83df61e5)" style="fill: #fcb225; stroke: #000000; stroke-width: 0.615385"/>
    <path d="M 135.969231 135.969231 
L 157.430769 135.969231 
L 157.430769 114.507692 
L 135.969231 114.507692 
z
" clip-path="url(#pbf83df61e5)" style="fill: #fcb225; stroke: #000000; stroke-width: 0.615385"/>
    <path d="M 157.430769 135.969231 
L 178.892308 135.969231 
L 178.892308 114.507692 
L 157.430769 114.507692 
z
" clip-path="url(#pbf83df61e5)" style="fill: #fcb225; stroke: #000000; stroke-width: 0.615385"/>
    <path d="M 178.892308 135.969231 
L 200.353846 135.969231 
L 200.353846 114.507692 
L 178.892308 114.507692 
z
" clip-path="url(#pbf83df61e5)" style="fill: #fcb225; stroke: #000000; stroke-width: 0.615385"/>
    <path d="M 264.738462 135.969231 
L 286.2 135.969231 
L 286.2 114.507692 
L 264.738462 114.507692 
z
" clip-path="url(#pbf83df61e5)" style="fill: #5add4a; stroke: #000000; stroke-width: 0.615385"/>
    <path d="M 307.661538 135.969231 
L 329.123077 135.969231 
L 329.123077 114.507692 
L 307.661538 114.507692 
z
" clip-path="url(#pbf83df61e5)" style="fill: #5add4a; stroke: #000000; stroke-width: 0.615385"/>
    <path d="M 350.584615 135.969231 
L 372.046154 135.969231 
L 372.046154 114.507692 
L 350.584615 114.507692 
z
" clip-path="url(#pbf83df61e5)" style="fill: #5add4a; stroke: #000000; stroke-width: 0.615385"/>
    <path d="M 393.507692 135.969231 
L 414.969231 135.969231 
L 414.969231 114.507692 
L 393.507692 114.507692 
z
" clip-path="url(#pbf83df61e5)" style="fill: #5add4a; stroke: #000000; stroke-width: 0.615385"/>
    <path d="M 457.892308 135.969231 
L 479.353846 135.969231 
L 479.353846 114.507692 
L 457.892308 114.507692 
z
" clip-path="url(#pbf83df61e5)" style="fill: #60bdfd; stroke: #000000; stroke-width: 0.615385"/>
    <path d="M 479.353846 135.969231 
L 500.815385 135.969231 
L 500.815385 114.507692 
L 479.353846 114.507692 
z
" clip-path="url(#pbf83df61e5)" style="fill: #60bdfd; stroke: #000000; stroke-width: 0.615385"/>
    <path d="M 500.815385 135.969231 
L 522.276923 135.969231 
L 522.276923 114.507692 
L 500.815385 114.507692 
z
" clip-path="url(#pbf83df61e5)" style="fill: #60bdfd; stroke: #000000; stroke-width: 0.615385"/>
    <path d="M 522.276923 135.969231 
L 543.738462 135.969231 
L 543.738462 114.507692 
L 522.276923 114.507692 
z
" clip-path="url(#pbf83df61e5)" style="fill: #60bdfd; stroke: #000000; stroke-width: 0.615385"/>
    <path d="M 135.969231 157.430769 
L 157.430769 157.430769 
L 157.430769 135.969231 
L 135.969231 135.969231 
z
" clip-path="url(#pbf83df61e5)" style="fill: #fcb225; stroke: #000000; stroke-width: 0.615385"/>
    <path d="M 157.430769 157.430769 
L 178.892308 157.430769 
L 178.892308 135.969231 
L 157.430769 135.969231 
z
" clip-path="url(#pbf83df61e5)" style="fill: #fcb225; stroke: #000000; stroke-width: 0.615385"/>
    <path d="M 178.892308 157.430769 
L 200.353846 157.430769 
L 200.353846 135.969231 
L 178.892308 135.969231 
z
" clip-path="url(#pbf83df61e5)" style="fill: #fcb225; stroke: #000000; stroke-width: 0.615385"/>
    <path d="M 243.276923 157.430769 
L 264.738462 157.430769 
L 264.738462 135.969231 
L 243.276923 135.969231 
z
" clip-path="url(#pbf83df61e5)" style="fill: #5add4a; stroke: #000000; stroke-width: 0.615385"/>
    <path d="M 264.738462 157.430769 
L 286.2 157.430769 
L 286.2 135.969231 
L 264.738462 135.969231 
z
" clip-path="url(#pbf83df61e5)" style="fill: #fcb225; stroke: #000000; stroke-width: 0.615385"/>
    <path d="M 286.2 157.430769 
L 307.661538 157.430769 
L 307.661538 135.969231 
L 286.2 135.969231 
z
" clip-path="url(#pbf83df61e5)" style="fill: #5add4a; stroke: #000000; stroke-width: 0.615385"/>
    <path d="M 329.123077 157.430769 
L 350.584615 157.430769 
L 350.584615 135.969231 
L 329.123077 135.969231 
z
" clip-path="url(#pbf83df61e5)" style="fill: #5add4a; stroke: #000000; stroke-width: 0.615385"/>
    <path d="M 372.046154 157.430769 
L 393.507692 157.430769 
L 393.507692 135.969231 
L 372.046154 135.969231 
z
" clip-path="url(#pbf83df61e5)" style="fill: #5add4a; stroke: #000000; stroke-width: 0.615385"/>
    <path d="M 457.892308 157.430769 
L 479.353846 157.430769 
L 479.353846 135.969231 
L 457.892308 135.969231 
z
" clip-path="url(#pbf83df61e5)" style="fill: #60bdfd; stroke: #000000; stroke-width: 0.615385"/>
    <path d="M 479.353846 157.430769 
L 500.815385 157.430769 
L 500.815385 135.969231 
L 479.353846 135.969231 
z
" clip-path="url(#pbf83df61e5)" style="fill: #60bdfd; stroke: #000000; stroke-width: 0.615385"/>
    <path d="M 500.815385 157.430769 
L 522.276923 157.430769 
L 522.276923 135.969231 
L 500.815385 135.969231 
z
" clip-path="url(#pbf83df61e5)" style="fill: #60bdfd; stroke: #000000; stroke-width: 0.615385"/>
    <path d="M 522.276923 157.430769 
L 543.738462 157.430769 
L 543.738462 135.969231 
L 522.276923 135.969231 
z
" clip-path="url(#pbf83df61e5)" style="fill: #60bdfd; stroke: #000000; stroke-width: 0.615385"/>
    <path d="M 157.430769 178.892308 
L 178.892308 178.892308 
L 178.892308 157.430769 
L 157.430769 157.430769 
z
" clip-path="url(#pbf83df61e5)" style="fill: #fcb225; stroke: #000000; stroke-width: 0.615385"/>
    <path d="M 178.892308 178.892308 
L 200.353846 178.892308 
L 200.353846 157.430769 
L 178.892308 157.430769 
z
" clip-path="url(#pbf83df61e5)" style="fill: #fcb225; stroke: #000000; stroke-width: 0.615385"/>
    <path d="M 221.815385 178.892308 
L 243.276923 178.892308 
L 243.276923 157.430769 
L 221.815385 157.430769 
z
" clip-path="url(#pbf83df61e5)" style="fill: #5add4a; stroke: #000000; stroke-width: 0.615385"/>
    <path d="M 243.276923 178.892308 
L 264.738462 178.892308 
L 264.738462 157.430769 
L 243.276923 157.430769 
z
" clip-path="url(#pbf83df61e5)" style="fill: #fcb225; stroke: #000000; stroke-width: 0.615385"/>
    <path d="M 264.738462 178.892308 
L 286.2 178.892308 
L 286.2 157.430769 
L 264.738462 157.430769 
z
" clip-path="url(#pbf83df61e5)" style="fill: #5add4a; stroke: #000000; stroke-width: 0.615385"/>
    <path d="M 286.2 178.892308 
L 307.661538 178.892308 
L 307.661538 157.430769 
L 286.2 157.430769 
z
" clip-path="url(#pbf83df61e5)" style="fill: #fcb225; stroke: #000000; stroke-width: 0.615385"/>
    <path d="M 307.661538 178.892308 
L 329.123077 178.892308 
L 329.123077 157.430769 
L 307.661538 157.430769 
z
" clip-path="url(#pbf83df61e5)" style="fill: #5add4a; stroke: #000000; stroke-width: 0.615385"/>
    <path d="M 350.584615 178.892308 
L 372.046154 178.892308 
L 372.046154 157.430769 
L 350.584615 157.430769 
z
" clip-path="url(#pbf83df61e5)" style="fill: #5add4a; stroke: #000000; stroke-width: 0.615385"/>
    <path d="M 457.892308 178.892308 
L 479.353846 178.892308 
L 479.353846 157.430769 
L 457.892308 157.430769 
z
" clip-path="url(#pbf83df61e5)" style="fill: #60bdfd; stroke: #000000; stroke-width: 0.615385"/>
    <path d="M 479.353846 178.892308 
L 500.815385 178.892308 
L 500.815385 157.430769 
L 479.353846 157.430769 
z
" clip-path="url(#pbf83df61e5)" style="fill: #60bdfd; stroke: #000000; stroke-width: 0.615385"/>
    <path d="M 500.815385 178.892308 
L 522.276923 178.892308 
L 522.276923 157.430769 
L 500.815385 157.430769 
z
" clip-path="url(#pbf83df61e5)" style="fill: #60bdfd; stroke: #000000; stroke-width: 0.615385"/>
    <path d="M 522.276923 178.892308 
L 543.738462 178.892308 
L 543.738462 157.430769 
L 522.276923 157.430769 
z
" clip-path="url(#pbf83df61e5)" style="fill: #60bdfd; stroke: #000000; stroke-width: 0.615385"/>
    <path d="M 178.892308 200.353846 
L 200.353846 200.353846 
L 200.353846 178.892308 
L 178.892308 178.892308 
z
" clip-path="url(#pbf83df61e5)" style="fill: #fcb225; stroke: #000000; stroke-width: 0.615385"/>
    <path d="M 200.353846 200.353846 
L 221.815385 200.353846 
L 221.815385 178.892308 
L 200.353846 178.892308 
z
" clip-path="url(#pbf83df61e5)" style="fill: #5add4a; stroke: #000000; stroke-width: 0.615385"/>
    <path d="M 221.815385 200.353846 
L 243.276923 200.353846 
L 243.276923 178.892308 
L 221.815385 178.892308 
z
" clip-path="url(#pbf83df61e5)" style="fill: #fcb225; stroke: #000000; stroke-width: 0.615385"/>
    <path d="M 243.276923 200.353846 
L 264.738462 200.353846 
L 264.738462 178.892308 
L 243.276923 178.892308 
z
" clip-path="url(#pbf83df61e5)" style="fill: #5add4a; stroke: #000000; stroke-width: 0.615385"/>
    <path d="M 264.738462 200.353846 
L 286.2 200.353846 
L 286.2 178.892308 
L 264.738462 178.892308 
z
" clip-path="url(#pbf83df61e5)" style="fill: #fcb225; stroke: #000000; stroke-width: 0.615385"/>
    <path d="M 286.2 200.353846 
L 307.661538 200.353846 
L 307.661538 178.892308 
L 286.2 178.892308 
z
" clip-path="url(#pbf83df61e5)" style="fill: #5add4a; stroke: #000000; stroke-width: 0.615385"/>
    <path d="M 307.661538 200.353846 
L 329.123077 200.353846 
L 329.123077 178.892308 
L 307.661538 178.892308 
z
" clip-path="url(#pbf83df61e5)" style="fill: #fcb225; stroke: #000000; stroke-width: 0.615385"/>
    <path d="M 329.123077 200.353846 
L 350.584615 200.353846 
L 350.584615 178.892308 
L 329.123077 178.892308 
z
" clip-path="url(#pbf83df61e5)" style="fill: #5add4a; stroke: #000000; stroke-width: 0.615385"/>
    <path d="M 457.892308 200.353846 
L 479.353846 200.353846 
L 479.353846 178.892308 
L 457.892308 178.892308 
z
" clip-path="url(#pbf83df61e5)" style="fill: #60bdfd; stroke: #000000; stroke-width: 0.615385"/>
    <path d="M 479.353846 200.353846 
L 500.815385 200.353846 
L 500.815385 178.892308 
L 479.353846 178.892308 
z
" clip-path="url(#pbf83df61e5)" style="fill: #60bdfd; stroke: #000000; stroke-width: 0.615385"/>
    <path d="M 500.815385 200.353846 
L 522.276923 200.353846 
L 522.276923 178.892308 
L 500.815385 178.892308 
z
" clip-path="url(#pbf83df61e5)" style="fill: #60bdfd; stroke: #000000; stroke-width: 0.615385"/>
    <path d="M 522.276923 200.353846 
L 543.738462 200.353846 
L 543.738462 178.892308 
L 522.276923 178.892308 
z
" clip-path="url(#pbf83df61e5)" style="fill: #60bdfd; stroke: #000000; stroke-width: 0.615385"/>
   </g>
   <g id="text_1">
    <!-- 0 -->
    <g transform="translate(14.015385 22.292692) scale(0.123077 -0.123077)">
     <defs>
      <path id="DejaVuSans-30" d="M 2034 4250 
Q 1547 4250 1301 3770 
Q 1056 3291 1056 2328 
Q 1056 1369 1301 889 
Q 1547 409 2034 409 
Q 2525 409 2770 889 
Q 3016 1369 3016 2328 
Q 3016 3291 2770 3770 
Q 2525 4250 2034 4250 
z
M 2034 4750 
Q 2819 4750 3233 4129 
Q 3647 3509 3647 2328 
Q 3647 1150 3233 529 
Q 2819 -91 2034 -91 
Q 1250 -91 836 529 
Q 422 1150 422 2328 
Q 422 3509 836 4129 
Q 1250 4750 2034 4750 
z
" transform="scale(0.015625)"/>
     </defs>
     <use xlink:href="#DejaVuSans-30"/>
    </g>
   </g>
   <g id="text_2">
    <!-- 1 -->
    <g transform="translate(35.476923 22.292692) scale(0.123077 -0.123077)">
     <defs>
      <path id="DejaVuSans-31" d="M 794 531 
L 1825 531 
L 1825 4091 
L 703 3866 
L 703 4441 
L 1819 4666 
L 2450 4666 
L 2450 531 
L 3481 531 
L 3481 0 
L 794 0 
L 794 531 
z
" transform="scale(0.015625)"/>
     </defs>
     <use xlink:href="#DejaVuSans-31"/>
    </g>
   </g>
   <g id="text_3">
    <!-- 2 -->
    <g transform="translate(56.938462 22.292692) scale(0.123077 -0.123077)">
     <defs>
      <path id="DejaVuSans-32" d="M 1228 531 
L 3431 531 
L 3431 0 
L 469 0 
L 469 531 
Q 828 903 1448 1529 
Q 2069 2156 2228 2338 
Q 2531 2678 2651 2914 
Q 2772 3150 2772 3378 
Q 2772 3750 2511 3984 
Q 2250 4219 1831 4219 
Q 1534 4219 1204 4116 
Q 875 4013 500 3803 
L 500 4441 
Q 881 4594 1212 4672 
Q 1544 4750 1819 4750 
Q 2544 4750 2975 4387 
Q 3406 4025 3406 3419 
Q 3406 3131 3298 2873 
Q 3191 2616 2906 2266 
Q 2828 2175 2409 1742 
Q 1991 1309 1228 531 
z
" transform="scale(0.015625)"/>
     </defs>
     <use xlink:href="#DejaVuSans-32"/>
    </g>
   </g>
   <g id="text_4">
    <!-- 3 -->
    <g transform="translate(78.4 22.292692) scale(0.123077 -0.123077)">
     <defs>
      <path id="DejaVuSans-33" d="M 2597 2516 
Q 3050 2419 3304 2112 
Q 3559 1806 3559 1356 
Q 3559 666 3084 287 
Q 2609 -91 1734 -91 
Q 1441 -91 1130 -33 
Q 819 25 488 141 
L 488 750 
Q 750 597 1062 519 
Q 1375 441 1716 441 
Q 2309 441 2620 675 
Q 2931 909 2931 1356 
Q 2931 1769 2642 2001 
Q 2353 2234 1838 2234 
L 1294 2234 
L 1294 2753 
L 1863 2753 
Q 2328 2753 2575 2939 
Q 2822 3125 2822 3475 
Q 2822 3834 2567 4026 
Q 2313 4219 1838 4219 
Q 1578 4219 1281 4162 
Q 984 4106 628 3988 
L 628 4550 
Q 988 4650 1302 4700 
Q 1616 4750 1894 4750 
Q 2613 4750 3031 4423 
Q 3450 4097 3450 3541 
Q 3450 3153 3228 2886 
Q 3006 2619 2597 2516 
z
" transform="scale(0.015625)"/>
     </defs>
     <use xlink:href="#DejaVuSans-33"/>
    </g>
   </g>
   <g id="text_5">
    <!-- 0 -->
    <g transform="translate(378.861538 22.292692) scale(0.123077 -0.123077)">
     <use xlink:href="#DejaVuSans-30"/>
    </g>
   </g>
   <g id="text_6">
    <!-- 0 -->
    <g transform="translate(400.323077 22.292692) scale(0.123077 -0.123077)">
     <use xlink:href="#DejaVuSans-30"/>
    </g>
   </g>
   <g id="text_7">
    <!-- 1 -->
    <g transform="translate(421.784615 22.292692) scale(0.123077 -0.123077)">
     <use xlink:href="#DejaVuSans-31"/>
    </g>
   </g>
   <g id="text_8">
    <!-- 1 -->
    <g transform="translate(443.246154 22.292692) scale(0.123077 -0.123077)">
     <use xlink:href="#DejaVuSans-31"/>
    </g>
   </g>
   <g id="text_9">
    <!-- 2 -->
    <g transform="translate(464.707692 22.292692) scale(0.123077 -0.123077)">
     <use xlink:href="#DejaVuSans-32"/>
    </g>
   </g>
   <g id="text_10">
    <!-- 2 -->
    <g transform="translate(486.169231 22.292692) scale(0.123077 -0.123077)">
     <use xlink:href="#DejaVuSans-32"/>
    </g>
   </g>
   <g id="text_11">
    <!-- 3 -->
    <g transform="translate(507.630769 22.292692) scale(0.123077 -0.123077)">
     <use xlink:href="#DejaVuSans-33"/>
    </g>
   </g>
   <g id="text_12">
    <!-- 3 -->
    <g transform="translate(529.092308 22.292692) scale(0.123077 -0.123077)">
     <use xlink:href="#DejaVuSans-33"/>
    </g>
   </g>
   <g id="text_13">
    <!-- 0 -->
    <g transform="translate(35.476923 43.754231) scale(0.123077 -0.123077)">
     <use xlink:href="#DejaVuSans-30"/>
    </g>
   </g>
   <g id="text_14">
    <!-- 1 -->
    <g transform="translate(56.938462 43.754231) scale(0.123077 -0.123077)">
     <use xlink:href="#DejaVuSans-31"/>
    </g>
   </g>
   <g id="text_15">
    <!-- 2 -->
    <g transform="translate(78.4 43.754231) scale(0.123077 -0.123077)">
     <use xlink:href="#DejaVuSans-32"/>
    </g>
   </g>
   <g id="text_16">
    <!-- 3 -->
    <g transform="translate(99.861538 43.754231) scale(0.123077 -0.123077)">
     <use xlink:href="#DejaVuSans-33"/>
    </g>
   </g>
   <g id="text_17">
    <!-- 0 -->
    <g transform="translate(357.4 43.754231) scale(0.123077 -0.123077)">
     <use xlink:href="#DejaVuSans-30"/>
    </g>
   </g>
   <g id="text_18">
    <!-- 1 -->
    <g transform="translate(400.323077 43.754231) scale(0.123077 -0.123077)">
     <use xlink:href="#DejaVuSans-31"/>
    </g>
   </g>
   <g id="text_19">
    <!-- 0 -->
    <g transform="translate(421.784615 43.754231) scale(0.123077 -0.123077)">
     <use xlink:href="#DejaVuSans-30"/>
    </g>
   </g>
   <g id="text_20">
    <!-- 2 -->
    <g transform="translate(443.246154 43.754231) scale(0.123077 -0.123077)">
     <use xlink:href="#DejaVuSans-32"/>
    </g>
   </g>
   <g id="text_21">
    <!-- 1 -->
    <g transform="translate(464.707692 43.754231) scale(0.123077 -0.123077)">
     <use xlink:href="#DejaVuSans-31"/>
    </g>
   </g>
   <g id="text_22">
    <!-- 3 -->
    <g transform="translate(486.169231 43.754231) scale(0.123077 -0.123077)">
     <use xlink:href="#DejaVuSans-33"/>
    </g>
   </g>
   <g id="text_23">
    <!-- 2 -->
    <g transform="translate(507.630769 43.754231) scale(0.123077 -0.123077)">
     <use xlink:href="#DejaVuSans-32"/>
    </g>
   </g>
   <g id="text_24">
    <!-- 3 -->
    <g transform="translate(529.092308 43.754231) scale(0.123077 -0.123077)">
     <use xlink:href="#DejaVuSans-33"/>
    </g>
   </g>
   <g id="text_25">
    <!-- 0 -->
    <g transform="translate(56.938462 65.215769) scale(0.123077 -0.123077)">
     <use xlink:href="#DejaVuSans-30"/>
    </g>
   </g>
   <g id="text_26">
    <!-- 1 -->
    <g transform="translate(78.4 65.215769) scale(0.123077 -0.123077)">
     <use xlink:href="#DejaVuSans-31"/>
    </g>
   </g>
   <g id="text_27">
    <!-- 2 -->
    <g transform="translate(99.861538 65.215769) scale(0.123077 -0.123077)">
     <use xlink:href="#DejaVuSans-32"/>
    </g>
   </g>
   <g id="text_28">
    <!-- 3 -->
    <g transform="translate(121.323077 65.215769) scale(0.123077 -0.123077)">
     <use xlink:href="#DejaVuSans-33"/>
    </g>
   </g>
   <g id="text_29">
    <!-- 0 -->
    <g transform="translate(335.938462 65.215769) scale(0.123077 -0.123077)">
     <use xlink:href="#DejaVuSans-30"/>
    </g>
   </g>
   <g id="text_30">
    <!-- 1 -->
    <g transform="translate(378.861538 65.215769) scale(0.123077 -0.123077)">
     <use xlink:href="#DejaVuSans-31"/>
    </g>
   </g>
   <g id="text_31">
    <!-- 2 -->
    <g transform="translate(421.784615 65.215769) scale(0.123077 -0.123077)">
     <use xlink:href="#DejaVuSans-32"/>
    </g>
   </g>
   <g id="text_32">
    <!-- 0 -->
    <g transform="translate(443.246154 65.215769) scale(0.123077 -0.123077)">
     <use xlink:href="#DejaVuSans-30"/>
    </g>
   </g>
   <g id="text_33">
    <!-- 3 -->
    <g transform="translate(464.707692 65.215769) scale(0.123077 -0.123077)">
     <use xlink:href="#DejaVuSans-33"/>
    </g>
   </g>
   <g id="text_34">
    <!-- 1 -->
    <g transform="translate(486.169231 65.215769) scale(0.123077 -0.123077)">
     <use xlink:href="#DejaVuSans-31"/>
    </g>
   </g>
   <g id="text_35">
    <!-- 2 -->
    <g transform="translate(507.630769 65.215769) scale(0.123077 -0.123077)">
     <use xlink:href="#DejaVuSans-32"/>
    </g>
   </g>
   <g id="text_36">
    <!-- 3 -->
    <g transform="translate(529.092308 65.215769) scale(0.123077 -0.123077)">
     <use xlink:href="#DejaVuSans-33"/>
    </g>
   </g>
   <g id="text_37">
    <!-- 0 -->
    <g transform="translate(78.4 86.677308) scale(0.123077 -0.123077)">
     <use xlink:href="#DejaVuSans-30"/>
    </g>
   </g>
   <g id="text_38">
    <!-- 1 -->
    <g transform="translate(99.861538 86.677308) scale(0.123077 -0.123077)">
     <use xlink:href="#DejaVuSans-31"/>
    </g>
   </g>
   <g id="text_39">
    <!-- 2 -->
    <g transform="translate(121.323077 86.677308) scale(0.123077 -0.123077)">
     <use xlink:href="#DejaVuSans-32"/>
    </g>
   </g>
   <g id="text_40">
    <!-- 3 -->
    <g transform="translate(142.784615 86.677308) scale(0.123077 -0.123077)">
     <use xlink:href="#DejaVuSans-33"/>
    </g>
   </g>
   <g id="text_41">
    <!-- 0 -->
    <g transform="translate(314.476923 86.677308) scale(0.123077 -0.123077)">
     <use xlink:href="#DejaVuSans-30"/>
    </g>
   </g>
   <g id="text_42">
    <!-- 1 -->
    <g transform="translate(357.4 86.677308) scale(0.123077 -0.123077)">
     <use xlink:href="#DejaVuSans-31"/>
    </g>
   </g>
   <g id="text_43">
    <!-- 2 -->
    <g transform="translate(400.323077 86.677308) scale(0.123077 -0.123077)">
     <use xlink:href="#DejaVuSans-32"/>
    </g>
   </g>
   <g id="text_44">
    <!-- 3 -->
    <g transform="translate(443.246154 86.677308) scale(0.123077 -0.123077)">
     <use xlink:href="#DejaVuSans-33"/>
    </g>
   </g>
   <g id="text_45">
    <!-- 0 -->
    <g transform="translate(464.707692 86.677308) scale(0.123077 -0.123077)">
     <use xlink:href="#DejaVuSans-30"/>
    </g>
   </g>
   <g id="text_46">
    <!-- 1 -->
    <g transform="translate(486.169231 86.677308) scale(0.123077 -0.123077)">
     <use xlink:href="#DejaVuSans-31"/>
    </g>
   </g>
   <g id="text_47">
    <!-- 2 -->
    <g transform="translate(507.630769 86.677308) scale(0.123077 -0.123077)">
     <use xlink:href="#DejaVuSans-32"/>
    </g>
   </g>
   <g id="text_48">
    <!-- 3 -->
    <g transform="translate(529.092308 86.677308) scale(0.123077 -0.123077)">
     <use xlink:href="#DejaVuSans-33"/>
    </g>
   </g>
   <g id="text_49">
    <!-- 0 -->
    <g transform="translate(99.861538 108.138846) scale(0.123077 -0.123077)">
     <use xlink:href="#DejaVuSans-30"/>
    </g>
   </g>
   <g id="text_50">
    <!-- 1 -->
    <g transform="translate(121.323077 108.138846) scale(0.123077 -0.123077)">
     <use xlink:href="#DejaVuSans-31"/>
    </g>
   </g>
   <g id="text_51">
    <!-- 2 -->
    <g transform="translate(142.784615 108.138846) scale(0.123077 -0.123077)">
     <use xlink:href="#DejaVuSans-32"/>
    </g>
   </g>
   <g id="text_52">
    <!-- 3 -->
    <g transform="translate(164.246154 108.138846) scale(0.123077 -0.123077)">
     <use xlink:href="#DejaVuSans-33"/>
    </g>
   </g>
   <g id="text_53">
    <!-- 0 -->
    <g transform="translate(293.015385 108.138846) scale(0.123077 -0.123077)">
     <use xlink:href="#DejaVuSans-30"/>
    </g>
   </g>
   <g id="text_54">
    <!-- 1 -->
    <g transform="translate(335.938462 108.138846) scale(0.123077 -0.123077)">
     <use xlink:href="#DejaVuSans-31"/>
    </g>
   </g>
   <g id="text_55">
    <!-- 2 -->
    <g transform="translate(378.861538 108.138846) scale(0.123077 -0.123077)">
     <use xlink:href="#DejaVuSans-32"/>
    </g>
   </g>
   <g id="text_56">
    <!-- 3 -->
    <g transform="translate(421.784615 108.138846) scale(0.123077 -0.123077)">
     <use xlink:href="#DejaVuSans-33"/>
    </g>
   </g>
   <g id="text_57">
    <!-- 0 -->
    <g transform="translate(464.707692 108.138846) scale(0.123077 -0.123077)">
     <use xlink:href="#DejaVuSans-30"/>
    </g>
   </g>
   <g id="text_58">
    <!-- 1 -->
    <g transform="translate(486.169231 108.138846) scale(0.123077 -0.123077)">
     <use xlink:href="#DejaVuSans-31"/>
    </g>
   </g>
   <g id="text_59">
    <!-- 2 -->
    <g transform="translate(507.630769 108.138846) scale(0.123077 -0.123077)">
     <use xlink:href="#DejaVuSans-32"/>
    </g>
   </g>
   <g id="text_60">
    <!-- 3 -->
    <g transform="translate(529.092308 108.138846) scale(0.123077 -0.123077)">
     <use xlink:href="#DejaVuSans-33"/>
    </g>
   </g>
   <g id="text_61">
    <!-- 0 -->
    <g transform="translate(121.323077 129.600385) scale(0.123077 -0.123077)">
     <use xlink:href="#DejaVuSans-30"/>
    </g>
   </g>
   <g id="text_62">
    <!-- 1 -->
    <g transform="translate(142.784615 129.600385) scale(0.123077 -0.123077)">
     <use xlink:href="#DejaVuSans-31"/>
    </g>
   </g>
   <g id="text_63">
    <!-- 2 -->
    <g transform="translate(164.246154 129.600385) scale(0.123077 -0.123077)">
     <use xlink:href="#DejaVuSans-32"/>
    </g>
   </g>
   <g id="text_64">
    <!-- 3 -->
    <g transform="translate(185.707692 129.600385) scale(0.123077 -0.123077)">
     <use xlink:href="#DejaVuSans-33"/>
    </g>
   </g>
   <g id="text_65">
    <!-- 0 -->
    <g transform="translate(271.553846 129.600385) scale(0.123077 -0.123077)">
     <use xlink:href="#DejaVuSans-30"/>
    </g>
   </g>
   <g id="text_66">
    <!-- 1 -->
    <g transform="translate(314.476923 129.600385) scale(0.123077 -0.123077)">
     <use xlink:href="#DejaVuSans-31"/>
    </g>
   </g>
   <g id="text_67">
    <!-- 2 -->
    <g transform="translate(357.4 129.600385) scale(0.123077 -0.123077)">
     <use xlink:href="#DejaVuSans-32"/>
    </g>
   </g>
   <g id="text_68">
    <!-- 3 -->
    <g transform="translate(400.323077 129.600385) scale(0.123077 -0.123077)">
     <use xlink:href="#DejaVuSans-33"/>
    </g>
   </g>
   <g id="text_69">
    <!-- 0 -->
    <g transform="translate(464.707692 129.600385) scale(0.123077 -0.123077)">
     <use xlink:href="#DejaVuSans-30"/>
    </g>
   </g>
   <g id="text_70">
    <!-- 1 -->
    <g transform="translate(486.169231 129.600385) scale(0.123077 -0.123077)">
     <use xlink:href="#DejaVuSans-31"/>
    </g>
   </g>
   <g id="text_71">
    <!-- 2 -->
    <g transform="translate(507.630769 129.600385) scale(0.123077 -0.123077)">
     <use xlink:href="#DejaVuSans-32"/>
    </g>
   </g>
   <g id="text_72">
    <!-- 3 -->
    <g transform="translate(529.092308 129.600385) scale(0.123077 -0.123077)">
     <use xlink:href="#DejaVuSans-33"/>
    </g>
   </g>
   <g id="text_73">
    <!-- 0 -->
    <g transform="translate(142.784615 151.061923) scale(0.123077 -0.123077)">
     <use xlink:href="#DejaVuSans-30"/>
    </g>
   </g>
   <g id="text_74">
    <!-- 1 -->
    <g transform="translate(164.246154 151.061923) scale(0.123077 -0.123077)">
     <use xlink:href="#DejaVuSans-31"/>
    </g>
   </g>
   <g id="text_75">
    <!-- 2 -->
    <g transform="translate(185.707692 151.061923) scale(0.123077 -0.123077)">
     <use xlink:href="#DejaVuSans-32"/>
    </g>
   </g>
   <g id="text_76">
    <!-- 0 -->
    <g transform="translate(250.092308 151.061923) scale(0.123077 -0.123077)">
     <use xlink:href="#DejaVuSans-30"/>
    </g>
   </g>
   <g id="text_77">
    <!-- 3 -->
    <g transform="translate(271.553846 151.061923) scale(0.123077 -0.123077)">
     <use xlink:href="#DejaVuSans-33"/>
    </g>
   </g>
   <g id="text_78">
    <!-- 1 -->
    <g transform="translate(293.015385 151.061923) scale(0.123077 -0.123077)">
     <use xlink:href="#DejaVuSans-31"/>
    </g>
   </g>
   <g id="text_79">
    <!-- 2 -->
    <g transform="translate(335.938462 151.061923) scale(0.123077 -0.123077)">
     <use xlink:href="#DejaVuSans-32"/>
    </g>
   </g>
   <g id="text_80">
    <!-- 3 -->
    <g transform="translate(378.861538 151.061923) scale(0.123077 -0.123077)">
     <use xlink:href="#DejaVuSans-33"/>
    </g>
   </g>
   <g id="text_81">
    <!-- 0 -->
    <g transform="translate(464.707692 151.061923) scale(0.123077 -0.123077)">
     <use xlink:href="#DejaVuSans-30"/>
    </g>
   </g>
   <g id="text_82">
    <!-- 1 -->
    <g transform="translate(486.169231 151.061923) scale(0.123077 -0.123077)">
     <use xlink:href="#DejaVuSans-31"/>
    </g>
   </g>
   <g id="text_83">
    <!-- 2 -->
    <g transform="translate(507.630769 151.061923) scale(0.123077 -0.123077)">
     <use xlink:href="#DejaVuSans-32"/>
    </g>
   </g>
   <g id="text_84">
    <!-- 3 -->
    <g transform="translate(529.092308 151.061923) scale(0.123077 -0.123077)">
     <use xlink:href="#DejaVuSans-33"/>
    </g>
   </g>
   <g id="text_85">
    <!-- 0 -->
    <g transform="translate(164.246154 172.523462) scale(0.123077 -0.123077)">
     <use xlink:href="#DejaVuSans-30"/>
    </g>
   </g>
   <g id="text_86">
    <!-- 1 -->
    <g transform="translate(185.707692 172.523462) scale(0.123077 -0.123077)">
     <use xlink:href="#DejaVuSans-31"/>
    </g>
   </g>
   <g id="text_87">
    <!-- 0 -->
    <g transform="translate(228.630769 172.523462) scale(0.123077 -0.123077)">
     <use xlink:href="#DejaVuSans-30"/>
    </g>
   </g>
   <g id="text_88">
    <!-- 2 -->
    <g transform="translate(250.092308 172.523462) scale(0.123077 -0.123077)">
     <use xlink:href="#DejaVuSans-32"/>
    </g>
   </g>
   <g id="text_89">
    <!-- 1 -->
    <g transform="translate(271.553846 172.523462) scale(0.123077 -0.123077)">
     <use xlink:href="#DejaVuSans-31"/>
    </g>
   </g>
   <g id="text_90">
    <!-- 3 -->
    <g transform="translate(293.015385 172.523462) scale(0.123077 -0.123077)">
     <use xlink:href="#DejaVuSans-33"/>
    </g>
   </g>
   <g id="text_91">
    <!-- 2 -->
    <g transform="translate(314.476923 172.523462) scale(0.123077 -0.123077)">
     <use xlink:href="#DejaVuSans-32"/>
    </g>
   </g>
   <g id="text_92">
    <!-- 3 -->
    <g transform="translate(357.4 172.523462) scale(0.123077 -0.123077)">
     <use xlink:href="#DejaVuSans-33"/>
    </g>
   </g>
   <g id="text_93">
    <!-- 0 -->
    <g transform="translate(464.707692 172.523462) scale(0.123077 -0.123077)">
     <use xlink:href="#DejaVuSans-30"/>
    </g>
   </g>
   <g id="text_94">
    <!-- 1 -->
    <g transform="translate(486.169231 172.523462) scale(0.123077 -0.123077)">
     <use xlink:href="#DejaVuSans-31"/>
    </g>
   </g>
   <g id="text_95">
    <!-- 2 -->
    <g transform="translate(507.630769 172.523462) scale(0.123077 -0.123077)">
     <use xlink:href="#DejaVuSans-32"/>
    </g>
   </g>
   <g id="text_96">
    <!-- 3 -->
    <g transform="translate(529.092308 172.523462) scale(0.123077 -0.123077)">
     <use xlink:href="#DejaVuSans-33"/>
    </g>
   </g>
   <g id="text_97">
    <!-- 0 -->
    <g transform="translate(185.707692 193.985) scale(0.123077 -0.123077)">
     <use xlink:href="#DejaVuSans-30"/>
    </g>
   </g>
   <g id="text_98">
    <!-- 0 -->
    <g transform="translate(207.169231 193.985) scale(0.123077 -0.123077)">
     <use xlink:href="#DejaVuSans-30"/>
    </g>
   </g>
   <g id="text_99">
    <!-- 1 -->
    <g transform="translate(228.630769 193.985) scale(0.123077 -0.123077)">
     <use xlink:href="#DejaVuSans-31"/>
    </g>
   </g>
   <g id="text_100">
    <!-- 1 -->
    <g transform="translate(250.092308 193.985) scale(0.123077 -0.123077)">
     <use xlink:href="#DejaVuSans-31"/>
    </g>
   </g>
   <g id="text_101">
    <!-- 2 -->
    <g transform="translate(271.553846 193.985) scale(0.123077 -0.123077)">
     <use xlink:href="#DejaVuSans-32"/>
    </g>
   </g>
   <g id="text_102">
    <!-- 2 -->
    <g transform="translate(293.015385 193.985) scale(0.123077 -0.123077)">
     <use xlink:href="#DejaVuSans-32"/>
    </g>
   </g>
   <g id="text_103">
    <!-- 3 -->
    <g transform="translate(314.476923 193.985) scale(0.123077 -0.123077)">
     <use xlink:href="#DejaVuSans-33"/>
    </g>
   </g>
   <g id="text_104">
    <!-- 3 -->
    <g transform="translate(335.938462 193.985) scale(0.123077 -0.123077)">
     <use xlink:href="#DejaVuSans-33"/>
    </g>
   </g>
   <g id="text_105">
    <!-- 0 -->
    <g transform="translate(464.707692 193.985) scale(0.123077 -0.123077)">
     <use xlink:href="#DejaVuSans-30"/>
    </g>
   </g>
   <g id="text_106">
    <!-- 1 -->
    <g transform="translate(486.169231 193.985) scale(0.123077 -0.123077)">
     <use xlink:href="#DejaVuSans-31"/>
    </g>
   </g>
   <g id="text_107">
    <!-- 2 -->
    <g transform="translate(507.630769 193.985) scale(0.123077 -0.123077)">
     <use xlink:href="#DejaVuSans-32"/>
    </g>
   </g>
   <g id="text_108">
    <!-- 3 -->
    <g transform="translate(529.092308 193.985) scale(0.123077 -0.123077)">
     <use xlink:href="#DejaVuSans-33"/>
    </g>
   </g>
  </g>
 </g>
 <defs>
  <clipPath id="pbf83df61e5">
   <rect x="7.2" y="7.2" width="1116" height="193.153846"/>
  </clipPath>
 </defs>
</svg>
