<?xml version="1.0" encoding="utf-8" standalone="no"?>
<!DOCTYPE svg PUBLIC "-//W3C//DTD SVG 1.1//EN"
  "http://www.w3.org/Graphics/SVG/1.1/DTD/svg11.dtd">
<svg xmlns:xlink="http://www.w3.org/1999/xlink" width="1130.4pt" height="246.9pt" viewBox="0 0 1130.4 246.9" xmlns="http://www.w3.org/2000/svg" version="1.1">
 <metadata>
  <rdf:RDF xmlns:dc="http://purl.org/dc/elements/1.1/" xmlns:cc="http://creativecommons.org/ns#" xmlns:rdf="http://www.w3.org/1999/02/22-rdf-syntax-ns#">
   <cc:Work>
    <dc:type rdf:resource="http://purl.org/dc/dcmitype/StillImage"/>
    <dc:date>2025-05-10T21:57:39.745596</dc:date>
    <dc:format>image/svg+xml</dc:format>
    <dc:creator>
     <cc:Agent>
      <dc:title>Matplotlib v3.6.3, https://matplotlib.org/</dc:title>
     </cc:Agent>
    </dc:creator>
   </cc:Work>
  </rdf:RDF>
 </metadata>
 <defs>
  <style type="text/css">*{stroke-linejoin: round; stroke-linecap: butt}</style>
 </defs>
 <g id="figure_1">
  <g id="patch_1">
   <path d="M 0 246.9 
L 1130.4 246.9 
L 1130.4 0 
L 0 0 
z
" style="fill: #ffffff"/>
  </g>
  <g id="axes_1">
   <g id="PatchCollection_1">
    <path d="M 7.2 53.7 
L 53.7 53.7 
L 53.7 7.2 
L 7.2 7.2 
z
" clip-path="url(#p4e784f507f)" style="fill: #fcb225; stroke: #000000; stroke-width: 1.333333"/>
    <path d="M 425.7 53.7 
L 472.2 53.7 
L 472.2 7.2 
L 425.7 7.2 
z
" clip-path="url(#p4e784f507f)" style="fill: #5add4a; stroke: #000000; stroke-width: 1.333333"/>
    <path d="M 472.2 53.7 
L 518.7 53.7 
L 518.7 7.2 
L 472.2 7.2 
z
" clip-path="url(#p4e784f507f)" style="fill: #60bdfd; stroke: #000000; stroke-width: 1.333333"/>
    <path d="M 53.7 100.2 
L 100.2 100.2 
L 100.2 53.7 
L 53.7 53.7 
z
" clip-path="url(#p4e784f507f)" style="fill: #fcb225; stroke: #000000; stroke-width: 1.333333"/>
    <path d="M 379.2 100.2 
L 425.7 100.2 
L 425.7 53.7 
L 379.2 53.7 
z
" clip-path="url(#p4e784f507f)" style="fill: #5add4a; stroke: #000000; stroke-width: 1.333333"/>
    <path d="M 472.2 100.2 
L 518.7 100.2 
L 518.7 53.7 
L 472.2 53.7 
z
" clip-path="url(#p4e784f507f)" style="fill: #60bdfd; stroke: #000000; stroke-width: 1.333333"/>
    <path d="M 100.2 146.7 
L 146.7 146.7 
L 146.7 100.2 
L 100.2 100.2 
z
" clip-path="url(#p4e784f507f)" style="fill: #fcb225; stroke: #000000; stroke-width: 1.333333"/>
    <path d="M 332.7 146.7 
L 379.2 146.7 
L 379.2 100.2 
L 332.7 100.2 
z
" clip-path="url(#p4e784f507f)" style="fill: #5add4a; stroke: #000000; stroke-width: 1.333333"/>
    <path d="M 472.2 146.7 
L 518.7 146.7 
L 518.7 100.2 
L 472.2 100.2 
z
" clip-path="url(#p4e784f507f)" style="fill: #60bdfd; stroke: #000000; stroke-width: 1.333333"/>
    <path d="M 146.7 193.2 
L 193.2 193.2 
L 193.2 146.7 
L 146.7 146.7 
z
" clip-path="url(#p4e784f507f)" style="fill: #fcb225; stroke: #000000; stroke-width: 1.333333"/>
    <path d="M 286.2 193.2 
L 332.7 193.2 
L 332.7 146.7 
L 286.2 146.7 
z
" clip-path="url(#p4e784f507f)" style="fill: #5add4a; stroke: #000000; stroke-width: 1.333333"/>
    <path d="M 472.2 193.2 
L 518.7 193.2 
L 518.7 146.7 
L 472.2 146.7 
z
" clip-path="url(#p4e784f507f)" style="fill: #60bdfd; stroke: #000000; stroke-width: 1.333333"/>
    <path d="M 193.2 239.7 
L 239.7 239.7 
L 239.7 193.2 
L 193.2 193.2 
z
" clip-path="url(#p4e784f507f)" style="fill: #fcb225; stroke: #000000; stroke-width: 1.333333"/>
    <path d="M 239.7 239.7 
L 286.2 239.7 
L 286.2 193.2 
L 239.7 193.2 
z
" clip-path="url(#p4e784f507f)" style="fill: #5add4a; stroke: #000000; stroke-width: 1.333333"/>
    <path d="M 472.2 239.7 
L 518.7 239.7 
L 518.7 193.2 
L 472.2 193.2 
z
" clip-path="url(#p4e784f507f)" style="fill: #60bdfd; stroke: #000000; stroke-width: 1.333333"/>
   </g>
   <g id="text_1">
    <!-- 0 -->
    <g transform="translate(21.966667 39.900833) scale(0.266667 -0.266667)">
     <defs>
      <path id="DejaVuSans-30" d="M 2034 4250 
Q 1547 4250 1301 3770 
Q 1056 3291 1056 2328 
Q 1056 1369 1301 889 
Q 1547 409 2034 409 
Q 2525 409 2770 889 
Q 3016 1369 3016 2328 
Q 3016 3291 2770 3770 
Q 2525 4250 2034 4250 
z
M 2034 4750 
Q 2819 4750 3233 4129 
Q 3647 3509 3647 2328 
Q 3647 1150 3233 529 
Q 2819 -91 2034 -91 
Q 1250 -91 836 529 
Q 422 1150 422 2328 
Q 422 3509 836 4129 
Q 1250 4750 2034 4750 
z
" transform="scale(0.015625)"/>
     </defs>
     <use xlink:href="#DejaVuSans-30"/>
    </g>
   </g>
   <g id="text_2">
    <!-- 0 -->
    <g transform="translate(440.466667 39.900833) scale(0.266667 -0.266667)">
     <use xlink:href="#DejaVuSans-30"/>
    </g>
   </g>
   <g id="text_3">
    <!-- 0 -->
    <g transform="translate(486.966667 39.900833) scale(0.266667 -0.266667)">
     <use xlink:href="#DejaVuSans-30"/>
    </g>
   </g>
   <g id="text_4">
    <!-- 0 -->
    <g transform="translate(68.466667 86.400833) scale(0.266667 -0.266667)">
     <use xlink:href="#DejaVuSans-30"/>
    </g>
   </g>
   <g id="text_5">
    <!-- 0 -->
    <g transform="translate(393.966667 86.400833) scale(0.266667 -0.266667)">
     <use xlink:href="#DejaVuSans-30"/>
    </g>
   </g>
   <g id="text_6">
    <!-- 0 -->
    <g transform="translate(486.966667 86.400833) scale(0.266667 -0.266667)">
     <use xlink:href="#DejaVuSans-30"/>
    </g>
   </g>
   <g id="text_7">
    <!-- 0 -->
    <g transform="translate(114.966667 132.900833) scale(0.266667 -0.266667)">
     <use xlink:href="#DejaVuSans-30"/>
    </g>
   </g>
   <g id="text_8">
    <!-- 0 -->
    <g transform="translate(347.466667 132.900833) scale(0.266667 -0.266667)">
     <use xlink:href="#DejaVuSans-30"/>
    </g>
   </g>
   <g id="text_9">
    <!-- 0 -->
    <g transform="translate(486.966667 132.900833) scale(0.266667 -0.266667)">
     <use xlink:href="#DejaVuSans-30"/>
    </g>
   </g>
   <g id="text_10">
    <!-- 0 -->
    <g transform="translate(161.466667 179.400833) scale(0.266667 -0.266667)">
     <use xlink:href="#DejaVuSans-30"/>
    </g>
   </g>
   <g id="text_11">
    <!-- 0 -->
    <g transform="translate(300.966667 179.400833) scale(0.266667 -0.266667)">
     <use xlink:href="#DejaVuSans-30"/>
    </g>
   </g>
   <g id="text_12">
    <!-- 0 -->
    <g transform="translate(486.966667 179.400833) scale(0.266667 -0.266667)">
     <use xlink:href="#DejaVuSans-30"/>
    </g>
   </g>
   <g id="text_13">
    <!-- 0 -->
    <g transform="translate(207.966667 225.900833) scale(0.266667 -0.266667)">
     <use xlink:href="#DejaVuSans-30"/>
    </g>
   </g>
   <g id="text_14">
    <!-- 0 -->
    <g transform="translate(254.466667 225.900833) scale(0.266667 -0.266667)">
     <use xlink:href="#DejaVuSans-30"/>
    </g>
   </g>
   <g id="text_15">
    <!-- 0 -->
    <g transform="translate(486.966667 225.900833) scale(0.266667 -0.266667)">
     <use xlink:href="#DejaVuSans-30"/>
    </g>
   </g>
  </g>
 </g>
 <defs>
  <clipPath id="p4e784f507f">
   <rect x="7.2" y="7.2" width="1116" height="232.5"/>
  </clipPath>
 </defs>
</svg>
