<?xml version="1.0" encoding="utf-8" standalone="no"?>
<!DOCTYPE svg PUBLIC "-//W3C//DTD SVG 1.1//EN"
  "http://www.w3.org/Graphics/SVG/1.1/DTD/svg11.dtd">
<svg xmlns:xlink="http://www.w3.org/1999/xlink" width="1130.4pt" height="217.309091pt" viewBox="0 0 1130.4 217.309091" xmlns="http://www.w3.org/2000/svg" version="1.1">
 <metadata>
  <rdf:RDF xmlns:dc="http://purl.org/dc/elements/1.1/" xmlns:cc="http://creativecommons.org/ns#" xmlns:rdf="http://www.w3.org/1999/02/22-rdf-syntax-ns#">
   <cc:Work>
    <dc:type rdf:resource="http://purl.org/dc/dcmitype/StillImage"/>
    <dc:date>2025-05-10T21:57:41.529994</dc:date>
    <dc:format>image/svg+xml</dc:format>
    <dc:creator>
     <cc:Agent>
      <dc:title>Matplotlib v3.6.3, https://matplotlib.org/</dc:title>
     </cc:Agent>
    </dc:creator>
   </cc:Work>
  </rdf:RDF>
 </metadata>
 <defs>
  <style type="text/css">*{stroke-linejoin: round; stroke-linecap: butt}</style>
 </defs>
 <g id="figure_1">
  <g id="patch_1">
   <path d="M 0 217.309091 
L 1130.4 217.309091 
L 1130.4 -0 
L 0 -0 
z
" style="fill: #ffffff"/>
  </g>
  <g id="axes_1">
   <g id="PatchCollection_1">
    <path d="M 7.2 32.563636 
L 32.563636 32.563636 
L 32.563636 7.2 
L 7.2 7.2 
z
" clip-path="url(#pdfa16807b8)" style="fill: #fcb225; stroke: #000000; stroke-width: 0.727273"/>
    <path d="M 32.563636 32.563636 
L 57.927273 32.563636 
L 57.927273 7.2 
L 32.563636 7.2 
z
" clip-path="url(#pdfa16807b8)" style="fill: #fcb225; stroke: #000000; stroke-width: 0.727273"/>
    <path d="M 57.927273 32.563636 
L 83.290909 32.563636 
L 83.290909 7.2 
L 57.927273 7.2 
z
" clip-path="url(#pdfa16807b8)" style="fill: #fcb225; stroke: #000000; stroke-width: 0.727273"/>
    <path d="M 387.654545 32.563636 
L 413.018182 32.563636 
L 413.018182 7.2 
L 387.654545 7.2 
z
" clip-path="url(#pdfa16807b8)" style="fill: #5add4a; stroke: #000000; stroke-width: 0.727273"/>
    <path d="M 413.018182 32.563636 
L 438.381818 32.563636 
L 438.381818 7.2 
L 413.018182 7.2 
z
" clip-path="url(#pdfa16807b8)" style="fill: #60bdfd; stroke: #000000; stroke-width: 0.727273"/>
    <path d="M 438.381818 32.563636 
L 463.745455 32.563636 
L 463.745455 7.2 
L 438.381818 7.2 
z
" clip-path="url(#pdfa16807b8)" style="fill: #5add4a; stroke: #000000; stroke-width: 0.727273"/>
    <path d="M 463.745455 32.563636 
L 489.109091 32.563636 
L 489.109091 7.2 
L 463.745455 7.2 
z
" clip-path="url(#pdfa16807b8)" style="fill: #60bdfd; stroke: #000000; stroke-width: 0.727273"/>
    <path d="M 489.109091 32.563636 
L 514.472727 32.563636 
L 514.472727 7.2 
L 489.109091 7.2 
z
" clip-path="url(#pdfa16807b8)" style="fill: #5add4a; stroke: #000000; stroke-width: 0.727273"/>
    <path d="M 514.472727 32.563636 
L 539.836364 32.563636 
L 539.836364 7.2 
L 514.472727 7.2 
z
" clip-path="url(#pdfa16807b8)" style="fill: #60bdfd; stroke: #000000; stroke-width: 0.727273"/>
    <path d="M 32.563636 57.927273 
L 57.927273 57.927273 
L 57.927273 32.563636 
L 32.563636 32.563636 
z
" clip-path="url(#pdfa16807b8)" style="fill: #fcb225; stroke: #000000; stroke-width: 0.727273"/>
    <path d="M 57.927273 57.927273 
L 83.290909 57.927273 
L 83.290909 32.563636 
L 57.927273 32.563636 
z
" clip-path="url(#pdfa16807b8)" style="fill: #fcb225; stroke: #000000; stroke-width: 0.727273"/>
    <path d="M 83.290909 57.927273 
L 108.654545 57.927273 
L 108.654545 32.563636 
L 83.290909 32.563636 
z
" clip-path="url(#pdfa16807b8)" style="fill: #fcb225; stroke: #000000; stroke-width: 0.727273"/>
    <path d="M 362.290909 57.927273 
L 387.654545 57.927273 
L 387.654545 32.563636 
L 362.290909 32.563636 
z
" clip-path="url(#pdfa16807b8)" style="fill: #5add4a; stroke: #000000; stroke-width: 0.727273"/>
    <path d="M 413.018182 57.927273 
L 438.381818 57.927273 
L 438.381818 32.563636 
L 413.018182 32.563636 
z
" clip-path="url(#pdfa16807b8)" style="fill: #5add4a; stroke: #000000; stroke-width: 0.727273"/>
    <path d="M 438.381818 57.927273 
L 463.745455 57.927273 
L 463.745455 32.563636 
L 438.381818 32.563636 
z
" clip-path="url(#pdfa16807b8)" style="fill: #60bdfd; stroke: #000000; stroke-width: 0.727273"/>
    <path d="M 463.745455 57.927273 
L 489.109091 57.927273 
L 489.109091 32.563636 
L 463.745455 32.563636 
z
" clip-path="url(#pdfa16807b8)" style="fill: #5add4a; stroke: #000000; stroke-width: 0.727273"/>
    <path d="M 489.109091 57.927273 
L 514.472727 57.927273 
L 514.472727 32.563636 
L 489.109091 32.563636 
z
" clip-path="url(#pdfa16807b8)" style="fill: #60bdfd; stroke: #000000; stroke-width: 0.727273"/>
    <path d="M 514.472727 57.927273 
L 539.836364 57.927273 
L 539.836364 32.563636 
L 514.472727 32.563636 
z
" clip-path="url(#pdfa16807b8)" style="fill: #60bdfd; stroke: #000000; stroke-width: 0.727273"/>
    <path d="M 57.927273 83.290909 
L 83.290909 83.290909 
L 83.290909 57.927273 
L 57.927273 57.927273 
z
" clip-path="url(#pdfa16807b8)" style="fill: #fcb225; stroke: #000000; stroke-width: 0.727273"/>
    <path d="M 83.290909 83.290909 
L 108.654545 83.290909 
L 108.654545 57.927273 
L 83.290909 57.927273 
z
" clip-path="url(#pdfa16807b8)" style="fill: #fcb225; stroke: #000000; stroke-width: 0.727273"/>
    <path d="M 108.654545 83.290909 
L 134.018182 83.290909 
L 134.018182 57.927273 
L 108.654545 57.927273 
z
" clip-path="url(#pdfa16807b8)" style="fill: #fcb225; stroke: #000000; stroke-width: 0.727273"/>
    <path d="M 336.927273 83.290909 
L 362.290909 83.290909 
L 362.290909 57.927273 
L 336.927273 57.927273 
z
" clip-path="url(#pdfa16807b8)" style="fill: #5add4a; stroke: #000000; stroke-width: 0.727273"/>
    <path d="M 387.654545 83.290909 
L 413.018182 83.290909 
L 413.018182 57.927273 
L 387.654545 57.927273 
z
" clip-path="url(#pdfa16807b8)" style="fill: #5add4a; stroke: #000000; stroke-width: 0.727273"/>
    <path d="M 438.381818 83.290909 
L 463.745455 83.290909 
L 463.745455 57.927273 
L 438.381818 57.927273 
z
" clip-path="url(#pdfa16807b8)" style="fill: #5add4a; stroke: #000000; stroke-width: 0.727273"/>
    <path d="M 463.745455 83.290909 
L 489.109091 83.290909 
L 489.109091 57.927273 
L 463.745455 57.927273 
z
" clip-path="url(#pdfa16807b8)" style="fill: #60bdfd; stroke: #000000; stroke-width: 0.727273"/>
    <path d="M 489.109091 83.290909 
L 514.472727 83.290909 
L 514.472727 57.927273 
L 489.109091 57.927273 
z
" clip-path="url(#pdfa16807b8)" style="fill: #60bdfd; stroke: #000000; stroke-width: 0.727273"/>
    <path d="M 514.472727 83.290909 
L 539.836364 83.290909 
L 539.836364 57.927273 
L 514.472727 57.927273 
z
" clip-path="url(#pdfa16807b8)" style="fill: #60bdfd; stroke: #000000; stroke-width: 0.727273"/>
    <path d="M 83.290909 108.654545 
L 108.654545 108.654545 
L 108.654545 83.290909 
L 83.290909 83.290909 
z
" clip-path="url(#pdfa16807b8)" style="fill: #fcb225; stroke: #000000; stroke-width: 0.727273"/>
    <path d="M 108.654545 108.654545 
L 134.018182 108.654545 
L 134.018182 83.290909 
L 108.654545 83.290909 
z
" clip-path="url(#pdfa16807b8)" style="fill: #fcb225; stroke: #000000; stroke-width: 0.727273"/>
    <path d="M 134.018182 108.654545 
L 159.381818 108.654545 
L 159.381818 83.290909 
L 134.018182 83.290909 
z
" clip-path="url(#pdfa16807b8)" style="fill: #fcb225; stroke: #000000; stroke-width: 0.727273"/>
    <path d="M 311.563636 108.654545 
L 336.927273 108.654545 
L 336.927273 83.290909 
L 311.563636 83.290909 
z
" clip-path="url(#pdfa16807b8)" style="fill: #5add4a; stroke: #000000; stroke-width: 0.727273"/>
    <path d="M 362.290909 108.654545 
L 387.654545 108.654545 
L 387.654545 83.290909 
L 362.290909 83.290909 
z
" clip-path="url(#pdfa16807b8)" style="fill: #5add4a; stroke: #000000; stroke-width: 0.727273"/>
    <path d="M 413.018182 108.654545 
L 438.381818 108.654545 
L 438.381818 83.290909 
L 413.018182 83.290909 
z
" clip-path="url(#pdfa16807b8)" style="fill: #5add4a; stroke: #000000; stroke-width: 0.727273"/>
    <path d="M 463.745455 108.654545 
L 489.109091 108.654545 
L 489.109091 83.290909 
L 463.745455 83.290909 
z
" clip-path="url(#pdfa16807b8)" style="fill: #60bdfd; stroke: #000000; stroke-width: 0.727273"/>
    <path d="M 489.109091 108.654545 
L 514.472727 108.654545 
L 514.472727 83.290909 
L 489.109091 83.290909 
z
" clip-path="url(#pdfa16807b8)" style="fill: #60bdfd; stroke: #000000; stroke-width: 0.727273"/>
    <path d="M 514.472727 108.654545 
L 539.836364 108.654545 
L 539.836364 83.290909 
L 514.472727 83.290909 
z
" clip-path="url(#pdfa16807b8)" style="fill: #60bdfd; stroke: #000000; stroke-width: 0.727273"/>
    <path d="M 108.654545 134.018182 
L 134.018182 134.018182 
L 134.018182 108.654545 
L 108.654545 108.654545 
z
" clip-path="url(#pdfa16807b8)" style="fill: #fcb225; stroke: #000000; stroke-width: 0.727273"/>
    <path d="M 134.018182 134.018182 
L 159.381818 134.018182 
L 159.381818 108.654545 
L 134.018182 108.654545 
z
" clip-path="url(#pdfa16807b8)" style="fill: #fcb225; stroke: #000000; stroke-width: 0.727273"/>
    <path d="M 159.381818 134.018182 
L 184.745455 134.018182 
L 184.745455 108.654545 
L 159.381818 108.654545 
z
" clip-path="url(#pdfa16807b8)" style="fill: #fcb225; stroke: #000000; stroke-width: 0.727273"/>
    <path d="M 286.2 134.018182 
L 311.563636 134.018182 
L 311.563636 108.654545 
L 286.2 108.654545 
z
" clip-path="url(#pdfa16807b8)" style="fill: #5add4a; stroke: #000000; stroke-width: 0.727273"/>
    <path d="M 336.927273 134.018182 
L 362.290909 134.018182 
L 362.290909 108.654545 
L 336.927273 108.654545 
z
" clip-path="url(#pdfa16807b8)" style="fill: #5add4a; stroke: #000000; stroke-width: 0.727273"/>
    <path d="M 387.654545 134.018182 
L 413.018182 134.018182 
L 413.018182 108.654545 
L 387.654545 108.654545 
z
" clip-path="url(#pdfa16807b8)" style="fill: #5add4a; stroke: #000000; stroke-width: 0.727273"/>
    <path d="M 463.745455 134.018182 
L 489.109091 134.018182 
L 489.109091 108.654545 
L 463.745455 108.654545 
z
" clip-path="url(#pdfa16807b8)" style="fill: #60bdfd; stroke: #000000; stroke-width: 0.727273"/>
    <path d="M 489.109091 134.018182 
L 514.472727 134.018182 
L 514.472727 108.654545 
L 489.109091 108.654545 
z
" clip-path="url(#pdfa16807b8)" style="fill: #60bdfd; stroke: #000000; stroke-width: 0.727273"/>
    <path d="M 514.472727 134.018182 
L 539.836364 134.018182 
L 539.836364 108.654545 
L 514.472727 108.654545 
z
" clip-path="url(#pdfa16807b8)" style="fill: #60bdfd; stroke: #000000; stroke-width: 0.727273"/>
    <path d="M 134.018182 159.381818 
L 159.381818 159.381818 
L 159.381818 134.018182 
L 134.018182 134.018182 
z
" clip-path="url(#pdfa16807b8)" style="fill: #fcb225; stroke: #000000; stroke-width: 0.727273"/>
    <path d="M 159.381818 159.381818 
L 184.745455 159.381818 
L 184.745455 134.018182 
L 159.381818 134.018182 
z
" clip-path="url(#pdfa16807b8)" style="fill: #fcb225; stroke: #000000; stroke-width: 0.727273"/>
    <path d="M 184.745455 159.381818 
L 210.109091 159.381818 
L 210.109091 134.018182 
L 184.745455 134.018182 
z
" clip-path="url(#pdfa16807b8)" style="fill: #fcb225; stroke: #000000; stroke-width: 0.727273"/>
    <path d="M 260.836364 159.381818 
L 286.2 159.381818 
L 286.2 134.018182 
L 260.836364 134.018182 
z
" clip-path="url(#pdfa16807b8)" style="fill: #5add4a; stroke: #000000; stroke-width: 0.727273"/>
    <path d="M 311.563636 159.381818 
L 336.927273 159.381818 
L 336.927273 134.018182 
L 311.563636 134.018182 
z
" clip-path="url(#pdfa16807b8)" style="fill: #5add4a; stroke: #000000; stroke-width: 0.727273"/>
    <path d="M 362.290909 159.381818 
L 387.654545 159.381818 
L 387.654545 134.018182 
L 362.290909 134.018182 
z
" clip-path="url(#pdfa16807b8)" style="fill: #5add4a; stroke: #000000; stroke-width: 0.727273"/>
    <path d="M 463.745455 159.381818 
L 489.109091 159.381818 
L 489.109091 134.018182 
L 463.745455 134.018182 
z
" clip-path="url(#pdfa16807b8)" style="fill: #60bdfd; stroke: #000000; stroke-width: 0.727273"/>
    <path d="M 489.109091 159.381818 
L 514.472727 159.381818 
L 514.472727 134.018182 
L 489.109091 134.018182 
z
" clip-path="url(#pdfa16807b8)" style="fill: #60bdfd; stroke: #000000; stroke-width: 0.727273"/>
    <path d="M 514.472727 159.381818 
L 539.836364 159.381818 
L 539.836364 134.018182 
L 514.472727 134.018182 
z
" clip-path="url(#pdfa16807b8)" style="fill: #60bdfd; stroke: #000000; stroke-width: 0.727273"/>
    <path d="M 159.381818 184.745455 
L 184.745455 184.745455 
L 184.745455 159.381818 
L 159.381818 159.381818 
z
" clip-path="url(#pdfa16807b8)" style="fill: #fcb225; stroke: #000000; stroke-width: 0.727273"/>
    <path d="M 184.745455 184.745455 
L 210.109091 184.745455 
L 210.109091 159.381818 
L 184.745455 159.381818 
z
" clip-path="url(#pdfa16807b8)" style="fill: #fcb225; stroke: #000000; stroke-width: 0.727273"/>
    <path d="M 235.472727 184.745455 
L 260.836364 184.745455 
L 260.836364 159.381818 
L 235.472727 159.381818 
z
" clip-path="url(#pdfa16807b8)" style="fill: #5add4a; stroke: #000000; stroke-width: 0.727273"/>
    <path d="M 260.836364 184.745455 
L 286.2 184.745455 
L 286.2 159.381818 
L 260.836364 159.381818 
z
" clip-path="url(#pdfa16807b8)" style="fill: #fcb225; stroke: #000000; stroke-width: 0.727273"/>
    <path d="M 286.2 184.745455 
L 311.563636 184.745455 
L 311.563636 159.381818 
L 286.2 159.381818 
z
" clip-path="url(#pdfa16807b8)" style="fill: #5add4a; stroke: #000000; stroke-width: 0.727273"/>
    <path d="M 336.927273 184.745455 
L 362.290909 184.745455 
L 362.290909 159.381818 
L 336.927273 159.381818 
z
" clip-path="url(#pdfa16807b8)" style="fill: #5add4a; stroke: #000000; stroke-width: 0.727273"/>
    <path d="M 463.745455 184.745455 
L 489.109091 184.745455 
L 489.109091 159.381818 
L 463.745455 159.381818 
z
" clip-path="url(#pdfa16807b8)" style="fill: #60bdfd; stroke: #000000; stroke-width: 0.727273"/>
    <path d="M 489.109091 184.745455 
L 514.472727 184.745455 
L 514.472727 159.381818 
L 489.109091 159.381818 
z
" clip-path="url(#pdfa16807b8)" style="fill: #60bdfd; stroke: #000000; stroke-width: 0.727273"/>
    <path d="M 514.472727 184.745455 
L 539.836364 184.745455 
L 539.836364 159.381818 
L 514.472727 159.381818 
z
" clip-path="url(#pdfa16807b8)" style="fill: #60bdfd; stroke: #000000; stroke-width: 0.727273"/>
    <path d="M 184.745455 210.109091 
L 210.109091 210.109091 
L 210.109091 184.745455 
L 184.745455 184.745455 
z
" clip-path="url(#pdfa16807b8)" style="fill: #fcb225; stroke: #000000; stroke-width: 0.727273"/>
    <path d="M 210.109091 210.109091 
L 235.472727 210.109091 
L 235.472727 184.745455 
L 210.109091 184.745455 
z
" clip-path="url(#pdfa16807b8)" style="fill: #5add4a; stroke: #000000; stroke-width: 0.727273"/>
    <path d="M 235.472727 210.109091 
L 260.836364 210.109091 
L 260.836364 184.745455 
L 235.472727 184.745455 
z
" clip-path="url(#pdfa16807b8)" style="fill: #fcb225; stroke: #000000; stroke-width: 0.727273"/>
    <path d="M 260.836364 210.109091 
L 286.2 210.109091 
L 286.2 184.745455 
L 260.836364 184.745455 
z
" clip-path="url(#pdfa16807b8)" style="fill: #5add4a; stroke: #000000; stroke-width: 0.727273"/>
    <path d="M 286.2 210.109091 
L 311.563636 210.109091 
L 311.563636 184.745455 
L 286.2 184.745455 
z
" clip-path="url(#pdfa16807b8)" style="fill: #fcb225; stroke: #000000; stroke-width: 0.727273"/>
    <path d="M 311.563636 210.109091 
L 336.927273 210.109091 
L 336.927273 184.745455 
L 311.563636 184.745455 
z
" clip-path="url(#pdfa16807b8)" style="fill: #5add4a; stroke: #000000; stroke-width: 0.727273"/>
    <path d="M 463.745455 210.109091 
L 489.109091 210.109091 
L 489.109091 184.745455 
L 463.745455 184.745455 
z
" clip-path="url(#pdfa16807b8)" style="fill: #60bdfd; stroke: #000000; stroke-width: 0.727273"/>
    <path d="M 489.109091 210.109091 
L 514.472727 210.109091 
L 514.472727 184.745455 
L 489.109091 184.745455 
z
" clip-path="url(#pdfa16807b8)" style="fill: #60bdfd; stroke: #000000; stroke-width: 0.727273"/>
    <path d="M 514.472727 210.109091 
L 539.836364 210.109091 
L 539.836364 184.745455 
L 514.472727 184.745455 
z
" clip-path="url(#pdfa16807b8)" style="fill: #60bdfd; stroke: #000000; stroke-width: 0.727273"/>
   </g>
   <g id="text_1">
    <!-- 0 -->
    <g transform="translate(15.254545 25.036818) scale(0.145455 -0.145455)">
     <defs>
      <path id="DejaVuSans-30" d="M 2034 4250 
Q 1547 4250 1301 3770 
Q 1056 3291 1056 2328 
Q 1056 1369 1301 889 
Q 1547 409 2034 409 
Q 2525 409 2770 889 
Q 3016 1369 3016 2328 
Q 3016 3291 2770 3770 
Q 2525 4250 2034 4250 
z
M 2034 4750 
Q 2819 4750 3233 4129 
Q 3647 3509 3647 2328 
Q 3647 1150 3233 529 
Q 2819 -91 2034 -91 
Q 1250 -91 836 529 
Q 422 1150 422 2328 
Q 422 3509 836 4129 
Q 1250 4750 2034 4750 
z
" transform="scale(0.015625)"/>
     </defs>
     <use xlink:href="#DejaVuSans-30"/>
    </g>
   </g>
   <g id="text_2">
    <!-- 1 -->
    <g transform="translate(40.618182 25.036818) scale(0.145455 -0.145455)">
     <defs>
      <path id="DejaVuSans-31" d="M 794 531 
L 1825 531 
L 1825 4091 
L 703 3866 
L 703 4441 
L 1819 4666 
L 2450 4666 
L 2450 531 
L 3481 531 
L 3481 0 
L 794 0 
L 794 531 
z
" transform="scale(0.015625)"/>
     </defs>
     <use xlink:href="#DejaVuSans-31"/>
    </g>
   </g>
   <g id="text_3">
    <!-- 2 -->
    <g transform="translate(65.981818 25.036818) scale(0.145455 -0.145455)">
     <defs>
      <path id="DejaVuSans-32" d="M 1228 531 
L 3431 531 
L 3431 0 
L 469 0 
L 469 531 
Q 828 903 1448 1529 
Q 2069 2156 2228 2338 
Q 2531 2678 2651 2914 
Q 2772 3150 2772 3378 
Q 2772 3750 2511 3984 
Q 2250 4219 1831 4219 
Q 1534 4219 1204 4116 
Q 875 4013 500 3803 
L 500 4441 
Q 881 4594 1212 4672 
Q 1544 4750 1819 4750 
Q 2544 4750 2975 4387 
Q 3406 4025 3406 3419 
Q 3406 3131 3298 2873 
Q 3191 2616 2906 2266 
Q 2828 2175 2409 1742 
Q 1991 1309 1228 531 
z
" transform="scale(0.015625)"/>
     </defs>
     <use xlink:href="#DejaVuSans-32"/>
    </g>
   </g>
   <g id="text_4">
    <!-- 0 -->
    <g transform="translate(395.709091 25.036818) scale(0.145455 -0.145455)">
     <use xlink:href="#DejaVuSans-30"/>
    </g>
   </g>
   <g id="text_5">
    <!-- 0 -->
    <g transform="translate(421.072727 25.036818) scale(0.145455 -0.145455)">
     <use xlink:href="#DejaVuSans-30"/>
    </g>
   </g>
   <g id="text_6">
    <!-- 1 -->
    <g transform="translate(446.436364 25.036818) scale(0.145455 -0.145455)">
     <use xlink:href="#DejaVuSans-31"/>
    </g>
   </g>
   <g id="text_7">
    <!-- 1 -->
    <g transform="translate(471.8 25.036818) scale(0.145455 -0.145455)">
     <use xlink:href="#DejaVuSans-31"/>
    </g>
   </g>
   <g id="text_8">
    <!-- 2 -->
    <g transform="translate(497.163636 25.036818) scale(0.145455 -0.145455)">
     <use xlink:href="#DejaVuSans-32"/>
    </g>
   </g>
   <g id="text_9">
    <!-- 2 -->
    <g transform="translate(522.527273 25.036818) scale(0.145455 -0.145455)">
     <use xlink:href="#DejaVuSans-32"/>
    </g>
   </g>
   <g id="text_10">
    <!-- 0 -->
    <g transform="translate(40.618182 50.400455) scale(0.145455 -0.145455)">
     <use xlink:href="#DejaVuSans-30"/>
    </g>
   </g>
   <g id="text_11">
    <!-- 1 -->
    <g transform="translate(65.981818 50.400455) scale(0.145455 -0.145455)">
     <use xlink:href="#DejaVuSans-31"/>
    </g>
   </g>
   <g id="text_12">
    <!-- 2 -->
    <g transform="translate(91.345455 50.400455) scale(0.145455 -0.145455)">
     <use xlink:href="#DejaVuSans-32"/>
    </g>
   </g>
   <g id="text_13">
    <!-- 0 -->
    <g transform="translate(370.345455 50.400455) scale(0.145455 -0.145455)">
     <use xlink:href="#DejaVuSans-30"/>
    </g>
   </g>
   <g id="text_14">
    <!-- 1 -->
    <g transform="translate(421.072727 50.400455) scale(0.145455 -0.145455)">
     <use xlink:href="#DejaVuSans-31"/>
    </g>
   </g>
   <g id="text_15">
    <!-- 0 -->
    <g transform="translate(446.436364 50.400455) scale(0.145455 -0.145455)">
     <use xlink:href="#DejaVuSans-30"/>
    </g>
   </g>
   <g id="text_16">
    <!-- 2 -->
    <g transform="translate(471.8 50.400455) scale(0.145455 -0.145455)">
     <use xlink:href="#DejaVuSans-32"/>
    </g>
   </g>
   <g id="text_17">
    <!-- 1 -->
    <g transform="translate(497.163636 50.400455) scale(0.145455 -0.145455)">
     <use xlink:href="#DejaVuSans-31"/>
    </g>
   </g>
   <g id="text_18">
    <!-- 2 -->
    <g transform="translate(522.527273 50.400455) scale(0.145455 -0.145455)">
     <use xlink:href="#DejaVuSans-32"/>
    </g>
   </g>
   <g id="text_19">
    <!-- 0 -->
    <g transform="translate(65.981818 75.764091) scale(0.145455 -0.145455)">
     <use xlink:href="#DejaVuSans-30"/>
    </g>
   </g>
   <g id="text_20">
    <!-- 1 -->
    <g transform="translate(91.345455 75.764091) scale(0.145455 -0.145455)">
     <use xlink:href="#DejaVuSans-31"/>
    </g>
   </g>
   <g id="text_21">
    <!-- 2 -->
    <g transform="translate(116.709091 75.764091) scale(0.145455 -0.145455)">
     <use xlink:href="#DejaVuSans-32"/>
    </g>
   </g>
   <g id="text_22">
    <!-- 0 -->
    <g transform="translate(344.981818 75.764091) scale(0.145455 -0.145455)">
     <use xlink:href="#DejaVuSans-30"/>
    </g>
   </g>
   <g id="text_23">
    <!-- 1 -->
    <g transform="translate(395.709091 75.764091) scale(0.145455 -0.145455)">
     <use xlink:href="#DejaVuSans-31"/>
    </g>
   </g>
   <g id="text_24">
    <!-- 2 -->
    <g transform="translate(446.436364 75.764091) scale(0.145455 -0.145455)">
     <use xlink:href="#DejaVuSans-32"/>
    </g>
   </g>
   <g id="text_25">
    <!-- 0 -->
    <g transform="translate(471.8 75.764091) scale(0.145455 -0.145455)">
     <use xlink:href="#DejaVuSans-30"/>
    </g>
   </g>
   <g id="text_26">
    <!-- 1 -->
    <g transform="translate(497.163636 75.764091) scale(0.145455 -0.145455)">
     <use xlink:href="#DejaVuSans-31"/>
    </g>
   </g>
   <g id="text_27">
    <!-- 2 -->
    <g transform="translate(522.527273 75.764091) scale(0.145455 -0.145455)">
     <use xlink:href="#DejaVuSans-32"/>
    </g>
   </g>
   <g id="text_28">
    <!-- 0 -->
    <g transform="translate(91.345455 101.127727) scale(0.145455 -0.145455)">
     <use xlink:href="#DejaVuSans-30"/>
    </g>
   </g>
   <g id="text_29">
    <!-- 1 -->
    <g transform="translate(116.709091 101.127727) scale(0.145455 -0.145455)">
     <use xlink:href="#DejaVuSans-31"/>
    </g>
   </g>
   <g id="text_30">
    <!-- 2 -->
    <g transform="translate(142.072727 101.127727) scale(0.145455 -0.145455)">
     <use xlink:href="#DejaVuSans-32"/>
    </g>
   </g>
   <g id="text_31">
    <!-- 0 -->
    <g transform="translate(319.618182 101.127727) scale(0.145455 -0.145455)">
     <use xlink:href="#DejaVuSans-30"/>
    </g>
   </g>
   <g id="text_32">
    <!-- 1 -->
    <g transform="translate(370.345455 101.127727) scale(0.145455 -0.145455)">
     <use xlink:href="#DejaVuSans-31"/>
    </g>
   </g>
   <g id="text_33">
    <!-- 2 -->
    <g transform="translate(421.072727 101.127727) scale(0.145455 -0.145455)">
     <use xlink:href="#DejaVuSans-32"/>
    </g>
   </g>
   <g id="text_34">
    <!-- 0 -->
    <g transform="translate(471.8 101.127727) scale(0.145455 -0.145455)">
     <use xlink:href="#DejaVuSans-30"/>
    </g>
   </g>
   <g id="text_35">
    <!-- 1 -->
    <g transform="translate(497.163636 101.127727) scale(0.145455 -0.145455)">
     <use xlink:href="#DejaVuSans-31"/>
    </g>
   </g>
   <g id="text_36">
    <!-- 2 -->
    <g transform="translate(522.527273 101.127727) scale(0.145455 -0.145455)">
     <use xlink:href="#DejaVuSans-32"/>
    </g>
   </g>
   <g id="text_37">
    <!-- 0 -->
    <g transform="translate(116.709091 126.491364) scale(0.145455 -0.145455)">
     <use xlink:href="#DejaVuSans-30"/>
    </g>
   </g>
   <g id="text_38">
    <!-- 1 -->
    <g transform="translate(142.072727 126.491364) scale(0.145455 -0.145455)">
     <use xlink:href="#DejaVuSans-31"/>
    </g>
   </g>
   <g id="text_39">
    <!-- 2 -->
    <g transform="translate(167.436364 126.491364) scale(0.145455 -0.145455)">
     <use xlink:href="#DejaVuSans-32"/>
    </g>
   </g>
   <g id="text_40">
    <!-- 0 -->
    <g transform="translate(294.254545 126.491364) scale(0.145455 -0.145455)">
     <use xlink:href="#DejaVuSans-30"/>
    </g>
   </g>
   <g id="text_41">
    <!-- 1 -->
    <g transform="translate(344.981818 126.491364) scale(0.145455 -0.145455)">
     <use xlink:href="#DejaVuSans-31"/>
    </g>
   </g>
   <g id="text_42">
    <!-- 2 -->
    <g transform="translate(395.709091 126.491364) scale(0.145455 -0.145455)">
     <use xlink:href="#DejaVuSans-32"/>
    </g>
   </g>
   <g id="text_43">
    <!-- 0 -->
    <g transform="translate(471.8 126.491364) scale(0.145455 -0.145455)">
     <use xlink:href="#DejaVuSans-30"/>
    </g>
   </g>
   <g id="text_44">
    <!-- 1 -->
    <g transform="translate(497.163636 126.491364) scale(0.145455 -0.145455)">
     <use xlink:href="#DejaVuSans-31"/>
    </g>
   </g>
   <g id="text_45">
    <!-- 2 -->
    <g transform="translate(522.527273 126.491364) scale(0.145455 -0.145455)">
     <use xlink:href="#DejaVuSans-32"/>
    </g>
   </g>
   <g id="text_46">
    <!-- 0 -->
    <g transform="translate(142.072727 151.855) scale(0.145455 -0.145455)">
     <use xlink:href="#DejaVuSans-30"/>
    </g>
   </g>
   <g id="text_47">
    <!-- 1 -->
    <g transform="translate(167.436364 151.855) scale(0.145455 -0.145455)">
     <use xlink:href="#DejaVuSans-31"/>
    </g>
   </g>
   <g id="text_48">
    <!-- 2 -->
    <g transform="translate(192.8 151.855) scale(0.145455 -0.145455)">
     <use xlink:href="#DejaVuSans-32"/>
    </g>
   </g>
   <g id="text_49">
    <!-- 0 -->
    <g transform="translate(268.890909 151.855) scale(0.145455 -0.145455)">
     <use xlink:href="#DejaVuSans-30"/>
    </g>
   </g>
   <g id="text_50">
    <!-- 1 -->
    <g transform="translate(319.618182 151.855) scale(0.145455 -0.145455)">
     <use xlink:href="#DejaVuSans-31"/>
    </g>
   </g>
   <g id="text_51">
    <!-- 2 -->
    <g transform="translate(370.345455 151.855) scale(0.145455 -0.145455)">
     <use xlink:href="#DejaVuSans-32"/>
    </g>
   </g>
   <g id="text_52">
    <!-- 0 -->
    <g transform="translate(471.8 151.855) scale(0.145455 -0.145455)">
     <use xlink:href="#DejaVuSans-30"/>
    </g>
   </g>
   <g id="text_53">
    <!-- 1 -->
    <g transform="translate(497.163636 151.855) scale(0.145455 -0.145455)">
     <use xlink:href="#DejaVuSans-31"/>
    </g>
   </g>
   <g id="text_54">
    <!-- 2 -->
    <g transform="translate(522.527273 151.855) scale(0.145455 -0.145455)">
     <use xlink:href="#DejaVuSans-32"/>
    </g>
   </g>
   <g id="text_55">
    <!-- 0 -->
    <g transform="translate(167.436364 177.218636) scale(0.145455 -0.145455)">
     <use xlink:href="#DejaVuSans-30"/>
    </g>
   </g>
   <g id="text_56">
    <!-- 1 -->
    <g transform="translate(192.8 177.218636) scale(0.145455 -0.145455)">
     <use xlink:href="#DejaVuSans-31"/>
    </g>
   </g>
   <g id="text_57">
    <!-- 0 -->
    <g transform="translate(243.527273 177.218636) scale(0.145455 -0.145455)">
     <use xlink:href="#DejaVuSans-30"/>
    </g>
   </g>
   <g id="text_58">
    <!-- 2 -->
    <g transform="translate(268.890909 177.218636) scale(0.145455 -0.145455)">
     <use xlink:href="#DejaVuSans-32"/>
    </g>
   </g>
   <g id="text_59">
    <!-- 1 -->
    <g transform="translate(294.254545 177.218636) scale(0.145455 -0.145455)">
     <use xlink:href="#DejaVuSans-31"/>
    </g>
   </g>
   <g id="text_60">
    <!-- 2 -->
    <g transform="translate(344.981818 177.218636) scale(0.145455 -0.145455)">
     <use xlink:href="#DejaVuSans-32"/>
    </g>
   </g>
   <g id="text_61">
    <!-- 0 -->
    <g transform="translate(471.8 177.218636) scale(0.145455 -0.145455)">
     <use xlink:href="#DejaVuSans-30"/>
    </g>
   </g>
   <g id="text_62">
    <!-- 1 -->
    <g transform="translate(497.163636 177.218636) scale(0.145455 -0.145455)">
     <use xlink:href="#DejaVuSans-31"/>
    </g>
   </g>
   <g id="text_63">
    <!-- 2 -->
    <g transform="translate(522.527273 177.218636) scale(0.145455 -0.145455)">
     <use xlink:href="#DejaVuSans-32"/>
    </g>
   </g>
   <g id="text_64">
    <!-- 0 -->
    <g transform="translate(192.8 202.582273) scale(0.145455 -0.145455)">
     <use xlink:href="#DejaVuSans-30"/>
    </g>
   </g>
   <g id="text_65">
    <!-- 0 -->
    <g transform="translate(218.163636 202.582273) scale(0.145455 -0.145455)">
     <use xlink:href="#DejaVuSans-30"/>
    </g>
   </g>
   <g id="text_66">
    <!-- 1 -->
    <g transform="translate(243.527273 202.582273) scale(0.145455 -0.145455)">
     <use xlink:href="#DejaVuSans-31"/>
    </g>
   </g>
   <g id="text_67">
    <!-- 1 -->
    <g transform="translate(268.890909 202.582273) scale(0.145455 -0.145455)">
     <use xlink:href="#DejaVuSans-31"/>
    </g>
   </g>
   <g id="text_68">
    <!-- 2 -->
    <g transform="translate(294.254545 202.582273) scale(0.145455 -0.145455)">
     <use xlink:href="#DejaVuSans-32"/>
    </g>
   </g>
   <g id="text_69">
    <!-- 2 -->
    <g transform="translate(319.618182 202.582273) scale(0.145455 -0.145455)">
     <use xlink:href="#DejaVuSans-32"/>
    </g>
   </g>
   <g id="text_70">
    <!-- 0 -->
    <g transform="translate(471.8 202.582273) scale(0.145455 -0.145455)">
     <use xlink:href="#DejaVuSans-30"/>
    </g>
   </g>
   <g id="text_71">
    <!-- 1 -->
    <g transform="translate(497.163636 202.582273) scale(0.145455 -0.145455)">
     <use xlink:href="#DejaVuSans-31"/>
    </g>
   </g>
   <g id="text_72">
    <!-- 2 -->
    <g transform="translate(522.527273 202.582273) scale(0.145455 -0.145455)">
     <use xlink:href="#DejaVuSans-32"/>
    </g>
   </g>
  </g>
 </g>
 <defs>
  <clipPath id="pdfa16807b8">
   <rect x="7.2" y="7.2" width="1116" height="202.909091"/>
  </clipPath>
 </defs>
</svg>
