<?xml version="1.0" encoding="utf-8" standalone="no"?>
<!DOCTYPE svg PUBLIC "-//W3C//DTD SVG 1.1//EN"
  "http://www.w3.org/Graphics/SVG/1.1/DTD/svg11.dtd">
<svg xmlns:xlink="http://www.w3.org/1999/xlink" width="1130.4pt" height="145.694118pt" viewBox="0 0 1130.4 145.694118" xmlns="http://www.w3.org/2000/svg" version="1.1">
 <metadata>
  <rdf:RDF xmlns:dc="http://purl.org/dc/elements/1.1/" xmlns:cc="http://creativecommons.org/ns#" xmlns:rdf="http://www.w3.org/1999/02/22-rdf-syntax-ns#">
   <cc:Work>
    <dc:type rdf:resource="http://purl.org/dc/dcmitype/StillImage"/>
    <dc:date>2025-05-10T21:57:49.400687</dc:date>
    <dc:format>image/svg+xml</dc:format>
    <dc:creator>
     <cc:Agent>
      <dc:title>Matplotlib v3.6.3, https://matplotlib.org/</dc:title>
     </cc:Agent>
    </dc:creator>
   </cc:Work>
  </rdf:RDF>
 </metadata>
 <defs>
  <style type="text/css">*{stroke-linejoin: round; stroke-linecap: butt}</style>
 </defs>
 <g id="figure_1">
  <g id="patch_1">
   <path d="M 0 145.694118 
L 1130.4 145.694118 
L 1130.4 0 
L 0 0 
z
" style="fill: #ffffff"/>
  </g>
  <g id="axes_1">
   <g id="PatchCollection_1">
    <path d="M 7.2 23.611765 
L 23.611765 23.611765 
L 23.611765 7.2 
L 7.2 7.2 
z
" clip-path="url(#p0b0df99d2b)" style="fill: #fcb225; stroke: #000000; stroke-width: 0.470588"/>
    <path d="M 23.611765 23.611765 
L 40.023529 23.611765 
L 40.023529 7.2 
L 23.611765 7.2 
z
" clip-path="url(#p0b0df99d2b)" style="fill: #fcb225; stroke: #000000; stroke-width: 0.470588"/>
    <path d="M 40.023529 23.611765 
L 56.435294 23.611765 
L 56.435294 7.2 
L 40.023529 7.2 
z
" clip-path="url(#p0b0df99d2b)" style="fill: #fcb225; stroke: #000000; stroke-width: 0.470588"/>
    <path d="M 56.435294 23.611765 
L 72.847059 23.611765 
L 72.847059 7.2 
L 56.435294 7.2 
z
" clip-path="url(#p0b0df99d2b)" style="fill: #fcb225; stroke: #000000; stroke-width: 0.470588"/>
    <path d="M 72.847059 23.611765 
L 89.258824 23.611765 
L 89.258824 7.2 
L 72.847059 7.2 
z
" clip-path="url(#p0b0df99d2b)" style="fill: #fcb225; stroke: #000000; stroke-width: 0.470588"/>
    <path d="M 89.258824 23.611765 
L 105.670588 23.611765 
L 105.670588 7.2 
L 89.258824 7.2 
z
" clip-path="url(#p0b0df99d2b)" style="fill: #fcb225; stroke: #000000; stroke-width: 0.470588"/>
    <path d="M 105.670588 23.611765 
L 122.082353 23.611765 
L 122.082353 7.2 
L 105.670588 7.2 
z
" clip-path="url(#p0b0df99d2b)" style="fill: #fcb225; stroke: #000000; stroke-width: 0.470588"/>
    <path d="M 122.082353 23.611765 
L 138.494118 23.611765 
L 138.494118 7.2 
L 122.082353 7.2 
z
" clip-path="url(#p0b0df99d2b)" style="fill: #fcb225; stroke: #000000; stroke-width: 0.470588"/>
    <path d="M 253.376471 23.611765 
L 269.788235 23.611765 
L 269.788235 7.2 
L 253.376471 7.2 
z
" clip-path="url(#p0b0df99d2b)" style="fill: #5add4a; stroke: #000000; stroke-width: 0.470588"/>
    <path d="M 269.788235 23.611765 
L 286.2 23.611765 
L 286.2 7.2 
L 269.788235 7.2 
z
" clip-path="url(#p0b0df99d2b)" style="fill: #60bdfd; stroke: #000000; stroke-width: 0.470588"/>
    <path d="M 286.2 23.611765 
L 302.611765 23.611765 
L 302.611765 7.2 
L 286.2 7.2 
z
" clip-path="url(#p0b0df99d2b)" style="fill: #fcb225; stroke: #000000; stroke-width: 0.470588"/>
    <path d="M 302.611765 23.611765 
L 319.023529 23.611765 
L 319.023529 7.2 
L 302.611765 7.2 
z
" clip-path="url(#p0b0df99d2b)" style="fill: #5add4a; stroke: #000000; stroke-width: 0.470588"/>
    <path d="M 319.023529 23.611765 
L 335.435294 23.611765 
L 335.435294 7.2 
L 319.023529 7.2 
z
" clip-path="url(#p0b0df99d2b)" style="fill: #60bdfd; stroke: #000000; stroke-width: 0.470588"/>
    <path d="M 335.435294 23.611765 
L 351.847059 23.611765 
L 351.847059 7.2 
L 335.435294 7.2 
z
" clip-path="url(#p0b0df99d2b)" style="fill: #5add4a; stroke: #000000; stroke-width: 0.470588"/>
    <path d="M 351.847059 23.611765 
L 368.258824 23.611765 
L 368.258824 7.2 
L 351.847059 7.2 
z
" clip-path="url(#p0b0df99d2b)" style="fill: #60bdfd; stroke: #000000; stroke-width: 0.470588"/>
    <path d="M 368.258824 23.611765 
L 384.670588 23.611765 
L 384.670588 7.2 
L 368.258824 7.2 
z
" clip-path="url(#p0b0df99d2b)" style="fill: #5add4a; stroke: #000000; stroke-width: 0.470588"/>
    <path d="M 384.670588 23.611765 
L 401.082353 23.611765 
L 401.082353 7.2 
L 384.670588 7.2 
z
" clip-path="url(#p0b0df99d2b)" style="fill: #60bdfd; stroke: #000000; stroke-width: 0.470588"/>
    <path d="M 401.082353 23.611765 
L 417.494118 23.611765 
L 417.494118 7.2 
L 401.082353 7.2 
z
" clip-path="url(#p0b0df99d2b)" style="fill: #5add4a; stroke: #000000; stroke-width: 0.470588"/>
    <path d="M 417.494118 23.611765 
L 433.905882 23.611765 
L 433.905882 7.2 
L 417.494118 7.2 
z
" clip-path="url(#p0b0df99d2b)" style="fill: #60bdfd; stroke: #000000; stroke-width: 0.470588"/>
    <path d="M 433.905882 23.611765 
L 450.317647 23.611765 
L 450.317647 7.2 
L 433.905882 7.2 
z
" clip-path="url(#p0b0df99d2b)" style="fill: #5add4a; stroke: #000000; stroke-width: 0.470588"/>
    <path d="M 450.317647 23.611765 
L 466.729412 23.611765 
L 466.729412 7.2 
L 450.317647 7.2 
z
" clip-path="url(#p0b0df99d2b)" style="fill: #60bdfd; stroke: #000000; stroke-width: 0.470588"/>
    <path d="M 466.729412 23.611765 
L 483.141176 23.611765 
L 483.141176 7.2 
L 466.729412 7.2 
z
" clip-path="url(#p0b0df99d2b)" style="fill: #5add4a; stroke: #000000; stroke-width: 0.470588"/>
    <path d="M 483.141176 23.611765 
L 499.552941 23.611765 
L 499.552941 7.2 
L 483.141176 7.2 
z
" clip-path="url(#p0b0df99d2b)" style="fill: #60bdfd; stroke: #000000; stroke-width: 0.470588"/>
    <path d="M 499.552941 23.611765 
L 515.964706 23.611765 
L 515.964706 7.2 
L 499.552941 7.2 
z
" clip-path="url(#p0b0df99d2b)" style="fill: #5add4a; stroke: #000000; stroke-width: 0.470588"/>
    <path d="M 515.964706 23.611765 
L 532.376471 23.611765 
L 532.376471 7.2 
L 515.964706 7.2 
z
" clip-path="url(#p0b0df99d2b)" style="fill: #60bdfd; stroke: #000000; stroke-width: 0.470588"/>
    <path d="M 532.376471 23.611765 
L 548.788235 23.611765 
L 548.788235 7.2 
L 532.376471 7.2 
z
" clip-path="url(#p0b0df99d2b)" style="fill: #5add4a; stroke: #000000; stroke-width: 0.470588"/>
    <path d="M 548.788235 23.611765 
L 565.2 23.611765 
L 565.2 7.2 
L 548.788235 7.2 
z
" clip-path="url(#p0b0df99d2b)" style="fill: #60bdfd; stroke: #000000; stroke-width: 0.470588"/>
    <path d="M 23.611765 40.023529 
L 40.023529 40.023529 
L 40.023529 23.611765 
L 23.611765 23.611765 
z
" clip-path="url(#p0b0df99d2b)" style="fill: #fcb225; stroke: #000000; stroke-width: 0.470588"/>
    <path d="M 40.023529 40.023529 
L 56.435294 40.023529 
L 56.435294 23.611765 
L 40.023529 23.611765 
z
" clip-path="url(#p0b0df99d2b)" style="fill: #fcb225; stroke: #000000; stroke-width: 0.470588"/>
    <path d="M 56.435294 40.023529 
L 72.847059 40.023529 
L 72.847059 23.611765 
L 56.435294 23.611765 
z
" clip-path="url(#p0b0df99d2b)" style="fill: #fcb225; stroke: #000000; stroke-width: 0.470588"/>
    <path d="M 72.847059 40.023529 
L 89.258824 40.023529 
L 89.258824 23.611765 
L 72.847059 23.611765 
z
" clip-path="url(#p0b0df99d2b)" style="fill: #fcb225; stroke: #000000; stroke-width: 0.470588"/>
    <path d="M 89.258824 40.023529 
L 105.670588 40.023529 
L 105.670588 23.611765 
L 89.258824 23.611765 
z
" clip-path="url(#p0b0df99d2b)" style="fill: #fcb225; stroke: #000000; stroke-width: 0.470588"/>
    <path d="M 105.670588 40.023529 
L 122.082353 40.023529 
L 122.082353 23.611765 
L 105.670588 23.611765 
z
" clip-path="url(#p0b0df99d2b)" style="fill: #fcb225; stroke: #000000; stroke-width: 0.470588"/>
    <path d="M 122.082353 40.023529 
L 138.494118 40.023529 
L 138.494118 23.611765 
L 122.082353 23.611765 
z
" clip-path="url(#p0b0df99d2b)" style="fill: #fcb225; stroke: #000000; stroke-width: 0.470588"/>
    <path d="M 236.964706 40.023529 
L 253.376471 40.023529 
L 253.376471 23.611765 
L 236.964706 23.611765 
z
" clip-path="url(#p0b0df99d2b)" style="fill: #5add4a; stroke: #000000; stroke-width: 0.470588"/>
    <path d="M 253.376471 40.023529 
L 269.788235 40.023529 
L 269.788235 23.611765 
L 253.376471 23.611765 
z
" clip-path="url(#p0b0df99d2b)" style="fill: #fcb225; stroke: #000000; stroke-width: 0.470588"/>
    <path d="M 269.788235 40.023529 
L 286.2 40.023529 
L 286.2 23.611765 
L 269.788235 23.611765 
z
" clip-path="url(#p0b0df99d2b)" style="fill: #5add4a; stroke: #000000; stroke-width: 0.470588"/>
    <path d="M 286.2 40.023529 
L 302.611765 40.023529 
L 302.611765 23.611765 
L 286.2 23.611765 
z
" clip-path="url(#p0b0df99d2b)" style="fill: #60bdfd; stroke: #000000; stroke-width: 0.470588"/>
    <path d="M 302.611765 40.023529 
L 319.023529 40.023529 
L 319.023529 23.611765 
L 302.611765 23.611765 
z
" clip-path="url(#p0b0df99d2b)" style="fill: #fcb225; stroke: #000000; stroke-width: 0.470588"/>
    <path d="M 319.023529 40.023529 
L 335.435294 40.023529 
L 335.435294 23.611765 
L 319.023529 23.611765 
z
" clip-path="url(#p0b0df99d2b)" style="fill: #5add4a; stroke: #000000; stroke-width: 0.470588"/>
    <path d="M 335.435294 40.023529 
L 351.847059 40.023529 
L 351.847059 23.611765 
L 335.435294 23.611765 
z
" clip-path="url(#p0b0df99d2b)" style="fill: #60bdfd; stroke: #000000; stroke-width: 0.470588"/>
    <path d="M 351.847059 40.023529 
L 368.258824 40.023529 
L 368.258824 23.611765 
L 351.847059 23.611765 
z
" clip-path="url(#p0b0df99d2b)" style="fill: #5add4a; stroke: #000000; stroke-width: 0.470588"/>
    <path d="M 368.258824 40.023529 
L 384.670588 40.023529 
L 384.670588 23.611765 
L 368.258824 23.611765 
z
" clip-path="url(#p0b0df99d2b)" style="fill: #60bdfd; stroke: #000000; stroke-width: 0.470588"/>
    <path d="M 384.670588 40.023529 
L 401.082353 40.023529 
L 401.082353 23.611765 
L 384.670588 23.611765 
z
" clip-path="url(#p0b0df99d2b)" style="fill: #5add4a; stroke: #000000; stroke-width: 0.470588"/>
    <path d="M 401.082353 40.023529 
L 417.494118 40.023529 
L 417.494118 23.611765 
L 401.082353 23.611765 
z
" clip-path="url(#p0b0df99d2b)" style="fill: #60bdfd; stroke: #000000; stroke-width: 0.470588"/>
    <path d="M 417.494118 40.023529 
L 433.905882 40.023529 
L 433.905882 23.611765 
L 417.494118 23.611765 
z
" clip-path="url(#p0b0df99d2b)" style="fill: #5add4a; stroke: #000000; stroke-width: 0.470588"/>
    <path d="M 433.905882 40.023529 
L 450.317647 40.023529 
L 450.317647 23.611765 
L 433.905882 23.611765 
z
" clip-path="url(#p0b0df99d2b)" style="fill: #60bdfd; stroke: #000000; stroke-width: 0.470588"/>
    <path d="M 450.317647 40.023529 
L 466.729412 40.023529 
L 466.729412 23.611765 
L 450.317647 23.611765 
z
" clip-path="url(#p0b0df99d2b)" style="fill: #5add4a; stroke: #000000; stroke-width: 0.470588"/>
    <path d="M 466.729412 40.023529 
L 483.141176 40.023529 
L 483.141176 23.611765 
L 466.729412 23.611765 
z
" clip-path="url(#p0b0df99d2b)" style="fill: #60bdfd; stroke: #000000; stroke-width: 0.470588"/>
    <path d="M 483.141176 40.023529 
L 499.552941 40.023529 
L 499.552941 23.611765 
L 483.141176 23.611765 
z
" clip-path="url(#p0b0df99d2b)" style="fill: #5add4a; stroke: #000000; stroke-width: 0.470588"/>
    <path d="M 499.552941 40.023529 
L 515.964706 40.023529 
L 515.964706 23.611765 
L 499.552941 23.611765 
z
" clip-path="url(#p0b0df99d2b)" style="fill: #60bdfd; stroke: #000000; stroke-width: 0.470588"/>
    <path d="M 515.964706 40.023529 
L 532.376471 40.023529 
L 532.376471 23.611765 
L 515.964706 23.611765 
z
" clip-path="url(#p0b0df99d2b)" style="fill: #5add4a; stroke: #000000; stroke-width: 0.470588"/>
    <path d="M 532.376471 40.023529 
L 548.788235 40.023529 
L 548.788235 23.611765 
L 532.376471 23.611765 
z
" clip-path="url(#p0b0df99d2b)" style="fill: #60bdfd; stroke: #000000; stroke-width: 0.470588"/>
    <path d="M 548.788235 40.023529 
L 565.2 40.023529 
L 565.2 23.611765 
L 548.788235 23.611765 
z
" clip-path="url(#p0b0df99d2b)" style="fill: #60bdfd; stroke: #000000; stroke-width: 0.470588"/>
    <path d="M 40.023529 56.435294 
L 56.435294 56.435294 
L 56.435294 40.023529 
L 40.023529 40.023529 
z
" clip-path="url(#p0b0df99d2b)" style="fill: #fcb225; stroke: #000000; stroke-width: 0.470588"/>
    <path d="M 56.435294 56.435294 
L 72.847059 56.435294 
L 72.847059 40.023529 
L 56.435294 40.023529 
z
" clip-path="url(#p0b0df99d2b)" style="fill: #fcb225; stroke: #000000; stroke-width: 0.470588"/>
    <path d="M 72.847059 56.435294 
L 89.258824 56.435294 
L 89.258824 40.023529 
L 72.847059 40.023529 
z
" clip-path="url(#p0b0df99d2b)" style="fill: #fcb225; stroke: #000000; stroke-width: 0.470588"/>
    <path d="M 89.258824 56.435294 
L 105.670588 56.435294 
L 105.670588 40.023529 
L 89.258824 40.023529 
z
" clip-path="url(#p0b0df99d2b)" style="fill: #fcb225; stroke: #000000; stroke-width: 0.470588"/>
    <path d="M 105.670588 56.435294 
L 122.082353 56.435294 
L 122.082353 40.023529 
L 105.670588 40.023529 
z
" clip-path="url(#p0b0df99d2b)" style="fill: #fcb225; stroke: #000000; stroke-width: 0.470588"/>
    <path d="M 122.082353 56.435294 
L 138.494118 56.435294 
L 138.494118 40.023529 
L 122.082353 40.023529 
z
" clip-path="url(#p0b0df99d2b)" style="fill: #fcb225; stroke: #000000; stroke-width: 0.470588"/>
    <path d="M 220.552941 56.435294 
L 236.964706 56.435294 
L 236.964706 40.023529 
L 220.552941 40.023529 
z
" clip-path="url(#p0b0df99d2b)" style="fill: #5add4a; stroke: #000000; stroke-width: 0.470588"/>
    <path d="M 236.964706 56.435294 
L 253.376471 56.435294 
L 253.376471 40.023529 
L 236.964706 40.023529 
z
" clip-path="url(#p0b0df99d2b)" style="fill: #fcb225; stroke: #000000; stroke-width: 0.470588"/>
    <path d="M 253.376471 56.435294 
L 269.788235 56.435294 
L 269.788235 40.023529 
L 253.376471 40.023529 
z
" clip-path="url(#p0b0df99d2b)" style="fill: #5add4a; stroke: #000000; stroke-width: 0.470588"/>
    <path d="M 269.788235 56.435294 
L 286.2 56.435294 
L 286.2 40.023529 
L 269.788235 40.023529 
z
" clip-path="url(#p0b0df99d2b)" style="fill: #fcb225; stroke: #000000; stroke-width: 0.470588"/>
    <path d="M 286.2 56.435294 
L 302.611765 56.435294 
L 302.611765 40.023529 
L 286.2 40.023529 
z
" clip-path="url(#p0b0df99d2b)" style="fill: #5add4a; stroke: #000000; stroke-width: 0.470588"/>
    <path d="M 302.611765 56.435294 
L 319.023529 56.435294 
L 319.023529 40.023529 
L 302.611765 40.023529 
z
" clip-path="url(#p0b0df99d2b)" style="fill: #60bdfd; stroke: #000000; stroke-width: 0.470588"/>
    <path d="M 319.023529 56.435294 
L 335.435294 56.435294 
L 335.435294 40.023529 
L 319.023529 40.023529 
z
" clip-path="url(#p0b0df99d2b)" style="fill: #fcb225; stroke: #000000; stroke-width: 0.470588"/>
    <path d="M 335.435294 56.435294 
L 351.847059 56.435294 
L 351.847059 40.023529 
L 335.435294 40.023529 
z
" clip-path="url(#p0b0df99d2b)" style="fill: #5add4a; stroke: #000000; stroke-width: 0.470588"/>
    <path d="M 351.847059 56.435294 
L 368.258824 56.435294 
L 368.258824 40.023529 
L 351.847059 40.023529 
z
" clip-path="url(#p0b0df99d2b)" style="fill: #60bdfd; stroke: #000000; stroke-width: 0.470588"/>
    <path d="M 368.258824 56.435294 
L 384.670588 56.435294 
L 384.670588 40.023529 
L 368.258824 40.023529 
z
" clip-path="url(#p0b0df99d2b)" style="fill: #5add4a; stroke: #000000; stroke-width: 0.470588"/>
    <path d="M 384.670588 56.435294 
L 401.082353 56.435294 
L 401.082353 40.023529 
L 384.670588 40.023529 
z
" clip-path="url(#p0b0df99d2b)" style="fill: #60bdfd; stroke: #000000; stroke-width: 0.470588"/>
    <path d="M 401.082353 56.435294 
L 417.494118 56.435294 
L 417.494118 40.023529 
L 401.082353 40.023529 
z
" clip-path="url(#p0b0df99d2b)" style="fill: #5add4a; stroke: #000000; stroke-width: 0.470588"/>
    <path d="M 417.494118 56.435294 
L 433.905882 56.435294 
L 433.905882 40.023529 
L 417.494118 40.023529 
z
" clip-path="url(#p0b0df99d2b)" style="fill: #60bdfd; stroke: #000000; stroke-width: 0.470588"/>
    <path d="M 433.905882 56.435294 
L 450.317647 56.435294 
L 450.317647 40.023529 
L 433.905882 40.023529 
z
" clip-path="url(#p0b0df99d2b)" style="fill: #5add4a; stroke: #000000; stroke-width: 0.470588"/>
    <path d="M 450.317647 56.435294 
L 466.729412 56.435294 
L 466.729412 40.023529 
L 450.317647 40.023529 
z
" clip-path="url(#p0b0df99d2b)" style="fill: #60bdfd; stroke: #000000; stroke-width: 0.470588"/>
    <path d="M 466.729412 56.435294 
L 483.141176 56.435294 
L 483.141176 40.023529 
L 466.729412 40.023529 
z
" clip-path="url(#p0b0df99d2b)" style="fill: #5add4a; stroke: #000000; stroke-width: 0.470588"/>
    <path d="M 483.141176 56.435294 
L 499.552941 56.435294 
L 499.552941 40.023529 
L 483.141176 40.023529 
z
" clip-path="url(#p0b0df99d2b)" style="fill: #60bdfd; stroke: #000000; stroke-width: 0.470588"/>
    <path d="M 499.552941 56.435294 
L 515.964706 56.435294 
L 515.964706 40.023529 
L 499.552941 40.023529 
z
" clip-path="url(#p0b0df99d2b)" style="fill: #5add4a; stroke: #000000; stroke-width: 0.470588"/>
    <path d="M 515.964706 56.435294 
L 532.376471 56.435294 
L 532.376471 40.023529 
L 515.964706 40.023529 
z
" clip-path="url(#p0b0df99d2b)" style="fill: #60bdfd; stroke: #000000; stroke-width: 0.470588"/>
    <path d="M 532.376471 56.435294 
L 548.788235 56.435294 
L 548.788235 40.023529 
L 532.376471 40.023529 
z
" clip-path="url(#p0b0df99d2b)" style="fill: #60bdfd; stroke: #000000; stroke-width: 0.470588"/>
    <path d="M 548.788235 56.435294 
L 565.2 56.435294 
L 565.2 40.023529 
L 548.788235 40.023529 
z
" clip-path="url(#p0b0df99d2b)" style="fill: #60bdfd; stroke: #000000; stroke-width: 0.470588"/>
    <path d="M 56.435294 72.847059 
L 72.847059 72.847059 
L 72.847059 56.435294 
L 56.435294 56.435294 
z
" clip-path="url(#p0b0df99d2b)" style="fill: #fcb225; stroke: #000000; stroke-width: 0.470588"/>
    <path d="M 72.847059 72.847059 
L 89.258824 72.847059 
L 89.258824 56.435294 
L 72.847059 56.435294 
z
" clip-path="url(#p0b0df99d2b)" style="fill: #fcb225; stroke: #000000; stroke-width: 0.470588"/>
    <path d="M 89.258824 72.847059 
L 105.670588 72.847059 
L 105.670588 56.435294 
L 89.258824 56.435294 
z
" clip-path="url(#p0b0df99d2b)" style="fill: #fcb225; stroke: #000000; stroke-width: 0.470588"/>
    <path d="M 105.670588 72.847059 
L 122.082353 72.847059 
L 122.082353 56.435294 
L 105.670588 56.435294 
z
" clip-path="url(#p0b0df99d2b)" style="fill: #fcb225; stroke: #000000; stroke-width: 0.470588"/>
    <path d="M 122.082353 72.847059 
L 138.494118 72.847059 
L 138.494118 56.435294 
L 122.082353 56.435294 
z
" clip-path="url(#p0b0df99d2b)" style="fill: #fcb225; stroke: #000000; stroke-width: 0.470588"/>
    <path d="M 204.141176 72.847059 
L 220.552941 72.847059 
L 220.552941 56.435294 
L 204.141176 56.435294 
z
" clip-path="url(#p0b0df99d2b)" style="fill: #5add4a; stroke: #000000; stroke-width: 0.470588"/>
    <path d="M 220.552941 72.847059 
L 236.964706 72.847059 
L 236.964706 56.435294 
L 220.552941 56.435294 
z
" clip-path="url(#p0b0df99d2b)" style="fill: #fcb225; stroke: #000000; stroke-width: 0.470588"/>
    <path d="M 236.964706 72.847059 
L 253.376471 72.847059 
L 253.376471 56.435294 
L 236.964706 56.435294 
z
" clip-path="url(#p0b0df99d2b)" style="fill: #5add4a; stroke: #000000; stroke-width: 0.470588"/>
    <path d="M 253.376471 72.847059 
L 269.788235 72.847059 
L 269.788235 56.435294 
L 253.376471 56.435294 
z
" clip-path="url(#p0b0df99d2b)" style="fill: #fcb225; stroke: #000000; stroke-width: 0.470588"/>
    <path d="M 269.788235 72.847059 
L 286.2 72.847059 
L 286.2 56.435294 
L 269.788235 56.435294 
z
" clip-path="url(#p0b0df99d2b)" style="fill: #5add4a; stroke: #000000; stroke-width: 0.470588"/>
    <path d="M 286.2 72.847059 
L 302.611765 72.847059 
L 302.611765 56.435294 
L 286.2 56.435294 
z
" clip-path="url(#p0b0df99d2b)" style="fill: #fcb225; stroke: #000000; stroke-width: 0.470588"/>
    <path d="M 302.611765 72.847059 
L 319.023529 72.847059 
L 319.023529 56.435294 
L 302.611765 56.435294 
z
" clip-path="url(#p0b0df99d2b)" style="fill: #5add4a; stroke: #000000; stroke-width: 0.470588"/>
    <path d="M 319.023529 72.847059 
L 335.435294 72.847059 
L 335.435294 56.435294 
L 319.023529 56.435294 
z
" clip-path="url(#p0b0df99d2b)" style="fill: #60bdfd; stroke: #000000; stroke-width: 0.470588"/>
    <path d="M 335.435294 72.847059 
L 351.847059 72.847059 
L 351.847059 56.435294 
L 335.435294 56.435294 
z
" clip-path="url(#p0b0df99d2b)" style="fill: #fcb225; stroke: #000000; stroke-width: 0.470588"/>
    <path d="M 351.847059 72.847059 
L 368.258824 72.847059 
L 368.258824 56.435294 
L 351.847059 56.435294 
z
" clip-path="url(#p0b0df99d2b)" style="fill: #5add4a; stroke: #000000; stroke-width: 0.470588"/>
    <path d="M 368.258824 72.847059 
L 384.670588 72.847059 
L 384.670588 56.435294 
L 368.258824 56.435294 
z
" clip-path="url(#p0b0df99d2b)" style="fill: #60bdfd; stroke: #000000; stroke-width: 0.470588"/>
    <path d="M 384.670588 72.847059 
L 401.082353 72.847059 
L 401.082353 56.435294 
L 384.670588 56.435294 
z
" clip-path="url(#p0b0df99d2b)" style="fill: #5add4a; stroke: #000000; stroke-width: 0.470588"/>
    <path d="M 401.082353 72.847059 
L 417.494118 72.847059 
L 417.494118 56.435294 
L 401.082353 56.435294 
z
" clip-path="url(#p0b0df99d2b)" style="fill: #60bdfd; stroke: #000000; stroke-width: 0.470588"/>
    <path d="M 417.494118 72.847059 
L 433.905882 72.847059 
L 433.905882 56.435294 
L 417.494118 56.435294 
z
" clip-path="url(#p0b0df99d2b)" style="fill: #5add4a; stroke: #000000; stroke-width: 0.470588"/>
    <path d="M 433.905882 72.847059 
L 450.317647 72.847059 
L 450.317647 56.435294 
L 433.905882 56.435294 
z
" clip-path="url(#p0b0df99d2b)" style="fill: #60bdfd; stroke: #000000; stroke-width: 0.470588"/>
    <path d="M 450.317647 72.847059 
L 466.729412 72.847059 
L 466.729412 56.435294 
L 450.317647 56.435294 
z
" clip-path="url(#p0b0df99d2b)" style="fill: #5add4a; stroke: #000000; stroke-width: 0.470588"/>
    <path d="M 466.729412 72.847059 
L 483.141176 72.847059 
L 483.141176 56.435294 
L 466.729412 56.435294 
z
" clip-path="url(#p0b0df99d2b)" style="fill: #60bdfd; stroke: #000000; stroke-width: 0.470588"/>
    <path d="M 483.141176 72.847059 
L 499.552941 72.847059 
L 499.552941 56.435294 
L 483.141176 56.435294 
z
" clip-path="url(#p0b0df99d2b)" style="fill: #5add4a; stroke: #000000; stroke-width: 0.470588"/>
    <path d="M 499.552941 72.847059 
L 515.964706 72.847059 
L 515.964706 56.435294 
L 499.552941 56.435294 
z
" clip-path="url(#p0b0df99d2b)" style="fill: #60bdfd; stroke: #000000; stroke-width: 0.470588"/>
    <path d="M 515.964706 72.847059 
L 532.376471 72.847059 
L 532.376471 56.435294 
L 515.964706 56.435294 
z
" clip-path="url(#p0b0df99d2b)" style="fill: #60bdfd; stroke: #000000; stroke-width: 0.470588"/>
    <path d="M 532.376471 72.847059 
L 548.788235 72.847059 
L 548.788235 56.435294 
L 532.376471 56.435294 
z
" clip-path="url(#p0b0df99d2b)" style="fill: #60bdfd; stroke: #000000; stroke-width: 0.470588"/>
    <path d="M 548.788235 72.847059 
L 565.2 72.847059 
L 565.2 56.435294 
L 548.788235 56.435294 
z
" clip-path="url(#p0b0df99d2b)" style="fill: #60bdfd; stroke: #000000; stroke-width: 0.470588"/>
    <path d="M 72.847059 89.258824 
L 89.258824 89.258824 
L 89.258824 72.847059 
L 72.847059 72.847059 
z
" clip-path="url(#p0b0df99d2b)" style="fill: #fcb225; stroke: #000000; stroke-width: 0.470588"/>
    <path d="M 89.258824 89.258824 
L 105.670588 89.258824 
L 105.670588 72.847059 
L 89.258824 72.847059 
z
" clip-path="url(#p0b0df99d2b)" style="fill: #fcb225; stroke: #000000; stroke-width: 0.470588"/>
    <path d="M 105.670588 89.258824 
L 122.082353 89.258824 
L 122.082353 72.847059 
L 105.670588 72.847059 
z
" clip-path="url(#p0b0df99d2b)" style="fill: #fcb225; stroke: #000000; stroke-width: 0.470588"/>
    <path d="M 122.082353 89.258824 
L 138.494118 89.258824 
L 138.494118 72.847059 
L 122.082353 72.847059 
z
" clip-path="url(#p0b0df99d2b)" style="fill: #fcb225; stroke: #000000; stroke-width: 0.470588"/>
    <path d="M 187.729412 89.258824 
L 204.141176 89.258824 
L 204.141176 72.847059 
L 187.729412 72.847059 
z
" clip-path="url(#p0b0df99d2b)" style="fill: #5add4a; stroke: #000000; stroke-width: 0.470588"/>
    <path d="M 204.141176 89.258824 
L 220.552941 89.258824 
L 220.552941 72.847059 
L 204.141176 72.847059 
z
" clip-path="url(#p0b0df99d2b)" style="fill: #fcb225; stroke: #000000; stroke-width: 0.470588"/>
    <path d="M 220.552941 89.258824 
L 236.964706 89.258824 
L 236.964706 72.847059 
L 220.552941 72.847059 
z
" clip-path="url(#p0b0df99d2b)" style="fill: #5add4a; stroke: #000000; stroke-width: 0.470588"/>
    <path d="M 236.964706 89.258824 
L 253.376471 89.258824 
L 253.376471 72.847059 
L 236.964706 72.847059 
z
" clip-path="url(#p0b0df99d2b)" style="fill: #fcb225; stroke: #000000; stroke-width: 0.470588"/>
    <path d="M 253.376471 89.258824 
L 269.788235 89.258824 
L 269.788235 72.847059 
L 253.376471 72.847059 
z
" clip-path="url(#p0b0df99d2b)" style="fill: #5add4a; stroke: #000000; stroke-width: 0.470588"/>
    <path d="M 269.788235 89.258824 
L 286.2 89.258824 
L 286.2 72.847059 
L 269.788235 72.847059 
z
" clip-path="url(#p0b0df99d2b)" style="fill: #fcb225; stroke: #000000; stroke-width: 0.470588"/>
    <path d="M 286.2 89.258824 
L 302.611765 89.258824 
L 302.611765 72.847059 
L 286.2 72.847059 
z
" clip-path="url(#p0b0df99d2b)" style="fill: #5add4a; stroke: #000000; stroke-width: 0.470588"/>
    <path d="M 302.611765 89.258824 
L 319.023529 89.258824 
L 319.023529 72.847059 
L 302.611765 72.847059 
z
" clip-path="url(#p0b0df99d2b)" style="fill: #fcb225; stroke: #000000; stroke-width: 0.470588"/>
    <path d="M 319.023529 89.258824 
L 335.435294 89.258824 
L 335.435294 72.847059 
L 319.023529 72.847059 
z
" clip-path="url(#p0b0df99d2b)" style="fill: #5add4a; stroke: #000000; stroke-width: 0.470588"/>
    <path d="M 335.435294 89.258824 
L 351.847059 89.258824 
L 351.847059 72.847059 
L 335.435294 72.847059 
z
" clip-path="url(#p0b0df99d2b)" style="fill: #60bdfd; stroke: #000000; stroke-width: 0.470588"/>
    <path d="M 351.847059 89.258824 
L 368.258824 89.258824 
L 368.258824 72.847059 
L 351.847059 72.847059 
z
" clip-path="url(#p0b0df99d2b)" style="fill: #fcb225; stroke: #000000; stroke-width: 0.470588"/>
    <path d="M 368.258824 89.258824 
L 384.670588 89.258824 
L 384.670588 72.847059 
L 368.258824 72.847059 
z
" clip-path="url(#p0b0df99d2b)" style="fill: #5add4a; stroke: #000000; stroke-width: 0.470588"/>
    <path d="M 384.670588 89.258824 
L 401.082353 89.258824 
L 401.082353 72.847059 
L 384.670588 72.847059 
z
" clip-path="url(#p0b0df99d2b)" style="fill: #60bdfd; stroke: #000000; stroke-width: 0.470588"/>
    <path d="M 401.082353 89.258824 
L 417.494118 89.258824 
L 417.494118 72.847059 
L 401.082353 72.847059 
z
" clip-path="url(#p0b0df99d2b)" style="fill: #5add4a; stroke: #000000; stroke-width: 0.470588"/>
    <path d="M 417.494118 89.258824 
L 433.905882 89.258824 
L 433.905882 72.847059 
L 417.494118 72.847059 
z
" clip-path="url(#p0b0df99d2b)" style="fill: #60bdfd; stroke: #000000; stroke-width: 0.470588"/>
    <path d="M 433.905882 89.258824 
L 450.317647 89.258824 
L 450.317647 72.847059 
L 433.905882 72.847059 
z
" clip-path="url(#p0b0df99d2b)" style="fill: #5add4a; stroke: #000000; stroke-width: 0.470588"/>
    <path d="M 450.317647 89.258824 
L 466.729412 89.258824 
L 466.729412 72.847059 
L 450.317647 72.847059 
z
" clip-path="url(#p0b0df99d2b)" style="fill: #60bdfd; stroke: #000000; stroke-width: 0.470588"/>
    <path d="M 466.729412 89.258824 
L 483.141176 89.258824 
L 483.141176 72.847059 
L 466.729412 72.847059 
z
" clip-path="url(#p0b0df99d2b)" style="fill: #5add4a; stroke: #000000; stroke-width: 0.470588"/>
    <path d="M 483.141176 89.258824 
L 499.552941 89.258824 
L 499.552941 72.847059 
L 483.141176 72.847059 
z
" clip-path="url(#p0b0df99d2b)" style="fill: #60bdfd; stroke: #000000; stroke-width: 0.470588"/>
    <path d="M 499.552941 89.258824 
L 515.964706 89.258824 
L 515.964706 72.847059 
L 499.552941 72.847059 
z
" clip-path="url(#p0b0df99d2b)" style="fill: #60bdfd; stroke: #000000; stroke-width: 0.470588"/>
    <path d="M 515.964706 89.258824 
L 532.376471 89.258824 
L 532.376471 72.847059 
L 515.964706 72.847059 
z
" clip-path="url(#p0b0df99d2b)" style="fill: #60bdfd; stroke: #000000; stroke-width: 0.470588"/>
    <path d="M 532.376471 89.258824 
L 548.788235 89.258824 
L 548.788235 72.847059 
L 532.376471 72.847059 
z
" clip-path="url(#p0b0df99d2b)" style="fill: #60bdfd; stroke: #000000; stroke-width: 0.470588"/>
    <path d="M 548.788235 89.258824 
L 565.2 89.258824 
L 565.2 72.847059 
L 548.788235 72.847059 
z
" clip-path="url(#p0b0df99d2b)" style="fill: #60bdfd; stroke: #000000; stroke-width: 0.470588"/>
    <path d="M 89.258824 105.670588 
L 105.670588 105.670588 
L 105.670588 89.258824 
L 89.258824 89.258824 
z
" clip-path="url(#p0b0df99d2b)" style="fill: #fcb225; stroke: #000000; stroke-width: 0.470588"/>
    <path d="M 105.670588 105.670588 
L 122.082353 105.670588 
L 122.082353 89.258824 
L 105.670588 89.258824 
z
" clip-path="url(#p0b0df99d2b)" style="fill: #fcb225; stroke: #000000; stroke-width: 0.470588"/>
    <path d="M 122.082353 105.670588 
L 138.494118 105.670588 
L 138.494118 89.258824 
L 122.082353 89.258824 
z
" clip-path="url(#p0b0df99d2b)" style="fill: #fcb225; stroke: #000000; stroke-width: 0.470588"/>
    <path d="M 171.317647 105.670588 
L 187.729412 105.670588 
L 187.729412 89.258824 
L 171.317647 89.258824 
z
" clip-path="url(#p0b0df99d2b)" style="fill: #5add4a; stroke: #000000; stroke-width: 0.470588"/>
    <path d="M 187.729412 105.670588 
L 204.141176 105.670588 
L 204.141176 89.258824 
L 187.729412 89.258824 
z
" clip-path="url(#p0b0df99d2b)" style="fill: #fcb225; stroke: #000000; stroke-width: 0.470588"/>
    <path d="M 204.141176 105.670588 
L 220.552941 105.670588 
L 220.552941 89.258824 
L 204.141176 89.258824 
z
" clip-path="url(#p0b0df99d2b)" style="fill: #5add4a; stroke: #000000; stroke-width: 0.470588"/>
    <path d="M 220.552941 105.670588 
L 236.964706 105.670588 
L 236.964706 89.258824 
L 220.552941 89.258824 
z
" clip-path="url(#p0b0df99d2b)" style="fill: #fcb225; stroke: #000000; stroke-width: 0.470588"/>
    <path d="M 236.964706 105.670588 
L 253.376471 105.670588 
L 253.376471 89.258824 
L 236.964706 89.258824 
z
" clip-path="url(#p0b0df99d2b)" style="fill: #5add4a; stroke: #000000; stroke-width: 0.470588"/>
    <path d="M 253.376471 105.670588 
L 269.788235 105.670588 
L 269.788235 89.258824 
L 253.376471 89.258824 
z
" clip-path="url(#p0b0df99d2b)" style="fill: #fcb225; stroke: #000000; stroke-width: 0.470588"/>
    <path d="M 269.788235 105.670588 
L 286.2 105.670588 
L 286.2 89.258824 
L 269.788235 89.258824 
z
" clip-path="url(#p0b0df99d2b)" style="fill: #5add4a; stroke: #000000; stroke-width: 0.470588"/>
    <path d="M 286.2 105.670588 
L 302.611765 105.670588 
L 302.611765 89.258824 
L 286.2 89.258824 
z
" clip-path="url(#p0b0df99d2b)" style="fill: #fcb225; stroke: #000000; stroke-width: 0.470588"/>
    <path d="M 302.611765 105.670588 
L 319.023529 105.670588 
L 319.023529 89.258824 
L 302.611765 89.258824 
z
" clip-path="url(#p0b0df99d2b)" style="fill: #5add4a; stroke: #000000; stroke-width: 0.470588"/>
    <path d="M 319.023529 105.670588 
L 335.435294 105.670588 
L 335.435294 89.258824 
L 319.023529 89.258824 
z
" clip-path="url(#p0b0df99d2b)" style="fill: #fcb225; stroke: #000000; stroke-width: 0.470588"/>
    <path d="M 335.435294 105.670588 
L 351.847059 105.670588 
L 351.847059 89.258824 
L 335.435294 89.258824 
z
" clip-path="url(#p0b0df99d2b)" style="fill: #5add4a; stroke: #000000; stroke-width: 0.470588"/>
    <path d="M 351.847059 105.670588 
L 368.258824 105.670588 
L 368.258824 89.258824 
L 351.847059 89.258824 
z
" clip-path="url(#p0b0df99d2b)" style="fill: #60bdfd; stroke: #000000; stroke-width: 0.470588"/>
    <path d="M 368.258824 105.670588 
L 384.670588 105.670588 
L 384.670588 89.258824 
L 368.258824 89.258824 
z
" clip-path="url(#p0b0df99d2b)" style="fill: #fcb225; stroke: #000000; stroke-width: 0.470588"/>
    <path d="M 384.670588 105.670588 
L 401.082353 105.670588 
L 401.082353 89.258824 
L 384.670588 89.258824 
z
" clip-path="url(#p0b0df99d2b)" style="fill: #5add4a; stroke: #000000; stroke-width: 0.470588"/>
    <path d="M 401.082353 105.670588 
L 417.494118 105.670588 
L 417.494118 89.258824 
L 401.082353 89.258824 
z
" clip-path="url(#p0b0df99d2b)" style="fill: #60bdfd; stroke: #000000; stroke-width: 0.470588"/>
    <path d="M 417.494118 105.670588 
L 433.905882 105.670588 
L 433.905882 89.258824 
L 417.494118 89.258824 
z
" clip-path="url(#p0b0df99d2b)" style="fill: #5add4a; stroke: #000000; stroke-width: 0.470588"/>
    <path d="M 433.905882 105.670588 
L 450.317647 105.670588 
L 450.317647 89.258824 
L 433.905882 89.258824 
z
" clip-path="url(#p0b0df99d2b)" style="fill: #60bdfd; stroke: #000000; stroke-width: 0.470588"/>
    <path d="M 450.317647 105.670588 
L 466.729412 105.670588 
L 466.729412 89.258824 
L 450.317647 89.258824 
z
" clip-path="url(#p0b0df99d2b)" style="fill: #5add4a; stroke: #000000; stroke-width: 0.470588"/>
    <path d="M 466.729412 105.670588 
L 483.141176 105.670588 
L 483.141176 89.258824 
L 466.729412 89.258824 
z
" clip-path="url(#p0b0df99d2b)" style="fill: #60bdfd; stroke: #000000; stroke-width: 0.470588"/>
    <path d="M 483.141176 105.670588 
L 499.552941 105.670588 
L 499.552941 89.258824 
L 483.141176 89.258824 
z
" clip-path="url(#p0b0df99d2b)" style="fill: #60bdfd; stroke: #000000; stroke-width: 0.470588"/>
    <path d="M 499.552941 105.670588 
L 515.964706 105.670588 
L 515.964706 89.258824 
L 499.552941 89.258824 
z
" clip-path="url(#p0b0df99d2b)" style="fill: #60bdfd; stroke: #000000; stroke-width: 0.470588"/>
    <path d="M 515.964706 105.670588 
L 532.376471 105.670588 
L 532.376471 89.258824 
L 515.964706 89.258824 
z
" clip-path="url(#p0b0df99d2b)" style="fill: #60bdfd; stroke: #000000; stroke-width: 0.470588"/>
    <path d="M 532.376471 105.670588 
L 548.788235 105.670588 
L 548.788235 89.258824 
L 532.376471 89.258824 
z
" clip-path="url(#p0b0df99d2b)" style="fill: #60bdfd; stroke: #000000; stroke-width: 0.470588"/>
    <path d="M 548.788235 105.670588 
L 565.2 105.670588 
L 565.2 89.258824 
L 548.788235 89.258824 
z
" clip-path="url(#p0b0df99d2b)" style="fill: #60bdfd; stroke: #000000; stroke-width: 0.470588"/>
    <path d="M 105.670588 122.082353 
L 122.082353 122.082353 
L 122.082353 105.670588 
L 105.670588 105.670588 
z
" clip-path="url(#p0b0df99d2b)" style="fill: #fcb225; stroke: #000000; stroke-width: 0.470588"/>
    <path d="M 122.082353 122.082353 
L 138.494118 122.082353 
L 138.494118 105.670588 
L 122.082353 105.670588 
z
" clip-path="url(#p0b0df99d2b)" style="fill: #fcb225; stroke: #000000; stroke-width: 0.470588"/>
    <path d="M 154.905882 122.082353 
L 171.317647 122.082353 
L 171.317647 105.670588 
L 154.905882 105.670588 
z
" clip-path="url(#p0b0df99d2b)" style="fill: #5add4a; stroke: #000000; stroke-width: 0.470588"/>
    <path d="M 171.317647 122.082353 
L 187.729412 122.082353 
L 187.729412 105.670588 
L 171.317647 105.670588 
z
" clip-path="url(#p0b0df99d2b)" style="fill: #fcb225; stroke: #000000; stroke-width: 0.470588"/>
    <path d="M 187.729412 122.082353 
L 204.141176 122.082353 
L 204.141176 105.670588 
L 187.729412 105.670588 
z
" clip-path="url(#p0b0df99d2b)" style="fill: #5add4a; stroke: #000000; stroke-width: 0.470588"/>
    <path d="M 204.141176 122.082353 
L 220.552941 122.082353 
L 220.552941 105.670588 
L 204.141176 105.670588 
z
" clip-path="url(#p0b0df99d2b)" style="fill: #fcb225; stroke: #000000; stroke-width: 0.470588"/>
    <path d="M 220.552941 122.082353 
L 236.964706 122.082353 
L 236.964706 105.670588 
L 220.552941 105.670588 
z
" clip-path="url(#p0b0df99d2b)" style="fill: #5add4a; stroke: #000000; stroke-width: 0.470588"/>
    <path d="M 236.964706 122.082353 
L 253.376471 122.082353 
L 253.376471 105.670588 
L 236.964706 105.670588 
z
" clip-path="url(#p0b0df99d2b)" style="fill: #fcb225; stroke: #000000; stroke-width: 0.470588"/>
    <path d="M 253.376471 122.082353 
L 269.788235 122.082353 
L 269.788235 105.670588 
L 253.376471 105.670588 
z
" clip-path="url(#p0b0df99d2b)" style="fill: #5add4a; stroke: #000000; stroke-width: 0.470588"/>
    <path d="M 269.788235 122.082353 
L 286.2 122.082353 
L 286.2 105.670588 
L 269.788235 105.670588 
z
" clip-path="url(#p0b0df99d2b)" style="fill: #fcb225; stroke: #000000; stroke-width: 0.470588"/>
    <path d="M 286.2 122.082353 
L 302.611765 122.082353 
L 302.611765 105.670588 
L 286.2 105.670588 
z
" clip-path="url(#p0b0df99d2b)" style="fill: #5add4a; stroke: #000000; stroke-width: 0.470588"/>
    <path d="M 302.611765 122.082353 
L 319.023529 122.082353 
L 319.023529 105.670588 
L 302.611765 105.670588 
z
" clip-path="url(#p0b0df99d2b)" style="fill: #fcb225; stroke: #000000; stroke-width: 0.470588"/>
    <path d="M 319.023529 122.082353 
L 335.435294 122.082353 
L 335.435294 105.670588 
L 319.023529 105.670588 
z
" clip-path="url(#p0b0df99d2b)" style="fill: #5add4a; stroke: #000000; stroke-width: 0.470588"/>
    <path d="M 335.435294 122.082353 
L 351.847059 122.082353 
L 351.847059 105.670588 
L 335.435294 105.670588 
z
" clip-path="url(#p0b0df99d2b)" style="fill: #fcb225; stroke: #000000; stroke-width: 0.470588"/>
    <path d="M 351.847059 122.082353 
L 368.258824 122.082353 
L 368.258824 105.670588 
L 351.847059 105.670588 
z
" clip-path="url(#p0b0df99d2b)" style="fill: #5add4a; stroke: #000000; stroke-width: 0.470588"/>
    <path d="M 368.258824 122.082353 
L 384.670588 122.082353 
L 384.670588 105.670588 
L 368.258824 105.670588 
z
" clip-path="url(#p0b0df99d2b)" style="fill: #60bdfd; stroke: #000000; stroke-width: 0.470588"/>
    <path d="M 384.670588 122.082353 
L 401.082353 122.082353 
L 401.082353 105.670588 
L 384.670588 105.670588 
z
" clip-path="url(#p0b0df99d2b)" style="fill: #fcb225; stroke: #000000; stroke-width: 0.470588"/>
    <path d="M 401.082353 122.082353 
L 417.494118 122.082353 
L 417.494118 105.670588 
L 401.082353 105.670588 
z
" clip-path="url(#p0b0df99d2b)" style="fill: #5add4a; stroke: #000000; stroke-width: 0.470588"/>
    <path d="M 417.494118 122.082353 
L 433.905882 122.082353 
L 433.905882 105.670588 
L 417.494118 105.670588 
z
" clip-path="url(#p0b0df99d2b)" style="fill: #60bdfd; stroke: #000000; stroke-width: 0.470588"/>
    <path d="M 433.905882 122.082353 
L 450.317647 122.082353 
L 450.317647 105.670588 
L 433.905882 105.670588 
z
" clip-path="url(#p0b0df99d2b)" style="fill: #5add4a; stroke: #000000; stroke-width: 0.470588"/>
    <path d="M 450.317647 122.082353 
L 466.729412 122.082353 
L 466.729412 105.670588 
L 450.317647 105.670588 
z
" clip-path="url(#p0b0df99d2b)" style="fill: #60bdfd; stroke: #000000; stroke-width: 0.470588"/>
    <path d="M 466.729412 122.082353 
L 483.141176 122.082353 
L 483.141176 105.670588 
L 466.729412 105.670588 
z
" clip-path="url(#p0b0df99d2b)" style="fill: #60bdfd; stroke: #000000; stroke-width: 0.470588"/>
    <path d="M 483.141176 122.082353 
L 499.552941 122.082353 
L 499.552941 105.670588 
L 483.141176 105.670588 
z
" clip-path="url(#p0b0df99d2b)" style="fill: #60bdfd; stroke: #000000; stroke-width: 0.470588"/>
    <path d="M 499.552941 122.082353 
L 515.964706 122.082353 
L 515.964706 105.670588 
L 499.552941 105.670588 
z
" clip-path="url(#p0b0df99d2b)" style="fill: #60bdfd; stroke: #000000; stroke-width: 0.470588"/>
    <path d="M 515.964706 122.082353 
L 532.376471 122.082353 
L 532.376471 105.670588 
L 515.964706 105.670588 
z
" clip-path="url(#p0b0df99d2b)" style="fill: #60bdfd; stroke: #000000; stroke-width: 0.470588"/>
    <path d="M 532.376471 122.082353 
L 548.788235 122.082353 
L 548.788235 105.670588 
L 532.376471 105.670588 
z
" clip-path="url(#p0b0df99d2b)" style="fill: #60bdfd; stroke: #000000; stroke-width: 0.470588"/>
    <path d="M 548.788235 122.082353 
L 565.2 122.082353 
L 565.2 105.670588 
L 548.788235 105.670588 
z
" clip-path="url(#p0b0df99d2b)" style="fill: #60bdfd; stroke: #000000; stroke-width: 0.470588"/>
    <path d="M 122.082353 138.494118 
L 138.494118 138.494118 
L 138.494118 122.082353 
L 122.082353 122.082353 
z
" clip-path="url(#p0b0df99d2b)" style="fill: #fcb225; stroke: #000000; stroke-width: 0.470588"/>
    <path d="M 138.494118 138.494118 
L 154.905882 138.494118 
L 154.905882 122.082353 
L 138.494118 122.082353 
z
" clip-path="url(#p0b0df99d2b)" style="fill: #5add4a; stroke: #000000; stroke-width: 0.470588"/>
    <path d="M 154.905882 138.494118 
L 171.317647 138.494118 
L 171.317647 122.082353 
L 154.905882 122.082353 
z
" clip-path="url(#p0b0df99d2b)" style="fill: #fcb225; stroke: #000000; stroke-width: 0.470588"/>
    <path d="M 171.317647 138.494118 
L 187.729412 138.494118 
L 187.729412 122.082353 
L 171.317647 122.082353 
z
" clip-path="url(#p0b0df99d2b)" style="fill: #5add4a; stroke: #000000; stroke-width: 0.470588"/>
    <path d="M 187.729412 138.494118 
L 204.141176 138.494118 
L 204.141176 122.082353 
L 187.729412 122.082353 
z
" clip-path="url(#p0b0df99d2b)" style="fill: #fcb225; stroke: #000000; stroke-width: 0.470588"/>
    <path d="M 204.141176 138.494118 
L 220.552941 138.494118 
L 220.552941 122.082353 
L 204.141176 122.082353 
z
" clip-path="url(#p0b0df99d2b)" style="fill: #5add4a; stroke: #000000; stroke-width: 0.470588"/>
    <path d="M 220.552941 138.494118 
L 236.964706 138.494118 
L 236.964706 122.082353 
L 220.552941 122.082353 
z
" clip-path="url(#p0b0df99d2b)" style="fill: #fcb225; stroke: #000000; stroke-width: 0.470588"/>
    <path d="M 236.964706 138.494118 
L 253.376471 138.494118 
L 253.376471 122.082353 
L 236.964706 122.082353 
z
" clip-path="url(#p0b0df99d2b)" style="fill: #5add4a; stroke: #000000; stroke-width: 0.470588"/>
    <path d="M 253.376471 138.494118 
L 269.788235 138.494118 
L 269.788235 122.082353 
L 253.376471 122.082353 
z
" clip-path="url(#p0b0df99d2b)" style="fill: #fcb225; stroke: #000000; stroke-width: 0.470588"/>
    <path d="M 269.788235 138.494118 
L 286.2 138.494118 
L 286.2 122.082353 
L 269.788235 122.082353 
z
" clip-path="url(#p0b0df99d2b)" style="fill: #5add4a; stroke: #000000; stroke-width: 0.470588"/>
    <path d="M 286.2 138.494118 
L 302.611765 138.494118 
L 302.611765 122.082353 
L 286.2 122.082353 
z
" clip-path="url(#p0b0df99d2b)" style="fill: #fcb225; stroke: #000000; stroke-width: 0.470588"/>
    <path d="M 302.611765 138.494118 
L 319.023529 138.494118 
L 319.023529 122.082353 
L 302.611765 122.082353 
z
" clip-path="url(#p0b0df99d2b)" style="fill: #5add4a; stroke: #000000; stroke-width: 0.470588"/>
    <path d="M 319.023529 138.494118 
L 335.435294 138.494118 
L 335.435294 122.082353 
L 319.023529 122.082353 
z
" clip-path="url(#p0b0df99d2b)" style="fill: #fcb225; stroke: #000000; stroke-width: 0.470588"/>
    <path d="M 335.435294 138.494118 
L 351.847059 138.494118 
L 351.847059 122.082353 
L 335.435294 122.082353 
z
" clip-path="url(#p0b0df99d2b)" style="fill: #5add4a; stroke: #000000; stroke-width: 0.470588"/>
    <path d="M 351.847059 138.494118 
L 368.258824 138.494118 
L 368.258824 122.082353 
L 351.847059 122.082353 
z
" clip-path="url(#p0b0df99d2b)" style="fill: #fcb225; stroke: #000000; stroke-width: 0.470588"/>
    <path d="M 368.258824 138.494118 
L 384.670588 138.494118 
L 384.670588 122.082353 
L 368.258824 122.082353 
z
" clip-path="url(#p0b0df99d2b)" style="fill: #5add4a; stroke: #000000; stroke-width: 0.470588"/>
    <path d="M 384.670588 138.494118 
L 401.082353 138.494118 
L 401.082353 122.082353 
L 384.670588 122.082353 
z
" clip-path="url(#p0b0df99d2b)" style="fill: #60bdfd; stroke: #000000; stroke-width: 0.470588"/>
    <path d="M 401.082353 138.494118 
L 417.494118 138.494118 
L 417.494118 122.082353 
L 401.082353 122.082353 
z
" clip-path="url(#p0b0df99d2b)" style="fill: #fcb225; stroke: #000000; stroke-width: 0.470588"/>
    <path d="M 417.494118 138.494118 
L 433.905882 138.494118 
L 433.905882 122.082353 
L 417.494118 122.082353 
z
" clip-path="url(#p0b0df99d2b)" style="fill: #5add4a; stroke: #000000; stroke-width: 0.470588"/>
    <path d="M 433.905882 138.494118 
L 450.317647 138.494118 
L 450.317647 122.082353 
L 433.905882 122.082353 
z
" clip-path="url(#p0b0df99d2b)" style="fill: #60bdfd; stroke: #000000; stroke-width: 0.470588"/>
    <path d="M 450.317647 138.494118 
L 466.729412 138.494118 
L 466.729412 122.082353 
L 450.317647 122.082353 
z
" clip-path="url(#p0b0df99d2b)" style="fill: #60bdfd; stroke: #000000; stroke-width: 0.470588"/>
    <path d="M 466.729412 138.494118 
L 483.141176 138.494118 
L 483.141176 122.082353 
L 466.729412 122.082353 
z
" clip-path="url(#p0b0df99d2b)" style="fill: #60bdfd; stroke: #000000; stroke-width: 0.470588"/>
    <path d="M 483.141176 138.494118 
L 499.552941 138.494118 
L 499.552941 122.082353 
L 483.141176 122.082353 
z
" clip-path="url(#p0b0df99d2b)" style="fill: #60bdfd; stroke: #000000; stroke-width: 0.470588"/>
    <path d="M 499.552941 138.494118 
L 515.964706 138.494118 
L 515.964706 122.082353 
L 499.552941 122.082353 
z
" clip-path="url(#p0b0df99d2b)" style="fill: #60bdfd; stroke: #000000; stroke-width: 0.470588"/>
    <path d="M 515.964706 138.494118 
L 532.376471 138.494118 
L 532.376471 122.082353 
L 515.964706 122.082353 
z
" clip-path="url(#p0b0df99d2b)" style="fill: #60bdfd; stroke: #000000; stroke-width: 0.470588"/>
    <path d="M 532.376471 138.494118 
L 548.788235 138.494118 
L 548.788235 122.082353 
L 532.376471 122.082353 
z
" clip-path="url(#p0b0df99d2b)" style="fill: #60bdfd; stroke: #000000; stroke-width: 0.470588"/>
    <path d="M 548.788235 138.494118 
L 565.2 138.494118 
L 565.2 122.082353 
L 548.788235 122.082353 
z
" clip-path="url(#p0b0df99d2b)" style="fill: #60bdfd; stroke: #000000; stroke-width: 0.470588"/>
   </g>
   <g id="text_1">
    <!-- 0 -->
    <g transform="translate(12.411765 18.741471) scale(0.094118 -0.094118)">
     <defs>
      <path id="DejaVuSans-30" d="M 2034 4250 
Q 1547 4250 1301 3770 
Q 1056 3291 1056 2328 
Q 1056 1369 1301 889 
Q 1547 409 2034 409 
Q 2525 409 2770 889 
Q 3016 1369 3016 2328 
Q 3016 3291 2770 3770 
Q 2525 4250 2034 4250 
z
M 2034 4750 
Q 2819 4750 3233 4129 
Q 3647 3509 3647 2328 
Q 3647 1150 3233 529 
Q 2819 -91 2034 -91 
Q 1250 -91 836 529 
Q 422 1150 422 2328 
Q 422 3509 836 4129 
Q 1250 4750 2034 4750 
z
" transform="scale(0.015625)"/>
     </defs>
     <use xlink:href="#DejaVuSans-30"/>
    </g>
   </g>
   <g id="text_2">
    <!-- 1 -->
    <g transform="translate(28.823529 18.741471) scale(0.094118 -0.094118)">
     <defs>
      <path id="DejaVuSans-31" d="M 794 531 
L 1825 531 
L 1825 4091 
L 703 3866 
L 703 4441 
L 1819 4666 
L 2450 4666 
L 2450 531 
L 3481 531 
L 3481 0 
L 794 0 
L 794 531 
z
" transform="scale(0.015625)"/>
     </defs>
     <use xlink:href="#DejaVuSans-31"/>
    </g>
   </g>
   <g id="text_3">
    <!-- 2 -->
    <g transform="translate(45.235294 18.741471) scale(0.094118 -0.094118)">
     <defs>
      <path id="DejaVuSans-32" d="M 1228 531 
L 3431 531 
L 3431 0 
L 469 0 
L 469 531 
Q 828 903 1448 1529 
Q 2069 2156 2228 2338 
Q 2531 2678 2651 2914 
Q 2772 3150 2772 3378 
Q 2772 3750 2511 3984 
Q 2250 4219 1831 4219 
Q 1534 4219 1204 4116 
Q 875 4013 500 3803 
L 500 4441 
Q 881 4594 1212 4672 
Q 1544 4750 1819 4750 
Q 2544 4750 2975 4387 
Q 3406 4025 3406 3419 
Q 3406 3131 3298 2873 
Q 3191 2616 2906 2266 
Q 2828 2175 2409 1742 
Q 1991 1309 1228 531 
z
" transform="scale(0.015625)"/>
     </defs>
     <use xlink:href="#DejaVuSans-32"/>
    </g>
   </g>
   <g id="text_4">
    <!-- 3 -->
    <g transform="translate(61.647059 18.741471) scale(0.094118 -0.094118)">
     <defs>
      <path id="DejaVuSans-33" d="M 2597 2516 
Q 3050 2419 3304 2112 
Q 3559 1806 3559 1356 
Q 3559 666 3084 287 
Q 2609 -91 1734 -91 
Q 1441 -91 1130 -33 
Q 819 25 488 141 
L 488 750 
Q 750 597 1062 519 
Q 1375 441 1716 441 
Q 2309 441 2620 675 
Q 2931 909 2931 1356 
Q 2931 1769 2642 2001 
Q 2353 2234 1838 2234 
L 1294 2234 
L 1294 2753 
L 1863 2753 
Q 2328 2753 2575 2939 
Q 2822 3125 2822 3475 
Q 2822 3834 2567 4026 
Q 2313 4219 1838 4219 
Q 1578 4219 1281 4162 
Q 984 4106 628 3988 
L 628 4550 
Q 988 4650 1302 4700 
Q 1616 4750 1894 4750 
Q 2613 4750 3031 4423 
Q 3450 4097 3450 3541 
Q 3450 3153 3228 2886 
Q 3006 2619 2597 2516 
z
" transform="scale(0.015625)"/>
     </defs>
     <use xlink:href="#DejaVuSans-33"/>
    </g>
   </g>
   <g id="text_5">
    <!-- 4 -->
    <g transform="translate(78.058824 18.741471) scale(0.094118 -0.094118)">
     <defs>
      <path id="DejaVuSans-34" d="M 2419 4116 
L 825 1625 
L 2419 1625 
L 2419 4116 
z
M 2253 4666 
L 3047 4666 
L 3047 1625 
L 3713 1625 
L 3713 1100 
L 3047 1100 
L 3047 0 
L 2419 0 
L 2419 1100 
L 313 1100 
L 313 1709 
L 2253 4666 
z
" transform="scale(0.015625)"/>
     </defs>
     <use xlink:href="#DejaVuSans-34"/>
    </g>
   </g>
   <g id="text_6">
    <!-- 5 -->
    <g transform="translate(94.470588 18.741471) scale(0.094118 -0.094118)">
     <defs>
      <path id="DejaVuSans-35" d="M 691 4666 
L 3169 4666 
L 3169 4134 
L 1269 4134 
L 1269 2991 
Q 1406 3038 1543 3061 
Q 1681 3084 1819 3084 
Q 2600 3084 3056 2656 
Q 3513 2228 3513 1497 
Q 3513 744 3044 326 
Q 2575 -91 1722 -91 
Q 1428 -91 1123 -41 
Q 819 9 494 109 
L 494 744 
Q 775 591 1075 516 
Q 1375 441 1709 441 
Q 2250 441 2565 725 
Q 2881 1009 2881 1497 
Q 2881 1984 2565 2268 
Q 2250 2553 1709 2553 
Q 1456 2553 1204 2497 
Q 953 2441 691 2322 
L 691 4666 
z
" transform="scale(0.015625)"/>
     </defs>
     <use xlink:href="#DejaVuSans-35"/>
    </g>
   </g>
   <g id="text_7">
    <!-- 6 -->
    <g transform="translate(110.882353 18.741471) scale(0.094118 -0.094118)">
     <defs>
      <path id="DejaVuSans-36" d="M 2113 2584 
Q 1688 2584 1439 2293 
Q 1191 2003 1191 1497 
Q 1191 994 1439 701 
Q 1688 409 2113 409 
Q 2538 409 2786 701 
Q 3034 994 3034 1497 
Q 3034 2003 2786 2293 
Q 2538 2584 2113 2584 
z
M 3366 4563 
L 3366 3988 
Q 3128 4100 2886 4159 
Q 2644 4219 2406 4219 
Q 1781 4219 1451 3797 
Q 1122 3375 1075 2522 
Q 1259 2794 1537 2939 
Q 1816 3084 2150 3084 
Q 2853 3084 3261 2657 
Q 3669 2231 3669 1497 
Q 3669 778 3244 343 
Q 2819 -91 2113 -91 
Q 1303 -91 875 529 
Q 447 1150 447 2328 
Q 447 3434 972 4092 
Q 1497 4750 2381 4750 
Q 2619 4750 2861 4703 
Q 3103 4656 3366 4563 
z
" transform="scale(0.015625)"/>
     </defs>
     <use xlink:href="#DejaVuSans-36"/>
    </g>
   </g>
   <g id="text_8">
    <!-- 7 -->
    <g transform="translate(127.294118 18.741471) scale(0.094118 -0.094118)">
     <defs>
      <path id="DejaVuSans-37" d="M 525 4666 
L 3525 4666 
L 3525 4397 
L 1831 0 
L 1172 0 
L 2766 4134 
L 525 4134 
L 525 4666 
z
" transform="scale(0.015625)"/>
     </defs>
     <use xlink:href="#DejaVuSans-37"/>
    </g>
   </g>
   <g id="text_9">
    <!-- 0 -->
    <g transform="translate(258.588235 18.741471) scale(0.094118 -0.094118)">
     <use xlink:href="#DejaVuSans-30"/>
    </g>
   </g>
   <g id="text_10">
    <!-- 0 -->
    <g transform="translate(275 18.741471) scale(0.094118 -0.094118)">
     <use xlink:href="#DejaVuSans-30"/>
    </g>
   </g>
   <g id="text_11">
    <!-- 8 -->
    <g transform="translate(291.411765 18.741471) scale(0.094118 -0.094118)">
     <defs>
      <path id="DejaVuSans-38" d="M 2034 2216 
Q 1584 2216 1326 1975 
Q 1069 1734 1069 1313 
Q 1069 891 1326 650 
Q 1584 409 2034 409 
Q 2484 409 2743 651 
Q 3003 894 3003 1313 
Q 3003 1734 2745 1975 
Q 2488 2216 2034 2216 
z
M 1403 2484 
Q 997 2584 770 2862 
Q 544 3141 544 3541 
Q 544 4100 942 4425 
Q 1341 4750 2034 4750 
Q 2731 4750 3128 4425 
Q 3525 4100 3525 3541 
Q 3525 3141 3298 2862 
Q 3072 2584 2669 2484 
Q 3125 2378 3379 2068 
Q 3634 1759 3634 1313 
Q 3634 634 3220 271 
Q 2806 -91 2034 -91 
Q 1263 -91 848 271 
Q 434 634 434 1313 
Q 434 1759 690 2068 
Q 947 2378 1403 2484 
z
M 1172 3481 
Q 1172 3119 1398 2916 
Q 1625 2713 2034 2713 
Q 2441 2713 2670 2916 
Q 2900 3119 2900 3481 
Q 2900 3844 2670 4047 
Q 2441 4250 2034 4250 
Q 1625 4250 1398 4047 
Q 1172 3844 1172 3481 
z
" transform="scale(0.015625)"/>
     </defs>
     <use xlink:href="#DejaVuSans-38"/>
    </g>
   </g>
   <g id="text_12">
    <!-- 1 -->
    <g transform="translate(307.823529 18.741471) scale(0.094118 -0.094118)">
     <use xlink:href="#DejaVuSans-31"/>
    </g>
   </g>
   <g id="text_13">
    <!-- 1 -->
    <g transform="translate(324.235294 18.741471) scale(0.094118 -0.094118)">
     <use xlink:href="#DejaVuSans-31"/>
    </g>
   </g>
   <g id="text_14">
    <!-- 2 -->
    <g transform="translate(340.647059 18.741471) scale(0.094118 -0.094118)">
     <use xlink:href="#DejaVuSans-32"/>
    </g>
   </g>
   <g id="text_15">
    <!-- 2 -->
    <g transform="translate(357.058824 18.741471) scale(0.094118 -0.094118)">
     <use xlink:href="#DejaVuSans-32"/>
    </g>
   </g>
   <g id="text_16">
    <!-- 3 -->
    <g transform="translate(373.470588 18.741471) scale(0.094118 -0.094118)">
     <use xlink:href="#DejaVuSans-33"/>
    </g>
   </g>
   <g id="text_17">
    <!-- 3 -->
    <g transform="translate(389.882353 18.741471) scale(0.094118 -0.094118)">
     <use xlink:href="#DejaVuSans-33"/>
    </g>
   </g>
   <g id="text_18">
    <!-- 4 -->
    <g transform="translate(406.294118 18.741471) scale(0.094118 -0.094118)">
     <use xlink:href="#DejaVuSans-34"/>
    </g>
   </g>
   <g id="text_19">
    <!-- 4 -->
    <g transform="translate(422.705882 18.741471) scale(0.094118 -0.094118)">
     <use xlink:href="#DejaVuSans-34"/>
    </g>
   </g>
   <g id="text_20">
    <!-- 5 -->
    <g transform="translate(439.117647 18.741471) scale(0.094118 -0.094118)">
     <use xlink:href="#DejaVuSans-35"/>
    </g>
   </g>
   <g id="text_21">
    <!-- 5 -->
    <g transform="translate(455.529412 18.741471) scale(0.094118 -0.094118)">
     <use xlink:href="#DejaVuSans-35"/>
    </g>
   </g>
   <g id="text_22">
    <!-- 6 -->
    <g transform="translate(471.941176 18.741471) scale(0.094118 -0.094118)">
     <use xlink:href="#DejaVuSans-36"/>
    </g>
   </g>
   <g id="text_23">
    <!-- 6 -->
    <g transform="translate(488.352941 18.741471) scale(0.094118 -0.094118)">
     <use xlink:href="#DejaVuSans-36"/>
    </g>
   </g>
   <g id="text_24">
    <!-- 7 -->
    <g transform="translate(504.764706 18.741471) scale(0.094118 -0.094118)">
     <use xlink:href="#DejaVuSans-37"/>
    </g>
   </g>
   <g id="text_25">
    <!-- 7 -->
    <g transform="translate(521.176471 18.741471) scale(0.094118 -0.094118)">
     <use xlink:href="#DejaVuSans-37"/>
    </g>
   </g>
   <g id="text_26">
    <!-- 8 -->
    <g transform="translate(537.588235 18.741471) scale(0.094118 -0.094118)">
     <use xlink:href="#DejaVuSans-38"/>
    </g>
   </g>
   <g id="text_27">
    <!-- 8 -->
    <g transform="translate(554 18.741471) scale(0.094118 -0.094118)">
     <use xlink:href="#DejaVuSans-38"/>
    </g>
   </g>
   <g id="text_28">
    <!-- 0 -->
    <g transform="translate(28.823529 35.153235) scale(0.094118 -0.094118)">
     <use xlink:href="#DejaVuSans-30"/>
    </g>
   </g>
   <g id="text_29">
    <!-- 1 -->
    <g transform="translate(45.235294 35.153235) scale(0.094118 -0.094118)">
     <use xlink:href="#DejaVuSans-31"/>
    </g>
   </g>
   <g id="text_30">
    <!-- 2 -->
    <g transform="translate(61.647059 35.153235) scale(0.094118 -0.094118)">
     <use xlink:href="#DejaVuSans-32"/>
    </g>
   </g>
   <g id="text_31">
    <!-- 3 -->
    <g transform="translate(78.058824 35.153235) scale(0.094118 -0.094118)">
     <use xlink:href="#DejaVuSans-33"/>
    </g>
   </g>
   <g id="text_32">
    <!-- 4 -->
    <g transform="translate(94.470588 35.153235) scale(0.094118 -0.094118)">
     <use xlink:href="#DejaVuSans-34"/>
    </g>
   </g>
   <g id="text_33">
    <!-- 5 -->
    <g transform="translate(110.882353 35.153235) scale(0.094118 -0.094118)">
     <use xlink:href="#DejaVuSans-35"/>
    </g>
   </g>
   <g id="text_34">
    <!-- 6 -->
    <g transform="translate(127.294118 35.153235) scale(0.094118 -0.094118)">
     <use xlink:href="#DejaVuSans-36"/>
    </g>
   </g>
   <g id="text_35">
    <!-- 0 -->
    <g transform="translate(242.176471 35.153235) scale(0.094118 -0.094118)">
     <use xlink:href="#DejaVuSans-30"/>
    </g>
   </g>
   <g id="text_36">
    <!-- 7 -->
    <g transform="translate(258.588235 35.153235) scale(0.094118 -0.094118)">
     <use xlink:href="#DejaVuSans-37"/>
    </g>
   </g>
   <g id="text_37">
    <!-- 1 -->
    <g transform="translate(275 35.153235) scale(0.094118 -0.094118)">
     <use xlink:href="#DejaVuSans-31"/>
    </g>
   </g>
   <g id="text_38">
    <!-- 0 -->
    <g transform="translate(291.411765 35.153235) scale(0.094118 -0.094118)">
     <use xlink:href="#DejaVuSans-30"/>
    </g>
   </g>
   <g id="text_39">
    <!-- 8 -->
    <g transform="translate(307.823529 35.153235) scale(0.094118 -0.094118)">
     <use xlink:href="#DejaVuSans-38"/>
    </g>
   </g>
   <g id="text_40">
    <!-- 2 -->
    <g transform="translate(324.235294 35.153235) scale(0.094118 -0.094118)">
     <use xlink:href="#DejaVuSans-32"/>
    </g>
   </g>
   <g id="text_41">
    <!-- 1 -->
    <g transform="translate(340.647059 35.153235) scale(0.094118 -0.094118)">
     <use xlink:href="#DejaVuSans-31"/>
    </g>
   </g>
   <g id="text_42">
    <!-- 3 -->
    <g transform="translate(357.058824 35.153235) scale(0.094118 -0.094118)">
     <use xlink:href="#DejaVuSans-33"/>
    </g>
   </g>
   <g id="text_43">
    <!-- 2 -->
    <g transform="translate(373.470588 35.153235) scale(0.094118 -0.094118)">
     <use xlink:href="#DejaVuSans-32"/>
    </g>
   </g>
   <g id="text_44">
    <!-- 4 -->
    <g transform="translate(389.882353 35.153235) scale(0.094118 -0.094118)">
     <use xlink:href="#DejaVuSans-34"/>
    </g>
   </g>
   <g id="text_45">
    <!-- 3 -->
    <g transform="translate(406.294118 35.153235) scale(0.094118 -0.094118)">
     <use xlink:href="#DejaVuSans-33"/>
    </g>
   </g>
   <g id="text_46">
    <!-- 5 -->
    <g transform="translate(422.705882 35.153235) scale(0.094118 -0.094118)">
     <use xlink:href="#DejaVuSans-35"/>
    </g>
   </g>
   <g id="text_47">
    <!-- 4 -->
    <g transform="translate(439.117647 35.153235) scale(0.094118 -0.094118)">
     <use xlink:href="#DejaVuSans-34"/>
    </g>
   </g>
   <g id="text_48">
    <!-- 6 -->
    <g transform="translate(455.529412 35.153235) scale(0.094118 -0.094118)">
     <use xlink:href="#DejaVuSans-36"/>
    </g>
   </g>
   <g id="text_49">
    <!-- 5 -->
    <g transform="translate(471.941176 35.153235) scale(0.094118 -0.094118)">
     <use xlink:href="#DejaVuSans-35"/>
    </g>
   </g>
   <g id="text_50">
    <!-- 7 -->
    <g transform="translate(488.352941 35.153235) scale(0.094118 -0.094118)">
     <use xlink:href="#DejaVuSans-37"/>
    </g>
   </g>
   <g id="text_51">
    <!-- 6 -->
    <g transform="translate(504.764706 35.153235) scale(0.094118 -0.094118)">
     <use xlink:href="#DejaVuSans-36"/>
    </g>
   </g>
   <g id="text_52">
    <!-- 8 -->
    <g transform="translate(521.176471 35.153235) scale(0.094118 -0.094118)">
     <use xlink:href="#DejaVuSans-38"/>
    </g>
   </g>
   <g id="text_53">
    <!-- 7 -->
    <g transform="translate(537.588235 35.153235) scale(0.094118 -0.094118)">
     <use xlink:href="#DejaVuSans-37"/>
    </g>
   </g>
   <g id="text_54">
    <!-- 8 -->
    <g transform="translate(554 35.153235) scale(0.094118 -0.094118)">
     <use xlink:href="#DejaVuSans-38"/>
    </g>
   </g>
   <g id="text_55">
    <!-- 0 -->
    <g transform="translate(45.235294 51.565) scale(0.094118 -0.094118)">
     <use xlink:href="#DejaVuSans-30"/>
    </g>
   </g>
   <g id="text_56">
    <!-- 1 -->
    <g transform="translate(61.647059 51.565) scale(0.094118 -0.094118)">
     <use xlink:href="#DejaVuSans-31"/>
    </g>
   </g>
   <g id="text_57">
    <!-- 2 -->
    <g transform="translate(78.058824 51.565) scale(0.094118 -0.094118)">
     <use xlink:href="#DejaVuSans-32"/>
    </g>
   </g>
   <g id="text_58">
    <!-- 3 -->
    <g transform="translate(94.470588 51.565) scale(0.094118 -0.094118)">
     <use xlink:href="#DejaVuSans-33"/>
    </g>
   </g>
   <g id="text_59">
    <!-- 4 -->
    <g transform="translate(110.882353 51.565) scale(0.094118 -0.094118)">
     <use xlink:href="#DejaVuSans-34"/>
    </g>
   </g>
   <g id="text_60">
    <!-- 5 -->
    <g transform="translate(127.294118 51.565) scale(0.094118 -0.094118)">
     <use xlink:href="#DejaVuSans-35"/>
    </g>
   </g>
   <g id="text_61">
    <!-- 0 -->
    <g transform="translate(225.764706 51.565) scale(0.094118 -0.094118)">
     <use xlink:href="#DejaVuSans-30"/>
    </g>
   </g>
   <g id="text_62">
    <!-- 6 -->
    <g transform="translate(242.176471 51.565) scale(0.094118 -0.094118)">
     <use xlink:href="#DejaVuSans-36"/>
    </g>
   </g>
   <g id="text_63">
    <!-- 1 -->
    <g transform="translate(258.588235 51.565) scale(0.094118 -0.094118)">
     <use xlink:href="#DejaVuSans-31"/>
    </g>
   </g>
   <g id="text_64">
    <!-- 7 -->
    <g transform="translate(275 51.565) scale(0.094118 -0.094118)">
     <use xlink:href="#DejaVuSans-37"/>
    </g>
   </g>
   <g id="text_65">
    <!-- 2 -->
    <g transform="translate(291.411765 51.565) scale(0.094118 -0.094118)">
     <use xlink:href="#DejaVuSans-32"/>
    </g>
   </g>
   <g id="text_66">
    <!-- 0 -->
    <g transform="translate(307.823529 51.565) scale(0.094118 -0.094118)">
     <use xlink:href="#DejaVuSans-30"/>
    </g>
   </g>
   <g id="text_67">
    <!-- 8 -->
    <g transform="translate(324.235294 51.565) scale(0.094118 -0.094118)">
     <use xlink:href="#DejaVuSans-38"/>
    </g>
   </g>
   <g id="text_68">
    <!-- 3 -->
    <g transform="translate(340.647059 51.565) scale(0.094118 -0.094118)">
     <use xlink:href="#DejaVuSans-33"/>
    </g>
   </g>
   <g id="text_69">
    <!-- 1 -->
    <g transform="translate(357.058824 51.565) scale(0.094118 -0.094118)">
     <use xlink:href="#DejaVuSans-31"/>
    </g>
   </g>
   <g id="text_70">
    <!-- 4 -->
    <g transform="translate(373.470588 51.565) scale(0.094118 -0.094118)">
     <use xlink:href="#DejaVuSans-34"/>
    </g>
   </g>
   <g id="text_71">
    <!-- 2 -->
    <g transform="translate(389.882353 51.565) scale(0.094118 -0.094118)">
     <use xlink:href="#DejaVuSans-32"/>
    </g>
   </g>
   <g id="text_72">
    <!-- 5 -->
    <g transform="translate(406.294118 51.565) scale(0.094118 -0.094118)">
     <use xlink:href="#DejaVuSans-35"/>
    </g>
   </g>
   <g id="text_73">
    <!-- 3 -->
    <g transform="translate(422.705882 51.565) scale(0.094118 -0.094118)">
     <use xlink:href="#DejaVuSans-33"/>
    </g>
   </g>
   <g id="text_74">
    <!-- 6 -->
    <g transform="translate(439.117647 51.565) scale(0.094118 -0.094118)">
     <use xlink:href="#DejaVuSans-36"/>
    </g>
   </g>
   <g id="text_75">
    <!-- 4 -->
    <g transform="translate(455.529412 51.565) scale(0.094118 -0.094118)">
     <use xlink:href="#DejaVuSans-34"/>
    </g>
   </g>
   <g id="text_76">
    <!-- 7 -->
    <g transform="translate(471.941176 51.565) scale(0.094118 -0.094118)">
     <use xlink:href="#DejaVuSans-37"/>
    </g>
   </g>
   <g id="text_77">
    <!-- 5 -->
    <g transform="translate(488.352941 51.565) scale(0.094118 -0.094118)">
     <use xlink:href="#DejaVuSans-35"/>
    </g>
   </g>
   <g id="text_78">
    <!-- 8 -->
    <g transform="translate(504.764706 51.565) scale(0.094118 -0.094118)">
     <use xlink:href="#DejaVuSans-38"/>
    </g>
   </g>
   <g id="text_79">
    <!-- 6 -->
    <g transform="translate(521.176471 51.565) scale(0.094118 -0.094118)">
     <use xlink:href="#DejaVuSans-36"/>
    </g>
   </g>
   <g id="text_80">
    <!-- 7 -->
    <g transform="translate(537.588235 51.565) scale(0.094118 -0.094118)">
     <use xlink:href="#DejaVuSans-37"/>
    </g>
   </g>
   <g id="text_81">
    <!-- 8 -->
    <g transform="translate(554 51.565) scale(0.094118 -0.094118)">
     <use xlink:href="#DejaVuSans-38"/>
    </g>
   </g>
   <g id="text_82">
    <!-- 0 -->
    <g transform="translate(61.647059 67.976765) scale(0.094118 -0.094118)">
     <use xlink:href="#DejaVuSans-30"/>
    </g>
   </g>
   <g id="text_83">
    <!-- 1 -->
    <g transform="translate(78.058824 67.976765) scale(0.094118 -0.094118)">
     <use xlink:href="#DejaVuSans-31"/>
    </g>
   </g>
   <g id="text_84">
    <!-- 2 -->
    <g transform="translate(94.470588 67.976765) scale(0.094118 -0.094118)">
     <use xlink:href="#DejaVuSans-32"/>
    </g>
   </g>
   <g id="text_85">
    <!-- 3 -->
    <g transform="translate(110.882353 67.976765) scale(0.094118 -0.094118)">
     <use xlink:href="#DejaVuSans-33"/>
    </g>
   </g>
   <g id="text_86">
    <!-- 4 -->
    <g transform="translate(127.294118 67.976765) scale(0.094118 -0.094118)">
     <use xlink:href="#DejaVuSans-34"/>
    </g>
   </g>
   <g id="text_87">
    <!-- 0 -->
    <g transform="translate(209.352941 67.976765) scale(0.094118 -0.094118)">
     <use xlink:href="#DejaVuSans-30"/>
    </g>
   </g>
   <g id="text_88">
    <!-- 5 -->
    <g transform="translate(225.764706 67.976765) scale(0.094118 -0.094118)">
     <use xlink:href="#DejaVuSans-35"/>
    </g>
   </g>
   <g id="text_89">
    <!-- 1 -->
    <g transform="translate(242.176471 67.976765) scale(0.094118 -0.094118)">
     <use xlink:href="#DejaVuSans-31"/>
    </g>
   </g>
   <g id="text_90">
    <!-- 6 -->
    <g transform="translate(258.588235 67.976765) scale(0.094118 -0.094118)">
     <use xlink:href="#DejaVuSans-36"/>
    </g>
   </g>
   <g id="text_91">
    <!-- 2 -->
    <g transform="translate(275 67.976765) scale(0.094118 -0.094118)">
     <use xlink:href="#DejaVuSans-32"/>
    </g>
   </g>
   <g id="text_92">
    <!-- 7 -->
    <g transform="translate(291.411765 67.976765) scale(0.094118 -0.094118)">
     <use xlink:href="#DejaVuSans-37"/>
    </g>
   </g>
   <g id="text_93">
    <!-- 3 -->
    <g transform="translate(307.823529 67.976765) scale(0.094118 -0.094118)">
     <use xlink:href="#DejaVuSans-33"/>
    </g>
   </g>
   <g id="text_94">
    <!-- 0 -->
    <g transform="translate(324.235294 67.976765) scale(0.094118 -0.094118)">
     <use xlink:href="#DejaVuSans-30"/>
    </g>
   </g>
   <g id="text_95">
    <!-- 8 -->
    <g transform="translate(340.647059 67.976765) scale(0.094118 -0.094118)">
     <use xlink:href="#DejaVuSans-38"/>
    </g>
   </g>
   <g id="text_96">
    <!-- 4 -->
    <g transform="translate(357.058824 67.976765) scale(0.094118 -0.094118)">
     <use xlink:href="#DejaVuSans-34"/>
    </g>
   </g>
   <g id="text_97">
    <!-- 1 -->
    <g transform="translate(373.470588 67.976765) scale(0.094118 -0.094118)">
     <use xlink:href="#DejaVuSans-31"/>
    </g>
   </g>
   <g id="text_98">
    <!-- 5 -->
    <g transform="translate(389.882353 67.976765) scale(0.094118 -0.094118)">
     <use xlink:href="#DejaVuSans-35"/>
    </g>
   </g>
   <g id="text_99">
    <!-- 2 -->
    <g transform="translate(406.294118 67.976765) scale(0.094118 -0.094118)">
     <use xlink:href="#DejaVuSans-32"/>
    </g>
   </g>
   <g id="text_100">
    <!-- 6 -->
    <g transform="translate(422.705882 67.976765) scale(0.094118 -0.094118)">
     <use xlink:href="#DejaVuSans-36"/>
    </g>
   </g>
   <g id="text_101">
    <!-- 3 -->
    <g transform="translate(439.117647 67.976765) scale(0.094118 -0.094118)">
     <use xlink:href="#DejaVuSans-33"/>
    </g>
   </g>
   <g id="text_102">
    <!-- 7 -->
    <g transform="translate(455.529412 67.976765) scale(0.094118 -0.094118)">
     <use xlink:href="#DejaVuSans-37"/>
    </g>
   </g>
   <g id="text_103">
    <!-- 4 -->
    <g transform="translate(471.941176 67.976765) scale(0.094118 -0.094118)">
     <use xlink:href="#DejaVuSans-34"/>
    </g>
   </g>
   <g id="text_104">
    <!-- 8 -->
    <g transform="translate(488.352941 67.976765) scale(0.094118 -0.094118)">
     <use xlink:href="#DejaVuSans-38"/>
    </g>
   </g>
   <g id="text_105">
    <!-- 5 -->
    <g transform="translate(504.764706 67.976765) scale(0.094118 -0.094118)">
     <use xlink:href="#DejaVuSans-35"/>
    </g>
   </g>
   <g id="text_106">
    <!-- 6 -->
    <g transform="translate(521.176471 67.976765) scale(0.094118 -0.094118)">
     <use xlink:href="#DejaVuSans-36"/>
    </g>
   </g>
   <g id="text_107">
    <!-- 7 -->
    <g transform="translate(537.588235 67.976765) scale(0.094118 -0.094118)">
     <use xlink:href="#DejaVuSans-37"/>
    </g>
   </g>
   <g id="text_108">
    <!-- 8 -->
    <g transform="translate(554 67.976765) scale(0.094118 -0.094118)">
     <use xlink:href="#DejaVuSans-38"/>
    </g>
   </g>
   <g id="text_109">
    <!-- 0 -->
    <g transform="translate(78.058824 84.388529) scale(0.094118 -0.094118)">
     <use xlink:href="#DejaVuSans-30"/>
    </g>
   </g>
   <g id="text_110">
    <!-- 1 -->
    <g transform="translate(94.470588 84.388529) scale(0.094118 -0.094118)">
     <use xlink:href="#DejaVuSans-31"/>
    </g>
   </g>
   <g id="text_111">
    <!-- 2 -->
    <g transform="translate(110.882353 84.388529) scale(0.094118 -0.094118)">
     <use xlink:href="#DejaVuSans-32"/>
    </g>
   </g>
   <g id="text_112">
    <!-- 3 -->
    <g transform="translate(127.294118 84.388529) scale(0.094118 -0.094118)">
     <use xlink:href="#DejaVuSans-33"/>
    </g>
   </g>
   <g id="text_113">
    <!-- 0 -->
    <g transform="translate(192.941176 84.388529) scale(0.094118 -0.094118)">
     <use xlink:href="#DejaVuSans-30"/>
    </g>
   </g>
   <g id="text_114">
    <!-- 4 -->
    <g transform="translate(209.352941 84.388529) scale(0.094118 -0.094118)">
     <use xlink:href="#DejaVuSans-34"/>
    </g>
   </g>
   <g id="text_115">
    <!-- 1 -->
    <g transform="translate(225.764706 84.388529) scale(0.094118 -0.094118)">
     <use xlink:href="#DejaVuSans-31"/>
    </g>
   </g>
   <g id="text_116">
    <!-- 5 -->
    <g transform="translate(242.176471 84.388529) scale(0.094118 -0.094118)">
     <use xlink:href="#DejaVuSans-35"/>
    </g>
   </g>
   <g id="text_117">
    <!-- 2 -->
    <g transform="translate(258.588235 84.388529) scale(0.094118 -0.094118)">
     <use xlink:href="#DejaVuSans-32"/>
    </g>
   </g>
   <g id="text_118">
    <!-- 6 -->
    <g transform="translate(275 84.388529) scale(0.094118 -0.094118)">
     <use xlink:href="#DejaVuSans-36"/>
    </g>
   </g>
   <g id="text_119">
    <!-- 3 -->
    <g transform="translate(291.411765 84.388529) scale(0.094118 -0.094118)">
     <use xlink:href="#DejaVuSans-33"/>
    </g>
   </g>
   <g id="text_120">
    <!-- 7 -->
    <g transform="translate(307.823529 84.388529) scale(0.094118 -0.094118)">
     <use xlink:href="#DejaVuSans-37"/>
    </g>
   </g>
   <g id="text_121">
    <!-- 4 -->
    <g transform="translate(324.235294 84.388529) scale(0.094118 -0.094118)">
     <use xlink:href="#DejaVuSans-34"/>
    </g>
   </g>
   <g id="text_122">
    <!-- 0 -->
    <g transform="translate(340.647059 84.388529) scale(0.094118 -0.094118)">
     <use xlink:href="#DejaVuSans-30"/>
    </g>
   </g>
   <g id="text_123">
    <!-- 8 -->
    <g transform="translate(357.058824 84.388529) scale(0.094118 -0.094118)">
     <use xlink:href="#DejaVuSans-38"/>
    </g>
   </g>
   <g id="text_124">
    <!-- 5 -->
    <g transform="translate(373.470588 84.388529) scale(0.094118 -0.094118)">
     <use xlink:href="#DejaVuSans-35"/>
    </g>
   </g>
   <g id="text_125">
    <!-- 1 -->
    <g transform="translate(389.882353 84.388529) scale(0.094118 -0.094118)">
     <use xlink:href="#DejaVuSans-31"/>
    </g>
   </g>
   <g id="text_126">
    <!-- 6 -->
    <g transform="translate(406.294118 84.388529) scale(0.094118 -0.094118)">
     <use xlink:href="#DejaVuSans-36"/>
    </g>
   </g>
   <g id="text_127">
    <!-- 2 -->
    <g transform="translate(422.705882 84.388529) scale(0.094118 -0.094118)">
     <use xlink:href="#DejaVuSans-32"/>
    </g>
   </g>
   <g id="text_128">
    <!-- 7 -->
    <g transform="translate(439.117647 84.388529) scale(0.094118 -0.094118)">
     <use xlink:href="#DejaVuSans-37"/>
    </g>
   </g>
   <g id="text_129">
    <!-- 3 -->
    <g transform="translate(455.529412 84.388529) scale(0.094118 -0.094118)">
     <use xlink:href="#DejaVuSans-33"/>
    </g>
   </g>
   <g id="text_130">
    <!-- 8 -->
    <g transform="translate(471.941176 84.388529) scale(0.094118 -0.094118)">
     <use xlink:href="#DejaVuSans-38"/>
    </g>
   </g>
   <g id="text_131">
    <!-- 4 -->
    <g transform="translate(488.352941 84.388529) scale(0.094118 -0.094118)">
     <use xlink:href="#DejaVuSans-34"/>
    </g>
   </g>
   <g id="text_132">
    <!-- 5 -->
    <g transform="translate(504.764706 84.388529) scale(0.094118 -0.094118)">
     <use xlink:href="#DejaVuSans-35"/>
    </g>
   </g>
   <g id="text_133">
    <!-- 6 -->
    <g transform="translate(521.176471 84.388529) scale(0.094118 -0.094118)">
     <use xlink:href="#DejaVuSans-36"/>
    </g>
   </g>
   <g id="text_134">
    <!-- 7 -->
    <g transform="translate(537.588235 84.388529) scale(0.094118 -0.094118)">
     <use xlink:href="#DejaVuSans-37"/>
    </g>
   </g>
   <g id="text_135">
    <!-- 8 -->
    <g transform="translate(554 84.388529) scale(0.094118 -0.094118)">
     <use xlink:href="#DejaVuSans-38"/>
    </g>
   </g>
   <g id="text_136">
    <!-- 0 -->
    <g transform="translate(94.470588 100.800294) scale(0.094118 -0.094118)">
     <use xlink:href="#DejaVuSans-30"/>
    </g>
   </g>
   <g id="text_137">
    <!-- 1 -->
    <g transform="translate(110.882353 100.800294) scale(0.094118 -0.094118)">
     <use xlink:href="#DejaVuSans-31"/>
    </g>
   </g>
   <g id="text_138">
    <!-- 2 -->
    <g transform="translate(127.294118 100.800294) scale(0.094118 -0.094118)">
     <use xlink:href="#DejaVuSans-32"/>
    </g>
   </g>
   <g id="text_139">
    <!-- 0 -->
    <g transform="translate(176.529412 100.800294) scale(0.094118 -0.094118)">
     <use xlink:href="#DejaVuSans-30"/>
    </g>
   </g>
   <g id="text_140">
    <!-- 3 -->
    <g transform="translate(192.941176 100.800294) scale(0.094118 -0.094118)">
     <use xlink:href="#DejaVuSans-33"/>
    </g>
   </g>
   <g id="text_141">
    <!-- 1 -->
    <g transform="translate(209.352941 100.800294) scale(0.094118 -0.094118)">
     <use xlink:href="#DejaVuSans-31"/>
    </g>
   </g>
   <g id="text_142">
    <!-- 4 -->
    <g transform="translate(225.764706 100.800294) scale(0.094118 -0.094118)">
     <use xlink:href="#DejaVuSans-34"/>
    </g>
   </g>
   <g id="text_143">
    <!-- 2 -->
    <g transform="translate(242.176471 100.800294) scale(0.094118 -0.094118)">
     <use xlink:href="#DejaVuSans-32"/>
    </g>
   </g>
   <g id="text_144">
    <!-- 5 -->
    <g transform="translate(258.588235 100.800294) scale(0.094118 -0.094118)">
     <use xlink:href="#DejaVuSans-35"/>
    </g>
   </g>
   <g id="text_145">
    <!-- 3 -->
    <g transform="translate(275 100.800294) scale(0.094118 -0.094118)">
     <use xlink:href="#DejaVuSans-33"/>
    </g>
   </g>
   <g id="text_146">
    <!-- 6 -->
    <g transform="translate(291.411765 100.800294) scale(0.094118 -0.094118)">
     <use xlink:href="#DejaVuSans-36"/>
    </g>
   </g>
   <g id="text_147">
    <!-- 4 -->
    <g transform="translate(307.823529 100.800294) scale(0.094118 -0.094118)">
     <use xlink:href="#DejaVuSans-34"/>
    </g>
   </g>
   <g id="text_148">
    <!-- 7 -->
    <g transform="translate(324.235294 100.800294) scale(0.094118 -0.094118)">
     <use xlink:href="#DejaVuSans-37"/>
    </g>
   </g>
   <g id="text_149">
    <!-- 5 -->
    <g transform="translate(340.647059 100.800294) scale(0.094118 -0.094118)">
     <use xlink:href="#DejaVuSans-35"/>
    </g>
   </g>
   <g id="text_150">
    <!-- 0 -->
    <g transform="translate(357.058824 100.800294) scale(0.094118 -0.094118)">
     <use xlink:href="#DejaVuSans-30"/>
    </g>
   </g>
   <g id="text_151">
    <!-- 8 -->
    <g transform="translate(373.470588 100.800294) scale(0.094118 -0.094118)">
     <use xlink:href="#DejaVuSans-38"/>
    </g>
   </g>
   <g id="text_152">
    <!-- 6 -->
    <g transform="translate(389.882353 100.800294) scale(0.094118 -0.094118)">
     <use xlink:href="#DejaVuSans-36"/>
    </g>
   </g>
   <g id="text_153">
    <!-- 1 -->
    <g transform="translate(406.294118 100.800294) scale(0.094118 -0.094118)">
     <use xlink:href="#DejaVuSans-31"/>
    </g>
   </g>
   <g id="text_154">
    <!-- 7 -->
    <g transform="translate(422.705882 100.800294) scale(0.094118 -0.094118)">
     <use xlink:href="#DejaVuSans-37"/>
    </g>
   </g>
   <g id="text_155">
    <!-- 2 -->
    <g transform="translate(439.117647 100.800294) scale(0.094118 -0.094118)">
     <use xlink:href="#DejaVuSans-32"/>
    </g>
   </g>
   <g id="text_156">
    <!-- 8 -->
    <g transform="translate(455.529412 100.800294) scale(0.094118 -0.094118)">
     <use xlink:href="#DejaVuSans-38"/>
    </g>
   </g>
   <g id="text_157">
    <!-- 3 -->
    <g transform="translate(471.941176 100.800294) scale(0.094118 -0.094118)">
     <use xlink:href="#DejaVuSans-33"/>
    </g>
   </g>
   <g id="text_158">
    <!-- 4 -->
    <g transform="translate(488.352941 100.800294) scale(0.094118 -0.094118)">
     <use xlink:href="#DejaVuSans-34"/>
    </g>
   </g>
   <g id="text_159">
    <!-- 5 -->
    <g transform="translate(504.764706 100.800294) scale(0.094118 -0.094118)">
     <use xlink:href="#DejaVuSans-35"/>
    </g>
   </g>
   <g id="text_160">
    <!-- 6 -->
    <g transform="translate(521.176471 100.800294) scale(0.094118 -0.094118)">
     <use xlink:href="#DejaVuSans-36"/>
    </g>
   </g>
   <g id="text_161">
    <!-- 7 -->
    <g transform="translate(537.588235 100.800294) scale(0.094118 -0.094118)">
     <use xlink:href="#DejaVuSans-37"/>
    </g>
   </g>
   <g id="text_162">
    <!-- 8 -->
    <g transform="translate(554 100.800294) scale(0.094118 -0.094118)">
     <use xlink:href="#DejaVuSans-38"/>
    </g>
   </g>
   <g id="text_163">
    <!-- 0 -->
    <g transform="translate(110.882353 117.212059) scale(0.094118 -0.094118)">
     <use xlink:href="#DejaVuSans-30"/>
    </g>
   </g>
   <g id="text_164">
    <!-- 1 -->
    <g transform="translate(127.294118 117.212059) scale(0.094118 -0.094118)">
     <use xlink:href="#DejaVuSans-31"/>
    </g>
   </g>
   <g id="text_165">
    <!-- 0 -->
    <g transform="translate(160.117647 117.212059) scale(0.094118 -0.094118)">
     <use xlink:href="#DejaVuSans-30"/>
    </g>
   </g>
   <g id="text_166">
    <!-- 2 -->
    <g transform="translate(176.529412 117.212059) scale(0.094118 -0.094118)">
     <use xlink:href="#DejaVuSans-32"/>
    </g>
   </g>
   <g id="text_167">
    <!-- 1 -->
    <g transform="translate(192.941176 117.212059) scale(0.094118 -0.094118)">
     <use xlink:href="#DejaVuSans-31"/>
    </g>
   </g>
   <g id="text_168">
    <!-- 3 -->
    <g transform="translate(209.352941 117.212059) scale(0.094118 -0.094118)">
     <use xlink:href="#DejaVuSans-33"/>
    </g>
   </g>
   <g id="text_169">
    <!-- 2 -->
    <g transform="translate(225.764706 117.212059) scale(0.094118 -0.094118)">
     <use xlink:href="#DejaVuSans-32"/>
    </g>
   </g>
   <g id="text_170">
    <!-- 4 -->
    <g transform="translate(242.176471 117.212059) scale(0.094118 -0.094118)">
     <use xlink:href="#DejaVuSans-34"/>
    </g>
   </g>
   <g id="text_171">
    <!-- 3 -->
    <g transform="translate(258.588235 117.212059) scale(0.094118 -0.094118)">
     <use xlink:href="#DejaVuSans-33"/>
    </g>
   </g>
   <g id="text_172">
    <!-- 5 -->
    <g transform="translate(275 117.212059) scale(0.094118 -0.094118)">
     <use xlink:href="#DejaVuSans-35"/>
    </g>
   </g>
   <g id="text_173">
    <!-- 4 -->
    <g transform="translate(291.411765 117.212059) scale(0.094118 -0.094118)">
     <use xlink:href="#DejaVuSans-34"/>
    </g>
   </g>
   <g id="text_174">
    <!-- 6 -->
    <g transform="translate(307.823529 117.212059) scale(0.094118 -0.094118)">
     <use xlink:href="#DejaVuSans-36"/>
    </g>
   </g>
   <g id="text_175">
    <!-- 5 -->
    <g transform="translate(324.235294 117.212059) scale(0.094118 -0.094118)">
     <use xlink:href="#DejaVuSans-35"/>
    </g>
   </g>
   <g id="text_176">
    <!-- 7 -->
    <g transform="translate(340.647059 117.212059) scale(0.094118 -0.094118)">
     <use xlink:href="#DejaVuSans-37"/>
    </g>
   </g>
   <g id="text_177">
    <!-- 6 -->
    <g transform="translate(357.058824 117.212059) scale(0.094118 -0.094118)">
     <use xlink:href="#DejaVuSans-36"/>
    </g>
   </g>
   <g id="text_178">
    <!-- 0 -->
    <g transform="translate(373.470588 117.212059) scale(0.094118 -0.094118)">
     <use xlink:href="#DejaVuSans-30"/>
    </g>
   </g>
   <g id="text_179">
    <!-- 8 -->
    <g transform="translate(389.882353 117.212059) scale(0.094118 -0.094118)">
     <use xlink:href="#DejaVuSans-38"/>
    </g>
   </g>
   <g id="text_180">
    <!-- 7 -->
    <g transform="translate(406.294118 117.212059) scale(0.094118 -0.094118)">
     <use xlink:href="#DejaVuSans-37"/>
    </g>
   </g>
   <g id="text_181">
    <!-- 1 -->
    <g transform="translate(422.705882 117.212059) scale(0.094118 -0.094118)">
     <use xlink:href="#DejaVuSans-31"/>
    </g>
   </g>
   <g id="text_182">
    <!-- 8 -->
    <g transform="translate(439.117647 117.212059) scale(0.094118 -0.094118)">
     <use xlink:href="#DejaVuSans-38"/>
    </g>
   </g>
   <g id="text_183">
    <!-- 2 -->
    <g transform="translate(455.529412 117.212059) scale(0.094118 -0.094118)">
     <use xlink:href="#DejaVuSans-32"/>
    </g>
   </g>
   <g id="text_184">
    <!-- 3 -->
    <g transform="translate(471.941176 117.212059) scale(0.094118 -0.094118)">
     <use xlink:href="#DejaVuSans-33"/>
    </g>
   </g>
   <g id="text_185">
    <!-- 4 -->
    <g transform="translate(488.352941 117.212059) scale(0.094118 -0.094118)">
     <use xlink:href="#DejaVuSans-34"/>
    </g>
   </g>
   <g id="text_186">
    <!-- 5 -->
    <g transform="translate(504.764706 117.212059) scale(0.094118 -0.094118)">
     <use xlink:href="#DejaVuSans-35"/>
    </g>
   </g>
   <g id="text_187">
    <!-- 6 -->
    <g transform="translate(521.176471 117.212059) scale(0.094118 -0.094118)">
     <use xlink:href="#DejaVuSans-36"/>
    </g>
   </g>
   <g id="text_188">
    <!-- 7 -->
    <g transform="translate(537.588235 117.212059) scale(0.094118 -0.094118)">
     <use xlink:href="#DejaVuSans-37"/>
    </g>
   </g>
   <g id="text_189">
    <!-- 8 -->
    <g transform="translate(554 117.212059) scale(0.094118 -0.094118)">
     <use xlink:href="#DejaVuSans-38"/>
    </g>
   </g>
   <g id="text_190">
    <!-- 0 -->
    <g transform="translate(127.294118 133.623824) scale(0.094118 -0.094118)">
     <use xlink:href="#DejaVuSans-30"/>
    </g>
   </g>
   <g id="text_191">
    <!-- 0 -->
    <g transform="translate(143.705882 133.623824) scale(0.094118 -0.094118)">
     <use xlink:href="#DejaVuSans-30"/>
    </g>
   </g>
   <g id="text_192">
    <!-- 1 -->
    <g transform="translate(160.117647 133.623824) scale(0.094118 -0.094118)">
     <use xlink:href="#DejaVuSans-31"/>
    </g>
   </g>
   <g id="text_193">
    <!-- 1 -->
    <g transform="translate(176.529412 133.623824) scale(0.094118 -0.094118)">
     <use xlink:href="#DejaVuSans-31"/>
    </g>
   </g>
   <g id="text_194">
    <!-- 2 -->
    <g transform="translate(192.941176 133.623824) scale(0.094118 -0.094118)">
     <use xlink:href="#DejaVuSans-32"/>
    </g>
   </g>
   <g id="text_195">
    <!-- 2 -->
    <g transform="translate(209.352941 133.623824) scale(0.094118 -0.094118)">
     <use xlink:href="#DejaVuSans-32"/>
    </g>
   </g>
   <g id="text_196">
    <!-- 3 -->
    <g transform="translate(225.764706 133.623824) scale(0.094118 -0.094118)">
     <use xlink:href="#DejaVuSans-33"/>
    </g>
   </g>
   <g id="text_197">
    <!-- 3 -->
    <g transform="translate(242.176471 133.623824) scale(0.094118 -0.094118)">
     <use xlink:href="#DejaVuSans-33"/>
    </g>
   </g>
   <g id="text_198">
    <!-- 4 -->
    <g transform="translate(258.588235 133.623824) scale(0.094118 -0.094118)">
     <use xlink:href="#DejaVuSans-34"/>
    </g>
   </g>
   <g id="text_199">
    <!-- 4 -->
    <g transform="translate(275 133.623824) scale(0.094118 -0.094118)">
     <use xlink:href="#DejaVuSans-34"/>
    </g>
   </g>
   <g id="text_200">
    <!-- 5 -->
    <g transform="translate(291.411765 133.623824) scale(0.094118 -0.094118)">
     <use xlink:href="#DejaVuSans-35"/>
    </g>
   </g>
   <g id="text_201">
    <!-- 5 -->
    <g transform="translate(307.823529 133.623824) scale(0.094118 -0.094118)">
     <use xlink:href="#DejaVuSans-35"/>
    </g>
   </g>
   <g id="text_202">
    <!-- 6 -->
    <g transform="translate(324.235294 133.623824) scale(0.094118 -0.094118)">
     <use xlink:href="#DejaVuSans-36"/>
    </g>
   </g>
   <g id="text_203">
    <!-- 6 -->
    <g transform="translate(340.647059 133.623824) scale(0.094118 -0.094118)">
     <use xlink:href="#DejaVuSans-36"/>
    </g>
   </g>
   <g id="text_204">
    <!-- 7 -->
    <g transform="translate(357.058824 133.623824) scale(0.094118 -0.094118)">
     <use xlink:href="#DejaVuSans-37"/>
    </g>
   </g>
   <g id="text_205">
    <!-- 7 -->
    <g transform="translate(373.470588 133.623824) scale(0.094118 -0.094118)">
     <use xlink:href="#DejaVuSans-37"/>
    </g>
   </g>
   <g id="text_206">
    <!-- 0 -->
    <g transform="translate(389.882353 133.623824) scale(0.094118 -0.094118)">
     <use xlink:href="#DejaVuSans-30"/>
    </g>
   </g>
   <g id="text_207">
    <!-- 8 -->
    <g transform="translate(406.294118 133.623824) scale(0.094118 -0.094118)">
     <use xlink:href="#DejaVuSans-38"/>
    </g>
   </g>
   <g id="text_208">
    <!-- 8 -->
    <g transform="translate(422.705882 133.623824) scale(0.094118 -0.094118)">
     <use xlink:href="#DejaVuSans-38"/>
    </g>
   </g>
   <g id="text_209">
    <!-- 1 -->
    <g transform="translate(439.117647 133.623824) scale(0.094118 -0.094118)">
     <use xlink:href="#DejaVuSans-31"/>
    </g>
   </g>
   <g id="text_210">
    <!-- 2 -->
    <g transform="translate(455.529412 133.623824) scale(0.094118 -0.094118)">
     <use xlink:href="#DejaVuSans-32"/>
    </g>
   </g>
   <g id="text_211">
    <!-- 3 -->
    <g transform="translate(471.941176 133.623824) scale(0.094118 -0.094118)">
     <use xlink:href="#DejaVuSans-33"/>
    </g>
   </g>
   <g id="text_212">
    <!-- 4 -->
    <g transform="translate(488.352941 133.623824) scale(0.094118 -0.094118)">
     <use xlink:href="#DejaVuSans-34"/>
    </g>
   </g>
   <g id="text_213">
    <!-- 5 -->
    <g transform="translate(504.764706 133.623824) scale(0.094118 -0.094118)">
     <use xlink:href="#DejaVuSans-35"/>
    </g>
   </g>
   <g id="text_214">
    <!-- 6 -->
    <g transform="translate(521.176471 133.623824) scale(0.094118 -0.094118)">
     <use xlink:href="#DejaVuSans-36"/>
    </g>
   </g>
   <g id="text_215">
    <!-- 7 -->
    <g transform="translate(537.588235 133.623824) scale(0.094118 -0.094118)">
     <use xlink:href="#DejaVuSans-37"/>
    </g>
   </g>
   <g id="text_216">
    <!-- 8 -->
    <g transform="translate(554 133.623824) scale(0.094118 -0.094118)">
     <use xlink:href="#DejaVuSans-38"/>
    </g>
   </g>
  </g>
 </g>
 <defs>
  <clipPath id="p0b0df99d2b">
   <rect x="7.2" y="7.2" width="1116" height="131.294118"/>
  </clipPath>
 </defs>
</svg>
