<?xml version="1.0" encoding="utf-8" standalone="no"?>
<!DOCTYPE svg PUBLIC "-//W3C//DTD SVG 1.1//EN"
  "http://www.w3.org/Graphics/SVG/1.1/DTD/svg11.dtd">
<svg xmlns:xlink="http://www.w3.org/1999/xlink" width="1130.4pt" height="70.2pt" viewBox="0 0 1130.4 70.2" xmlns="http://www.w3.org/2000/svg" version="1.1">
 <metadata>
  <rdf:RDF xmlns:dc="http://purl.org/dc/elements/1.1/" xmlns:cc="http://creativecommons.org/ns#" xmlns:rdf="http://www.w3.org/1999/02/22-rdf-syntax-ns#">
   <cc:Work>
    <dc:type rdf:resource="http://purl.org/dc/dcmitype/StillImage"/>
    <dc:date>2025-05-10T21:57:46.977274</dc:date>
    <dc:format>image/svg+xml</dc:format>
    <dc:creator>
     <cc:Agent>
      <dc:title>Matplotlib v3.6.3, https://matplotlib.org/</dc:title>
     </cc:Agent>
    </dc:creator>
   </cc:Work>
  </rdf:RDF>
 </metadata>
 <defs>
  <style type="text/css">*{stroke-linejoin: round; stroke-linecap: butt}</style>
 </defs>
 <g id="figure_1">
  <g id="patch_1">
   <path d="M 0 70.2 
L 1130.4 70.2 
L 1130.4 0 
L 0 0 
z
" style="fill: #ffffff"/>
  </g>
  <g id="axes_1">
   <g id="PatchCollection_1">
    <path d="M 7.2 35.1 
L 35.1 35.1 
L 35.1 7.2 
L 7.2 7.2 
z
" clip-path="url(#p3879075b17)" style="fill: #fcb225; stroke: #000000; stroke-width: 0.8"/>
    <path d="M 35.1 35.1 
L 63 35.1 
L 63 7.2 
L 35.1 7.2 
z
" clip-path="url(#p3879075b17)" style="fill: #fcb225; stroke: #000000; stroke-width: 0.8"/>
    <path d="M 90.9 35.1 
L 118.8 35.1 
L 118.8 7.2 
L 90.9 7.2 
z
" clip-path="url(#p3879075b17)" style="fill: #5add4a; stroke: #000000; stroke-width: 0.8"/>
    <path d="M 118.8 35.1 
L 146.7 35.1 
L 146.7 7.2 
L 118.8 7.2 
z
" clip-path="url(#p3879075b17)" style="fill: #60bdfd; stroke: #000000; stroke-width: 0.8"/>
    <path d="M 146.7 35.1 
L 174.6 35.1 
L 174.6 7.2 
L 146.7 7.2 
z
" clip-path="url(#p3879075b17)" style="fill: #fcb225; stroke: #000000; stroke-width: 0.8"/>
    <path d="M 174.6 35.1 
L 202.5 35.1 
L 202.5 7.2 
L 174.6 7.2 
z
" clip-path="url(#p3879075b17)" style="fill: #5add4a; stroke: #000000; stroke-width: 0.8"/>
    <path d="M 202.5 35.1 
L 230.4 35.1 
L 230.4 7.2 
L 202.5 7.2 
z
" clip-path="url(#p3879075b17)" style="fill: #60bdfd; stroke: #000000; stroke-width: 0.8"/>
    <path d="M 230.4 35.1 
L 258.3 35.1 
L 258.3 7.2 
L 230.4 7.2 
z
" clip-path="url(#p3879075b17)" style="fill: #fcb225; stroke: #000000; stroke-width: 0.8"/>
    <path d="M 258.3 35.1 
L 286.2 35.1 
L 286.2 7.2 
L 258.3 7.2 
z
" clip-path="url(#p3879075b17)" style="fill: #5add4a; stroke: #000000; stroke-width: 0.8"/>
    <path d="M 286.2 35.1 
L 314.1 35.1 
L 314.1 7.2 
L 286.2 7.2 
z
" clip-path="url(#p3879075b17)" style="fill: #60bdfd; stroke: #000000; stroke-width: 0.8"/>
    <path d="M 314.1 35.1 
L 342 35.1 
L 342 7.2 
L 314.1 7.2 
z
" clip-path="url(#p3879075b17)" style="fill: #fcb225; stroke: #000000; stroke-width: 0.8"/>
    <path d="M 342 35.1 
L 369.9 35.1 
L 369.9 7.2 
L 342 7.2 
z
" clip-path="url(#p3879075b17)" style="fill: #5add4a; stroke: #000000; stroke-width: 0.8"/>
    <path d="M 369.9 35.1 
L 397.8 35.1 
L 397.8 7.2 
L 369.9 7.2 
z
" clip-path="url(#p3879075b17)" style="fill: #60bdfd; stroke: #000000; stroke-width: 0.8"/>
    <path d="M 397.8 35.1 
L 425.7 35.1 
L 425.7 7.2 
L 397.8 7.2 
z
" clip-path="url(#p3879075b17)" style="fill: #fcb225; stroke: #000000; stroke-width: 0.8"/>
    <path d="M 425.7 35.1 
L 453.6 35.1 
L 453.6 7.2 
L 425.7 7.2 
z
" clip-path="url(#p3879075b17)" style="fill: #5add4a; stroke: #000000; stroke-width: 0.8"/>
    <path d="M 453.6 35.1 
L 481.5 35.1 
L 481.5 7.2 
L 453.6 7.2 
z
" clip-path="url(#p3879075b17)" style="fill: #60bdfd; stroke: #000000; stroke-width: 0.8"/>
    <path d="M 481.5 35.1 
L 509.4 35.1 
L 509.4 7.2 
L 481.5 7.2 
z
" clip-path="url(#p3879075b17)" style="fill: #fcb225; stroke: #000000; stroke-width: 0.8"/>
    <path d="M 509.4 35.1 
L 537.3 35.1 
L 537.3 7.2 
L 509.4 7.2 
z
" clip-path="url(#p3879075b17)" style="fill: #5add4a; stroke: #000000; stroke-width: 0.8"/>
    <path d="M 537.3 35.1 
L 565.2 35.1 
L 565.2 7.2 
L 537.3 7.2 
z
" clip-path="url(#p3879075b17)" style="fill: #60bdfd; stroke: #000000; stroke-width: 0.8"/>
    <path d="M 565.2 35.1 
L 593.1 35.1 
L 593.1 7.2 
L 565.2 7.2 
z
" clip-path="url(#p3879075b17)" style="fill: #fcb225; stroke: #000000; stroke-width: 0.8"/>
    <path d="M 593.1 35.1 
L 621 35.1 
L 621 7.2 
L 593.1 7.2 
z
" clip-path="url(#p3879075b17)" style="fill: #5add4a; stroke: #000000; stroke-width: 0.8"/>
    <path d="M 621 35.1 
L 648.9 35.1 
L 648.9 7.2 
L 621 7.2 
z
" clip-path="url(#p3879075b17)" style="fill: #60bdfd; stroke: #000000; stroke-width: 0.8"/>
    <path d="M 648.9 35.1 
L 676.8 35.1 
L 676.8 7.2 
L 648.9 7.2 
z
" clip-path="url(#p3879075b17)" style="fill: #5add4a; stroke: #000000; stroke-width: 0.8"/>
    <path d="M 676.8 35.1 
L 704.7 35.1 
L 704.7 7.2 
L 676.8 7.2 
z
" clip-path="url(#p3879075b17)" style="fill: #60bdfd; stroke: #000000; stroke-width: 0.8"/>
    <path d="M 35.1 63 
L 63 63 
L 63 35.1 
L 35.1 35.1 
z
" clip-path="url(#p3879075b17)" style="fill: #fcb225; stroke: #000000; stroke-width: 0.8"/>
    <path d="M 63 63 
L 90.9 63 
L 90.9 35.1 
L 63 35.1 
z
" clip-path="url(#p3879075b17)" style="fill: #5add4a; stroke: #000000; stroke-width: 0.8"/>
    <path d="M 90.9 63 
L 118.8 63 
L 118.8 35.1 
L 90.9 35.1 
z
" clip-path="url(#p3879075b17)" style="fill: #fcb225; stroke: #000000; stroke-width: 0.8"/>
    <path d="M 118.8 63 
L 146.7 63 
L 146.7 35.1 
L 118.8 35.1 
z
" clip-path="url(#p3879075b17)" style="fill: #5add4a; stroke: #000000; stroke-width: 0.8"/>
    <path d="M 146.7 63 
L 174.6 63 
L 174.6 35.1 
L 146.7 35.1 
z
" clip-path="url(#p3879075b17)" style="fill: #60bdfd; stroke: #000000; stroke-width: 0.8"/>
    <path d="M 174.6 63 
L 202.5 63 
L 202.5 35.1 
L 174.6 35.1 
z
" clip-path="url(#p3879075b17)" style="fill: #fcb225; stroke: #000000; stroke-width: 0.8"/>
    <path d="M 202.5 63 
L 230.4 63 
L 230.4 35.1 
L 202.5 35.1 
z
" clip-path="url(#p3879075b17)" style="fill: #5add4a; stroke: #000000; stroke-width: 0.8"/>
    <path d="M 230.4 63 
L 258.3 63 
L 258.3 35.1 
L 230.4 35.1 
z
" clip-path="url(#p3879075b17)" style="fill: #60bdfd; stroke: #000000; stroke-width: 0.8"/>
    <path d="M 258.3 63 
L 286.2 63 
L 286.2 35.1 
L 258.3 35.1 
z
" clip-path="url(#p3879075b17)" style="fill: #fcb225; stroke: #000000; stroke-width: 0.8"/>
    <path d="M 286.2 63 
L 314.1 63 
L 314.1 35.1 
L 286.2 35.1 
z
" clip-path="url(#p3879075b17)" style="fill: #5add4a; stroke: #000000; stroke-width: 0.8"/>
    <path d="M 314.1 63 
L 342 63 
L 342 35.1 
L 314.1 35.1 
z
" clip-path="url(#p3879075b17)" style="fill: #60bdfd; stroke: #000000; stroke-width: 0.8"/>
    <path d="M 342 63 
L 369.9 63 
L 369.9 35.1 
L 342 35.1 
z
" clip-path="url(#p3879075b17)" style="fill: #fcb225; stroke: #000000; stroke-width: 0.8"/>
    <path d="M 369.9 63 
L 397.8 63 
L 397.8 35.1 
L 369.9 35.1 
z
" clip-path="url(#p3879075b17)" style="fill: #5add4a; stroke: #000000; stroke-width: 0.8"/>
    <path d="M 397.8 63 
L 425.7 63 
L 425.7 35.1 
L 397.8 35.1 
z
" clip-path="url(#p3879075b17)" style="fill: #60bdfd; stroke: #000000; stroke-width: 0.8"/>
    <path d="M 425.7 63 
L 453.6 63 
L 453.6 35.1 
L 425.7 35.1 
z
" clip-path="url(#p3879075b17)" style="fill: #fcb225; stroke: #000000; stroke-width: 0.8"/>
    <path d="M 453.6 63 
L 481.5 63 
L 481.5 35.1 
L 453.6 35.1 
z
" clip-path="url(#p3879075b17)" style="fill: #5add4a; stroke: #000000; stroke-width: 0.8"/>
    <path d="M 481.5 63 
L 509.4 63 
L 509.4 35.1 
L 481.5 35.1 
z
" clip-path="url(#p3879075b17)" style="fill: #60bdfd; stroke: #000000; stroke-width: 0.8"/>
    <path d="M 509.4 63 
L 537.3 63 
L 537.3 35.1 
L 509.4 35.1 
z
" clip-path="url(#p3879075b17)" style="fill: #fcb225; stroke: #000000; stroke-width: 0.8"/>
    <path d="M 537.3 63 
L 565.2 63 
L 565.2 35.1 
L 537.3 35.1 
z
" clip-path="url(#p3879075b17)" style="fill: #5add4a; stroke: #000000; stroke-width: 0.8"/>
    <path d="M 565.2 63 
L 593.1 63 
L 593.1 35.1 
L 565.2 35.1 
z
" clip-path="url(#p3879075b17)" style="fill: #60bdfd; stroke: #000000; stroke-width: 0.8"/>
    <path d="M 593.1 63 
L 621 63 
L 621 35.1 
L 593.1 35.1 
z
" clip-path="url(#p3879075b17)" style="fill: #fcb225; stroke: #000000; stroke-width: 0.8"/>
    <path d="M 621 63 
L 648.9 63 
L 648.9 35.1 
L 621 35.1 
z
" clip-path="url(#p3879075b17)" style="fill: #5add4a; stroke: #000000; stroke-width: 0.8"/>
    <path d="M 648.9 63 
L 676.8 63 
L 676.8 35.1 
L 648.9 35.1 
z
" clip-path="url(#p3879075b17)" style="fill: #60bdfd; stroke: #000000; stroke-width: 0.8"/>
    <path d="M 676.8 63 
L 704.7 63 
L 704.7 35.1 
L 676.8 35.1 
z
" clip-path="url(#p3879075b17)" style="fill: #60bdfd; stroke: #000000; stroke-width: 0.8"/>
   </g>
   <g id="text_1">
    <!-- 0 -->
    <g transform="translate(16.06 26.8205) scale(0.16 -0.16)">
     <defs>
      <path id="DejaVuSans-30" d="M 2034 4250 
Q 1547 4250 1301 3770 
Q 1056 3291 1056 2328 
Q 1056 1369 1301 889 
Q 1547 409 2034 409 
Q 2525 409 2770 889 
Q 3016 1369 3016 2328 
Q 3016 3291 2770 3770 
Q 2525 4250 2034 4250 
z
M 2034 4750 
Q 2819 4750 3233 4129 
Q 3647 3509 3647 2328 
Q 3647 1150 3233 529 
Q 2819 -91 2034 -91 
Q 1250 -91 836 529 
Q 422 1150 422 2328 
Q 422 3509 836 4129 
Q 1250 4750 2034 4750 
z
" transform="scale(0.015625)"/>
     </defs>
     <use xlink:href="#DejaVuSans-30"/>
    </g>
   </g>
   <g id="text_2">
    <!-- 1 -->
    <g transform="translate(43.96 26.8205) scale(0.16 -0.16)">
     <defs>
      <path id="DejaVuSans-31" d="M 794 531 
L 1825 531 
L 1825 4091 
L 703 3866 
L 703 4441 
L 1819 4666 
L 2450 4666 
L 2450 531 
L 3481 531 
L 3481 0 
L 794 0 
L 794 531 
z
" transform="scale(0.015625)"/>
     </defs>
     <use xlink:href="#DejaVuSans-31"/>
    </g>
   </g>
   <g id="text_3">
    <!-- 0 -->
    <g transform="translate(99.76 26.8205) scale(0.16 -0.16)">
     <use xlink:href="#DejaVuSans-30"/>
    </g>
   </g>
   <g id="text_4">
    <!-- 0 -->
    <g transform="translate(127.66 26.8205) scale(0.16 -0.16)">
     <use xlink:href="#DejaVuSans-30"/>
    </g>
   </g>
   <g id="text_5">
    <!-- 2 -->
    <g transform="translate(155.56 26.8205) scale(0.16 -0.16)">
     <defs>
      <path id="DejaVuSans-32" d="M 1228 531 
L 3431 531 
L 3431 0 
L 469 0 
L 469 531 
Q 828 903 1448 1529 
Q 2069 2156 2228 2338 
Q 2531 2678 2651 2914 
Q 2772 3150 2772 3378 
Q 2772 3750 2511 3984 
Q 2250 4219 1831 4219 
Q 1534 4219 1204 4116 
Q 875 4013 500 3803 
L 500 4441 
Q 881 4594 1212 4672 
Q 1544 4750 1819 4750 
Q 2544 4750 2975 4387 
Q 3406 4025 3406 3419 
Q 3406 3131 3298 2873 
Q 3191 2616 2906 2266 
Q 2828 2175 2409 1742 
Q 1991 1309 1228 531 
z
" transform="scale(0.015625)"/>
     </defs>
     <use xlink:href="#DejaVuSans-32"/>
    </g>
   </g>
   <g id="text_6">
    <!-- 1 -->
    <g transform="translate(183.46 26.8205) scale(0.16 -0.16)">
     <use xlink:href="#DejaVuSans-31"/>
    </g>
   </g>
   <g id="text_7">
    <!-- 1 -->
    <g transform="translate(211.36 26.8205) scale(0.16 -0.16)">
     <use xlink:href="#DejaVuSans-31"/>
    </g>
   </g>
   <g id="text_8">
    <!-- 3 -->
    <g transform="translate(239.26 26.8205) scale(0.16 -0.16)">
     <defs>
      <path id="DejaVuSans-33" d="M 2597 2516 
Q 3050 2419 3304 2112 
Q 3559 1806 3559 1356 
Q 3559 666 3084 287 
Q 2609 -91 1734 -91 
Q 1441 -91 1130 -33 
Q 819 25 488 141 
L 488 750 
Q 750 597 1062 519 
Q 1375 441 1716 441 
Q 2309 441 2620 675 
Q 2931 909 2931 1356 
Q 2931 1769 2642 2001 
Q 2353 2234 1838 2234 
L 1294 2234 
L 1294 2753 
L 1863 2753 
Q 2328 2753 2575 2939 
Q 2822 3125 2822 3475 
Q 2822 3834 2567 4026 
Q 2313 4219 1838 4219 
Q 1578 4219 1281 4162 
Q 984 4106 628 3988 
L 628 4550 
Q 988 4650 1302 4700 
Q 1616 4750 1894 4750 
Q 2613 4750 3031 4423 
Q 3450 4097 3450 3541 
Q 3450 3153 3228 2886 
Q 3006 2619 2597 2516 
z
" transform="scale(0.015625)"/>
     </defs>
     <use xlink:href="#DejaVuSans-33"/>
    </g>
   </g>
   <g id="text_9">
    <!-- 2 -->
    <g transform="translate(267.16 26.8205) scale(0.16 -0.16)">
     <use xlink:href="#DejaVuSans-32"/>
    </g>
   </g>
   <g id="text_10">
    <!-- 2 -->
    <g transform="translate(295.06 26.8205) scale(0.16 -0.16)">
     <use xlink:href="#DejaVuSans-32"/>
    </g>
   </g>
   <g id="text_11">
    <!-- 4 -->
    <g transform="translate(322.96 26.8205) scale(0.16 -0.16)">
     <defs>
      <path id="DejaVuSans-34" d="M 2419 4116 
L 825 1625 
L 2419 1625 
L 2419 4116 
z
M 2253 4666 
L 3047 4666 
L 3047 1625 
L 3713 1625 
L 3713 1100 
L 3047 1100 
L 3047 0 
L 2419 0 
L 2419 1100 
L 313 1100 
L 313 1709 
L 2253 4666 
z
" transform="scale(0.015625)"/>
     </defs>
     <use xlink:href="#DejaVuSans-34"/>
    </g>
   </g>
   <g id="text_12">
    <!-- 3 -->
    <g transform="translate(350.86 26.8205) scale(0.16 -0.16)">
     <use xlink:href="#DejaVuSans-33"/>
    </g>
   </g>
   <g id="text_13">
    <!-- 3 -->
    <g transform="translate(378.76 26.8205) scale(0.16 -0.16)">
     <use xlink:href="#DejaVuSans-33"/>
    </g>
   </g>
   <g id="text_14">
    <!-- 5 -->
    <g transform="translate(406.66 26.8205) scale(0.16 -0.16)">
     <defs>
      <path id="DejaVuSans-35" d="M 691 4666 
L 3169 4666 
L 3169 4134 
L 1269 4134 
L 1269 2991 
Q 1406 3038 1543 3061 
Q 1681 3084 1819 3084 
Q 2600 3084 3056 2656 
Q 3513 2228 3513 1497 
Q 3513 744 3044 326 
Q 2575 -91 1722 -91 
Q 1428 -91 1123 -41 
Q 819 9 494 109 
L 494 744 
Q 775 591 1075 516 
Q 1375 441 1709 441 
Q 2250 441 2565 725 
Q 2881 1009 2881 1497 
Q 2881 1984 2565 2268 
Q 2250 2553 1709 2553 
Q 1456 2553 1204 2497 
Q 953 2441 691 2322 
L 691 4666 
z
" transform="scale(0.015625)"/>
     </defs>
     <use xlink:href="#DejaVuSans-35"/>
    </g>
   </g>
   <g id="text_15">
    <!-- 4 -->
    <g transform="translate(434.56 26.8205) scale(0.16 -0.16)">
     <use xlink:href="#DejaVuSans-34"/>
    </g>
   </g>
   <g id="text_16">
    <!-- 4 -->
    <g transform="translate(462.46 26.8205) scale(0.16 -0.16)">
     <use xlink:href="#DejaVuSans-34"/>
    </g>
   </g>
   <g id="text_17">
    <!-- 6 -->
    <g transform="translate(490.36 26.8205) scale(0.16 -0.16)">
     <defs>
      <path id="DejaVuSans-36" d="M 2113 2584 
Q 1688 2584 1439 2293 
Q 1191 2003 1191 1497 
Q 1191 994 1439 701 
Q 1688 409 2113 409 
Q 2538 409 2786 701 
Q 3034 994 3034 1497 
Q 3034 2003 2786 2293 
Q 2538 2584 2113 2584 
z
M 3366 4563 
L 3366 3988 
Q 3128 4100 2886 4159 
Q 2644 4219 2406 4219 
Q 1781 4219 1451 3797 
Q 1122 3375 1075 2522 
Q 1259 2794 1537 2939 
Q 1816 3084 2150 3084 
Q 2853 3084 3261 2657 
Q 3669 2231 3669 1497 
Q 3669 778 3244 343 
Q 2819 -91 2113 -91 
Q 1303 -91 875 529 
Q 447 1150 447 2328 
Q 447 3434 972 4092 
Q 1497 4750 2381 4750 
Q 2619 4750 2861 4703 
Q 3103 4656 3366 4563 
z
" transform="scale(0.015625)"/>
     </defs>
     <use xlink:href="#DejaVuSans-36"/>
    </g>
   </g>
   <g id="text_18">
    <!-- 5 -->
    <g transform="translate(518.26 26.8205) scale(0.16 -0.16)">
     <use xlink:href="#DejaVuSans-35"/>
    </g>
   </g>
   <g id="text_19">
    <!-- 5 -->
    <g transform="translate(546.16 26.8205) scale(0.16 -0.16)">
     <use xlink:href="#DejaVuSans-35"/>
    </g>
   </g>
   <g id="text_20">
    <!-- 7 -->
    <g transform="translate(574.06 26.8205) scale(0.16 -0.16)">
     <defs>
      <path id="DejaVuSans-37" d="M 525 4666 
L 3525 4666 
L 3525 4397 
L 1831 0 
L 1172 0 
L 2766 4134 
L 525 4134 
L 525 4666 
z
" transform="scale(0.015625)"/>
     </defs>
     <use xlink:href="#DejaVuSans-37"/>
    </g>
   </g>
   <g id="text_21">
    <!-- 6 -->
    <g transform="translate(601.96 26.8205) scale(0.16 -0.16)">
     <use xlink:href="#DejaVuSans-36"/>
    </g>
   </g>
   <g id="text_22">
    <!-- 6 -->
    <g transform="translate(629.86 26.8205) scale(0.16 -0.16)">
     <use xlink:href="#DejaVuSans-36"/>
    </g>
   </g>
   <g id="text_23">
    <!-- 7 -->
    <g transform="translate(657.76 26.8205) scale(0.16 -0.16)">
     <use xlink:href="#DejaVuSans-37"/>
    </g>
   </g>
   <g id="text_24">
    <!-- 7 -->
    <g transform="translate(685.66 26.8205) scale(0.16 -0.16)">
     <use xlink:href="#DejaVuSans-37"/>
    </g>
   </g>
   <g id="text_25">
    <!-- 0 -->
    <g transform="translate(43.96 54.7205) scale(0.16 -0.16)">
     <use xlink:href="#DejaVuSans-30"/>
    </g>
   </g>
   <g id="text_26">
    <!-- 0 -->
    <g transform="translate(71.86 54.7205) scale(0.16 -0.16)">
     <use xlink:href="#DejaVuSans-30"/>
    </g>
   </g>
   <g id="text_27">
    <!-- 1 -->
    <g transform="translate(99.76 54.7205) scale(0.16 -0.16)">
     <use xlink:href="#DejaVuSans-31"/>
    </g>
   </g>
   <g id="text_28">
    <!-- 1 -->
    <g transform="translate(127.66 54.7205) scale(0.16 -0.16)">
     <use xlink:href="#DejaVuSans-31"/>
    </g>
   </g>
   <g id="text_29">
    <!-- 0 -->
    <g transform="translate(155.56 54.7205) scale(0.16 -0.16)">
     <use xlink:href="#DejaVuSans-30"/>
    </g>
   </g>
   <g id="text_30">
    <!-- 2 -->
    <g transform="translate(183.46 54.7205) scale(0.16 -0.16)">
     <use xlink:href="#DejaVuSans-32"/>
    </g>
   </g>
   <g id="text_31">
    <!-- 2 -->
    <g transform="translate(211.36 54.7205) scale(0.16 -0.16)">
     <use xlink:href="#DejaVuSans-32"/>
    </g>
   </g>
   <g id="text_32">
    <!-- 1 -->
    <g transform="translate(239.26 54.7205) scale(0.16 -0.16)">
     <use xlink:href="#DejaVuSans-31"/>
    </g>
   </g>
   <g id="text_33">
    <!-- 3 -->
    <g transform="translate(267.16 54.7205) scale(0.16 -0.16)">
     <use xlink:href="#DejaVuSans-33"/>
    </g>
   </g>
   <g id="text_34">
    <!-- 3 -->
    <g transform="translate(295.06 54.7205) scale(0.16 -0.16)">
     <use xlink:href="#DejaVuSans-33"/>
    </g>
   </g>
   <g id="text_35">
    <!-- 2 -->
    <g transform="translate(322.96 54.7205) scale(0.16 -0.16)">
     <use xlink:href="#DejaVuSans-32"/>
    </g>
   </g>
   <g id="text_36">
    <!-- 4 -->
    <g transform="translate(350.86 54.7205) scale(0.16 -0.16)">
     <use xlink:href="#DejaVuSans-34"/>
    </g>
   </g>
   <g id="text_37">
    <!-- 4 -->
    <g transform="translate(378.76 54.7205) scale(0.16 -0.16)">
     <use xlink:href="#DejaVuSans-34"/>
    </g>
   </g>
   <g id="text_38">
    <!-- 3 -->
    <g transform="translate(406.66 54.7205) scale(0.16 -0.16)">
     <use xlink:href="#DejaVuSans-33"/>
    </g>
   </g>
   <g id="text_39">
    <!-- 5 -->
    <g transform="translate(434.56 54.7205) scale(0.16 -0.16)">
     <use xlink:href="#DejaVuSans-35"/>
    </g>
   </g>
   <g id="text_40">
    <!-- 5 -->
    <g transform="translate(462.46 54.7205) scale(0.16 -0.16)">
     <use xlink:href="#DejaVuSans-35"/>
    </g>
   </g>
   <g id="text_41">
    <!-- 4 -->
    <g transform="translate(490.36 54.7205) scale(0.16 -0.16)">
     <use xlink:href="#DejaVuSans-34"/>
    </g>
   </g>
   <g id="text_42">
    <!-- 6 -->
    <g transform="translate(518.26 54.7205) scale(0.16 -0.16)">
     <use xlink:href="#DejaVuSans-36"/>
    </g>
   </g>
   <g id="text_43">
    <!-- 6 -->
    <g transform="translate(546.16 54.7205) scale(0.16 -0.16)">
     <use xlink:href="#DejaVuSans-36"/>
    </g>
   </g>
   <g id="text_44">
    <!-- 5 -->
    <g transform="translate(574.06 54.7205) scale(0.16 -0.16)">
     <use xlink:href="#DejaVuSans-35"/>
    </g>
   </g>
   <g id="text_45">
    <!-- 7 -->
    <g transform="translate(601.96 54.7205) scale(0.16 -0.16)">
     <use xlink:href="#DejaVuSans-37"/>
    </g>
   </g>
   <g id="text_46">
    <!-- 7 -->
    <g transform="translate(629.86 54.7205) scale(0.16 -0.16)">
     <use xlink:href="#DejaVuSans-37"/>
    </g>
   </g>
   <g id="text_47">
    <!-- 6 -->
    <g transform="translate(657.76 54.7205) scale(0.16 -0.16)">
     <use xlink:href="#DejaVuSans-36"/>
    </g>
   </g>
   <g id="text_48">
    <!-- 7 -->
    <g transform="translate(685.66 54.7205) scale(0.16 -0.16)">
     <use xlink:href="#DejaVuSans-37"/>
    </g>
   </g>
  </g>
 </g>
 <defs>
  <clipPath id="p3879075b17">
   <rect x="7.2" y="7.2" width="1116" height="55.8"/>
  </clipPath>
 </defs>
</svg>
