<?xml version="1.0" encoding="utf-8" standalone="no"?>
<!DOCTYPE svg PUBLIC "-//W3C//DTD SVG 1.1//EN"
  "http://www.w3.org/Graphics/SVG/1.1/DTD/svg11.dtd">
<svg xmlns:xlink="http://www.w3.org/1999/xlink" width="1130.4pt" height="173.828571pt" viewBox="0 0 1130.4 173.828571" xmlns="http://www.w3.org/2000/svg" version="1.1">
 <metadata>
  <rdf:RDF xmlns:dc="http://purl.org/dc/elements/1.1/" xmlns:cc="http://creativecommons.org/ns#" xmlns:rdf="http://www.w3.org/1999/02/22-rdf-syntax-ns#">
   <cc:Work>
    <dc:type rdf:resource="http://purl.org/dc/dcmitype/StillImage"/>
    <dc:date>2025-05-10T21:57:41.155092</dc:date>
    <dc:format>image/svg+xml</dc:format>
    <dc:creator>
     <cc:Agent>
      <dc:title>Matplotlib v3.6.3, https://matplotlib.org/</dc:title>
     </cc:Agent>
    </dc:creator>
   </cc:Work>
  </rdf:RDF>
 </metadata>
 <defs>
  <style type="text/css">*{stroke-linejoin: round; stroke-linecap: butt}</style>
 </defs>
 <g id="figure_1">
  <g id="patch_1">
   <path d="M 0 173.828571 
L 1130.4 173.828571 
L 1130.4 -0 
L 0 -0 
z
" style="fill: #ffffff"/>
  </g>
  <g id="axes_1">
   <g id="PatchCollection_1">
    <path d="M 7.2 47.057143 
L 47.057143 47.057143 
L 47.057143 7.2 
L 7.2 7.2 
z
" clip-path="url(#p03543b4e95)" style="fill: #fcb225; stroke: #000000; stroke-width: 1.142857"/>
    <path d="M 47.057143 47.057143 
L 86.914286 47.057143 
L 86.914286 7.2 
L 47.057143 7.2 
z
" clip-path="url(#p03543b4e95)" style="fill: #fcb225; stroke: #000000; stroke-width: 1.142857"/>
    <path d="M 86.914286 47.057143 
L 126.771429 47.057143 
L 126.771429 7.2 
L 86.914286 7.2 
z
" clip-path="url(#p03543b4e95)" style="fill: #fcb225; stroke: #000000; stroke-width: 1.142857"/>
    <path d="M 286.2 47.057143 
L 326.057143 47.057143 
L 326.057143 7.2 
L 286.2 7.2 
z
" clip-path="url(#p03543b4e95)" style="fill: #5add4a; stroke: #000000; stroke-width: 1.142857"/>
    <path d="M 326.057143 47.057143 
L 365.914286 47.057143 
L 365.914286 7.2 
L 326.057143 7.2 
z
" clip-path="url(#p03543b4e95)" style="fill: #60bdfd; stroke: #000000; stroke-width: 1.142857"/>
    <path d="M 365.914286 47.057143 
L 405.771429 47.057143 
L 405.771429 7.2 
L 365.914286 7.2 
z
" clip-path="url(#p03543b4e95)" style="fill: #5add4a; stroke: #000000; stroke-width: 1.142857"/>
    <path d="M 405.771429 47.057143 
L 445.628571 47.057143 
L 445.628571 7.2 
L 405.771429 7.2 
z
" clip-path="url(#p03543b4e95)" style="fill: #60bdfd; stroke: #000000; stroke-width: 1.142857"/>
    <path d="M 445.628571 47.057143 
L 485.485714 47.057143 
L 485.485714 7.2 
L 445.628571 7.2 
z
" clip-path="url(#p03543b4e95)" style="fill: #5add4a; stroke: #000000; stroke-width: 1.142857"/>
    <path d="M 485.485714 47.057143 
L 525.342857 47.057143 
L 525.342857 7.2 
L 485.485714 7.2 
z
" clip-path="url(#p03543b4e95)" style="fill: #60bdfd; stroke: #000000; stroke-width: 1.142857"/>
    <path d="M 47.057143 86.914286 
L 86.914286 86.914286 
L 86.914286 47.057143 
L 47.057143 47.057143 
z
" clip-path="url(#p03543b4e95)" style="fill: #fcb225; stroke: #000000; stroke-width: 1.142857"/>
    <path d="M 86.914286 86.914286 
L 126.771429 86.914286 
L 126.771429 47.057143 
L 86.914286 47.057143 
z
" clip-path="url(#p03543b4e95)" style="fill: #fcb225; stroke: #000000; stroke-width: 1.142857"/>
    <path d="M 126.771429 86.914286 
L 166.628571 86.914286 
L 166.628571 47.057143 
L 126.771429 47.057143 
z
" clip-path="url(#p03543b4e95)" style="fill: #fcb225; stroke: #000000; stroke-width: 1.142857"/>
    <path d="M 246.342857 86.914286 
L 286.2 86.914286 
L 286.2 47.057143 
L 246.342857 47.057143 
z
" clip-path="url(#p03543b4e95)" style="fill: #5add4a; stroke: #000000; stroke-width: 1.142857"/>
    <path d="M 326.057143 86.914286 
L 365.914286 86.914286 
L 365.914286 47.057143 
L 326.057143 47.057143 
z
" clip-path="url(#p03543b4e95)" style="fill: #5add4a; stroke: #000000; stroke-width: 1.142857"/>
    <path d="M 365.914286 86.914286 
L 405.771429 86.914286 
L 405.771429 47.057143 
L 365.914286 47.057143 
z
" clip-path="url(#p03543b4e95)" style="fill: #60bdfd; stroke: #000000; stroke-width: 1.142857"/>
    <path d="M 405.771429 86.914286 
L 445.628571 86.914286 
L 445.628571 47.057143 
L 405.771429 47.057143 
z
" clip-path="url(#p03543b4e95)" style="fill: #5add4a; stroke: #000000; stroke-width: 1.142857"/>
    <path d="M 445.628571 86.914286 
L 485.485714 86.914286 
L 485.485714 47.057143 
L 445.628571 47.057143 
z
" clip-path="url(#p03543b4e95)" style="fill: #60bdfd; stroke: #000000; stroke-width: 1.142857"/>
    <path d="M 485.485714 86.914286 
L 525.342857 86.914286 
L 525.342857 47.057143 
L 485.485714 47.057143 
z
" clip-path="url(#p03543b4e95)" style="fill: #60bdfd; stroke: #000000; stroke-width: 1.142857"/>
    <path d="M 86.914286 126.771429 
L 126.771429 126.771429 
L 126.771429 86.914286 
L 86.914286 86.914286 
z
" clip-path="url(#p03543b4e95)" style="fill: #fcb225; stroke: #000000; stroke-width: 1.142857"/>
    <path d="M 126.771429 126.771429 
L 166.628571 126.771429 
L 166.628571 86.914286 
L 126.771429 86.914286 
z
" clip-path="url(#p03543b4e95)" style="fill: #fcb225; stroke: #000000; stroke-width: 1.142857"/>
    <path d="M 206.485714 126.771429 
L 246.342857 126.771429 
L 246.342857 86.914286 
L 206.485714 86.914286 
z
" clip-path="url(#p03543b4e95)" style="fill: #5add4a; stroke: #000000; stroke-width: 1.142857"/>
    <path d="M 246.342857 126.771429 
L 286.2 126.771429 
L 286.2 86.914286 
L 246.342857 86.914286 
z
" clip-path="url(#p03543b4e95)" style="fill: #fcb225; stroke: #000000; stroke-width: 1.142857"/>
    <path d="M 286.2 126.771429 
L 326.057143 126.771429 
L 326.057143 86.914286 
L 286.2 86.914286 
z
" clip-path="url(#p03543b4e95)" style="fill: #5add4a; stroke: #000000; stroke-width: 1.142857"/>
    <path d="M 365.914286 126.771429 
L 405.771429 126.771429 
L 405.771429 86.914286 
L 365.914286 86.914286 
z
" clip-path="url(#p03543b4e95)" style="fill: #5add4a; stroke: #000000; stroke-width: 1.142857"/>
    <path d="M 405.771429 126.771429 
L 445.628571 126.771429 
L 445.628571 86.914286 
L 405.771429 86.914286 
z
" clip-path="url(#p03543b4e95)" style="fill: #60bdfd; stroke: #000000; stroke-width: 1.142857"/>
    <path d="M 445.628571 126.771429 
L 485.485714 126.771429 
L 485.485714 86.914286 
L 445.628571 86.914286 
z
" clip-path="url(#p03543b4e95)" style="fill: #60bdfd; stroke: #000000; stroke-width: 1.142857"/>
    <path d="M 485.485714 126.771429 
L 525.342857 126.771429 
L 525.342857 86.914286 
L 485.485714 86.914286 
z
" clip-path="url(#p03543b4e95)" style="fill: #60bdfd; stroke: #000000; stroke-width: 1.142857"/>
    <path d="M 126.771429 166.628571 
L 166.628571 166.628571 
L 166.628571 126.771429 
L 126.771429 126.771429 
z
" clip-path="url(#p03543b4e95)" style="fill: #fcb225; stroke: #000000; stroke-width: 1.142857"/>
    <path d="M 166.628571 166.628571 
L 206.485714 166.628571 
L 206.485714 126.771429 
L 166.628571 126.771429 
z
" clip-path="url(#p03543b4e95)" style="fill: #5add4a; stroke: #000000; stroke-width: 1.142857"/>
    <path d="M 206.485714 166.628571 
L 246.342857 166.628571 
L 246.342857 126.771429 
L 206.485714 126.771429 
z
" clip-path="url(#p03543b4e95)" style="fill: #fcb225; stroke: #000000; stroke-width: 1.142857"/>
    <path d="M 246.342857 166.628571 
L 286.2 166.628571 
L 286.2 126.771429 
L 246.342857 126.771429 
z
" clip-path="url(#p03543b4e95)" style="fill: #5add4a; stroke: #000000; stroke-width: 1.142857"/>
    <path d="M 286.2 166.628571 
L 326.057143 166.628571 
L 326.057143 126.771429 
L 286.2 126.771429 
z
" clip-path="url(#p03543b4e95)" style="fill: #fcb225; stroke: #000000; stroke-width: 1.142857"/>
    <path d="M 326.057143 166.628571 
L 365.914286 166.628571 
L 365.914286 126.771429 
L 326.057143 126.771429 
z
" clip-path="url(#p03543b4e95)" style="fill: #5add4a; stroke: #000000; stroke-width: 1.142857"/>
    <path d="M 405.771429 166.628571 
L 445.628571 166.628571 
L 445.628571 126.771429 
L 405.771429 126.771429 
z
" clip-path="url(#p03543b4e95)" style="fill: #60bdfd; stroke: #000000; stroke-width: 1.142857"/>
    <path d="M 445.628571 166.628571 
L 485.485714 166.628571 
L 485.485714 126.771429 
L 445.628571 126.771429 
z
" clip-path="url(#p03543b4e95)" style="fill: #60bdfd; stroke: #000000; stroke-width: 1.142857"/>
    <path d="M 485.485714 166.628571 
L 525.342857 166.628571 
L 525.342857 126.771429 
L 485.485714 126.771429 
z
" clip-path="url(#p03543b4e95)" style="fill: #60bdfd; stroke: #000000; stroke-width: 1.142857"/>
   </g>
   <g id="text_1">
    <!-- 0 -->
    <g transform="translate(19.857143 35.229286) scale(0.228571 -0.228571)">
     <defs>
      <path id="DejaVuSans-30" d="M 2034 4250 
Q 1547 4250 1301 3770 
Q 1056 3291 1056 2328 
Q 1056 1369 1301 889 
Q 1547 409 2034 409 
Q 2525 409 2770 889 
Q 3016 1369 3016 2328 
Q 3016 3291 2770 3770 
Q 2525 4250 2034 4250 
z
M 2034 4750 
Q 2819 4750 3233 4129 
Q 3647 3509 3647 2328 
Q 3647 1150 3233 529 
Q 2819 -91 2034 -91 
Q 1250 -91 836 529 
Q 422 1150 422 2328 
Q 422 3509 836 4129 
Q 1250 4750 2034 4750 
z
" transform="scale(0.015625)"/>
     </defs>
     <use xlink:href="#DejaVuSans-30"/>
    </g>
   </g>
   <g id="text_2">
    <!-- 1 -->
    <g transform="translate(59.714286 35.229286) scale(0.228571 -0.228571)">
     <defs>
      <path id="DejaVuSans-31" d="M 794 531 
L 1825 531 
L 1825 4091 
L 703 3866 
L 703 4441 
L 1819 4666 
L 2450 4666 
L 2450 531 
L 3481 531 
L 3481 0 
L 794 0 
L 794 531 
z
" transform="scale(0.015625)"/>
     </defs>
     <use xlink:href="#DejaVuSans-31"/>
    </g>
   </g>
   <g id="text_3">
    <!-- 2 -->
    <g transform="translate(99.571429 35.229286) scale(0.228571 -0.228571)">
     <defs>
      <path id="DejaVuSans-32" d="M 1228 531 
L 3431 531 
L 3431 0 
L 469 0 
L 469 531 
Q 828 903 1448 1529 
Q 2069 2156 2228 2338 
Q 2531 2678 2651 2914 
Q 2772 3150 2772 3378 
Q 2772 3750 2511 3984 
Q 2250 4219 1831 4219 
Q 1534 4219 1204 4116 
Q 875 4013 500 3803 
L 500 4441 
Q 881 4594 1212 4672 
Q 1544 4750 1819 4750 
Q 2544 4750 2975 4387 
Q 3406 4025 3406 3419 
Q 3406 3131 3298 2873 
Q 3191 2616 2906 2266 
Q 2828 2175 2409 1742 
Q 1991 1309 1228 531 
z
" transform="scale(0.015625)"/>
     </defs>
     <use xlink:href="#DejaVuSans-32"/>
    </g>
   </g>
   <g id="text_4">
    <!-- 0 -->
    <g transform="translate(298.857143 35.229286) scale(0.228571 -0.228571)">
     <use xlink:href="#DejaVuSans-30"/>
    </g>
   </g>
   <g id="text_5">
    <!-- 0 -->
    <g transform="translate(338.714286 35.229286) scale(0.228571 -0.228571)">
     <use xlink:href="#DejaVuSans-30"/>
    </g>
   </g>
   <g id="text_6">
    <!-- 1 -->
    <g transform="translate(378.571429 35.229286) scale(0.228571 -0.228571)">
     <use xlink:href="#DejaVuSans-31"/>
    </g>
   </g>
   <g id="text_7">
    <!-- 1 -->
    <g transform="translate(418.428571 35.229286) scale(0.228571 -0.228571)">
     <use xlink:href="#DejaVuSans-31"/>
    </g>
   </g>
   <g id="text_8">
    <!-- 2 -->
    <g transform="translate(458.285714 35.229286) scale(0.228571 -0.228571)">
     <use xlink:href="#DejaVuSans-32"/>
    </g>
   </g>
   <g id="text_9">
    <!-- 2 -->
    <g transform="translate(498.142857 35.229286) scale(0.228571 -0.228571)">
     <use xlink:href="#DejaVuSans-32"/>
    </g>
   </g>
   <g id="text_10">
    <!-- 0 -->
    <g transform="translate(59.714286 75.086429) scale(0.228571 -0.228571)">
     <use xlink:href="#DejaVuSans-30"/>
    </g>
   </g>
   <g id="text_11">
    <!-- 1 -->
    <g transform="translate(99.571429 75.086429) scale(0.228571 -0.228571)">
     <use xlink:href="#DejaVuSans-31"/>
    </g>
   </g>
   <g id="text_12">
    <!-- 2 -->
    <g transform="translate(139.428571 75.086429) scale(0.228571 -0.228571)">
     <use xlink:href="#DejaVuSans-32"/>
    </g>
   </g>
   <g id="text_13">
    <!-- 0 -->
    <g transform="translate(259 75.086429) scale(0.228571 -0.228571)">
     <use xlink:href="#DejaVuSans-30"/>
    </g>
   </g>
   <g id="text_14">
    <!-- 1 -->
    <g transform="translate(338.714286 75.086429) scale(0.228571 -0.228571)">
     <use xlink:href="#DejaVuSans-31"/>
    </g>
   </g>
   <g id="text_15">
    <!-- 0 -->
    <g transform="translate(378.571429 75.086429) scale(0.228571 -0.228571)">
     <use xlink:href="#DejaVuSans-30"/>
    </g>
   </g>
   <g id="text_16">
    <!-- 2 -->
    <g transform="translate(418.428571 75.086429) scale(0.228571 -0.228571)">
     <use xlink:href="#DejaVuSans-32"/>
    </g>
   </g>
   <g id="text_17">
    <!-- 1 -->
    <g transform="translate(458.285714 75.086429) scale(0.228571 -0.228571)">
     <use xlink:href="#DejaVuSans-31"/>
    </g>
   </g>
   <g id="text_18">
    <!-- 2 -->
    <g transform="translate(498.142857 75.086429) scale(0.228571 -0.228571)">
     <use xlink:href="#DejaVuSans-32"/>
    </g>
   </g>
   <g id="text_19">
    <!-- 0 -->
    <g transform="translate(99.571429 114.943571) scale(0.228571 -0.228571)">
     <use xlink:href="#DejaVuSans-30"/>
    </g>
   </g>
   <g id="text_20">
    <!-- 1 -->
    <g transform="translate(139.428571 114.943571) scale(0.228571 -0.228571)">
     <use xlink:href="#DejaVuSans-31"/>
    </g>
   </g>
   <g id="text_21">
    <!-- 0 -->
    <g transform="translate(219.142857 114.943571) scale(0.228571 -0.228571)">
     <use xlink:href="#DejaVuSans-30"/>
    </g>
   </g>
   <g id="text_22">
    <!-- 2 -->
    <g transform="translate(259 114.943571) scale(0.228571 -0.228571)">
     <use xlink:href="#DejaVuSans-32"/>
    </g>
   </g>
   <g id="text_23">
    <!-- 1 -->
    <g transform="translate(298.857143 114.943571) scale(0.228571 -0.228571)">
     <use xlink:href="#DejaVuSans-31"/>
    </g>
   </g>
   <g id="text_24">
    <!-- 2 -->
    <g transform="translate(378.571429 114.943571) scale(0.228571 -0.228571)">
     <use xlink:href="#DejaVuSans-32"/>
    </g>
   </g>
   <g id="text_25">
    <!-- 0 -->
    <g transform="translate(418.428571 114.943571) scale(0.228571 -0.228571)">
     <use xlink:href="#DejaVuSans-30"/>
    </g>
   </g>
   <g id="text_26">
    <!-- 1 -->
    <g transform="translate(458.285714 114.943571) scale(0.228571 -0.228571)">
     <use xlink:href="#DejaVuSans-31"/>
    </g>
   </g>
   <g id="text_27">
    <!-- 2 -->
    <g transform="translate(498.142857 114.943571) scale(0.228571 -0.228571)">
     <use xlink:href="#DejaVuSans-32"/>
    </g>
   </g>
   <g id="text_28">
    <!-- 0 -->
    <g transform="translate(139.428571 154.800714) scale(0.228571 -0.228571)">
     <use xlink:href="#DejaVuSans-30"/>
    </g>
   </g>
   <g id="text_29">
    <!-- 0 -->
    <g transform="translate(179.285714 154.800714) scale(0.228571 -0.228571)">
     <use xlink:href="#DejaVuSans-30"/>
    </g>
   </g>
   <g id="text_30">
    <!-- 1 -->
    <g transform="translate(219.142857 154.800714) scale(0.228571 -0.228571)">
     <use xlink:href="#DejaVuSans-31"/>
    </g>
   </g>
   <g id="text_31">
    <!-- 1 -->
    <g transform="translate(259 154.800714) scale(0.228571 -0.228571)">
     <use xlink:href="#DejaVuSans-31"/>
    </g>
   </g>
   <g id="text_32">
    <!-- 2 -->
    <g transform="translate(298.857143 154.800714) scale(0.228571 -0.228571)">
     <use xlink:href="#DejaVuSans-32"/>
    </g>
   </g>
   <g id="text_33">
    <!-- 2 -->
    <g transform="translate(338.714286 154.800714) scale(0.228571 -0.228571)">
     <use xlink:href="#DejaVuSans-32"/>
    </g>
   </g>
   <g id="text_34">
    <!-- 0 -->
    <g transform="translate(418.428571 154.800714) scale(0.228571 -0.228571)">
     <use xlink:href="#DejaVuSans-30"/>
    </g>
   </g>
   <g id="text_35">
    <!-- 1 -->
    <g transform="translate(458.285714 154.800714) scale(0.228571 -0.228571)">
     <use xlink:href="#DejaVuSans-31"/>
    </g>
   </g>
   <g id="text_36">
    <!-- 2 -->
    <g transform="translate(498.142857 154.800714) scale(0.228571 -0.228571)">
     <use xlink:href="#DejaVuSans-32"/>
    </g>
   </g>
  </g>
 </g>
 <defs>
  <clipPath id="p03543b4e95">
   <rect x="7.2" y="7.2" width="1116" height="159.428571"/>
  </clipPath>
 </defs>
</svg>
