<?xml version="1.0" encoding="utf-8" standalone="no"?>
<!DOCTYPE svg PUBLIC "-//W3C//DTD SVG 1.1//EN"
  "http://www.w3.org/Graphics/SVG/1.1/DTD/svg11.dtd">
<svg xmlns:xlink="http://www.w3.org/1999/xlink" width="1130.4pt" height="153.9pt" viewBox="0 0 1130.4 153.9" xmlns="http://www.w3.org/2000/svg" version="1.1">
 <metadata>
  <rdf:RDF xmlns:dc="http://purl.org/dc/elements/1.1/" xmlns:cc="http://creativecommons.org/ns#" xmlns:rdf="http://www.w3.org/1999/02/22-rdf-syntax-ns#">
   <cc:Work>
    <dc:type rdf:resource="http://purl.org/dc/dcmitype/StillImage"/>
    <dc:date>2025-05-10T21:57:41.078621</dc:date>
    <dc:format>image/svg+xml</dc:format>
    <dc:creator>
     <cc:Agent>
      <dc:title>Matplotlib v3.6.3, https://matplotlib.org/</dc:title>
     </cc:Agent>
    </dc:creator>
   </cc:Work>
  </rdf:RDF>
 </metadata>
 <defs>
  <style type="text/css">*{stroke-linejoin: round; stroke-linecap: butt}</style>
 </defs>
 <g id="figure_1">
  <g id="patch_1">
   <path d="M 0 153.9 
L 1130.4 153.9 
L 1130.4 0 
L 0 0 
z
" style="fill: #ffffff"/>
  </g>
  <g id="axes_1">
   <g id="PatchCollection_1">
    <path d="M 7.2 53.7 
L 53.7 53.7 
L 53.7 7.2 
L 7.2 7.2 
z
" clip-path="url(#pb76e199c18)" style="fill: #fcb225; stroke: #000000; stroke-width: 1.333333"/>
    <path d="M 53.7 53.7 
L 100.2 53.7 
L 100.2 7.2 
L 53.7 7.2 
z
" clip-path="url(#pb76e199c18)" style="fill: #fcb225; stroke: #000000; stroke-width: 1.333333"/>
    <path d="M 100.2 53.7 
L 146.7 53.7 
L 146.7 7.2 
L 100.2 7.2 
z
" clip-path="url(#pb76e199c18)" style="fill: #fcb225; stroke: #000000; stroke-width: 1.333333"/>
    <path d="M 239.7 53.7 
L 286.2 53.7 
L 286.2 7.2 
L 239.7 7.2 
z
" clip-path="url(#pb76e199c18)" style="fill: #5add4a; stroke: #000000; stroke-width: 1.333333"/>
    <path d="M 286.2 53.7 
L 332.7 53.7 
L 332.7 7.2 
L 286.2 7.2 
z
" clip-path="url(#pb76e199c18)" style="fill: #60bdfd; stroke: #000000; stroke-width: 1.333333"/>
    <path d="M 332.7 53.7 
L 379.2 53.7 
L 379.2 7.2 
L 332.7 7.2 
z
" clip-path="url(#pb76e199c18)" style="fill: #5add4a; stroke: #000000; stroke-width: 1.333333"/>
    <path d="M 379.2 53.7 
L 425.7 53.7 
L 425.7 7.2 
L 379.2 7.2 
z
" clip-path="url(#pb76e199c18)" style="fill: #60bdfd; stroke: #000000; stroke-width: 1.333333"/>
    <path d="M 425.7 53.7 
L 472.2 53.7 
L 472.2 7.2 
L 425.7 7.2 
z
" clip-path="url(#pb76e199c18)" style="fill: #5add4a; stroke: #000000; stroke-width: 1.333333"/>
    <path d="M 472.2 53.7 
L 518.7 53.7 
L 518.7 7.2 
L 472.2 7.2 
z
" clip-path="url(#pb76e199c18)" style="fill: #60bdfd; stroke: #000000; stroke-width: 1.333333"/>
    <path d="M 53.7 100.2 
L 100.2 100.2 
L 100.2 53.7 
L 53.7 53.7 
z
" clip-path="url(#pb76e199c18)" style="fill: #fcb225; stroke: #000000; stroke-width: 1.333333"/>
    <path d="M 100.2 100.2 
L 146.7 100.2 
L 146.7 53.7 
L 100.2 53.7 
z
" clip-path="url(#pb76e199c18)" style="fill: #fcb225; stroke: #000000; stroke-width: 1.333333"/>
    <path d="M 193.2 100.2 
L 239.7 100.2 
L 239.7 53.7 
L 193.2 53.7 
z
" clip-path="url(#pb76e199c18)" style="fill: #5add4a; stroke: #000000; stroke-width: 1.333333"/>
    <path d="M 239.7 100.2 
L 286.2 100.2 
L 286.2 53.7 
L 239.7 53.7 
z
" clip-path="url(#pb76e199c18)" style="fill: #fcb225; stroke: #000000; stroke-width: 1.333333"/>
    <path d="M 286.2 100.2 
L 332.7 100.2 
L 332.7 53.7 
L 286.2 53.7 
z
" clip-path="url(#pb76e199c18)" style="fill: #5add4a; stroke: #000000; stroke-width: 1.333333"/>
    <path d="M 332.7 100.2 
L 379.2 100.2 
L 379.2 53.7 
L 332.7 53.7 
z
" clip-path="url(#pb76e199c18)" style="fill: #60bdfd; stroke: #000000; stroke-width: 1.333333"/>
    <path d="M 379.2 100.2 
L 425.7 100.2 
L 425.7 53.7 
L 379.2 53.7 
z
" clip-path="url(#pb76e199c18)" style="fill: #5add4a; stroke: #000000; stroke-width: 1.333333"/>
    <path d="M 425.7 100.2 
L 472.2 100.2 
L 472.2 53.7 
L 425.7 53.7 
z
" clip-path="url(#pb76e199c18)" style="fill: #60bdfd; stroke: #000000; stroke-width: 1.333333"/>
    <path d="M 472.2 100.2 
L 518.7 100.2 
L 518.7 53.7 
L 472.2 53.7 
z
" clip-path="url(#pb76e199c18)" style="fill: #60bdfd; stroke: #000000; stroke-width: 1.333333"/>
    <path d="M 100.2 146.7 
L 146.7 146.7 
L 146.7 100.2 
L 100.2 100.2 
z
" clip-path="url(#pb76e199c18)" style="fill: #fcb225; stroke: #000000; stroke-width: 1.333333"/>
    <path d="M 146.7 146.7 
L 193.2 146.7 
L 193.2 100.2 
L 146.7 100.2 
z
" clip-path="url(#pb76e199c18)" style="fill: #5add4a; stroke: #000000; stroke-width: 1.333333"/>
    <path d="M 193.2 146.7 
L 239.7 146.7 
L 239.7 100.2 
L 193.2 100.2 
z
" clip-path="url(#pb76e199c18)" style="fill: #fcb225; stroke: #000000; stroke-width: 1.333333"/>
    <path d="M 239.7 146.7 
L 286.2 146.7 
L 286.2 100.2 
L 239.7 100.2 
z
" clip-path="url(#pb76e199c18)" style="fill: #5add4a; stroke: #000000; stroke-width: 1.333333"/>
    <path d="M 286.2 146.7 
L 332.7 146.7 
L 332.7 100.2 
L 286.2 100.2 
z
" clip-path="url(#pb76e199c18)" style="fill: #fcb225; stroke: #000000; stroke-width: 1.333333"/>
    <path d="M 332.7 146.7 
L 379.2 146.7 
L 379.2 100.2 
L 332.7 100.2 
z
" clip-path="url(#pb76e199c18)" style="fill: #5add4a; stroke: #000000; stroke-width: 1.333333"/>
    <path d="M 379.2 146.7 
L 425.7 146.7 
L 425.7 100.2 
L 379.2 100.2 
z
" clip-path="url(#pb76e199c18)" style="fill: #60bdfd; stroke: #000000; stroke-width: 1.333333"/>
    <path d="M 425.7 146.7 
L 472.2 146.7 
L 472.2 100.2 
L 425.7 100.2 
z
" clip-path="url(#pb76e199c18)" style="fill: #60bdfd; stroke: #000000; stroke-width: 1.333333"/>
    <path d="M 472.2 146.7 
L 518.7 146.7 
L 518.7 100.2 
L 472.2 100.2 
z
" clip-path="url(#pb76e199c18)" style="fill: #60bdfd; stroke: #000000; stroke-width: 1.333333"/>
   </g>
   <g id="text_1">
    <!-- 0 -->
    <g transform="translate(21.966667 39.900833) scale(0.266667 -0.266667)">
     <defs>
      <path id="DejaVuSans-30" d="M 2034 4250 
Q 1547 4250 1301 3770 
Q 1056 3291 1056 2328 
Q 1056 1369 1301 889 
Q 1547 409 2034 409 
Q 2525 409 2770 889 
Q 3016 1369 3016 2328 
Q 3016 3291 2770 3770 
Q 2525 4250 2034 4250 
z
M 2034 4750 
Q 2819 4750 3233 4129 
Q 3647 3509 3647 2328 
Q 3647 1150 3233 529 
Q 2819 -91 2034 -91 
Q 1250 -91 836 529 
Q 422 1150 422 2328 
Q 422 3509 836 4129 
Q 1250 4750 2034 4750 
z
" transform="scale(0.015625)"/>
     </defs>
     <use xlink:href="#DejaVuSans-30"/>
    </g>
   </g>
   <g id="text_2">
    <!-- 1 -->
    <g transform="translate(68.466667 39.900833) scale(0.266667 -0.266667)">
     <defs>
      <path id="DejaVuSans-31" d="M 794 531 
L 1825 531 
L 1825 4091 
L 703 3866 
L 703 4441 
L 1819 4666 
L 2450 4666 
L 2450 531 
L 3481 531 
L 3481 0 
L 794 0 
L 794 531 
z
" transform="scale(0.015625)"/>
     </defs>
     <use xlink:href="#DejaVuSans-31"/>
    </g>
   </g>
   <g id="text_3">
    <!-- 2 -->
    <g transform="translate(114.966667 39.900833) scale(0.266667 -0.266667)">
     <defs>
      <path id="DejaVuSans-32" d="M 1228 531 
L 3431 531 
L 3431 0 
L 469 0 
L 469 531 
Q 828 903 1448 1529 
Q 2069 2156 2228 2338 
Q 2531 2678 2651 2914 
Q 2772 3150 2772 3378 
Q 2772 3750 2511 3984 
Q 2250 4219 1831 4219 
Q 1534 4219 1204 4116 
Q 875 4013 500 3803 
L 500 4441 
Q 881 4594 1212 4672 
Q 1544 4750 1819 4750 
Q 2544 4750 2975 4387 
Q 3406 4025 3406 3419 
Q 3406 3131 3298 2873 
Q 3191 2616 2906 2266 
Q 2828 2175 2409 1742 
Q 1991 1309 1228 531 
z
" transform="scale(0.015625)"/>
     </defs>
     <use xlink:href="#DejaVuSans-32"/>
    </g>
   </g>
   <g id="text_4">
    <!-- 0 -->
    <g transform="translate(254.466667 39.900833) scale(0.266667 -0.266667)">
     <use xlink:href="#DejaVuSans-30"/>
    </g>
   </g>
   <g id="text_5">
    <!-- 0 -->
    <g transform="translate(300.966667 39.900833) scale(0.266667 -0.266667)">
     <use xlink:href="#DejaVuSans-30"/>
    </g>
   </g>
   <g id="text_6">
    <!-- 1 -->
    <g transform="translate(347.466667 39.900833) scale(0.266667 -0.266667)">
     <use xlink:href="#DejaVuSans-31"/>
    </g>
   </g>
   <g id="text_7">
    <!-- 1 -->
    <g transform="translate(393.966667 39.900833) scale(0.266667 -0.266667)">
     <use xlink:href="#DejaVuSans-31"/>
    </g>
   </g>
   <g id="text_8">
    <!-- 2 -->
    <g transform="translate(440.466667 39.900833) scale(0.266667 -0.266667)">
     <use xlink:href="#DejaVuSans-32"/>
    </g>
   </g>
   <g id="text_9">
    <!-- 2 -->
    <g transform="translate(486.966667 39.900833) scale(0.266667 -0.266667)">
     <use xlink:href="#DejaVuSans-32"/>
    </g>
   </g>
   <g id="text_10">
    <!-- 0 -->
    <g transform="translate(68.466667 86.400833) scale(0.266667 -0.266667)">
     <use xlink:href="#DejaVuSans-30"/>
    </g>
   </g>
   <g id="text_11">
    <!-- 1 -->
    <g transform="translate(114.966667 86.400833) scale(0.266667 -0.266667)">
     <use xlink:href="#DejaVuSans-31"/>
    </g>
   </g>
   <g id="text_12">
    <!-- 0 -->
    <g transform="translate(207.966667 86.400833) scale(0.266667 -0.266667)">
     <use xlink:href="#DejaVuSans-30"/>
    </g>
   </g>
   <g id="text_13">
    <!-- 2 -->
    <g transform="translate(254.466667 86.400833) scale(0.266667 -0.266667)">
     <use xlink:href="#DejaVuSans-32"/>
    </g>
   </g>
   <g id="text_14">
    <!-- 1 -->
    <g transform="translate(300.966667 86.400833) scale(0.266667 -0.266667)">
     <use xlink:href="#DejaVuSans-31"/>
    </g>
   </g>
   <g id="text_15">
    <!-- 0 -->
    <g transform="translate(347.466667 86.400833) scale(0.266667 -0.266667)">
     <use xlink:href="#DejaVuSans-30"/>
    </g>
   </g>
   <g id="text_16">
    <!-- 2 -->
    <g transform="translate(393.966667 86.400833) scale(0.266667 -0.266667)">
     <use xlink:href="#DejaVuSans-32"/>
    </g>
   </g>
   <g id="text_17">
    <!-- 1 -->
    <g transform="translate(440.466667 86.400833) scale(0.266667 -0.266667)">
     <use xlink:href="#DejaVuSans-31"/>
    </g>
   </g>
   <g id="text_18">
    <!-- 2 -->
    <g transform="translate(486.966667 86.400833) scale(0.266667 -0.266667)">
     <use xlink:href="#DejaVuSans-32"/>
    </g>
   </g>
   <g id="text_19">
    <!-- 0 -->
    <g transform="translate(114.966667 132.900833) scale(0.266667 -0.266667)">
     <use xlink:href="#DejaVuSans-30"/>
    </g>
   </g>
   <g id="text_20">
    <!-- 0 -->
    <g transform="translate(161.466667 132.900833) scale(0.266667 -0.266667)">
     <use xlink:href="#DejaVuSans-30"/>
    </g>
   </g>
   <g id="text_21">
    <!-- 1 -->
    <g transform="translate(207.966667 132.900833) scale(0.266667 -0.266667)">
     <use xlink:href="#DejaVuSans-31"/>
    </g>
   </g>
   <g id="text_22">
    <!-- 1 -->
    <g transform="translate(254.466667 132.900833) scale(0.266667 -0.266667)">
     <use xlink:href="#DejaVuSans-31"/>
    </g>
   </g>
   <g id="text_23">
    <!-- 2 -->
    <g transform="translate(300.966667 132.900833) scale(0.266667 -0.266667)">
     <use xlink:href="#DejaVuSans-32"/>
    </g>
   </g>
   <g id="text_24">
    <!-- 2 -->
    <g transform="translate(347.466667 132.900833) scale(0.266667 -0.266667)">
     <use xlink:href="#DejaVuSans-32"/>
    </g>
   </g>
   <g id="text_25">
    <!-- 0 -->
    <g transform="translate(393.966667 132.900833) scale(0.266667 -0.266667)">
     <use xlink:href="#DejaVuSans-30"/>
    </g>
   </g>
   <g id="text_26">
    <!-- 1 -->
    <g transform="translate(440.466667 132.900833) scale(0.266667 -0.266667)">
     <use xlink:href="#DejaVuSans-31"/>
    </g>
   </g>
   <g id="text_27">
    <!-- 2 -->
    <g transform="translate(486.966667 132.900833) scale(0.266667 -0.266667)">
     <use xlink:href="#DejaVuSans-32"/>
    </g>
   </g>
  </g>
 </g>
 <defs>
  <clipPath id="pb76e199c18">
   <rect x="7.2" y="7.2" width="1116" height="139.5"/>
  </clipPath>
 </defs>
</svg>
