<?xml version="1.0" encoding="utf-8" standalone="no"?>
<!DOCTYPE svg PUBLIC "-//W3C//DTD SVG 1.1//EN"
  "http://www.w3.org/Graphics/SVG/1.1/DTD/svg11.dtd">
<svg xmlns:xlink="http://www.w3.org/1999/xlink" width="1130.4pt" height="192.96pt" viewBox="0 0 1130.4 192.96" xmlns="http://www.w3.org/2000/svg" version="1.1">
 <metadata>
  <rdf:RDF xmlns:dc="http://purl.org/dc/elements/1.1/" xmlns:cc="http://creativecommons.org/ns#" xmlns:rdf="http://www.w3.org/1999/02/22-rdf-syntax-ns#">
   <cc:Work>
    <dc:type rdf:resource="http://purl.org/dc/dcmitype/StillImage"/>
    <dc:date>2025-05-10T21:57:16.888595</dc:date>
    <dc:format>image/svg+xml</dc:format>
    <dc:creator>
     <cc:Agent>
      <dc:title>Matplotlib v3.6.3, https://matplotlib.org/</dc:title>
     </cc:Agent>
    </dc:creator>
   </cc:Work>
  </rdf:RDF>
 </metadata>
 <defs>
  <style type="text/css">*{stroke-linejoin: round; stroke-linecap: butt}</style>
 </defs>
 <g id="figure_1">
  <g id="patch_1">
   <path d="M 0 192.96 
L 1130.4 192.96 
L 1130.4 0 
L 0 0 
z
" style="fill: #ffffff"/>
  </g>
  <g id="axes_1">
   <g id="PatchCollection_1">
    <path d="M 7.2 29.52 
L 29.52 29.52 
L 29.52 7.2 
L 7.2 7.2 
z
" clip-path="url(#p463904b2d3)" style="fill: #fcb225; stroke: #000000; stroke-width: 0.64"/>
    <path d="M 29.52 29.52 
L 51.84 29.52 
L 51.84 7.2 
L 29.52 7.2 
z
" clip-path="url(#p463904b2d3)" style="fill: #fcb225; stroke: #000000; stroke-width: 0.64"/>
    <path d="M 51.84 29.52 
L 74.16 29.52 
L 74.16 7.2 
L 51.84 7.2 
z
" clip-path="url(#p463904b2d3)" style="fill: #fcb225; stroke: #000000; stroke-width: 0.64"/>
    <path d="M 386.64 29.52 
L 408.96 29.52 
L 408.96 7.2 
L 386.64 7.2 
z
" clip-path="url(#p463904b2d3)" style="fill: #5add4a; stroke: #000000; stroke-width: 0.64"/>
    <path d="M 408.96 29.52 
L 431.28 29.52 
L 431.28 7.2 
L 408.96 7.2 
z
" clip-path="url(#p463904b2d3)" style="fill: #5add4a; stroke: #000000; stroke-width: 0.64"/>
    <path d="M 431.28 29.52 
L 453.6 29.52 
L 453.6 7.2 
L 431.28 7.2 
z
" clip-path="url(#p463904b2d3)" style="fill: #5add4a; stroke: #000000; stroke-width: 0.64"/>
    <path d="M 453.6 29.52 
L 475.92 29.52 
L 475.92 7.2 
L 453.6 7.2 
z
" clip-path="url(#p463904b2d3)" style="fill: #60bdfd; stroke: #000000; stroke-width: 0.64"/>
    <path d="M 475.92 29.52 
L 498.24 29.52 
L 498.24 7.2 
L 475.92 7.2 
z
" clip-path="url(#p463904b2d3)" style="fill: #60bdfd; stroke: #000000; stroke-width: 0.64"/>
    <path d="M 498.24 29.52 
L 520.56 29.52 
L 520.56 7.2 
L 498.24 7.2 
z
" clip-path="url(#p463904b2d3)" style="fill: #60bdfd; stroke: #000000; stroke-width: 0.64"/>
    <path d="M 29.52 51.84 
L 51.84 51.84 
L 51.84 29.52 
L 29.52 29.52 
z
" clip-path="url(#p463904b2d3)" style="fill: #fcb225; stroke: #000000; stroke-width: 0.64"/>
    <path d="M 51.84 51.84 
L 74.16 51.84 
L 74.16 29.52 
L 51.84 29.52 
z
" clip-path="url(#p463904b2d3)" style="fill: #fcb225; stroke: #000000; stroke-width: 0.64"/>
    <path d="M 74.16 51.84 
L 96.48 51.84 
L 96.48 29.52 
L 74.16 29.52 
z
" clip-path="url(#p463904b2d3)" style="fill: #fcb225; stroke: #000000; stroke-width: 0.64"/>
    <path d="M 364.32 51.84 
L 386.64 51.84 
L 386.64 29.52 
L 364.32 29.52 
z
" clip-path="url(#p463904b2d3)" style="fill: #5add4a; stroke: #000000; stroke-width: 0.64"/>
    <path d="M 386.64 51.84 
L 408.96 51.84 
L 408.96 29.52 
L 386.64 29.52 
z
" clip-path="url(#p463904b2d3)" style="fill: #5add4a; stroke: #000000; stroke-width: 0.64"/>
    <path d="M 408.96 51.84 
L 431.28 51.84 
L 431.28 29.52 
L 408.96 29.52 
z
" clip-path="url(#p463904b2d3)" style="fill: #5add4a; stroke: #000000; stroke-width: 0.64"/>
    <path d="M 453.6 51.84 
L 475.92 51.84 
L 475.92 29.52 
L 453.6 29.52 
z
" clip-path="url(#p463904b2d3)" style="fill: #60bdfd; stroke: #000000; stroke-width: 0.64"/>
    <path d="M 475.92 51.84 
L 498.24 51.84 
L 498.24 29.52 
L 475.92 29.52 
z
" clip-path="url(#p463904b2d3)" style="fill: #60bdfd; stroke: #000000; stroke-width: 0.64"/>
    <path d="M 498.24 51.84 
L 520.56 51.84 
L 520.56 29.52 
L 498.24 29.52 
z
" clip-path="url(#p463904b2d3)" style="fill: #60bdfd; stroke: #000000; stroke-width: 0.64"/>
    <path d="M 51.84 74.16 
L 74.16 74.16 
L 74.16 51.84 
L 51.84 51.84 
z
" clip-path="url(#p463904b2d3)" style="fill: #fcb225; stroke: #000000; stroke-width: 0.64"/>
    <path d="M 74.16 74.16 
L 96.48 74.16 
L 96.48 51.84 
L 74.16 51.84 
z
" clip-path="url(#p463904b2d3)" style="fill: #fcb225; stroke: #000000; stroke-width: 0.64"/>
    <path d="M 96.48 74.16 
L 118.8 74.16 
L 118.8 51.84 
L 96.48 51.84 
z
" clip-path="url(#p463904b2d3)" style="fill: #fcb225; stroke: #000000; stroke-width: 0.64"/>
    <path d="M 342 74.16 
L 364.32 74.16 
L 364.32 51.84 
L 342 51.84 
z
" clip-path="url(#p463904b2d3)" style="fill: #5add4a; stroke: #000000; stroke-width: 0.64"/>
    <path d="M 364.32 74.16 
L 386.64 74.16 
L 386.64 51.84 
L 364.32 51.84 
z
" clip-path="url(#p463904b2d3)" style="fill: #5add4a; stroke: #000000; stroke-width: 0.64"/>
    <path d="M 386.64 74.16 
L 408.96 74.16 
L 408.96 51.84 
L 386.64 51.84 
z
" clip-path="url(#p463904b2d3)" style="fill: #5add4a; stroke: #000000; stroke-width: 0.64"/>
    <path d="M 453.6 74.16 
L 475.92 74.16 
L 475.92 51.84 
L 453.6 51.84 
z
" clip-path="url(#p463904b2d3)" style="fill: #60bdfd; stroke: #000000; stroke-width: 0.64"/>
    <path d="M 475.92 74.16 
L 498.24 74.16 
L 498.24 51.84 
L 475.92 51.84 
z
" clip-path="url(#p463904b2d3)" style="fill: #60bdfd; stroke: #000000; stroke-width: 0.64"/>
    <path d="M 498.24 74.16 
L 520.56 74.16 
L 520.56 51.84 
L 498.24 51.84 
z
" clip-path="url(#p463904b2d3)" style="fill: #60bdfd; stroke: #000000; stroke-width: 0.64"/>
    <path d="M 74.16 96.48 
L 96.48 96.48 
L 96.48 74.16 
L 74.16 74.16 
z
" clip-path="url(#p463904b2d3)" style="fill: #fcb225; stroke: #000000; stroke-width: 0.64"/>
    <path d="M 96.48 96.48 
L 118.8 96.48 
L 118.8 74.16 
L 96.48 74.16 
z
" clip-path="url(#p463904b2d3)" style="fill: #fcb225; stroke: #000000; stroke-width: 0.64"/>
    <path d="M 118.8 96.48 
L 141.12 96.48 
L 141.12 74.16 
L 118.8 74.16 
z
" clip-path="url(#p463904b2d3)" style="fill: #fcb225; stroke: #000000; stroke-width: 0.64"/>
    <path d="M 319.68 96.48 
L 342 96.48 
L 342 74.16 
L 319.68 74.16 
z
" clip-path="url(#p463904b2d3)" style="fill: #5add4a; stroke: #000000; stroke-width: 0.64"/>
    <path d="M 342 96.48 
L 364.32 96.48 
L 364.32 74.16 
L 342 74.16 
z
" clip-path="url(#p463904b2d3)" style="fill: #5add4a; stroke: #000000; stroke-width: 0.64"/>
    <path d="M 364.32 96.48 
L 386.64 96.48 
L 386.64 74.16 
L 364.32 74.16 
z
" clip-path="url(#p463904b2d3)" style="fill: #5add4a; stroke: #000000; stroke-width: 0.64"/>
    <path d="M 453.6 96.48 
L 475.92 96.48 
L 475.92 74.16 
L 453.6 74.16 
z
" clip-path="url(#p463904b2d3)" style="fill: #60bdfd; stroke: #000000; stroke-width: 0.64"/>
    <path d="M 475.92 96.48 
L 498.24 96.48 
L 498.24 74.16 
L 475.92 74.16 
z
" clip-path="url(#p463904b2d3)" style="fill: #60bdfd; stroke: #000000; stroke-width: 0.64"/>
    <path d="M 498.24 96.48 
L 520.56 96.48 
L 520.56 74.16 
L 498.24 74.16 
z
" clip-path="url(#p463904b2d3)" style="fill: #60bdfd; stroke: #000000; stroke-width: 0.64"/>
    <path d="M 96.48 118.8 
L 118.8 118.8 
L 118.8 96.48 
L 96.48 96.48 
z
" clip-path="url(#p463904b2d3)" style="fill: #fcb225; stroke: #000000; stroke-width: 0.64"/>
    <path d="M 118.8 118.8 
L 141.12 118.8 
L 141.12 96.48 
L 118.8 96.48 
z
" clip-path="url(#p463904b2d3)" style="fill: #fcb225; stroke: #000000; stroke-width: 0.64"/>
    <path d="M 141.12 118.8 
L 163.44 118.8 
L 163.44 96.48 
L 141.12 96.48 
z
" clip-path="url(#p463904b2d3)" style="fill: #fcb225; stroke: #000000; stroke-width: 0.64"/>
    <path d="M 297.36 118.8 
L 319.68 118.8 
L 319.68 96.48 
L 297.36 96.48 
z
" clip-path="url(#p463904b2d3)" style="fill: #5add4a; stroke: #000000; stroke-width: 0.64"/>
    <path d="M 319.68 118.8 
L 342 118.8 
L 342 96.48 
L 319.68 96.48 
z
" clip-path="url(#p463904b2d3)" style="fill: #5add4a; stroke: #000000; stroke-width: 0.64"/>
    <path d="M 342 118.8 
L 364.32 118.8 
L 364.32 96.48 
L 342 96.48 
z
" clip-path="url(#p463904b2d3)" style="fill: #5add4a; stroke: #000000; stroke-width: 0.64"/>
    <path d="M 453.6 118.8 
L 475.92 118.8 
L 475.92 96.48 
L 453.6 96.48 
z
" clip-path="url(#p463904b2d3)" style="fill: #60bdfd; stroke: #000000; stroke-width: 0.64"/>
    <path d="M 475.92 118.8 
L 498.24 118.8 
L 498.24 96.48 
L 475.92 96.48 
z
" clip-path="url(#p463904b2d3)" style="fill: #60bdfd; stroke: #000000; stroke-width: 0.64"/>
    <path d="M 498.24 118.8 
L 520.56 118.8 
L 520.56 96.48 
L 498.24 96.48 
z
" clip-path="url(#p463904b2d3)" style="fill: #60bdfd; stroke: #000000; stroke-width: 0.64"/>
    <path d="M 118.8 141.12 
L 141.12 141.12 
L 141.12 118.8 
L 118.8 118.8 
z
" clip-path="url(#p463904b2d3)" style="fill: #fcb225; stroke: #000000; stroke-width: 0.64"/>
    <path d="M 141.12 141.12 
L 163.44 141.12 
L 163.44 118.8 
L 141.12 118.8 
z
" clip-path="url(#p463904b2d3)" style="fill: #fcb225; stroke: #000000; stroke-width: 0.64"/>
    <path d="M 163.44 141.12 
L 185.76 141.12 
L 185.76 118.8 
L 163.44 118.8 
z
" clip-path="url(#p463904b2d3)" style="fill: #fcb225; stroke: #000000; stroke-width: 0.64"/>
    <path d="M 275.04 141.12 
L 297.36 141.12 
L 297.36 118.8 
L 275.04 118.8 
z
" clip-path="url(#p463904b2d3)" style="fill: #5add4a; stroke: #000000; stroke-width: 0.64"/>
    <path d="M 297.36 141.12 
L 319.68 141.12 
L 319.68 118.8 
L 297.36 118.8 
z
" clip-path="url(#p463904b2d3)" style="fill: #5add4a; stroke: #000000; stroke-width: 0.64"/>
    <path d="M 319.68 141.12 
L 342 141.12 
L 342 118.8 
L 319.68 118.8 
z
" clip-path="url(#p463904b2d3)" style="fill: #5add4a; stroke: #000000; stroke-width: 0.64"/>
    <path d="M 453.6 141.12 
L 475.92 141.12 
L 475.92 118.8 
L 453.6 118.8 
z
" clip-path="url(#p463904b2d3)" style="fill: #60bdfd; stroke: #000000; stroke-width: 0.64"/>
    <path d="M 475.92 141.12 
L 498.24 141.12 
L 498.24 118.8 
L 475.92 118.8 
z
" clip-path="url(#p463904b2d3)" style="fill: #60bdfd; stroke: #000000; stroke-width: 0.64"/>
    <path d="M 498.24 141.12 
L 520.56 141.12 
L 520.56 118.8 
L 498.24 118.8 
z
" clip-path="url(#p463904b2d3)" style="fill: #60bdfd; stroke: #000000; stroke-width: 0.64"/>
    <path d="M 141.12 163.44 
L 163.44 163.44 
L 163.44 141.12 
L 141.12 141.12 
z
" clip-path="url(#p463904b2d3)" style="fill: #fcb225; stroke: #000000; stroke-width: 0.64"/>
    <path d="M 163.44 163.44 
L 185.76 163.44 
L 185.76 141.12 
L 163.44 141.12 
z
" clip-path="url(#p463904b2d3)" style="fill: #fcb225; stroke: #000000; stroke-width: 0.64"/>
    <path d="M 185.76 163.44 
L 208.08 163.44 
L 208.08 141.12 
L 185.76 141.12 
z
" clip-path="url(#p463904b2d3)" style="fill: #fcb225; stroke: #000000; stroke-width: 0.64"/>
    <path d="M 252.72 163.44 
L 275.04 163.44 
L 275.04 141.12 
L 252.72 141.12 
z
" clip-path="url(#p463904b2d3)" style="fill: #5add4a; stroke: #000000; stroke-width: 0.64"/>
    <path d="M 275.04 163.44 
L 297.36 163.44 
L 297.36 141.12 
L 275.04 141.12 
z
" clip-path="url(#p463904b2d3)" style="fill: #5add4a; stroke: #000000; stroke-width: 0.64"/>
    <path d="M 297.36 163.44 
L 319.68 163.44 
L 319.68 141.12 
L 297.36 141.12 
z
" clip-path="url(#p463904b2d3)" style="fill: #5add4a; stroke: #000000; stroke-width: 0.64"/>
    <path d="M 453.6 163.44 
L 475.92 163.44 
L 475.92 141.12 
L 453.6 141.12 
z
" clip-path="url(#p463904b2d3)" style="fill: #60bdfd; stroke: #000000; stroke-width: 0.64"/>
    <path d="M 475.92 163.44 
L 498.24 163.44 
L 498.24 141.12 
L 475.92 141.12 
z
" clip-path="url(#p463904b2d3)" style="fill: #60bdfd; stroke: #000000; stroke-width: 0.64"/>
    <path d="M 498.24 163.44 
L 520.56 163.44 
L 520.56 141.12 
L 498.24 141.12 
z
" clip-path="url(#p463904b2d3)" style="fill: #60bdfd; stroke: #000000; stroke-width: 0.64"/>
    <path d="M 163.44 185.76 
L 185.76 185.76 
L 185.76 163.44 
L 163.44 163.44 
z
" clip-path="url(#p463904b2d3)" style="fill: #fcb225; stroke: #000000; stroke-width: 0.64"/>
    <path d="M 185.76 185.76 
L 208.08 185.76 
L 208.08 163.44 
L 185.76 163.44 
z
" clip-path="url(#p463904b2d3)" style="fill: #fcb225; stroke: #000000; stroke-width: 0.64"/>
    <path d="M 208.08 185.76 
L 230.4 185.76 
L 230.4 163.44 
L 208.08 163.44 
z
" clip-path="url(#p463904b2d3)" style="fill: #fcb225; stroke: #000000; stroke-width: 0.64"/>
    <path d="M 230.4 185.76 
L 252.72 185.76 
L 252.72 163.44 
L 230.4 163.44 
z
" clip-path="url(#p463904b2d3)" style="fill: #5add4a; stroke: #000000; stroke-width: 0.64"/>
    <path d="M 252.72 185.76 
L 275.04 185.76 
L 275.04 163.44 
L 252.72 163.44 
z
" clip-path="url(#p463904b2d3)" style="fill: #5add4a; stroke: #000000; stroke-width: 0.64"/>
    <path d="M 275.04 185.76 
L 297.36 185.76 
L 297.36 163.44 
L 275.04 163.44 
z
" clip-path="url(#p463904b2d3)" style="fill: #5add4a; stroke: #000000; stroke-width: 0.64"/>
    <path d="M 453.6 185.76 
L 475.92 185.76 
L 475.92 163.44 
L 453.6 163.44 
z
" clip-path="url(#p463904b2d3)" style="fill: #60bdfd; stroke: #000000; stroke-width: 0.64"/>
    <path d="M 475.92 185.76 
L 498.24 185.76 
L 498.24 163.44 
L 475.92 163.44 
z
" clip-path="url(#p463904b2d3)" style="fill: #60bdfd; stroke: #000000; stroke-width: 0.64"/>
    <path d="M 498.24 185.76 
L 520.56 185.76 
L 520.56 163.44 
L 498.24 163.44 
z
" clip-path="url(#p463904b2d3)" style="fill: #60bdfd; stroke: #000000; stroke-width: 0.64"/>
   </g>
   <g id="text_1">
    <!-- 0 -->
    <g transform="translate(14.288 22.8964) scale(0.128 -0.128)">
     <defs>
      <path id="DejaVuSans-30" d="M 2034 4250 
Q 1547 4250 1301 3770 
Q 1056 3291 1056 2328 
Q 1056 1369 1301 889 
Q 1547 409 2034 409 
Q 2525 409 2770 889 
Q 3016 1369 3016 2328 
Q 3016 3291 2770 3770 
Q 2525 4250 2034 4250 
z
M 2034 4750 
Q 2819 4750 3233 4129 
Q 3647 3509 3647 2328 
Q 3647 1150 3233 529 
Q 2819 -91 2034 -91 
Q 1250 -91 836 529 
Q 422 1150 422 2328 
Q 422 3509 836 4129 
Q 1250 4750 2034 4750 
z
" transform="scale(0.015625)"/>
     </defs>
     <use xlink:href="#DejaVuSans-30"/>
    </g>
   </g>
   <g id="text_2">
    <!-- 1 -->
    <g transform="translate(36.608 22.8964) scale(0.128 -0.128)">
     <defs>
      <path id="DejaVuSans-31" d="M 794 531 
L 1825 531 
L 1825 4091 
L 703 3866 
L 703 4441 
L 1819 4666 
L 2450 4666 
L 2450 531 
L 3481 531 
L 3481 0 
L 794 0 
L 794 531 
z
" transform="scale(0.015625)"/>
     </defs>
     <use xlink:href="#DejaVuSans-31"/>
    </g>
   </g>
   <g id="text_3">
    <!-- 2 -->
    <g transform="translate(58.928 22.8964) scale(0.128 -0.128)">
     <defs>
      <path id="DejaVuSans-32" d="M 1228 531 
L 3431 531 
L 3431 0 
L 469 0 
L 469 531 
Q 828 903 1448 1529 
Q 2069 2156 2228 2338 
Q 2531 2678 2651 2914 
Q 2772 3150 2772 3378 
Q 2772 3750 2511 3984 
Q 2250 4219 1831 4219 
Q 1534 4219 1204 4116 
Q 875 4013 500 3803 
L 500 4441 
Q 881 4594 1212 4672 
Q 1544 4750 1819 4750 
Q 2544 4750 2975 4387 
Q 3406 4025 3406 3419 
Q 3406 3131 3298 2873 
Q 3191 2616 2906 2266 
Q 2828 2175 2409 1742 
Q 1991 1309 1228 531 
z
" transform="scale(0.015625)"/>
     </defs>
     <use xlink:href="#DejaVuSans-32"/>
    </g>
   </g>
   <g id="text_4">
    <!-- 0 -->
    <g transform="translate(393.728 22.8964) scale(0.128 -0.128)">
     <use xlink:href="#DejaVuSans-30"/>
    </g>
   </g>
   <g id="text_5">
    <!-- 1 -->
    <g transform="translate(416.048 22.8964) scale(0.128 -0.128)">
     <use xlink:href="#DejaVuSans-31"/>
    </g>
   </g>
   <g id="text_6">
    <!-- 2 -->
    <g transform="translate(438.368 22.8964) scale(0.128 -0.128)">
     <use xlink:href="#DejaVuSans-32"/>
    </g>
   </g>
   <g id="text_7">
    <!-- 0 -->
    <g transform="translate(460.688 22.8964) scale(0.128 -0.128)">
     <use xlink:href="#DejaVuSans-30"/>
    </g>
   </g>
   <g id="text_8">
    <!-- 1 -->
    <g transform="translate(483.008 22.8964) scale(0.128 -0.128)">
     <use xlink:href="#DejaVuSans-31"/>
    </g>
   </g>
   <g id="text_9">
    <!-- 2 -->
    <g transform="translate(505.328 22.8964) scale(0.128 -0.128)">
     <use xlink:href="#DejaVuSans-32"/>
    </g>
   </g>
   <g id="text_10">
    <!-- 0 -->
    <g transform="translate(36.608 45.2164) scale(0.128 -0.128)">
     <use xlink:href="#DejaVuSans-30"/>
    </g>
   </g>
   <g id="text_11">
    <!-- 1 -->
    <g transform="translate(58.928 45.2164) scale(0.128 -0.128)">
     <use xlink:href="#DejaVuSans-31"/>
    </g>
   </g>
   <g id="text_12">
    <!-- 2 -->
    <g transform="translate(81.248 45.2164) scale(0.128 -0.128)">
     <use xlink:href="#DejaVuSans-32"/>
    </g>
   </g>
   <g id="text_13">
    <!-- 0 -->
    <g transform="translate(371.408 45.2164) scale(0.128 -0.128)">
     <use xlink:href="#DejaVuSans-30"/>
    </g>
   </g>
   <g id="text_14">
    <!-- 1 -->
    <g transform="translate(393.728 45.2164) scale(0.128 -0.128)">
     <use xlink:href="#DejaVuSans-31"/>
    </g>
   </g>
   <g id="text_15">
    <!-- 2 -->
    <g transform="translate(416.048 45.2164) scale(0.128 -0.128)">
     <use xlink:href="#DejaVuSans-32"/>
    </g>
   </g>
   <g id="text_16">
    <!-- 0 -->
    <g transform="translate(460.688 45.2164) scale(0.128 -0.128)">
     <use xlink:href="#DejaVuSans-30"/>
    </g>
   </g>
   <g id="text_17">
    <!-- 1 -->
    <g transform="translate(483.008 45.2164) scale(0.128 -0.128)">
     <use xlink:href="#DejaVuSans-31"/>
    </g>
   </g>
   <g id="text_18">
    <!-- 2 -->
    <g transform="translate(505.328 45.2164) scale(0.128 -0.128)">
     <use xlink:href="#DejaVuSans-32"/>
    </g>
   </g>
   <g id="text_19">
    <!-- 0 -->
    <g transform="translate(58.928 67.5364) scale(0.128 -0.128)">
     <use xlink:href="#DejaVuSans-30"/>
    </g>
   </g>
   <g id="text_20">
    <!-- 1 -->
    <g transform="translate(81.248 67.5364) scale(0.128 -0.128)">
     <use xlink:href="#DejaVuSans-31"/>
    </g>
   </g>
   <g id="text_21">
    <!-- 2 -->
    <g transform="translate(103.568 67.5364) scale(0.128 -0.128)">
     <use xlink:href="#DejaVuSans-32"/>
    </g>
   </g>
   <g id="text_22">
    <!-- 0 -->
    <g transform="translate(349.088 67.5364) scale(0.128 -0.128)">
     <use xlink:href="#DejaVuSans-30"/>
    </g>
   </g>
   <g id="text_23">
    <!-- 1 -->
    <g transform="translate(371.408 67.5364) scale(0.128 -0.128)">
     <use xlink:href="#DejaVuSans-31"/>
    </g>
   </g>
   <g id="text_24">
    <!-- 2 -->
    <g transform="translate(393.728 67.5364) scale(0.128 -0.128)">
     <use xlink:href="#DejaVuSans-32"/>
    </g>
   </g>
   <g id="text_25">
    <!-- 0 -->
    <g transform="translate(460.688 67.5364) scale(0.128 -0.128)">
     <use xlink:href="#DejaVuSans-30"/>
    </g>
   </g>
   <g id="text_26">
    <!-- 1 -->
    <g transform="translate(483.008 67.5364) scale(0.128 -0.128)">
     <use xlink:href="#DejaVuSans-31"/>
    </g>
   </g>
   <g id="text_27">
    <!-- 2 -->
    <g transform="translate(505.328 67.5364) scale(0.128 -0.128)">
     <use xlink:href="#DejaVuSans-32"/>
    </g>
   </g>
   <g id="text_28">
    <!-- 0 -->
    <g transform="translate(81.248 89.8564) scale(0.128 -0.128)">
     <use xlink:href="#DejaVuSans-30"/>
    </g>
   </g>
   <g id="text_29">
    <!-- 1 -->
    <g transform="translate(103.568 89.8564) scale(0.128 -0.128)">
     <use xlink:href="#DejaVuSans-31"/>
    </g>
   </g>
   <g id="text_30">
    <!-- 2 -->
    <g transform="translate(125.888 89.8564) scale(0.128 -0.128)">
     <use xlink:href="#DejaVuSans-32"/>
    </g>
   </g>
   <g id="text_31">
    <!-- 0 -->
    <g transform="translate(326.768 89.8564) scale(0.128 -0.128)">
     <use xlink:href="#DejaVuSans-30"/>
    </g>
   </g>
   <g id="text_32">
    <!-- 1 -->
    <g transform="translate(349.088 89.8564) scale(0.128 -0.128)">
     <use xlink:href="#DejaVuSans-31"/>
    </g>
   </g>
   <g id="text_33">
    <!-- 2 -->
    <g transform="translate(371.408 89.8564) scale(0.128 -0.128)">
     <use xlink:href="#DejaVuSans-32"/>
    </g>
   </g>
   <g id="text_34">
    <!-- 0 -->
    <g transform="translate(460.688 89.8564) scale(0.128 -0.128)">
     <use xlink:href="#DejaVuSans-30"/>
    </g>
   </g>
   <g id="text_35">
    <!-- 1 -->
    <g transform="translate(483.008 89.8564) scale(0.128 -0.128)">
     <use xlink:href="#DejaVuSans-31"/>
    </g>
   </g>
   <g id="text_36">
    <!-- 2 -->
    <g transform="translate(505.328 89.8564) scale(0.128 -0.128)">
     <use xlink:href="#DejaVuSans-32"/>
    </g>
   </g>
   <g id="text_37">
    <!-- 0 -->
    <g transform="translate(103.568 112.1764) scale(0.128 -0.128)">
     <use xlink:href="#DejaVuSans-30"/>
    </g>
   </g>
   <g id="text_38">
    <!-- 1 -->
    <g transform="translate(125.888 112.1764) scale(0.128 -0.128)">
     <use xlink:href="#DejaVuSans-31"/>
    </g>
   </g>
   <g id="text_39">
    <!-- 2 -->
    <g transform="translate(148.208 112.1764) scale(0.128 -0.128)">
     <use xlink:href="#DejaVuSans-32"/>
    </g>
   </g>
   <g id="text_40">
    <!-- 0 -->
    <g transform="translate(304.448 112.1764) scale(0.128 -0.128)">
     <use xlink:href="#DejaVuSans-30"/>
    </g>
   </g>
   <g id="text_41">
    <!-- 1 -->
    <g transform="translate(326.768 112.1764) scale(0.128 -0.128)">
     <use xlink:href="#DejaVuSans-31"/>
    </g>
   </g>
   <g id="text_42">
    <!-- 2 -->
    <g transform="translate(349.088 112.1764) scale(0.128 -0.128)">
     <use xlink:href="#DejaVuSans-32"/>
    </g>
   </g>
   <g id="text_43">
    <!-- 0 -->
    <g transform="translate(460.688 112.1764) scale(0.128 -0.128)">
     <use xlink:href="#DejaVuSans-30"/>
    </g>
   </g>
   <g id="text_44">
    <!-- 1 -->
    <g transform="translate(483.008 112.1764) scale(0.128 -0.128)">
     <use xlink:href="#DejaVuSans-31"/>
    </g>
   </g>
   <g id="text_45">
    <!-- 2 -->
    <g transform="translate(505.328 112.1764) scale(0.128 -0.128)">
     <use xlink:href="#DejaVuSans-32"/>
    </g>
   </g>
   <g id="text_46">
    <!-- 0 -->
    <g transform="translate(125.888 134.4964) scale(0.128 -0.128)">
     <use xlink:href="#DejaVuSans-30"/>
    </g>
   </g>
   <g id="text_47">
    <!-- 1 -->
    <g transform="translate(148.208 134.4964) scale(0.128 -0.128)">
     <use xlink:href="#DejaVuSans-31"/>
    </g>
   </g>
   <g id="text_48">
    <!-- 2 -->
    <g transform="translate(170.528 134.4964) scale(0.128 -0.128)">
     <use xlink:href="#DejaVuSans-32"/>
    </g>
   </g>
   <g id="text_49">
    <!-- 0 -->
    <g transform="translate(282.128 134.4964) scale(0.128 -0.128)">
     <use xlink:href="#DejaVuSans-30"/>
    </g>
   </g>
   <g id="text_50">
    <!-- 1 -->
    <g transform="translate(304.448 134.4964) scale(0.128 -0.128)">
     <use xlink:href="#DejaVuSans-31"/>
    </g>
   </g>
   <g id="text_51">
    <!-- 2 -->
    <g transform="translate(326.768 134.4964) scale(0.128 -0.128)">
     <use xlink:href="#DejaVuSans-32"/>
    </g>
   </g>
   <g id="text_52">
    <!-- 0 -->
    <g transform="translate(460.688 134.4964) scale(0.128 -0.128)">
     <use xlink:href="#DejaVuSans-30"/>
    </g>
   </g>
   <g id="text_53">
    <!-- 1 -->
    <g transform="translate(483.008 134.4964) scale(0.128 -0.128)">
     <use xlink:href="#DejaVuSans-31"/>
    </g>
   </g>
   <g id="text_54">
    <!-- 2 -->
    <g transform="translate(505.328 134.4964) scale(0.128 -0.128)">
     <use xlink:href="#DejaVuSans-32"/>
    </g>
   </g>
   <g id="text_55">
    <!-- 0 -->
    <g transform="translate(148.208 156.8164) scale(0.128 -0.128)">
     <use xlink:href="#DejaVuSans-30"/>
    </g>
   </g>
   <g id="text_56">
    <!-- 1 -->
    <g transform="translate(170.528 156.8164) scale(0.128 -0.128)">
     <use xlink:href="#DejaVuSans-31"/>
    </g>
   </g>
   <g id="text_57">
    <!-- 2 -->
    <g transform="translate(192.848 156.8164) scale(0.128 -0.128)">
     <use xlink:href="#DejaVuSans-32"/>
    </g>
   </g>
   <g id="text_58">
    <!-- 0 -->
    <g transform="translate(259.808 156.8164) scale(0.128 -0.128)">
     <use xlink:href="#DejaVuSans-30"/>
    </g>
   </g>
   <g id="text_59">
    <!-- 1 -->
    <g transform="translate(282.128 156.8164) scale(0.128 -0.128)">
     <use xlink:href="#DejaVuSans-31"/>
    </g>
   </g>
   <g id="text_60">
    <!-- 2 -->
    <g transform="translate(304.448 156.8164) scale(0.128 -0.128)">
     <use xlink:href="#DejaVuSans-32"/>
    </g>
   </g>
   <g id="text_61">
    <!-- 0 -->
    <g transform="translate(460.688 156.8164) scale(0.128 -0.128)">
     <use xlink:href="#DejaVuSans-30"/>
    </g>
   </g>
   <g id="text_62">
    <!-- 1 -->
    <g transform="translate(483.008 156.8164) scale(0.128 -0.128)">
     <use xlink:href="#DejaVuSans-31"/>
    </g>
   </g>
   <g id="text_63">
    <!-- 2 -->
    <g transform="translate(505.328 156.8164) scale(0.128 -0.128)">
     <use xlink:href="#DejaVuSans-32"/>
    </g>
   </g>
   <g id="text_64">
    <!-- 0 -->
    <g transform="translate(170.528 179.1364) scale(0.128 -0.128)">
     <use xlink:href="#DejaVuSans-30"/>
    </g>
   </g>
   <g id="text_65">
    <!-- 1 -->
    <g transform="translate(192.848 179.1364) scale(0.128 -0.128)">
     <use xlink:href="#DejaVuSans-31"/>
    </g>
   </g>
   <g id="text_66">
    <!-- 2 -->
    <g transform="translate(215.168 179.1364) scale(0.128 -0.128)">
     <use xlink:href="#DejaVuSans-32"/>
    </g>
   </g>
   <g id="text_67">
    <!-- 0 -->
    <g transform="translate(237.488 179.1364) scale(0.128 -0.128)">
     <use xlink:href="#DejaVuSans-30"/>
    </g>
   </g>
   <g id="text_68">
    <!-- 1 -->
    <g transform="translate(259.808 179.1364) scale(0.128 -0.128)">
     <use xlink:href="#DejaVuSans-31"/>
    </g>
   </g>
   <g id="text_69">
    <!-- 2 -->
    <g transform="translate(282.128 179.1364) scale(0.128 -0.128)">
     <use xlink:href="#DejaVuSans-32"/>
    </g>
   </g>
   <g id="text_70">
    <!-- 0 -->
    <g transform="translate(460.688 179.1364) scale(0.128 -0.128)">
     <use xlink:href="#DejaVuSans-30"/>
    </g>
   </g>
   <g id="text_71">
    <!-- 1 -->
    <g transform="translate(483.008 179.1364) scale(0.128 -0.128)">
     <use xlink:href="#DejaVuSans-31"/>
    </g>
   </g>
   <g id="text_72">
    <!-- 2 -->
    <g transform="translate(505.328 179.1364) scale(0.128 -0.128)">
     <use xlink:href="#DejaVuSans-32"/>
    </g>
   </g>
  </g>
 </g>
 <defs>
  <clipPath id="p463904b2d3">
   <rect x="7.2" y="7.2" width="1116" height="178.56"/>
  </clipPath>
 </defs>
</svg>
