<?xml version="1.0" encoding="utf-8" standalone="no"?>
<!DOCTYPE svg PUBLIC "-//W3C//DTD SVG 1.1//EN"
  "http://www.w3.org/Graphics/SVG/1.1/DTD/svg11.dtd">
<svg xmlns:xlink="http://www.w3.org/1999/xlink" width="1130.4pt" height="148.32pt" viewBox="0 0 1130.4 148.32" xmlns="http://www.w3.org/2000/svg" version="1.1">
 <metadata>
  <rdf:RDF xmlns:dc="http://purl.org/dc/elements/1.1/" xmlns:cc="http://creativecommons.org/ns#" xmlns:rdf="http://www.w3.org/1999/02/22-rdf-syntax-ns#">
   <cc:Work>
    <dc:type rdf:resource="http://purl.org/dc/dcmitype/StillImage"/>
    <dc:date>2025-05-10T21:57:15.107250</dc:date>
    <dc:format>image/svg+xml</dc:format>
    <dc:creator>
     <cc:Agent>
      <dc:title>Matplotlib v3.6.3, https://matplotlib.org/</dc:title>
     </cc:Agent>
    </dc:creator>
   </cc:Work>
  </rdf:RDF>
 </metadata>
 <defs>
  <style type="text/css">*{stroke-linejoin: round; stroke-linecap: butt}</style>
 </defs>
 <g id="figure_1">
  <g id="patch_1">
   <path d="M 0 148.32 
L 1130.4 148.32 
L 1130.4 0 
L 0 0 
z
" style="fill: #ffffff"/>
  </g>
  <g id="axes_1">
   <g id="PatchCollection_1">
    <path d="M 7.2 29.52 
L 29.52 29.52 
L 29.52 7.2 
L 7.2 7.2 
z
" clip-path="url(#p010b5aea14)" style="fill: #fcb225; stroke: #000000; stroke-width: 0.64"/>
    <path d="M 252.72 29.52 
L 275.04 29.52 
L 275.04 7.2 
L 252.72 7.2 
z
" clip-path="url(#p010b5aea14)" style="fill: #5add4a; stroke: #000000; stroke-width: 0.64"/>
    <path d="M 275.04 29.52 
L 297.36 29.52 
L 297.36 7.2 
L 275.04 7.2 
z
" clip-path="url(#p010b5aea14)" style="fill: #60bdfd; stroke: #000000; stroke-width: 0.64"/>
    <path d="M 29.52 51.84 
L 51.84 51.84 
L 51.84 29.52 
L 29.52 29.52 
z
" clip-path="url(#p010b5aea14)" style="fill: #fcb225; stroke: #000000; stroke-width: 0.64"/>
    <path d="M 230.4 51.84 
L 252.72 51.84 
L 252.72 29.52 
L 230.4 29.52 
z
" clip-path="url(#p010b5aea14)" style="fill: #5add4a; stroke: #000000; stroke-width: 0.64"/>
    <path d="M 275.04 51.84 
L 297.36 51.84 
L 297.36 29.52 
L 275.04 29.52 
z
" clip-path="url(#p010b5aea14)" style="fill: #60bdfd; stroke: #000000; stroke-width: 0.64"/>
    <path d="M 51.84 74.16 
L 74.16 74.16 
L 74.16 51.84 
L 51.84 51.84 
z
" clip-path="url(#p010b5aea14)" style="fill: #fcb225; stroke: #000000; stroke-width: 0.64"/>
    <path d="M 208.08 74.16 
L 230.4 74.16 
L 230.4 51.84 
L 208.08 51.84 
z
" clip-path="url(#p010b5aea14)" style="fill: #5add4a; stroke: #000000; stroke-width: 0.64"/>
    <path d="M 275.04 74.16 
L 297.36 74.16 
L 297.36 51.84 
L 275.04 51.84 
z
" clip-path="url(#p010b5aea14)" style="fill: #60bdfd; stroke: #000000; stroke-width: 0.64"/>
    <path d="M 74.16 96.48 
L 96.48 96.48 
L 96.48 74.16 
L 74.16 74.16 
z
" clip-path="url(#p010b5aea14)" style="fill: #fcb225; stroke: #000000; stroke-width: 0.64"/>
    <path d="M 185.76 96.48 
L 208.08 96.48 
L 208.08 74.16 
L 185.76 74.16 
z
" clip-path="url(#p010b5aea14)" style="fill: #5add4a; stroke: #000000; stroke-width: 0.64"/>
    <path d="M 275.04 96.48 
L 297.36 96.48 
L 297.36 74.16 
L 275.04 74.16 
z
" clip-path="url(#p010b5aea14)" style="fill: #60bdfd; stroke: #000000; stroke-width: 0.64"/>
    <path d="M 96.48 118.8 
L 118.8 118.8 
L 118.8 96.48 
L 96.48 96.48 
z
" clip-path="url(#p010b5aea14)" style="fill: #fcb225; stroke: #000000; stroke-width: 0.64"/>
    <path d="M 163.44 118.8 
L 185.76 118.8 
L 185.76 96.48 
L 163.44 96.48 
z
" clip-path="url(#p010b5aea14)" style="fill: #5add4a; stroke: #000000; stroke-width: 0.64"/>
    <path d="M 275.04 118.8 
L 297.36 118.8 
L 297.36 96.48 
L 275.04 96.48 
z
" clip-path="url(#p010b5aea14)" style="fill: #60bdfd; stroke: #000000; stroke-width: 0.64"/>
    <path d="M 118.8 141.12 
L 141.12 141.12 
L 141.12 118.8 
L 118.8 118.8 
z
" clip-path="url(#p010b5aea14)" style="fill: #fcb225; stroke: #000000; stroke-width: 0.64"/>
    <path d="M 141.12 141.12 
L 163.44 141.12 
L 163.44 118.8 
L 141.12 118.8 
z
" clip-path="url(#p010b5aea14)" style="fill: #5add4a; stroke: #000000; stroke-width: 0.64"/>
    <path d="M 275.04 141.12 
L 297.36 141.12 
L 297.36 118.8 
L 275.04 118.8 
z
" clip-path="url(#p010b5aea14)" style="fill: #60bdfd; stroke: #000000; stroke-width: 0.64"/>
   </g>
   <g id="text_1">
    <!-- 0 -->
    <g transform="translate(14.288 22.8964) scale(0.128 -0.128)">
     <defs>
      <path id="DejaVuSans-30" d="M 2034 4250 
Q 1547 4250 1301 3770 
Q 1056 3291 1056 2328 
Q 1056 1369 1301 889 
Q 1547 409 2034 409 
Q 2525 409 2770 889 
Q 3016 1369 3016 2328 
Q 3016 3291 2770 3770 
Q 2525 4250 2034 4250 
z
M 2034 4750 
Q 2819 4750 3233 4129 
Q 3647 3509 3647 2328 
Q 3647 1150 3233 529 
Q 2819 -91 2034 -91 
Q 1250 -91 836 529 
Q 422 1150 422 2328 
Q 422 3509 836 4129 
Q 1250 4750 2034 4750 
z
" transform="scale(0.015625)"/>
     </defs>
     <use xlink:href="#DejaVuSans-30"/>
    </g>
   </g>
   <g id="text_2">
    <!-- 0 -->
    <g transform="translate(259.808 22.8964) scale(0.128 -0.128)">
     <use xlink:href="#DejaVuSans-30"/>
    </g>
   </g>
   <g id="text_3">
    <!-- 0 -->
    <g transform="translate(282.128 22.8964) scale(0.128 -0.128)">
     <use xlink:href="#DejaVuSans-30"/>
    </g>
   </g>
   <g id="text_4">
    <!-- 0 -->
    <g transform="translate(36.608 45.2164) scale(0.128 -0.128)">
     <use xlink:href="#DejaVuSans-30"/>
    </g>
   </g>
   <g id="text_5">
    <!-- 0 -->
    <g transform="translate(237.488 45.2164) scale(0.128 -0.128)">
     <use xlink:href="#DejaVuSans-30"/>
    </g>
   </g>
   <g id="text_6">
    <!-- 0 -->
    <g transform="translate(282.128 45.2164) scale(0.128 -0.128)">
     <use xlink:href="#DejaVuSans-30"/>
    </g>
   </g>
   <g id="text_7">
    <!-- 0 -->
    <g transform="translate(58.928 67.5364) scale(0.128 -0.128)">
     <use xlink:href="#DejaVuSans-30"/>
    </g>
   </g>
   <g id="text_8">
    <!-- 0 -->
    <g transform="translate(215.168 67.5364) scale(0.128 -0.128)">
     <use xlink:href="#DejaVuSans-30"/>
    </g>
   </g>
   <g id="text_9">
    <!-- 0 -->
    <g transform="translate(282.128 67.5364) scale(0.128 -0.128)">
     <use xlink:href="#DejaVuSans-30"/>
    </g>
   </g>
   <g id="text_10">
    <!-- 0 -->
    <g transform="translate(81.248 89.8564) scale(0.128 -0.128)">
     <use xlink:href="#DejaVuSans-30"/>
    </g>
   </g>
   <g id="text_11">
    <!-- 0 -->
    <g transform="translate(192.848 89.8564) scale(0.128 -0.128)">
     <use xlink:href="#DejaVuSans-30"/>
    </g>
   </g>
   <g id="text_12">
    <!-- 0 -->
    <g transform="translate(282.128 89.8564) scale(0.128 -0.128)">
     <use xlink:href="#DejaVuSans-30"/>
    </g>
   </g>
   <g id="text_13">
    <!-- 0 -->
    <g transform="translate(103.568 112.1764) scale(0.128 -0.128)">
     <use xlink:href="#DejaVuSans-30"/>
    </g>
   </g>
   <g id="text_14">
    <!-- 0 -->
    <g transform="translate(170.528 112.1764) scale(0.128 -0.128)">
     <use xlink:href="#DejaVuSans-30"/>
    </g>
   </g>
   <g id="text_15">
    <!-- 0 -->
    <g transform="translate(282.128 112.1764) scale(0.128 -0.128)">
     <use xlink:href="#DejaVuSans-30"/>
    </g>
   </g>
   <g id="text_16">
    <!-- 0 -->
    <g transform="translate(125.888 134.4964) scale(0.128 -0.128)">
     <use xlink:href="#DejaVuSans-30"/>
    </g>
   </g>
   <g id="text_17">
    <!-- 0 -->
    <g transform="translate(148.208 134.4964) scale(0.128 -0.128)">
     <use xlink:href="#DejaVuSans-30"/>
    </g>
   </g>
   <g id="text_18">
    <!-- 0 -->
    <g transform="translate(282.128 134.4964) scale(0.128 -0.128)">
     <use xlink:href="#DejaVuSans-30"/>
    </g>
   </g>
  </g>
 </g>
 <defs>
  <clipPath id="p010b5aea14">
   <rect x="7.2" y="7.2" width="1116" height="133.92"/>
  </clipPath>
 </defs>
</svg>
