<?xml version="1.0" encoding="utf-8" standalone="no"?>
<!DOCTYPE svg PUBLIC "-//W3C//DTD SVG 1.1//EN"
  "http://www.w3.org/Graphics/SVG/1.1/DTD/svg11.dtd">
<svg xmlns:xlink="http://www.w3.org/1999/xlink" width="1130.4pt" height="237.6pt" viewBox="0 0 1130.4 237.6" xmlns="http://www.w3.org/2000/svg" version="1.1">
 <metadata>
  <rdf:RDF xmlns:dc="http://purl.org/dc/elements/1.1/" xmlns:cc="http://creativecommons.org/ns#" xmlns:rdf="http://www.w3.org/1999/02/22-rdf-syntax-ns#">
   <cc:Work>
    <dc:type rdf:resource="http://purl.org/dc/dcmitype/StillImage"/>
    <dc:date>2025-05-10T21:57:16.239721</dc:date>
    <dc:format>image/svg+xml</dc:format>
    <dc:creator>
     <cc:Agent>
      <dc:title>Matplotlib v3.6.3, https://matplotlib.org/</dc:title>
     </cc:Agent>
    </dc:creator>
   </cc:Work>
  </rdf:RDF>
 </metadata>
 <defs>
  <style type="text/css">*{stroke-linejoin: round; stroke-linecap: butt}</style>
 </defs>
 <g id="figure_1">
  <g id="patch_1">
   <path d="M 0 237.6 
L 1130.4 237.6 
L 1130.4 -0 
L 0 -0 
z
" style="fill: #ffffff"/>
  </g>
  <g id="axes_1">
   <g id="PatchCollection_1">
    <path d="M 7.2 29.52 
L 29.52 29.52 
L 29.52 7.2 
L 7.2 7.2 
z
" clip-path="url(#p17f0716758)" style="fill: #fcb225; stroke: #000000; stroke-width: 0.64"/>
    <path d="M 29.52 29.52 
L 51.84 29.52 
L 51.84 7.2 
L 29.52 7.2 
z
" clip-path="url(#p17f0716758)" style="fill: #fcb225; stroke: #000000; stroke-width: 0.64"/>
    <path d="M 453.6 29.52 
L 475.92 29.52 
L 475.92 7.2 
L 453.6 7.2 
z
" clip-path="url(#p17f0716758)" style="fill: #5add4a; stroke: #000000; stroke-width: 0.64"/>
    <path d="M 475.92 29.52 
L 498.24 29.52 
L 498.24 7.2 
L 475.92 7.2 
z
" clip-path="url(#p17f0716758)" style="fill: #5add4a; stroke: #000000; stroke-width: 0.64"/>
    <path d="M 498.24 29.52 
L 520.56 29.52 
L 520.56 7.2 
L 498.24 7.2 
z
" clip-path="url(#p17f0716758)" style="fill: #60bdfd; stroke: #000000; stroke-width: 0.64"/>
    <path d="M 520.56 29.52 
L 542.88 29.52 
L 542.88 7.2 
L 520.56 7.2 
z
" clip-path="url(#p17f0716758)" style="fill: #60bdfd; stroke: #000000; stroke-width: 0.64"/>
    <path d="M 29.52 51.84 
L 51.84 51.84 
L 51.84 29.52 
L 29.52 29.52 
z
" clip-path="url(#p17f0716758)" style="fill: #fcb225; stroke: #000000; stroke-width: 0.64"/>
    <path d="M 51.84 51.84 
L 74.16 51.84 
L 74.16 29.52 
L 51.84 29.52 
z
" clip-path="url(#p17f0716758)" style="fill: #fcb225; stroke: #000000; stroke-width: 0.64"/>
    <path d="M 431.28 51.84 
L 453.6 51.84 
L 453.6 29.52 
L 431.28 29.52 
z
" clip-path="url(#p17f0716758)" style="fill: #5add4a; stroke: #000000; stroke-width: 0.64"/>
    <path d="M 453.6 51.84 
L 475.92 51.84 
L 475.92 29.52 
L 453.6 29.52 
z
" clip-path="url(#p17f0716758)" style="fill: #5add4a; stroke: #000000; stroke-width: 0.64"/>
    <path d="M 498.24 51.84 
L 520.56 51.84 
L 520.56 29.52 
L 498.24 29.52 
z
" clip-path="url(#p17f0716758)" style="fill: #60bdfd; stroke: #000000; stroke-width: 0.64"/>
    <path d="M 520.56 51.84 
L 542.88 51.84 
L 542.88 29.52 
L 520.56 29.52 
z
" clip-path="url(#p17f0716758)" style="fill: #60bdfd; stroke: #000000; stroke-width: 0.64"/>
    <path d="M 51.84 74.16 
L 74.16 74.16 
L 74.16 51.84 
L 51.84 51.84 
z
" clip-path="url(#p17f0716758)" style="fill: #fcb225; stroke: #000000; stroke-width: 0.64"/>
    <path d="M 74.16 74.16 
L 96.48 74.16 
L 96.48 51.84 
L 74.16 51.84 
z
" clip-path="url(#p17f0716758)" style="fill: #fcb225; stroke: #000000; stroke-width: 0.64"/>
    <path d="M 408.96 74.16 
L 431.28 74.16 
L 431.28 51.84 
L 408.96 51.84 
z
" clip-path="url(#p17f0716758)" style="fill: #5add4a; stroke: #000000; stroke-width: 0.64"/>
    <path d="M 431.28 74.16 
L 453.6 74.16 
L 453.6 51.84 
L 431.28 51.84 
z
" clip-path="url(#p17f0716758)" style="fill: #5add4a; stroke: #000000; stroke-width: 0.64"/>
    <path d="M 498.24 74.16 
L 520.56 74.16 
L 520.56 51.84 
L 498.24 51.84 
z
" clip-path="url(#p17f0716758)" style="fill: #60bdfd; stroke: #000000; stroke-width: 0.64"/>
    <path d="M 520.56 74.16 
L 542.88 74.16 
L 542.88 51.84 
L 520.56 51.84 
z
" clip-path="url(#p17f0716758)" style="fill: #60bdfd; stroke: #000000; stroke-width: 0.64"/>
    <path d="M 74.16 96.48 
L 96.48 96.48 
L 96.48 74.16 
L 74.16 74.16 
z
" clip-path="url(#p17f0716758)" style="fill: #fcb225; stroke: #000000; stroke-width: 0.64"/>
    <path d="M 96.48 96.48 
L 118.8 96.48 
L 118.8 74.16 
L 96.48 74.16 
z
" clip-path="url(#p17f0716758)" style="fill: #fcb225; stroke: #000000; stroke-width: 0.64"/>
    <path d="M 386.64 96.48 
L 408.96 96.48 
L 408.96 74.16 
L 386.64 74.16 
z
" clip-path="url(#p17f0716758)" style="fill: #5add4a; stroke: #000000; stroke-width: 0.64"/>
    <path d="M 408.96 96.48 
L 431.28 96.48 
L 431.28 74.16 
L 408.96 74.16 
z
" clip-path="url(#p17f0716758)" style="fill: #5add4a; stroke: #000000; stroke-width: 0.64"/>
    <path d="M 498.24 96.48 
L 520.56 96.48 
L 520.56 74.16 
L 498.24 74.16 
z
" clip-path="url(#p17f0716758)" style="fill: #60bdfd; stroke: #000000; stroke-width: 0.64"/>
    <path d="M 520.56 96.48 
L 542.88 96.48 
L 542.88 74.16 
L 520.56 74.16 
z
" clip-path="url(#p17f0716758)" style="fill: #60bdfd; stroke: #000000; stroke-width: 0.64"/>
    <path d="M 96.48 118.8 
L 118.8 118.8 
L 118.8 96.48 
L 96.48 96.48 
z
" clip-path="url(#p17f0716758)" style="fill: #fcb225; stroke: #000000; stroke-width: 0.64"/>
    <path d="M 118.8 118.8 
L 141.12 118.8 
L 141.12 96.48 
L 118.8 96.48 
z
" clip-path="url(#p17f0716758)" style="fill: #fcb225; stroke: #000000; stroke-width: 0.64"/>
    <path d="M 364.32 118.8 
L 386.64 118.8 
L 386.64 96.48 
L 364.32 96.48 
z
" clip-path="url(#p17f0716758)" style="fill: #5add4a; stroke: #000000; stroke-width: 0.64"/>
    <path d="M 386.64 118.8 
L 408.96 118.8 
L 408.96 96.48 
L 386.64 96.48 
z
" clip-path="url(#p17f0716758)" style="fill: #5add4a; stroke: #000000; stroke-width: 0.64"/>
    <path d="M 498.24 118.8 
L 520.56 118.8 
L 520.56 96.48 
L 498.24 96.48 
z
" clip-path="url(#p17f0716758)" style="fill: #60bdfd; stroke: #000000; stroke-width: 0.64"/>
    <path d="M 520.56 118.8 
L 542.88 118.8 
L 542.88 96.48 
L 520.56 96.48 
z
" clip-path="url(#p17f0716758)" style="fill: #60bdfd; stroke: #000000; stroke-width: 0.64"/>
    <path d="M 118.8 141.12 
L 141.12 141.12 
L 141.12 118.8 
L 118.8 118.8 
z
" clip-path="url(#p17f0716758)" style="fill: #fcb225; stroke: #000000; stroke-width: 0.64"/>
    <path d="M 141.12 141.12 
L 163.44 141.12 
L 163.44 118.8 
L 141.12 118.8 
z
" clip-path="url(#p17f0716758)" style="fill: #fcb225; stroke: #000000; stroke-width: 0.64"/>
    <path d="M 342 141.12 
L 364.32 141.12 
L 364.32 118.8 
L 342 118.8 
z
" clip-path="url(#p17f0716758)" style="fill: #5add4a; stroke: #000000; stroke-width: 0.64"/>
    <path d="M 364.32 141.12 
L 386.64 141.12 
L 386.64 118.8 
L 364.32 118.8 
z
" clip-path="url(#p17f0716758)" style="fill: #5add4a; stroke: #000000; stroke-width: 0.64"/>
    <path d="M 498.24 141.12 
L 520.56 141.12 
L 520.56 118.8 
L 498.24 118.8 
z
" clip-path="url(#p17f0716758)" style="fill: #60bdfd; stroke: #000000; stroke-width: 0.64"/>
    <path d="M 520.56 141.12 
L 542.88 141.12 
L 542.88 118.8 
L 520.56 118.8 
z
" clip-path="url(#p17f0716758)" style="fill: #60bdfd; stroke: #000000; stroke-width: 0.64"/>
    <path d="M 141.12 163.44 
L 163.44 163.44 
L 163.44 141.12 
L 141.12 141.12 
z
" clip-path="url(#p17f0716758)" style="fill: #fcb225; stroke: #000000; stroke-width: 0.64"/>
    <path d="M 163.44 163.44 
L 185.76 163.44 
L 185.76 141.12 
L 163.44 141.12 
z
" clip-path="url(#p17f0716758)" style="fill: #fcb225; stroke: #000000; stroke-width: 0.64"/>
    <path d="M 319.68 163.44 
L 342 163.44 
L 342 141.12 
L 319.68 141.12 
z
" clip-path="url(#p17f0716758)" style="fill: #5add4a; stroke: #000000; stroke-width: 0.64"/>
    <path d="M 342 163.44 
L 364.32 163.44 
L 364.32 141.12 
L 342 141.12 
z
" clip-path="url(#p17f0716758)" style="fill: #5add4a; stroke: #000000; stroke-width: 0.64"/>
    <path d="M 498.24 163.44 
L 520.56 163.44 
L 520.56 141.12 
L 498.24 141.12 
z
" clip-path="url(#p17f0716758)" style="fill: #60bdfd; stroke: #000000; stroke-width: 0.64"/>
    <path d="M 520.56 163.44 
L 542.88 163.44 
L 542.88 141.12 
L 520.56 141.12 
z
" clip-path="url(#p17f0716758)" style="fill: #60bdfd; stroke: #000000; stroke-width: 0.64"/>
    <path d="M 163.44 185.76 
L 185.76 185.76 
L 185.76 163.44 
L 163.44 163.44 
z
" clip-path="url(#p17f0716758)" style="fill: #fcb225; stroke: #000000; stroke-width: 0.64"/>
    <path d="M 185.76 185.76 
L 208.08 185.76 
L 208.08 163.44 
L 185.76 163.44 
z
" clip-path="url(#p17f0716758)" style="fill: #fcb225; stroke: #000000; stroke-width: 0.64"/>
    <path d="M 297.36 185.76 
L 319.68 185.76 
L 319.68 163.44 
L 297.36 163.44 
z
" clip-path="url(#p17f0716758)" style="fill: #5add4a; stroke: #000000; stroke-width: 0.64"/>
    <path d="M 319.68 185.76 
L 342 185.76 
L 342 163.44 
L 319.68 163.44 
z
" clip-path="url(#p17f0716758)" style="fill: #5add4a; stroke: #000000; stroke-width: 0.64"/>
    <path d="M 498.24 185.76 
L 520.56 185.76 
L 520.56 163.44 
L 498.24 163.44 
z
" clip-path="url(#p17f0716758)" style="fill: #60bdfd; stroke: #000000; stroke-width: 0.64"/>
    <path d="M 520.56 185.76 
L 542.88 185.76 
L 542.88 163.44 
L 520.56 163.44 
z
" clip-path="url(#p17f0716758)" style="fill: #60bdfd; stroke: #000000; stroke-width: 0.64"/>
    <path d="M 185.76 208.08 
L 208.08 208.08 
L 208.08 185.76 
L 185.76 185.76 
z
" clip-path="url(#p17f0716758)" style="fill: #fcb225; stroke: #000000; stroke-width: 0.64"/>
    <path d="M 208.08 208.08 
L 230.4 208.08 
L 230.4 185.76 
L 208.08 185.76 
z
" clip-path="url(#p17f0716758)" style="fill: #fcb225; stroke: #000000; stroke-width: 0.64"/>
    <path d="M 275.04 208.08 
L 297.36 208.08 
L 297.36 185.76 
L 275.04 185.76 
z
" clip-path="url(#p17f0716758)" style="fill: #5add4a; stroke: #000000; stroke-width: 0.64"/>
    <path d="M 297.36 208.08 
L 319.68 208.08 
L 319.68 185.76 
L 297.36 185.76 
z
" clip-path="url(#p17f0716758)" style="fill: #5add4a; stroke: #000000; stroke-width: 0.64"/>
    <path d="M 498.24 208.08 
L 520.56 208.08 
L 520.56 185.76 
L 498.24 185.76 
z
" clip-path="url(#p17f0716758)" style="fill: #60bdfd; stroke: #000000; stroke-width: 0.64"/>
    <path d="M 520.56 208.08 
L 542.88 208.08 
L 542.88 185.76 
L 520.56 185.76 
z
" clip-path="url(#p17f0716758)" style="fill: #60bdfd; stroke: #000000; stroke-width: 0.64"/>
    <path d="M 208.08 230.4 
L 230.4 230.4 
L 230.4 208.08 
L 208.08 208.08 
z
" clip-path="url(#p17f0716758)" style="fill: #fcb225; stroke: #000000; stroke-width: 0.64"/>
    <path d="M 230.4 230.4 
L 252.72 230.4 
L 252.72 208.08 
L 230.4 208.08 
z
" clip-path="url(#p17f0716758)" style="fill: #fcb225; stroke: #000000; stroke-width: 0.64"/>
    <path d="M 252.72 230.4 
L 275.04 230.4 
L 275.04 208.08 
L 252.72 208.08 
z
" clip-path="url(#p17f0716758)" style="fill: #5add4a; stroke: #000000; stroke-width: 0.64"/>
    <path d="M 275.04 230.4 
L 297.36 230.4 
L 297.36 208.08 
L 275.04 208.08 
z
" clip-path="url(#p17f0716758)" style="fill: #5add4a; stroke: #000000; stroke-width: 0.64"/>
    <path d="M 498.24 230.4 
L 520.56 230.4 
L 520.56 208.08 
L 498.24 208.08 
z
" clip-path="url(#p17f0716758)" style="fill: #60bdfd; stroke: #000000; stroke-width: 0.64"/>
    <path d="M 520.56 230.4 
L 542.88 230.4 
L 542.88 208.08 
L 520.56 208.08 
z
" clip-path="url(#p17f0716758)" style="fill: #60bdfd; stroke: #000000; stroke-width: 0.64"/>
   </g>
   <g id="text_1">
    <!-- 0 -->
    <g transform="translate(14.288 22.8964) scale(0.128 -0.128)">
     <defs>
      <path id="DejaVuSans-30" d="M 2034 4250 
Q 1547 4250 1301 3770 
Q 1056 3291 1056 2328 
Q 1056 1369 1301 889 
Q 1547 409 2034 409 
Q 2525 409 2770 889 
Q 3016 1369 3016 2328 
Q 3016 3291 2770 3770 
Q 2525 4250 2034 4250 
z
M 2034 4750 
Q 2819 4750 3233 4129 
Q 3647 3509 3647 2328 
Q 3647 1150 3233 529 
Q 2819 -91 2034 -91 
Q 1250 -91 836 529 
Q 422 1150 422 2328 
Q 422 3509 836 4129 
Q 1250 4750 2034 4750 
z
" transform="scale(0.015625)"/>
     </defs>
     <use xlink:href="#DejaVuSans-30"/>
    </g>
   </g>
   <g id="text_2">
    <!-- 1 -->
    <g transform="translate(36.608 22.8964) scale(0.128 -0.128)">
     <defs>
      <path id="DejaVuSans-31" d="M 794 531 
L 1825 531 
L 1825 4091 
L 703 3866 
L 703 4441 
L 1819 4666 
L 2450 4666 
L 2450 531 
L 3481 531 
L 3481 0 
L 794 0 
L 794 531 
z
" transform="scale(0.015625)"/>
     </defs>
     <use xlink:href="#DejaVuSans-31"/>
    </g>
   </g>
   <g id="text_3">
    <!-- 0 -->
    <g transform="translate(460.688 22.8964) scale(0.128 -0.128)">
     <use xlink:href="#DejaVuSans-30"/>
    </g>
   </g>
   <g id="text_4">
    <!-- 1 -->
    <g transform="translate(483.008 22.8964) scale(0.128 -0.128)">
     <use xlink:href="#DejaVuSans-31"/>
    </g>
   </g>
   <g id="text_5">
    <!-- 0 -->
    <g transform="translate(505.328 22.8964) scale(0.128 -0.128)">
     <use xlink:href="#DejaVuSans-30"/>
    </g>
   </g>
   <g id="text_6">
    <!-- 1 -->
    <g transform="translate(527.648 22.8964) scale(0.128 -0.128)">
     <use xlink:href="#DejaVuSans-31"/>
    </g>
   </g>
   <g id="text_7">
    <!-- 0 -->
    <g transform="translate(36.608 45.2164) scale(0.128 -0.128)">
     <use xlink:href="#DejaVuSans-30"/>
    </g>
   </g>
   <g id="text_8">
    <!-- 1 -->
    <g transform="translate(58.928 45.2164) scale(0.128 -0.128)">
     <use xlink:href="#DejaVuSans-31"/>
    </g>
   </g>
   <g id="text_9">
    <!-- 0 -->
    <g transform="translate(438.368 45.2164) scale(0.128 -0.128)">
     <use xlink:href="#DejaVuSans-30"/>
    </g>
   </g>
   <g id="text_10">
    <!-- 1 -->
    <g transform="translate(460.688 45.2164) scale(0.128 -0.128)">
     <use xlink:href="#DejaVuSans-31"/>
    </g>
   </g>
   <g id="text_11">
    <!-- 0 -->
    <g transform="translate(505.328 45.2164) scale(0.128 -0.128)">
     <use xlink:href="#DejaVuSans-30"/>
    </g>
   </g>
   <g id="text_12">
    <!-- 1 -->
    <g transform="translate(527.648 45.2164) scale(0.128 -0.128)">
     <use xlink:href="#DejaVuSans-31"/>
    </g>
   </g>
   <g id="text_13">
    <!-- 0 -->
    <g transform="translate(58.928 67.5364) scale(0.128 -0.128)">
     <use xlink:href="#DejaVuSans-30"/>
    </g>
   </g>
   <g id="text_14">
    <!-- 1 -->
    <g transform="translate(81.248 67.5364) scale(0.128 -0.128)">
     <use xlink:href="#DejaVuSans-31"/>
    </g>
   </g>
   <g id="text_15">
    <!-- 0 -->
    <g transform="translate(416.048 67.5364) scale(0.128 -0.128)">
     <use xlink:href="#DejaVuSans-30"/>
    </g>
   </g>
   <g id="text_16">
    <!-- 1 -->
    <g transform="translate(438.368 67.5364) scale(0.128 -0.128)">
     <use xlink:href="#DejaVuSans-31"/>
    </g>
   </g>
   <g id="text_17">
    <!-- 0 -->
    <g transform="translate(505.328 67.5364) scale(0.128 -0.128)">
     <use xlink:href="#DejaVuSans-30"/>
    </g>
   </g>
   <g id="text_18">
    <!-- 1 -->
    <g transform="translate(527.648 67.5364) scale(0.128 -0.128)">
     <use xlink:href="#DejaVuSans-31"/>
    </g>
   </g>
   <g id="text_19">
    <!-- 0 -->
    <g transform="translate(81.248 89.8564) scale(0.128 -0.128)">
     <use xlink:href="#DejaVuSans-30"/>
    </g>
   </g>
   <g id="text_20">
    <!-- 1 -->
    <g transform="translate(103.568 89.8564) scale(0.128 -0.128)">
     <use xlink:href="#DejaVuSans-31"/>
    </g>
   </g>
   <g id="text_21">
    <!-- 0 -->
    <g transform="translate(393.728 89.8564) scale(0.128 -0.128)">
     <use xlink:href="#DejaVuSans-30"/>
    </g>
   </g>
   <g id="text_22">
    <!-- 1 -->
    <g transform="translate(416.048 89.8564) scale(0.128 -0.128)">
     <use xlink:href="#DejaVuSans-31"/>
    </g>
   </g>
   <g id="text_23">
    <!-- 0 -->
    <g transform="translate(505.328 89.8564) scale(0.128 -0.128)">
     <use xlink:href="#DejaVuSans-30"/>
    </g>
   </g>
   <g id="text_24">
    <!-- 1 -->
    <g transform="translate(527.648 89.8564) scale(0.128 -0.128)">
     <use xlink:href="#DejaVuSans-31"/>
    </g>
   </g>
   <g id="text_25">
    <!-- 0 -->
    <g transform="translate(103.568 112.1764) scale(0.128 -0.128)">
     <use xlink:href="#DejaVuSans-30"/>
    </g>
   </g>
   <g id="text_26">
    <!-- 1 -->
    <g transform="translate(125.888 112.1764) scale(0.128 -0.128)">
     <use xlink:href="#DejaVuSans-31"/>
    </g>
   </g>
   <g id="text_27">
    <!-- 0 -->
    <g transform="translate(371.408 112.1764) scale(0.128 -0.128)">
     <use xlink:href="#DejaVuSans-30"/>
    </g>
   </g>
   <g id="text_28">
    <!-- 1 -->
    <g transform="translate(393.728 112.1764) scale(0.128 -0.128)">
     <use xlink:href="#DejaVuSans-31"/>
    </g>
   </g>
   <g id="text_29">
    <!-- 0 -->
    <g transform="translate(505.328 112.1764) scale(0.128 -0.128)">
     <use xlink:href="#DejaVuSans-30"/>
    </g>
   </g>
   <g id="text_30">
    <!-- 1 -->
    <g transform="translate(527.648 112.1764) scale(0.128 -0.128)">
     <use xlink:href="#DejaVuSans-31"/>
    </g>
   </g>
   <g id="text_31">
    <!-- 0 -->
    <g transform="translate(125.888 134.4964) scale(0.128 -0.128)">
     <use xlink:href="#DejaVuSans-30"/>
    </g>
   </g>
   <g id="text_32">
    <!-- 1 -->
    <g transform="translate(148.208 134.4964) scale(0.128 -0.128)">
     <use xlink:href="#DejaVuSans-31"/>
    </g>
   </g>
   <g id="text_33">
    <!-- 0 -->
    <g transform="translate(349.088 134.4964) scale(0.128 -0.128)">
     <use xlink:href="#DejaVuSans-30"/>
    </g>
   </g>
   <g id="text_34">
    <!-- 1 -->
    <g transform="translate(371.408 134.4964) scale(0.128 -0.128)">
     <use xlink:href="#DejaVuSans-31"/>
    </g>
   </g>
   <g id="text_35">
    <!-- 0 -->
    <g transform="translate(505.328 134.4964) scale(0.128 -0.128)">
     <use xlink:href="#DejaVuSans-30"/>
    </g>
   </g>
   <g id="text_36">
    <!-- 1 -->
    <g transform="translate(527.648 134.4964) scale(0.128 -0.128)">
     <use xlink:href="#DejaVuSans-31"/>
    </g>
   </g>
   <g id="text_37">
    <!-- 0 -->
    <g transform="translate(148.208 156.8164) scale(0.128 -0.128)">
     <use xlink:href="#DejaVuSans-30"/>
    </g>
   </g>
   <g id="text_38">
    <!-- 1 -->
    <g transform="translate(170.528 156.8164) scale(0.128 -0.128)">
     <use xlink:href="#DejaVuSans-31"/>
    </g>
   </g>
   <g id="text_39">
    <!-- 0 -->
    <g transform="translate(326.768 156.8164) scale(0.128 -0.128)">
     <use xlink:href="#DejaVuSans-30"/>
    </g>
   </g>
   <g id="text_40">
    <!-- 1 -->
    <g transform="translate(349.088 156.8164) scale(0.128 -0.128)">
     <use xlink:href="#DejaVuSans-31"/>
    </g>
   </g>
   <g id="text_41">
    <!-- 0 -->
    <g transform="translate(505.328 156.8164) scale(0.128 -0.128)">
     <use xlink:href="#DejaVuSans-30"/>
    </g>
   </g>
   <g id="text_42">
    <!-- 1 -->
    <g transform="translate(527.648 156.8164) scale(0.128 -0.128)">
     <use xlink:href="#DejaVuSans-31"/>
    </g>
   </g>
   <g id="text_43">
    <!-- 0 -->
    <g transform="translate(170.528 179.1364) scale(0.128 -0.128)">
     <use xlink:href="#DejaVuSans-30"/>
    </g>
   </g>
   <g id="text_44">
    <!-- 1 -->
    <g transform="translate(192.848 179.1364) scale(0.128 -0.128)">
     <use xlink:href="#DejaVuSans-31"/>
    </g>
   </g>
   <g id="text_45">
    <!-- 0 -->
    <g transform="translate(304.448 179.1364) scale(0.128 -0.128)">
     <use xlink:href="#DejaVuSans-30"/>
    </g>
   </g>
   <g id="text_46">
    <!-- 1 -->
    <g transform="translate(326.768 179.1364) scale(0.128 -0.128)">
     <use xlink:href="#DejaVuSans-31"/>
    </g>
   </g>
   <g id="text_47">
    <!-- 0 -->
    <g transform="translate(505.328 179.1364) scale(0.128 -0.128)">
     <use xlink:href="#DejaVuSans-30"/>
    </g>
   </g>
   <g id="text_48">
    <!-- 1 -->
    <g transform="translate(527.648 179.1364) scale(0.128 -0.128)">
     <use xlink:href="#DejaVuSans-31"/>
    </g>
   </g>
   <g id="text_49">
    <!-- 0 -->
    <g transform="translate(192.848 201.4564) scale(0.128 -0.128)">
     <use xlink:href="#DejaVuSans-30"/>
    </g>
   </g>
   <g id="text_50">
    <!-- 1 -->
    <g transform="translate(215.168 201.4564) scale(0.128 -0.128)">
     <use xlink:href="#DejaVuSans-31"/>
    </g>
   </g>
   <g id="text_51">
    <!-- 0 -->
    <g transform="translate(282.128 201.4564) scale(0.128 -0.128)">
     <use xlink:href="#DejaVuSans-30"/>
    </g>
   </g>
   <g id="text_52">
    <!-- 1 -->
    <g transform="translate(304.448 201.4564) scale(0.128 -0.128)">
     <use xlink:href="#DejaVuSans-31"/>
    </g>
   </g>
   <g id="text_53">
    <!-- 0 -->
    <g transform="translate(505.328 201.4564) scale(0.128 -0.128)">
     <use xlink:href="#DejaVuSans-30"/>
    </g>
   </g>
   <g id="text_54">
    <!-- 1 -->
    <g transform="translate(527.648 201.4564) scale(0.128 -0.128)">
     <use xlink:href="#DejaVuSans-31"/>
    </g>
   </g>
   <g id="text_55">
    <!-- 0 -->
    <g transform="translate(215.168 223.7764) scale(0.128 -0.128)">
     <use xlink:href="#DejaVuSans-30"/>
    </g>
   </g>
   <g id="text_56">
    <!-- 1 -->
    <g transform="translate(237.488 223.7764) scale(0.128 -0.128)">
     <use xlink:href="#DejaVuSans-31"/>
    </g>
   </g>
   <g id="text_57">
    <!-- 0 -->
    <g transform="translate(259.808 223.7764) scale(0.128 -0.128)">
     <use xlink:href="#DejaVuSans-30"/>
    </g>
   </g>
   <g id="text_58">
    <!-- 1 -->
    <g transform="translate(282.128 223.7764) scale(0.128 -0.128)">
     <use xlink:href="#DejaVuSans-31"/>
    </g>
   </g>
   <g id="text_59">
    <!-- 0 -->
    <g transform="translate(505.328 223.7764) scale(0.128 -0.128)">
     <use xlink:href="#DejaVuSans-30"/>
    </g>
   </g>
   <g id="text_60">
    <!-- 1 -->
    <g transform="translate(527.648 223.7764) scale(0.128 -0.128)">
     <use xlink:href="#DejaVuSans-31"/>
    </g>
   </g>
  </g>
 </g>
 <defs>
  <clipPath id="p17f0716758">
   <rect x="7.2" y="7.2" width="1116" height="223.2"/>
  </clipPath>
 </defs>
</svg>
