<?xml version="1.0" encoding="utf-8" standalone="no"?>
<!DOCTYPE svg PUBLIC "-//W3C//DTD SVG 1.1//EN"
  "http://www.w3.org/Graphics/SVG/1.1/DTD/svg11.dtd">
<svg xmlns:xlink="http://www.w3.org/1999/xlink" width="1130.4pt" height="81.36pt" viewBox="0 0 1130.4 81.36" xmlns="http://www.w3.org/2000/svg" version="1.1">
 <metadata>
  <rdf:RDF xmlns:dc="http://purl.org/dc/elements/1.1/" xmlns:cc="http://creativecommons.org/ns#" xmlns:rdf="http://www.w3.org/1999/02/22-rdf-syntax-ns#">
   <cc:Work>
    <dc:type rdf:resource="http://purl.org/dc/dcmitype/StillImage"/>
    <dc:date>2025-05-10T21:57:17.379975</dc:date>
    <dc:format>image/svg+xml</dc:format>
    <dc:creator>
     <cc:Agent>
      <dc:title>Matplotlib v3.6.3, https://matplotlib.org/</dc:title>
     </cc:Agent>
    </dc:creator>
   </cc:Work>
  </rdf:RDF>
 </metadata>
 <defs>
  <style type="text/css">*{stroke-linejoin: round; stroke-linecap: butt}</style>
 </defs>
 <g id="figure_1">
  <g id="patch_1">
   <path d="M 0 81.36 
L 1130.4 81.36 
L 1130.4 0 
L 0 0 
z
" style="fill: #ffffff"/>
  </g>
  <g id="axes_1">
   <g id="PatchCollection_1">
    <path d="M 7.2 29.52 
L 29.52 29.52 
L 29.52 7.2 
L 7.2 7.2 
z
" clip-path="url(#p92bc338d34)" style="fill: #fcb225; stroke: #000000; stroke-width: 0.64"/>
    <path d="M 29.52 29.52 
L 51.84 29.52 
L 51.84 7.2 
L 29.52 7.2 
z
" clip-path="url(#p92bc338d34)" style="fill: #fcb225; stroke: #000000; stroke-width: 0.64"/>
    <path d="M 51.84 29.52 
L 74.16 29.52 
L 74.16 7.2 
L 51.84 7.2 
z
" clip-path="url(#p92bc338d34)" style="fill: #fcb225; stroke: #000000; stroke-width: 0.64"/>
    <path d="M 74.16 29.52 
L 96.48 29.52 
L 96.48 7.2 
L 74.16 7.2 
z
" clip-path="url(#p92bc338d34)" style="fill: #fcb225; stroke: #000000; stroke-width: 0.64"/>
    <path d="M 185.76 29.52 
L 208.08 29.52 
L 208.08 7.2 
L 185.76 7.2 
z
" clip-path="url(#p92bc338d34)" style="fill: #5add4a; stroke: #000000; stroke-width: 0.64"/>
    <path d="M 208.08 29.52 
L 230.4 29.52 
L 230.4 7.2 
L 208.08 7.2 
z
" clip-path="url(#p92bc338d34)" style="fill: #5add4a; stroke: #000000; stroke-width: 0.64"/>
    <path d="M 230.4 29.52 
L 252.72 29.52 
L 252.72 7.2 
L 230.4 7.2 
z
" clip-path="url(#p92bc338d34)" style="fill: #5add4a; stroke: #000000; stroke-width: 0.64"/>
    <path d="M 252.72 29.52 
L 275.04 29.52 
L 275.04 7.2 
L 252.72 7.2 
z
" clip-path="url(#p92bc338d34)" style="fill: #5add4a; stroke: #000000; stroke-width: 0.64"/>
    <path d="M 275.04 29.52 
L 297.36 29.52 
L 297.36 7.2 
L 275.04 7.2 
z
" clip-path="url(#p92bc338d34)" style="fill: #60bdfd; stroke: #000000; stroke-width: 0.64"/>
    <path d="M 297.36 29.52 
L 319.68 29.52 
L 319.68 7.2 
L 297.36 7.2 
z
" clip-path="url(#p92bc338d34)" style="fill: #60bdfd; stroke: #000000; stroke-width: 0.64"/>
    <path d="M 319.68 29.52 
L 342 29.52 
L 342 7.2 
L 319.68 7.2 
z
" clip-path="url(#p92bc338d34)" style="fill: #60bdfd; stroke: #000000; stroke-width: 0.64"/>
    <path d="M 342 29.52 
L 364.32 29.52 
L 364.32 7.2 
L 342 7.2 
z
" clip-path="url(#p92bc338d34)" style="fill: #60bdfd; stroke: #000000; stroke-width: 0.64"/>
    <path d="M 29.52 51.84 
L 51.84 51.84 
L 51.84 29.52 
L 29.52 29.52 
z
" clip-path="url(#p92bc338d34)" style="fill: #fcb225; stroke: #000000; stroke-width: 0.64"/>
    <path d="M 51.84 51.84 
L 74.16 51.84 
L 74.16 29.52 
L 51.84 29.52 
z
" clip-path="url(#p92bc338d34)" style="fill: #fcb225; stroke: #000000; stroke-width: 0.64"/>
    <path d="M 74.16 51.84 
L 96.48 51.84 
L 96.48 29.52 
L 74.16 29.52 
z
" clip-path="url(#p92bc338d34)" style="fill: #fcb225; stroke: #000000; stroke-width: 0.64"/>
    <path d="M 96.48 51.84 
L 118.8 51.84 
L 118.8 29.52 
L 96.48 29.52 
z
" clip-path="url(#p92bc338d34)" style="fill: #fcb225; stroke: #000000; stroke-width: 0.64"/>
    <path d="M 163.44 51.84 
L 185.76 51.84 
L 185.76 29.52 
L 163.44 29.52 
z
" clip-path="url(#p92bc338d34)" style="fill: #5add4a; stroke: #000000; stroke-width: 0.64"/>
    <path d="M 185.76 51.84 
L 208.08 51.84 
L 208.08 29.52 
L 185.76 29.52 
z
" clip-path="url(#p92bc338d34)" style="fill: #5add4a; stroke: #000000; stroke-width: 0.64"/>
    <path d="M 208.08 51.84 
L 230.4 51.84 
L 230.4 29.52 
L 208.08 29.52 
z
" clip-path="url(#p92bc338d34)" style="fill: #5add4a; stroke: #000000; stroke-width: 0.64"/>
    <path d="M 230.4 51.84 
L 252.72 51.84 
L 252.72 29.52 
L 230.4 29.52 
z
" clip-path="url(#p92bc338d34)" style="fill: #5add4a; stroke: #000000; stroke-width: 0.64"/>
    <path d="M 275.04 51.84 
L 297.36 51.84 
L 297.36 29.52 
L 275.04 29.52 
z
" clip-path="url(#p92bc338d34)" style="fill: #60bdfd; stroke: #000000; stroke-width: 0.64"/>
    <path d="M 297.36 51.84 
L 319.68 51.84 
L 319.68 29.52 
L 297.36 29.52 
z
" clip-path="url(#p92bc338d34)" style="fill: #60bdfd; stroke: #000000; stroke-width: 0.64"/>
    <path d="M 319.68 51.84 
L 342 51.84 
L 342 29.52 
L 319.68 29.52 
z
" clip-path="url(#p92bc338d34)" style="fill: #60bdfd; stroke: #000000; stroke-width: 0.64"/>
    <path d="M 342 51.84 
L 364.32 51.84 
L 364.32 29.52 
L 342 29.52 
z
" clip-path="url(#p92bc338d34)" style="fill: #60bdfd; stroke: #000000; stroke-width: 0.64"/>
    <path d="M 51.84 74.16 
L 74.16 74.16 
L 74.16 51.84 
L 51.84 51.84 
z
" clip-path="url(#p92bc338d34)" style="fill: #fcb225; stroke: #000000; stroke-width: 0.64"/>
    <path d="M 74.16 74.16 
L 96.48 74.16 
L 96.48 51.84 
L 74.16 51.84 
z
" clip-path="url(#p92bc338d34)" style="fill: #fcb225; stroke: #000000; stroke-width: 0.64"/>
    <path d="M 96.48 74.16 
L 118.8 74.16 
L 118.8 51.84 
L 96.48 51.84 
z
" clip-path="url(#p92bc338d34)" style="fill: #fcb225; stroke: #000000; stroke-width: 0.64"/>
    <path d="M 118.8 74.16 
L 141.12 74.16 
L 141.12 51.84 
L 118.8 51.84 
z
" clip-path="url(#p92bc338d34)" style="fill: #fcb225; stroke: #000000; stroke-width: 0.64"/>
    <path d="M 141.12 74.16 
L 163.44 74.16 
L 163.44 51.84 
L 141.12 51.84 
z
" clip-path="url(#p92bc338d34)" style="fill: #5add4a; stroke: #000000; stroke-width: 0.64"/>
    <path d="M 163.44 74.16 
L 185.76 74.16 
L 185.76 51.84 
L 163.44 51.84 
z
" clip-path="url(#p92bc338d34)" style="fill: #5add4a; stroke: #000000; stroke-width: 0.64"/>
    <path d="M 185.76 74.16 
L 208.08 74.16 
L 208.08 51.84 
L 185.76 51.84 
z
" clip-path="url(#p92bc338d34)" style="fill: #5add4a; stroke: #000000; stroke-width: 0.64"/>
    <path d="M 208.08 74.16 
L 230.4 74.16 
L 230.4 51.84 
L 208.08 51.84 
z
" clip-path="url(#p92bc338d34)" style="fill: #5add4a; stroke: #000000; stroke-width: 0.64"/>
    <path d="M 275.04 74.16 
L 297.36 74.16 
L 297.36 51.84 
L 275.04 51.84 
z
" clip-path="url(#p92bc338d34)" style="fill: #60bdfd; stroke: #000000; stroke-width: 0.64"/>
    <path d="M 297.36 74.16 
L 319.68 74.16 
L 319.68 51.84 
L 297.36 51.84 
z
" clip-path="url(#p92bc338d34)" style="fill: #60bdfd; stroke: #000000; stroke-width: 0.64"/>
    <path d="M 319.68 74.16 
L 342 74.16 
L 342 51.84 
L 319.68 51.84 
z
" clip-path="url(#p92bc338d34)" style="fill: #60bdfd; stroke: #000000; stroke-width: 0.64"/>
    <path d="M 342 74.16 
L 364.32 74.16 
L 364.32 51.84 
L 342 51.84 
z
" clip-path="url(#p92bc338d34)" style="fill: #60bdfd; stroke: #000000; stroke-width: 0.64"/>
   </g>
   <g id="text_1">
    <!-- 0 -->
    <g transform="translate(14.288 22.8964) scale(0.128 -0.128)">
     <defs>
      <path id="DejaVuSans-30" d="M 2034 4250 
Q 1547 4250 1301 3770 
Q 1056 3291 1056 2328 
Q 1056 1369 1301 889 
Q 1547 409 2034 409 
Q 2525 409 2770 889 
Q 3016 1369 3016 2328 
Q 3016 3291 2770 3770 
Q 2525 4250 2034 4250 
z
M 2034 4750 
Q 2819 4750 3233 4129 
Q 3647 3509 3647 2328 
Q 3647 1150 3233 529 
Q 2819 -91 2034 -91 
Q 1250 -91 836 529 
Q 422 1150 422 2328 
Q 422 3509 836 4129 
Q 1250 4750 2034 4750 
z
" transform="scale(0.015625)"/>
     </defs>
     <use xlink:href="#DejaVuSans-30"/>
    </g>
   </g>
   <g id="text_2">
    <!-- 1 -->
    <g transform="translate(36.608 22.8964) scale(0.128 -0.128)">
     <defs>
      <path id="DejaVuSans-31" d="M 794 531 
L 1825 531 
L 1825 4091 
L 703 3866 
L 703 4441 
L 1819 4666 
L 2450 4666 
L 2450 531 
L 3481 531 
L 3481 0 
L 794 0 
L 794 531 
z
" transform="scale(0.015625)"/>
     </defs>
     <use xlink:href="#DejaVuSans-31"/>
    </g>
   </g>
   <g id="text_3">
    <!-- 2 -->
    <g transform="translate(58.928 22.8964) scale(0.128 -0.128)">
     <defs>
      <path id="DejaVuSans-32" d="M 1228 531 
L 3431 531 
L 3431 0 
L 469 0 
L 469 531 
Q 828 903 1448 1529 
Q 2069 2156 2228 2338 
Q 2531 2678 2651 2914 
Q 2772 3150 2772 3378 
Q 2772 3750 2511 3984 
Q 2250 4219 1831 4219 
Q 1534 4219 1204 4116 
Q 875 4013 500 3803 
L 500 4441 
Q 881 4594 1212 4672 
Q 1544 4750 1819 4750 
Q 2544 4750 2975 4387 
Q 3406 4025 3406 3419 
Q 3406 3131 3298 2873 
Q 3191 2616 2906 2266 
Q 2828 2175 2409 1742 
Q 1991 1309 1228 531 
z
" transform="scale(0.015625)"/>
     </defs>
     <use xlink:href="#DejaVuSans-32"/>
    </g>
   </g>
   <g id="text_4">
    <!-- 3 -->
    <g transform="translate(81.248 22.8964) scale(0.128 -0.128)">
     <defs>
      <path id="DejaVuSans-33" d="M 2597 2516 
Q 3050 2419 3304 2112 
Q 3559 1806 3559 1356 
Q 3559 666 3084 287 
Q 2609 -91 1734 -91 
Q 1441 -91 1130 -33 
Q 819 25 488 141 
L 488 750 
Q 750 597 1062 519 
Q 1375 441 1716 441 
Q 2309 441 2620 675 
Q 2931 909 2931 1356 
Q 2931 1769 2642 2001 
Q 2353 2234 1838 2234 
L 1294 2234 
L 1294 2753 
L 1863 2753 
Q 2328 2753 2575 2939 
Q 2822 3125 2822 3475 
Q 2822 3834 2567 4026 
Q 2313 4219 1838 4219 
Q 1578 4219 1281 4162 
Q 984 4106 628 3988 
L 628 4550 
Q 988 4650 1302 4700 
Q 1616 4750 1894 4750 
Q 2613 4750 3031 4423 
Q 3450 4097 3450 3541 
Q 3450 3153 3228 2886 
Q 3006 2619 2597 2516 
z
" transform="scale(0.015625)"/>
     </defs>
     <use xlink:href="#DejaVuSans-33"/>
    </g>
   </g>
   <g id="text_5">
    <!-- 0 -->
    <g transform="translate(192.848 22.8964) scale(0.128 -0.128)">
     <use xlink:href="#DejaVuSans-30"/>
    </g>
   </g>
   <g id="text_6">
    <!-- 1 -->
    <g transform="translate(215.168 22.8964) scale(0.128 -0.128)">
     <use xlink:href="#DejaVuSans-31"/>
    </g>
   </g>
   <g id="text_7">
    <!-- 2 -->
    <g transform="translate(237.488 22.8964) scale(0.128 -0.128)">
     <use xlink:href="#DejaVuSans-32"/>
    </g>
   </g>
   <g id="text_8">
    <!-- 3 -->
    <g transform="translate(259.808 22.8964) scale(0.128 -0.128)">
     <use xlink:href="#DejaVuSans-33"/>
    </g>
   </g>
   <g id="text_9">
    <!-- 0 -->
    <g transform="translate(282.128 22.8964) scale(0.128 -0.128)">
     <use xlink:href="#DejaVuSans-30"/>
    </g>
   </g>
   <g id="text_10">
    <!-- 1 -->
    <g transform="translate(304.448 22.8964) scale(0.128 -0.128)">
     <use xlink:href="#DejaVuSans-31"/>
    </g>
   </g>
   <g id="text_11">
    <!-- 2 -->
    <g transform="translate(326.768 22.8964) scale(0.128 -0.128)">
     <use xlink:href="#DejaVuSans-32"/>
    </g>
   </g>
   <g id="text_12">
    <!-- 3 -->
    <g transform="translate(349.088 22.8964) scale(0.128 -0.128)">
     <use xlink:href="#DejaVuSans-33"/>
    </g>
   </g>
   <g id="text_13">
    <!-- 0 -->
    <g transform="translate(36.608 45.2164) scale(0.128 -0.128)">
     <use xlink:href="#DejaVuSans-30"/>
    </g>
   </g>
   <g id="text_14">
    <!-- 1 -->
    <g transform="translate(58.928 45.2164) scale(0.128 -0.128)">
     <use xlink:href="#DejaVuSans-31"/>
    </g>
   </g>
   <g id="text_15">
    <!-- 2 -->
    <g transform="translate(81.248 45.2164) scale(0.128 -0.128)">
     <use xlink:href="#DejaVuSans-32"/>
    </g>
   </g>
   <g id="text_16">
    <!-- 3 -->
    <g transform="translate(103.568 45.2164) scale(0.128 -0.128)">
     <use xlink:href="#DejaVuSans-33"/>
    </g>
   </g>
   <g id="text_17">
    <!-- 0 -->
    <g transform="translate(170.528 45.2164) scale(0.128 -0.128)">
     <use xlink:href="#DejaVuSans-30"/>
    </g>
   </g>
   <g id="text_18">
    <!-- 1 -->
    <g transform="translate(192.848 45.2164) scale(0.128 -0.128)">
     <use xlink:href="#DejaVuSans-31"/>
    </g>
   </g>
   <g id="text_19">
    <!-- 2 -->
    <g transform="translate(215.168 45.2164) scale(0.128 -0.128)">
     <use xlink:href="#DejaVuSans-32"/>
    </g>
   </g>
   <g id="text_20">
    <!-- 3 -->
    <g transform="translate(237.488 45.2164) scale(0.128 -0.128)">
     <use xlink:href="#DejaVuSans-33"/>
    </g>
   </g>
   <g id="text_21">
    <!-- 0 -->
    <g transform="translate(282.128 45.2164) scale(0.128 -0.128)">
     <use xlink:href="#DejaVuSans-30"/>
    </g>
   </g>
   <g id="text_22">
    <!-- 1 -->
    <g transform="translate(304.448 45.2164) scale(0.128 -0.128)">
     <use xlink:href="#DejaVuSans-31"/>
    </g>
   </g>
   <g id="text_23">
    <!-- 2 -->
    <g transform="translate(326.768 45.2164) scale(0.128 -0.128)">
     <use xlink:href="#DejaVuSans-32"/>
    </g>
   </g>
   <g id="text_24">
    <!-- 3 -->
    <g transform="translate(349.088 45.2164) scale(0.128 -0.128)">
     <use xlink:href="#DejaVuSans-33"/>
    </g>
   </g>
   <g id="text_25">
    <!-- 0 -->
    <g transform="translate(58.928 67.5364) scale(0.128 -0.128)">
     <use xlink:href="#DejaVuSans-30"/>
    </g>
   </g>
   <g id="text_26">
    <!-- 1 -->
    <g transform="translate(81.248 67.5364) scale(0.128 -0.128)">
     <use xlink:href="#DejaVuSans-31"/>
    </g>
   </g>
   <g id="text_27">
    <!-- 2 -->
    <g transform="translate(103.568 67.5364) scale(0.128 -0.128)">
     <use xlink:href="#DejaVuSans-32"/>
    </g>
   </g>
   <g id="text_28">
    <!-- 3 -->
    <g transform="translate(125.888 67.5364) scale(0.128 -0.128)">
     <use xlink:href="#DejaVuSans-33"/>
    </g>
   </g>
   <g id="text_29">
    <!-- 0 -->
    <g transform="translate(148.208 67.5364) scale(0.128 -0.128)">
     <use xlink:href="#DejaVuSans-30"/>
    </g>
   </g>
   <g id="text_30">
    <!-- 1 -->
    <g transform="translate(170.528 67.5364) scale(0.128 -0.128)">
     <use xlink:href="#DejaVuSans-31"/>
    </g>
   </g>
   <g id="text_31">
    <!-- 2 -->
    <g transform="translate(192.848 67.5364) scale(0.128 -0.128)">
     <use xlink:href="#DejaVuSans-32"/>
    </g>
   </g>
   <g id="text_32">
    <!-- 3 -->
    <g transform="translate(215.168 67.5364) scale(0.128 -0.128)">
     <use xlink:href="#DejaVuSans-33"/>
    </g>
   </g>
   <g id="text_33">
    <!-- 0 -->
    <g transform="translate(282.128 67.5364) scale(0.128 -0.128)">
     <use xlink:href="#DejaVuSans-30"/>
    </g>
   </g>
   <g id="text_34">
    <!-- 1 -->
    <g transform="translate(304.448 67.5364) scale(0.128 -0.128)">
     <use xlink:href="#DejaVuSans-31"/>
    </g>
   </g>
   <g id="text_35">
    <!-- 2 -->
    <g transform="translate(326.768 67.5364) scale(0.128 -0.128)">
     <use xlink:href="#DejaVuSans-32"/>
    </g>
   </g>
   <g id="text_36">
    <!-- 3 -->
    <g transform="translate(349.088 67.5364) scale(0.128 -0.128)">
     <use xlink:href="#DejaVuSans-33"/>
    </g>
   </g>
  </g>
 </g>
 <defs>
  <clipPath id="p92bc338d34">
   <rect x="7.2" y="7.2" width="1116" height="66.96"/>
  </clipPath>
 </defs>
</svg>
