<?xml version="1.0" encoding="utf-8" standalone="no"?>
<!DOCTYPE svg PUBLIC "-//W3C//DTD SVG 1.1//EN"
  "http://www.w3.org/Graphics/SVG/1.1/DTD/svg11.dtd">
<svg xmlns:xlink="http://www.w3.org/1999/xlink" width="1130.4pt" height="215.28pt" viewBox="0 0 1130.4 215.28" xmlns="http://www.w3.org/2000/svg" version="1.1">
 <metadata>
  <rdf:RDF xmlns:dc="http://purl.org/dc/elements/1.1/" xmlns:cc="http://creativecommons.org/ns#" xmlns:rdf="http://www.w3.org/1999/02/22-rdf-syntax-ns#">
   <cc:Work>
    <dc:type rdf:resource="http://purl.org/dc/dcmitype/StillImage"/>
    <dc:date>2025-05-10T21:57:18.001775</dc:date>
    <dc:format>image/svg+xml</dc:format>
    <dc:creator>
     <cc:Agent>
      <dc:title>Matplotlib v3.6.3, https://matplotlib.org/</dc:title>
     </cc:Agent>
    </dc:creator>
   </cc:Work>
  </rdf:RDF>
 </metadata>
 <defs>
  <style type="text/css">*{stroke-linejoin: round; stroke-linecap: butt}</style>
 </defs>
 <g id="figure_1">
  <g id="patch_1">
   <path d="M 0 215.28 
L 1130.4 215.28 
L 1130.4 0 
L 0 0 
z
" style="fill: #ffffff"/>
  </g>
  <g id="axes_1">
   <g id="PatchCollection_1">
    <path d="M 7.2 29.52 
L 29.52 29.52 
L 29.52 7.2 
L 7.2 7.2 
z
" clip-path="url(#pa26d9cc9d7)" style="fill: #fcb225; stroke: #000000; stroke-width: 0.64"/>
    <path d="M 29.52 29.52 
L 51.84 29.52 
L 51.84 7.2 
L 29.52 7.2 
z
" clip-path="url(#pa26d9cc9d7)" style="fill: #fcb225; stroke: #000000; stroke-width: 0.64"/>
    <path d="M 51.84 29.52 
L 74.16 29.52 
L 74.16 7.2 
L 51.84 7.2 
z
" clip-path="url(#pa26d9cc9d7)" style="fill: #fcb225; stroke: #000000; stroke-width: 0.64"/>
    <path d="M 74.16 29.52 
L 96.48 29.52 
L 96.48 7.2 
L 74.16 7.2 
z
" clip-path="url(#pa26d9cc9d7)" style="fill: #fcb225; stroke: #000000; stroke-width: 0.64"/>
    <path d="M 453.6 29.52 
L 475.92 29.52 
L 475.92 7.2 
L 453.6 7.2 
z
" clip-path="url(#pa26d9cc9d7)" style="fill: #5add4a; stroke: #000000; stroke-width: 0.64"/>
    <path d="M 475.92 29.52 
L 498.24 29.52 
L 498.24 7.2 
L 475.92 7.2 
z
" clip-path="url(#pa26d9cc9d7)" style="fill: #5add4a; stroke: #000000; stroke-width: 0.64"/>
    <path d="M 498.24 29.52 
L 520.56 29.52 
L 520.56 7.2 
L 498.24 7.2 
z
" clip-path="url(#pa26d9cc9d7)" style="fill: #5add4a; stroke: #000000; stroke-width: 0.64"/>
    <path d="M 520.56 29.52 
L 542.88 29.52 
L 542.88 7.2 
L 520.56 7.2 
z
" clip-path="url(#pa26d9cc9d7)" style="fill: #5add4a; stroke: #000000; stroke-width: 0.64"/>
    <path d="M 542.88 29.52 
L 565.2 29.52 
L 565.2 7.2 
L 542.88 7.2 
z
" clip-path="url(#pa26d9cc9d7)" style="fill: #60bdfd; stroke: #000000; stroke-width: 0.64"/>
    <path d="M 565.2 29.52 
L 587.52 29.52 
L 587.52 7.2 
L 565.2 7.2 
z
" clip-path="url(#pa26d9cc9d7)" style="fill: #60bdfd; stroke: #000000; stroke-width: 0.64"/>
    <path d="M 587.52 29.52 
L 609.84 29.52 
L 609.84 7.2 
L 587.52 7.2 
z
" clip-path="url(#pa26d9cc9d7)" style="fill: #60bdfd; stroke: #000000; stroke-width: 0.64"/>
    <path d="M 609.84 29.52 
L 632.16 29.52 
L 632.16 7.2 
L 609.84 7.2 
z
" clip-path="url(#pa26d9cc9d7)" style="fill: #60bdfd; stroke: #000000; stroke-width: 0.64"/>
    <path d="M 29.52 51.84 
L 51.84 51.84 
L 51.84 29.52 
L 29.52 29.52 
z
" clip-path="url(#pa26d9cc9d7)" style="fill: #fcb225; stroke: #000000; stroke-width: 0.64"/>
    <path d="M 51.84 51.84 
L 74.16 51.84 
L 74.16 29.52 
L 51.84 29.52 
z
" clip-path="url(#pa26d9cc9d7)" style="fill: #fcb225; stroke: #000000; stroke-width: 0.64"/>
    <path d="M 74.16 51.84 
L 96.48 51.84 
L 96.48 29.52 
L 74.16 29.52 
z
" clip-path="url(#pa26d9cc9d7)" style="fill: #fcb225; stroke: #000000; stroke-width: 0.64"/>
    <path d="M 96.48 51.84 
L 118.8 51.84 
L 118.8 29.52 
L 96.48 29.52 
z
" clip-path="url(#pa26d9cc9d7)" style="fill: #fcb225; stroke: #000000; stroke-width: 0.64"/>
    <path d="M 431.28 51.84 
L 453.6 51.84 
L 453.6 29.52 
L 431.28 29.52 
z
" clip-path="url(#pa26d9cc9d7)" style="fill: #5add4a; stroke: #000000; stroke-width: 0.64"/>
    <path d="M 453.6 51.84 
L 475.92 51.84 
L 475.92 29.52 
L 453.6 29.52 
z
" clip-path="url(#pa26d9cc9d7)" style="fill: #5add4a; stroke: #000000; stroke-width: 0.64"/>
    <path d="M 475.92 51.84 
L 498.24 51.84 
L 498.24 29.52 
L 475.92 29.52 
z
" clip-path="url(#pa26d9cc9d7)" style="fill: #5add4a; stroke: #000000; stroke-width: 0.64"/>
    <path d="M 498.24 51.84 
L 520.56 51.84 
L 520.56 29.52 
L 498.24 29.52 
z
" clip-path="url(#pa26d9cc9d7)" style="fill: #5add4a; stroke: #000000; stroke-width: 0.64"/>
    <path d="M 542.88 51.84 
L 565.2 51.84 
L 565.2 29.52 
L 542.88 29.52 
z
" clip-path="url(#pa26d9cc9d7)" style="fill: #60bdfd; stroke: #000000; stroke-width: 0.64"/>
    <path d="M 565.2 51.84 
L 587.52 51.84 
L 587.52 29.52 
L 565.2 29.52 
z
" clip-path="url(#pa26d9cc9d7)" style="fill: #60bdfd; stroke: #000000; stroke-width: 0.64"/>
    <path d="M 587.52 51.84 
L 609.84 51.84 
L 609.84 29.52 
L 587.52 29.52 
z
" clip-path="url(#pa26d9cc9d7)" style="fill: #60bdfd; stroke: #000000; stroke-width: 0.64"/>
    <path d="M 609.84 51.84 
L 632.16 51.84 
L 632.16 29.52 
L 609.84 29.52 
z
" clip-path="url(#pa26d9cc9d7)" style="fill: #60bdfd; stroke: #000000; stroke-width: 0.64"/>
    <path d="M 51.84 74.16 
L 74.16 74.16 
L 74.16 51.84 
L 51.84 51.84 
z
" clip-path="url(#pa26d9cc9d7)" style="fill: #fcb225; stroke: #000000; stroke-width: 0.64"/>
    <path d="M 74.16 74.16 
L 96.48 74.16 
L 96.48 51.84 
L 74.16 51.84 
z
" clip-path="url(#pa26d9cc9d7)" style="fill: #fcb225; stroke: #000000; stroke-width: 0.64"/>
    <path d="M 96.48 74.16 
L 118.8 74.16 
L 118.8 51.84 
L 96.48 51.84 
z
" clip-path="url(#pa26d9cc9d7)" style="fill: #fcb225; stroke: #000000; stroke-width: 0.64"/>
    <path d="M 118.8 74.16 
L 141.12 74.16 
L 141.12 51.84 
L 118.8 51.84 
z
" clip-path="url(#pa26d9cc9d7)" style="fill: #fcb225; stroke: #000000; stroke-width: 0.64"/>
    <path d="M 408.96 74.16 
L 431.28 74.16 
L 431.28 51.84 
L 408.96 51.84 
z
" clip-path="url(#pa26d9cc9d7)" style="fill: #5add4a; stroke: #000000; stroke-width: 0.64"/>
    <path d="M 431.28 74.16 
L 453.6 74.16 
L 453.6 51.84 
L 431.28 51.84 
z
" clip-path="url(#pa26d9cc9d7)" style="fill: #5add4a; stroke: #000000; stroke-width: 0.64"/>
    <path d="M 453.6 74.16 
L 475.92 74.16 
L 475.92 51.84 
L 453.6 51.84 
z
" clip-path="url(#pa26d9cc9d7)" style="fill: #5add4a; stroke: #000000; stroke-width: 0.64"/>
    <path d="M 475.92 74.16 
L 498.24 74.16 
L 498.24 51.84 
L 475.92 51.84 
z
" clip-path="url(#pa26d9cc9d7)" style="fill: #5add4a; stroke: #000000; stroke-width: 0.64"/>
    <path d="M 542.88 74.16 
L 565.2 74.16 
L 565.2 51.84 
L 542.88 51.84 
z
" clip-path="url(#pa26d9cc9d7)" style="fill: #60bdfd; stroke: #000000; stroke-width: 0.64"/>
    <path d="M 565.2 74.16 
L 587.52 74.16 
L 587.52 51.84 
L 565.2 51.84 
z
" clip-path="url(#pa26d9cc9d7)" style="fill: #60bdfd; stroke: #000000; stroke-width: 0.64"/>
    <path d="M 587.52 74.16 
L 609.84 74.16 
L 609.84 51.84 
L 587.52 51.84 
z
" clip-path="url(#pa26d9cc9d7)" style="fill: #60bdfd; stroke: #000000; stroke-width: 0.64"/>
    <path d="M 609.84 74.16 
L 632.16 74.16 
L 632.16 51.84 
L 609.84 51.84 
z
" clip-path="url(#pa26d9cc9d7)" style="fill: #60bdfd; stroke: #000000; stroke-width: 0.64"/>
    <path d="M 74.16 96.48 
L 96.48 96.48 
L 96.48 74.16 
L 74.16 74.16 
z
" clip-path="url(#pa26d9cc9d7)" style="fill: #fcb225; stroke: #000000; stroke-width: 0.64"/>
    <path d="M 96.48 96.48 
L 118.8 96.48 
L 118.8 74.16 
L 96.48 74.16 
z
" clip-path="url(#pa26d9cc9d7)" style="fill: #fcb225; stroke: #000000; stroke-width: 0.64"/>
    <path d="M 118.8 96.48 
L 141.12 96.48 
L 141.12 74.16 
L 118.8 74.16 
z
" clip-path="url(#pa26d9cc9d7)" style="fill: #fcb225; stroke: #000000; stroke-width: 0.64"/>
    <path d="M 141.12 96.48 
L 163.44 96.48 
L 163.44 74.16 
L 141.12 74.16 
z
" clip-path="url(#pa26d9cc9d7)" style="fill: #fcb225; stroke: #000000; stroke-width: 0.64"/>
    <path d="M 386.64 96.48 
L 408.96 96.48 
L 408.96 74.16 
L 386.64 74.16 
z
" clip-path="url(#pa26d9cc9d7)" style="fill: #5add4a; stroke: #000000; stroke-width: 0.64"/>
    <path d="M 408.96 96.48 
L 431.28 96.48 
L 431.28 74.16 
L 408.96 74.16 
z
" clip-path="url(#pa26d9cc9d7)" style="fill: #5add4a; stroke: #000000; stroke-width: 0.64"/>
    <path d="M 431.28 96.48 
L 453.6 96.48 
L 453.6 74.16 
L 431.28 74.16 
z
" clip-path="url(#pa26d9cc9d7)" style="fill: #5add4a; stroke: #000000; stroke-width: 0.64"/>
    <path d="M 453.6 96.48 
L 475.92 96.48 
L 475.92 74.16 
L 453.6 74.16 
z
" clip-path="url(#pa26d9cc9d7)" style="fill: #5add4a; stroke: #000000; stroke-width: 0.64"/>
    <path d="M 542.88 96.48 
L 565.2 96.48 
L 565.2 74.16 
L 542.88 74.16 
z
" clip-path="url(#pa26d9cc9d7)" style="fill: #60bdfd; stroke: #000000; stroke-width: 0.64"/>
    <path d="M 565.2 96.48 
L 587.52 96.48 
L 587.52 74.16 
L 565.2 74.16 
z
" clip-path="url(#pa26d9cc9d7)" style="fill: #60bdfd; stroke: #000000; stroke-width: 0.64"/>
    <path d="M 587.52 96.48 
L 609.84 96.48 
L 609.84 74.16 
L 587.52 74.16 
z
" clip-path="url(#pa26d9cc9d7)" style="fill: #60bdfd; stroke: #000000; stroke-width: 0.64"/>
    <path d="M 609.84 96.48 
L 632.16 96.48 
L 632.16 74.16 
L 609.84 74.16 
z
" clip-path="url(#pa26d9cc9d7)" style="fill: #60bdfd; stroke: #000000; stroke-width: 0.64"/>
    <path d="M 96.48 118.8 
L 118.8 118.8 
L 118.8 96.48 
L 96.48 96.48 
z
" clip-path="url(#pa26d9cc9d7)" style="fill: #fcb225; stroke: #000000; stroke-width: 0.64"/>
    <path d="M 118.8 118.8 
L 141.12 118.8 
L 141.12 96.48 
L 118.8 96.48 
z
" clip-path="url(#pa26d9cc9d7)" style="fill: #fcb225; stroke: #000000; stroke-width: 0.64"/>
    <path d="M 141.12 118.8 
L 163.44 118.8 
L 163.44 96.48 
L 141.12 96.48 
z
" clip-path="url(#pa26d9cc9d7)" style="fill: #fcb225; stroke: #000000; stroke-width: 0.64"/>
    <path d="M 163.44 118.8 
L 185.76 118.8 
L 185.76 96.48 
L 163.44 96.48 
z
" clip-path="url(#pa26d9cc9d7)" style="fill: #fcb225; stroke: #000000; stroke-width: 0.64"/>
    <path d="M 364.32 118.8 
L 386.64 118.8 
L 386.64 96.48 
L 364.32 96.48 
z
" clip-path="url(#pa26d9cc9d7)" style="fill: #5add4a; stroke: #000000; stroke-width: 0.64"/>
    <path d="M 386.64 118.8 
L 408.96 118.8 
L 408.96 96.48 
L 386.64 96.48 
z
" clip-path="url(#pa26d9cc9d7)" style="fill: #5add4a; stroke: #000000; stroke-width: 0.64"/>
    <path d="M 408.96 118.8 
L 431.28 118.8 
L 431.28 96.48 
L 408.96 96.48 
z
" clip-path="url(#pa26d9cc9d7)" style="fill: #5add4a; stroke: #000000; stroke-width: 0.64"/>
    <path d="M 431.28 118.8 
L 453.6 118.8 
L 453.6 96.48 
L 431.28 96.48 
z
" clip-path="url(#pa26d9cc9d7)" style="fill: #5add4a; stroke: #000000; stroke-width: 0.64"/>
    <path d="M 542.88 118.8 
L 565.2 118.8 
L 565.2 96.48 
L 542.88 96.48 
z
" clip-path="url(#pa26d9cc9d7)" style="fill: #60bdfd; stroke: #000000; stroke-width: 0.64"/>
    <path d="M 565.2 118.8 
L 587.52 118.8 
L 587.52 96.48 
L 565.2 96.48 
z
" clip-path="url(#pa26d9cc9d7)" style="fill: #60bdfd; stroke: #000000; stroke-width: 0.64"/>
    <path d="M 587.52 118.8 
L 609.84 118.8 
L 609.84 96.48 
L 587.52 96.48 
z
" clip-path="url(#pa26d9cc9d7)" style="fill: #60bdfd; stroke: #000000; stroke-width: 0.64"/>
    <path d="M 609.84 118.8 
L 632.16 118.8 
L 632.16 96.48 
L 609.84 96.48 
z
" clip-path="url(#pa26d9cc9d7)" style="fill: #60bdfd; stroke: #000000; stroke-width: 0.64"/>
    <path d="M 118.8 141.12 
L 141.12 141.12 
L 141.12 118.8 
L 118.8 118.8 
z
" clip-path="url(#pa26d9cc9d7)" style="fill: #fcb225; stroke: #000000; stroke-width: 0.64"/>
    <path d="M 141.12 141.12 
L 163.44 141.12 
L 163.44 118.8 
L 141.12 118.8 
z
" clip-path="url(#pa26d9cc9d7)" style="fill: #fcb225; stroke: #000000; stroke-width: 0.64"/>
    <path d="M 163.44 141.12 
L 185.76 141.12 
L 185.76 118.8 
L 163.44 118.8 
z
" clip-path="url(#pa26d9cc9d7)" style="fill: #fcb225; stroke: #000000; stroke-width: 0.64"/>
    <path d="M 185.76 141.12 
L 208.08 141.12 
L 208.08 118.8 
L 185.76 118.8 
z
" clip-path="url(#pa26d9cc9d7)" style="fill: #fcb225; stroke: #000000; stroke-width: 0.64"/>
    <path d="M 342 141.12 
L 364.32 141.12 
L 364.32 118.8 
L 342 118.8 
z
" clip-path="url(#pa26d9cc9d7)" style="fill: #5add4a; stroke: #000000; stroke-width: 0.64"/>
    <path d="M 364.32 141.12 
L 386.64 141.12 
L 386.64 118.8 
L 364.32 118.8 
z
" clip-path="url(#pa26d9cc9d7)" style="fill: #5add4a; stroke: #000000; stroke-width: 0.64"/>
    <path d="M 386.64 141.12 
L 408.96 141.12 
L 408.96 118.8 
L 386.64 118.8 
z
" clip-path="url(#pa26d9cc9d7)" style="fill: #5add4a; stroke: #000000; stroke-width: 0.64"/>
    <path d="M 408.96 141.12 
L 431.28 141.12 
L 431.28 118.8 
L 408.96 118.8 
z
" clip-path="url(#pa26d9cc9d7)" style="fill: #5add4a; stroke: #000000; stroke-width: 0.64"/>
    <path d="M 542.88 141.12 
L 565.2 141.12 
L 565.2 118.8 
L 542.88 118.8 
z
" clip-path="url(#pa26d9cc9d7)" style="fill: #60bdfd; stroke: #000000; stroke-width: 0.64"/>
    <path d="M 565.2 141.12 
L 587.52 141.12 
L 587.52 118.8 
L 565.2 118.8 
z
" clip-path="url(#pa26d9cc9d7)" style="fill: #60bdfd; stroke: #000000; stroke-width: 0.64"/>
    <path d="M 587.52 141.12 
L 609.84 141.12 
L 609.84 118.8 
L 587.52 118.8 
z
" clip-path="url(#pa26d9cc9d7)" style="fill: #60bdfd; stroke: #000000; stroke-width: 0.64"/>
    <path d="M 609.84 141.12 
L 632.16 141.12 
L 632.16 118.8 
L 609.84 118.8 
z
" clip-path="url(#pa26d9cc9d7)" style="fill: #60bdfd; stroke: #000000; stroke-width: 0.64"/>
    <path d="M 141.12 163.44 
L 163.44 163.44 
L 163.44 141.12 
L 141.12 141.12 
z
" clip-path="url(#pa26d9cc9d7)" style="fill: #fcb225; stroke: #000000; stroke-width: 0.64"/>
    <path d="M 163.44 163.44 
L 185.76 163.44 
L 185.76 141.12 
L 163.44 141.12 
z
" clip-path="url(#pa26d9cc9d7)" style="fill: #fcb225; stroke: #000000; stroke-width: 0.64"/>
    <path d="M 185.76 163.44 
L 208.08 163.44 
L 208.08 141.12 
L 185.76 141.12 
z
" clip-path="url(#pa26d9cc9d7)" style="fill: #fcb225; stroke: #000000; stroke-width: 0.64"/>
    <path d="M 208.08 163.44 
L 230.4 163.44 
L 230.4 141.12 
L 208.08 141.12 
z
" clip-path="url(#pa26d9cc9d7)" style="fill: #fcb225; stroke: #000000; stroke-width: 0.64"/>
    <path d="M 319.68 163.44 
L 342 163.44 
L 342 141.12 
L 319.68 141.12 
z
" clip-path="url(#pa26d9cc9d7)" style="fill: #5add4a; stroke: #000000; stroke-width: 0.64"/>
    <path d="M 342 163.44 
L 364.32 163.44 
L 364.32 141.12 
L 342 141.12 
z
" clip-path="url(#pa26d9cc9d7)" style="fill: #5add4a; stroke: #000000; stroke-width: 0.64"/>
    <path d="M 364.32 163.44 
L 386.64 163.44 
L 386.64 141.12 
L 364.32 141.12 
z
" clip-path="url(#pa26d9cc9d7)" style="fill: #5add4a; stroke: #000000; stroke-width: 0.64"/>
    <path d="M 386.64 163.44 
L 408.96 163.44 
L 408.96 141.12 
L 386.64 141.12 
z
" clip-path="url(#pa26d9cc9d7)" style="fill: #5add4a; stroke: #000000; stroke-width: 0.64"/>
    <path d="M 542.88 163.44 
L 565.2 163.44 
L 565.2 141.12 
L 542.88 141.12 
z
" clip-path="url(#pa26d9cc9d7)" style="fill: #60bdfd; stroke: #000000; stroke-width: 0.64"/>
    <path d="M 565.2 163.44 
L 587.52 163.44 
L 587.52 141.12 
L 565.2 141.12 
z
" clip-path="url(#pa26d9cc9d7)" style="fill: #60bdfd; stroke: #000000; stroke-width: 0.64"/>
    <path d="M 587.52 163.44 
L 609.84 163.44 
L 609.84 141.12 
L 587.52 141.12 
z
" clip-path="url(#pa26d9cc9d7)" style="fill: #60bdfd; stroke: #000000; stroke-width: 0.64"/>
    <path d="M 609.84 163.44 
L 632.16 163.44 
L 632.16 141.12 
L 609.84 141.12 
z
" clip-path="url(#pa26d9cc9d7)" style="fill: #60bdfd; stroke: #000000; stroke-width: 0.64"/>
    <path d="M 163.44 185.76 
L 185.76 185.76 
L 185.76 163.44 
L 163.44 163.44 
z
" clip-path="url(#pa26d9cc9d7)" style="fill: #fcb225; stroke: #000000; stroke-width: 0.64"/>
    <path d="M 185.76 185.76 
L 208.08 185.76 
L 208.08 163.44 
L 185.76 163.44 
z
" clip-path="url(#pa26d9cc9d7)" style="fill: #fcb225; stroke: #000000; stroke-width: 0.64"/>
    <path d="M 208.08 185.76 
L 230.4 185.76 
L 230.4 163.44 
L 208.08 163.44 
z
" clip-path="url(#pa26d9cc9d7)" style="fill: #fcb225; stroke: #000000; stroke-width: 0.64"/>
    <path d="M 230.4 185.76 
L 252.72 185.76 
L 252.72 163.44 
L 230.4 163.44 
z
" clip-path="url(#pa26d9cc9d7)" style="fill: #fcb225; stroke: #000000; stroke-width: 0.64"/>
    <path d="M 297.36 185.76 
L 319.68 185.76 
L 319.68 163.44 
L 297.36 163.44 
z
" clip-path="url(#pa26d9cc9d7)" style="fill: #5add4a; stroke: #000000; stroke-width: 0.64"/>
    <path d="M 319.68 185.76 
L 342 185.76 
L 342 163.44 
L 319.68 163.44 
z
" clip-path="url(#pa26d9cc9d7)" style="fill: #5add4a; stroke: #000000; stroke-width: 0.64"/>
    <path d="M 342 185.76 
L 364.32 185.76 
L 364.32 163.44 
L 342 163.44 
z
" clip-path="url(#pa26d9cc9d7)" style="fill: #5add4a; stroke: #000000; stroke-width: 0.64"/>
    <path d="M 364.32 185.76 
L 386.64 185.76 
L 386.64 163.44 
L 364.32 163.44 
z
" clip-path="url(#pa26d9cc9d7)" style="fill: #5add4a; stroke: #000000; stroke-width: 0.64"/>
    <path d="M 542.88 185.76 
L 565.2 185.76 
L 565.2 163.44 
L 542.88 163.44 
z
" clip-path="url(#pa26d9cc9d7)" style="fill: #60bdfd; stroke: #000000; stroke-width: 0.64"/>
    <path d="M 565.2 185.76 
L 587.52 185.76 
L 587.52 163.44 
L 565.2 163.44 
z
" clip-path="url(#pa26d9cc9d7)" style="fill: #60bdfd; stroke: #000000; stroke-width: 0.64"/>
    <path d="M 587.52 185.76 
L 609.84 185.76 
L 609.84 163.44 
L 587.52 163.44 
z
" clip-path="url(#pa26d9cc9d7)" style="fill: #60bdfd; stroke: #000000; stroke-width: 0.64"/>
    <path d="M 609.84 185.76 
L 632.16 185.76 
L 632.16 163.44 
L 609.84 163.44 
z
" clip-path="url(#pa26d9cc9d7)" style="fill: #60bdfd; stroke: #000000; stroke-width: 0.64"/>
    <path d="M 185.76 208.08 
L 208.08 208.08 
L 208.08 185.76 
L 185.76 185.76 
z
" clip-path="url(#pa26d9cc9d7)" style="fill: #fcb225; stroke: #000000; stroke-width: 0.64"/>
    <path d="M 208.08 208.08 
L 230.4 208.08 
L 230.4 185.76 
L 208.08 185.76 
z
" clip-path="url(#pa26d9cc9d7)" style="fill: #fcb225; stroke: #000000; stroke-width: 0.64"/>
    <path d="M 230.4 208.08 
L 252.72 208.08 
L 252.72 185.76 
L 230.4 185.76 
z
" clip-path="url(#pa26d9cc9d7)" style="fill: #fcb225; stroke: #000000; stroke-width: 0.64"/>
    <path d="M 252.72 208.08 
L 275.04 208.08 
L 275.04 185.76 
L 252.72 185.76 
z
" clip-path="url(#pa26d9cc9d7)" style="fill: #fcb225; stroke: #000000; stroke-width: 0.64"/>
    <path d="M 275.04 208.08 
L 297.36 208.08 
L 297.36 185.76 
L 275.04 185.76 
z
" clip-path="url(#pa26d9cc9d7)" style="fill: #5add4a; stroke: #000000; stroke-width: 0.64"/>
    <path d="M 297.36 208.08 
L 319.68 208.08 
L 319.68 185.76 
L 297.36 185.76 
z
" clip-path="url(#pa26d9cc9d7)" style="fill: #5add4a; stroke: #000000; stroke-width: 0.64"/>
    <path d="M 319.68 208.08 
L 342 208.08 
L 342 185.76 
L 319.68 185.76 
z
" clip-path="url(#pa26d9cc9d7)" style="fill: #5add4a; stroke: #000000; stroke-width: 0.64"/>
    <path d="M 342 208.08 
L 364.32 208.08 
L 364.32 185.76 
L 342 185.76 
z
" clip-path="url(#pa26d9cc9d7)" style="fill: #5add4a; stroke: #000000; stroke-width: 0.64"/>
    <path d="M 542.88 208.08 
L 565.2 208.08 
L 565.2 185.76 
L 542.88 185.76 
z
" clip-path="url(#pa26d9cc9d7)" style="fill: #60bdfd; stroke: #000000; stroke-width: 0.64"/>
    <path d="M 565.2 208.08 
L 587.52 208.08 
L 587.52 185.76 
L 565.2 185.76 
z
" clip-path="url(#pa26d9cc9d7)" style="fill: #60bdfd; stroke: #000000; stroke-width: 0.64"/>
    <path d="M 587.52 208.08 
L 609.84 208.08 
L 609.84 185.76 
L 587.52 185.76 
z
" clip-path="url(#pa26d9cc9d7)" style="fill: #60bdfd; stroke: #000000; stroke-width: 0.64"/>
    <path d="M 609.84 208.08 
L 632.16 208.08 
L 632.16 185.76 
L 609.84 185.76 
z
" clip-path="url(#pa26d9cc9d7)" style="fill: #60bdfd; stroke: #000000; stroke-width: 0.64"/>
   </g>
   <g id="text_1">
    <!-- 0 -->
    <g transform="translate(14.288 22.8964) scale(0.128 -0.128)">
     <defs>
      <path id="DejaVuSans-30" d="M 2034 4250 
Q 1547 4250 1301 3770 
Q 1056 3291 1056 2328 
Q 1056 1369 1301 889 
Q 1547 409 2034 409 
Q 2525 409 2770 889 
Q 3016 1369 3016 2328 
Q 3016 3291 2770 3770 
Q 2525 4250 2034 4250 
z
M 2034 4750 
Q 2819 4750 3233 4129 
Q 3647 3509 3647 2328 
Q 3647 1150 3233 529 
Q 2819 -91 2034 -91 
Q 1250 -91 836 529 
Q 422 1150 422 2328 
Q 422 3509 836 4129 
Q 1250 4750 2034 4750 
z
" transform="scale(0.015625)"/>
     </defs>
     <use xlink:href="#DejaVuSans-30"/>
    </g>
   </g>
   <g id="text_2">
    <!-- 1 -->
    <g transform="translate(36.608 22.8964) scale(0.128 -0.128)">
     <defs>
      <path id="DejaVuSans-31" d="M 794 531 
L 1825 531 
L 1825 4091 
L 703 3866 
L 703 4441 
L 1819 4666 
L 2450 4666 
L 2450 531 
L 3481 531 
L 3481 0 
L 794 0 
L 794 531 
z
" transform="scale(0.015625)"/>
     </defs>
     <use xlink:href="#DejaVuSans-31"/>
    </g>
   </g>
   <g id="text_3">
    <!-- 2 -->
    <g transform="translate(58.928 22.8964) scale(0.128 -0.128)">
     <defs>
      <path id="DejaVuSans-32" d="M 1228 531 
L 3431 531 
L 3431 0 
L 469 0 
L 469 531 
Q 828 903 1448 1529 
Q 2069 2156 2228 2338 
Q 2531 2678 2651 2914 
Q 2772 3150 2772 3378 
Q 2772 3750 2511 3984 
Q 2250 4219 1831 4219 
Q 1534 4219 1204 4116 
Q 875 4013 500 3803 
L 500 4441 
Q 881 4594 1212 4672 
Q 1544 4750 1819 4750 
Q 2544 4750 2975 4387 
Q 3406 4025 3406 3419 
Q 3406 3131 3298 2873 
Q 3191 2616 2906 2266 
Q 2828 2175 2409 1742 
Q 1991 1309 1228 531 
z
" transform="scale(0.015625)"/>
     </defs>
     <use xlink:href="#DejaVuSans-32"/>
    </g>
   </g>
   <g id="text_4">
    <!-- 3 -->
    <g transform="translate(81.248 22.8964) scale(0.128 -0.128)">
     <defs>
      <path id="DejaVuSans-33" d="M 2597 2516 
Q 3050 2419 3304 2112 
Q 3559 1806 3559 1356 
Q 3559 666 3084 287 
Q 2609 -91 1734 -91 
Q 1441 -91 1130 -33 
Q 819 25 488 141 
L 488 750 
Q 750 597 1062 519 
Q 1375 441 1716 441 
Q 2309 441 2620 675 
Q 2931 909 2931 1356 
Q 2931 1769 2642 2001 
Q 2353 2234 1838 2234 
L 1294 2234 
L 1294 2753 
L 1863 2753 
Q 2328 2753 2575 2939 
Q 2822 3125 2822 3475 
Q 2822 3834 2567 4026 
Q 2313 4219 1838 4219 
Q 1578 4219 1281 4162 
Q 984 4106 628 3988 
L 628 4550 
Q 988 4650 1302 4700 
Q 1616 4750 1894 4750 
Q 2613 4750 3031 4423 
Q 3450 4097 3450 3541 
Q 3450 3153 3228 2886 
Q 3006 2619 2597 2516 
z
" transform="scale(0.015625)"/>
     </defs>
     <use xlink:href="#DejaVuSans-33"/>
    </g>
   </g>
   <g id="text_5">
    <!-- 0 -->
    <g transform="translate(460.688 22.8964) scale(0.128 -0.128)">
     <use xlink:href="#DejaVuSans-30"/>
    </g>
   </g>
   <g id="text_6">
    <!-- 1 -->
    <g transform="translate(483.008 22.8964) scale(0.128 -0.128)">
     <use xlink:href="#DejaVuSans-31"/>
    </g>
   </g>
   <g id="text_7">
    <!-- 2 -->
    <g transform="translate(505.328 22.8964) scale(0.128 -0.128)">
     <use xlink:href="#DejaVuSans-32"/>
    </g>
   </g>
   <g id="text_8">
    <!-- 3 -->
    <g transform="translate(527.648 22.8964) scale(0.128 -0.128)">
     <use xlink:href="#DejaVuSans-33"/>
    </g>
   </g>
   <g id="text_9">
    <!-- 0 -->
    <g transform="translate(549.968 22.8964) scale(0.128 -0.128)">
     <use xlink:href="#DejaVuSans-30"/>
    </g>
   </g>
   <g id="text_10">
    <!-- 1 -->
    <g transform="translate(572.288 22.8964) scale(0.128 -0.128)">
     <use xlink:href="#DejaVuSans-31"/>
    </g>
   </g>
   <g id="text_11">
    <!-- 2 -->
    <g transform="translate(594.608 22.8964) scale(0.128 -0.128)">
     <use xlink:href="#DejaVuSans-32"/>
    </g>
   </g>
   <g id="text_12">
    <!-- 3 -->
    <g transform="translate(616.928 22.8964) scale(0.128 -0.128)">
     <use xlink:href="#DejaVuSans-33"/>
    </g>
   </g>
   <g id="text_13">
    <!-- 0 -->
    <g transform="translate(36.608 45.2164) scale(0.128 -0.128)">
     <use xlink:href="#DejaVuSans-30"/>
    </g>
   </g>
   <g id="text_14">
    <!-- 1 -->
    <g transform="translate(58.928 45.2164) scale(0.128 -0.128)">
     <use xlink:href="#DejaVuSans-31"/>
    </g>
   </g>
   <g id="text_15">
    <!-- 2 -->
    <g transform="translate(81.248 45.2164) scale(0.128 -0.128)">
     <use xlink:href="#DejaVuSans-32"/>
    </g>
   </g>
   <g id="text_16">
    <!-- 3 -->
    <g transform="translate(103.568 45.2164) scale(0.128 -0.128)">
     <use xlink:href="#DejaVuSans-33"/>
    </g>
   </g>
   <g id="text_17">
    <!-- 0 -->
    <g transform="translate(438.368 45.2164) scale(0.128 -0.128)">
     <use xlink:href="#DejaVuSans-30"/>
    </g>
   </g>
   <g id="text_18">
    <!-- 1 -->
    <g transform="translate(460.688 45.2164) scale(0.128 -0.128)">
     <use xlink:href="#DejaVuSans-31"/>
    </g>
   </g>
   <g id="text_19">
    <!-- 2 -->
    <g transform="translate(483.008 45.2164) scale(0.128 -0.128)">
     <use xlink:href="#DejaVuSans-32"/>
    </g>
   </g>
   <g id="text_20">
    <!-- 3 -->
    <g transform="translate(505.328 45.2164) scale(0.128 -0.128)">
     <use xlink:href="#DejaVuSans-33"/>
    </g>
   </g>
   <g id="text_21">
    <!-- 0 -->
    <g transform="translate(549.968 45.2164) scale(0.128 -0.128)">
     <use xlink:href="#DejaVuSans-30"/>
    </g>
   </g>
   <g id="text_22">
    <!-- 1 -->
    <g transform="translate(572.288 45.2164) scale(0.128 -0.128)">
     <use xlink:href="#DejaVuSans-31"/>
    </g>
   </g>
   <g id="text_23">
    <!-- 2 -->
    <g transform="translate(594.608 45.2164) scale(0.128 -0.128)">
     <use xlink:href="#DejaVuSans-32"/>
    </g>
   </g>
   <g id="text_24">
    <!-- 3 -->
    <g transform="translate(616.928 45.2164) scale(0.128 -0.128)">
     <use xlink:href="#DejaVuSans-33"/>
    </g>
   </g>
   <g id="text_25">
    <!-- 0 -->
    <g transform="translate(58.928 67.5364) scale(0.128 -0.128)">
     <use xlink:href="#DejaVuSans-30"/>
    </g>
   </g>
   <g id="text_26">
    <!-- 1 -->
    <g transform="translate(81.248 67.5364) scale(0.128 -0.128)">
     <use xlink:href="#DejaVuSans-31"/>
    </g>
   </g>
   <g id="text_27">
    <!-- 2 -->
    <g transform="translate(103.568 67.5364) scale(0.128 -0.128)">
     <use xlink:href="#DejaVuSans-32"/>
    </g>
   </g>
   <g id="text_28">
    <!-- 3 -->
    <g transform="translate(125.888 67.5364) scale(0.128 -0.128)">
     <use xlink:href="#DejaVuSans-33"/>
    </g>
   </g>
   <g id="text_29">
    <!-- 0 -->
    <g transform="translate(416.048 67.5364) scale(0.128 -0.128)">
     <use xlink:href="#DejaVuSans-30"/>
    </g>
   </g>
   <g id="text_30">
    <!-- 1 -->
    <g transform="translate(438.368 67.5364) scale(0.128 -0.128)">
     <use xlink:href="#DejaVuSans-31"/>
    </g>
   </g>
   <g id="text_31">
    <!-- 2 -->
    <g transform="translate(460.688 67.5364) scale(0.128 -0.128)">
     <use xlink:href="#DejaVuSans-32"/>
    </g>
   </g>
   <g id="text_32">
    <!-- 3 -->
    <g transform="translate(483.008 67.5364) scale(0.128 -0.128)">
     <use xlink:href="#DejaVuSans-33"/>
    </g>
   </g>
   <g id="text_33">
    <!-- 0 -->
    <g transform="translate(549.968 67.5364) scale(0.128 -0.128)">
     <use xlink:href="#DejaVuSans-30"/>
    </g>
   </g>
   <g id="text_34">
    <!-- 1 -->
    <g transform="translate(572.288 67.5364) scale(0.128 -0.128)">
     <use xlink:href="#DejaVuSans-31"/>
    </g>
   </g>
   <g id="text_35">
    <!-- 2 -->
    <g transform="translate(594.608 67.5364) scale(0.128 -0.128)">
     <use xlink:href="#DejaVuSans-32"/>
    </g>
   </g>
   <g id="text_36">
    <!-- 3 -->
    <g transform="translate(616.928 67.5364) scale(0.128 -0.128)">
     <use xlink:href="#DejaVuSans-33"/>
    </g>
   </g>
   <g id="text_37">
    <!-- 0 -->
    <g transform="translate(81.248 89.8564) scale(0.128 -0.128)">
     <use xlink:href="#DejaVuSans-30"/>
    </g>
   </g>
   <g id="text_38">
    <!-- 1 -->
    <g transform="translate(103.568 89.8564) scale(0.128 -0.128)">
     <use xlink:href="#DejaVuSans-31"/>
    </g>
   </g>
   <g id="text_39">
    <!-- 2 -->
    <g transform="translate(125.888 89.8564) scale(0.128 -0.128)">
     <use xlink:href="#DejaVuSans-32"/>
    </g>
   </g>
   <g id="text_40">
    <!-- 3 -->
    <g transform="translate(148.208 89.8564) scale(0.128 -0.128)">
     <use xlink:href="#DejaVuSans-33"/>
    </g>
   </g>
   <g id="text_41">
    <!-- 0 -->
    <g transform="translate(393.728 89.8564) scale(0.128 -0.128)">
     <use xlink:href="#DejaVuSans-30"/>
    </g>
   </g>
   <g id="text_42">
    <!-- 1 -->
    <g transform="translate(416.048 89.8564) scale(0.128 -0.128)">
     <use xlink:href="#DejaVuSans-31"/>
    </g>
   </g>
   <g id="text_43">
    <!-- 2 -->
    <g transform="translate(438.368 89.8564) scale(0.128 -0.128)">
     <use xlink:href="#DejaVuSans-32"/>
    </g>
   </g>
   <g id="text_44">
    <!-- 3 -->
    <g transform="translate(460.688 89.8564) scale(0.128 -0.128)">
     <use xlink:href="#DejaVuSans-33"/>
    </g>
   </g>
   <g id="text_45">
    <!-- 0 -->
    <g transform="translate(549.968 89.8564) scale(0.128 -0.128)">
     <use xlink:href="#DejaVuSans-30"/>
    </g>
   </g>
   <g id="text_46">
    <!-- 1 -->
    <g transform="translate(572.288 89.8564) scale(0.128 -0.128)">
     <use xlink:href="#DejaVuSans-31"/>
    </g>
   </g>
   <g id="text_47">
    <!-- 2 -->
    <g transform="translate(594.608 89.8564) scale(0.128 -0.128)">
     <use xlink:href="#DejaVuSans-32"/>
    </g>
   </g>
   <g id="text_48">
    <!-- 3 -->
    <g transform="translate(616.928 89.8564) scale(0.128 -0.128)">
     <use xlink:href="#DejaVuSans-33"/>
    </g>
   </g>
   <g id="text_49">
    <!-- 0 -->
    <g transform="translate(103.568 112.1764) scale(0.128 -0.128)">
     <use xlink:href="#DejaVuSans-30"/>
    </g>
   </g>
   <g id="text_50">
    <!-- 1 -->
    <g transform="translate(125.888 112.1764) scale(0.128 -0.128)">
     <use xlink:href="#DejaVuSans-31"/>
    </g>
   </g>
   <g id="text_51">
    <!-- 2 -->
    <g transform="translate(148.208 112.1764) scale(0.128 -0.128)">
     <use xlink:href="#DejaVuSans-32"/>
    </g>
   </g>
   <g id="text_52">
    <!-- 3 -->
    <g transform="translate(170.528 112.1764) scale(0.128 -0.128)">
     <use xlink:href="#DejaVuSans-33"/>
    </g>
   </g>
   <g id="text_53">
    <!-- 0 -->
    <g transform="translate(371.408 112.1764) scale(0.128 -0.128)">
     <use xlink:href="#DejaVuSans-30"/>
    </g>
   </g>
   <g id="text_54">
    <!-- 1 -->
    <g transform="translate(393.728 112.1764) scale(0.128 -0.128)">
     <use xlink:href="#DejaVuSans-31"/>
    </g>
   </g>
   <g id="text_55">
    <!-- 2 -->
    <g transform="translate(416.048 112.1764) scale(0.128 -0.128)">
     <use xlink:href="#DejaVuSans-32"/>
    </g>
   </g>
   <g id="text_56">
    <!-- 3 -->
    <g transform="translate(438.368 112.1764) scale(0.128 -0.128)">
     <use xlink:href="#DejaVuSans-33"/>
    </g>
   </g>
   <g id="text_57">
    <!-- 0 -->
    <g transform="translate(549.968 112.1764) scale(0.128 -0.128)">
     <use xlink:href="#DejaVuSans-30"/>
    </g>
   </g>
   <g id="text_58">
    <!-- 1 -->
    <g transform="translate(572.288 112.1764) scale(0.128 -0.128)">
     <use xlink:href="#DejaVuSans-31"/>
    </g>
   </g>
   <g id="text_59">
    <!-- 2 -->
    <g transform="translate(594.608 112.1764) scale(0.128 -0.128)">
     <use xlink:href="#DejaVuSans-32"/>
    </g>
   </g>
   <g id="text_60">
    <!-- 3 -->
    <g transform="translate(616.928 112.1764) scale(0.128 -0.128)">
     <use xlink:href="#DejaVuSans-33"/>
    </g>
   </g>
   <g id="text_61">
    <!-- 0 -->
    <g transform="translate(125.888 134.4964) scale(0.128 -0.128)">
     <use xlink:href="#DejaVuSans-30"/>
    </g>
   </g>
   <g id="text_62">
    <!-- 1 -->
    <g transform="translate(148.208 134.4964) scale(0.128 -0.128)">
     <use xlink:href="#DejaVuSans-31"/>
    </g>
   </g>
   <g id="text_63">
    <!-- 2 -->
    <g transform="translate(170.528 134.4964) scale(0.128 -0.128)">
     <use xlink:href="#DejaVuSans-32"/>
    </g>
   </g>
   <g id="text_64">
    <!-- 3 -->
    <g transform="translate(192.848 134.4964) scale(0.128 -0.128)">
     <use xlink:href="#DejaVuSans-33"/>
    </g>
   </g>
   <g id="text_65">
    <!-- 0 -->
    <g transform="translate(349.088 134.4964) scale(0.128 -0.128)">
     <use xlink:href="#DejaVuSans-30"/>
    </g>
   </g>
   <g id="text_66">
    <!-- 1 -->
    <g transform="translate(371.408 134.4964) scale(0.128 -0.128)">
     <use xlink:href="#DejaVuSans-31"/>
    </g>
   </g>
   <g id="text_67">
    <!-- 2 -->
    <g transform="translate(393.728 134.4964) scale(0.128 -0.128)">
     <use xlink:href="#DejaVuSans-32"/>
    </g>
   </g>
   <g id="text_68">
    <!-- 3 -->
    <g transform="translate(416.048 134.4964) scale(0.128 -0.128)">
     <use xlink:href="#DejaVuSans-33"/>
    </g>
   </g>
   <g id="text_69">
    <!-- 0 -->
    <g transform="translate(549.968 134.4964) scale(0.128 -0.128)">
     <use xlink:href="#DejaVuSans-30"/>
    </g>
   </g>
   <g id="text_70">
    <!-- 1 -->
    <g transform="translate(572.288 134.4964) scale(0.128 -0.128)">
     <use xlink:href="#DejaVuSans-31"/>
    </g>
   </g>
   <g id="text_71">
    <!-- 2 -->
    <g transform="translate(594.608 134.4964) scale(0.128 -0.128)">
     <use xlink:href="#DejaVuSans-32"/>
    </g>
   </g>
   <g id="text_72">
    <!-- 3 -->
    <g transform="translate(616.928 134.4964) scale(0.128 -0.128)">
     <use xlink:href="#DejaVuSans-33"/>
    </g>
   </g>
   <g id="text_73">
    <!-- 0 -->
    <g transform="translate(148.208 156.8164) scale(0.128 -0.128)">
     <use xlink:href="#DejaVuSans-30"/>
    </g>
   </g>
   <g id="text_74">
    <!-- 1 -->
    <g transform="translate(170.528 156.8164) scale(0.128 -0.128)">
     <use xlink:href="#DejaVuSans-31"/>
    </g>
   </g>
   <g id="text_75">
    <!-- 2 -->
    <g transform="translate(192.848 156.8164) scale(0.128 -0.128)">
     <use xlink:href="#DejaVuSans-32"/>
    </g>
   </g>
   <g id="text_76">
    <!-- 3 -->
    <g transform="translate(215.168 156.8164) scale(0.128 -0.128)">
     <use xlink:href="#DejaVuSans-33"/>
    </g>
   </g>
   <g id="text_77">
    <!-- 0 -->
    <g transform="translate(326.768 156.8164) scale(0.128 -0.128)">
     <use xlink:href="#DejaVuSans-30"/>
    </g>
   </g>
   <g id="text_78">
    <!-- 1 -->
    <g transform="translate(349.088 156.8164) scale(0.128 -0.128)">
     <use xlink:href="#DejaVuSans-31"/>
    </g>
   </g>
   <g id="text_79">
    <!-- 2 -->
    <g transform="translate(371.408 156.8164) scale(0.128 -0.128)">
     <use xlink:href="#DejaVuSans-32"/>
    </g>
   </g>
   <g id="text_80">
    <!-- 3 -->
    <g transform="translate(393.728 156.8164) scale(0.128 -0.128)">
     <use xlink:href="#DejaVuSans-33"/>
    </g>
   </g>
   <g id="text_81">
    <!-- 0 -->
    <g transform="translate(549.968 156.8164) scale(0.128 -0.128)">
     <use xlink:href="#DejaVuSans-30"/>
    </g>
   </g>
   <g id="text_82">
    <!-- 1 -->
    <g transform="translate(572.288 156.8164) scale(0.128 -0.128)">
     <use xlink:href="#DejaVuSans-31"/>
    </g>
   </g>
   <g id="text_83">
    <!-- 2 -->
    <g transform="translate(594.608 156.8164) scale(0.128 -0.128)">
     <use xlink:href="#DejaVuSans-32"/>
    </g>
   </g>
   <g id="text_84">
    <!-- 3 -->
    <g transform="translate(616.928 156.8164) scale(0.128 -0.128)">
     <use xlink:href="#DejaVuSans-33"/>
    </g>
   </g>
   <g id="text_85">
    <!-- 0 -->
    <g transform="translate(170.528 179.1364) scale(0.128 -0.128)">
     <use xlink:href="#DejaVuSans-30"/>
    </g>
   </g>
   <g id="text_86">
    <!-- 1 -->
    <g transform="translate(192.848 179.1364) scale(0.128 -0.128)">
     <use xlink:href="#DejaVuSans-31"/>
    </g>
   </g>
   <g id="text_87">
    <!-- 2 -->
    <g transform="translate(215.168 179.1364) scale(0.128 -0.128)">
     <use xlink:href="#DejaVuSans-32"/>
    </g>
   </g>
   <g id="text_88">
    <!-- 3 -->
    <g transform="translate(237.488 179.1364) scale(0.128 -0.128)">
     <use xlink:href="#DejaVuSans-33"/>
    </g>
   </g>
   <g id="text_89">
    <!-- 0 -->
    <g transform="translate(304.448 179.1364) scale(0.128 -0.128)">
     <use xlink:href="#DejaVuSans-30"/>
    </g>
   </g>
   <g id="text_90">
    <!-- 1 -->
    <g transform="translate(326.768 179.1364) scale(0.128 -0.128)">
     <use xlink:href="#DejaVuSans-31"/>
    </g>
   </g>
   <g id="text_91">
    <!-- 2 -->
    <g transform="translate(349.088 179.1364) scale(0.128 -0.128)">
     <use xlink:href="#DejaVuSans-32"/>
    </g>
   </g>
   <g id="text_92">
    <!-- 3 -->
    <g transform="translate(371.408 179.1364) scale(0.128 -0.128)">
     <use xlink:href="#DejaVuSans-33"/>
    </g>
   </g>
   <g id="text_93">
    <!-- 0 -->
    <g transform="translate(549.968 179.1364) scale(0.128 -0.128)">
     <use xlink:href="#DejaVuSans-30"/>
    </g>
   </g>
   <g id="text_94">
    <!-- 1 -->
    <g transform="translate(572.288 179.1364) scale(0.128 -0.128)">
     <use xlink:href="#DejaVuSans-31"/>
    </g>
   </g>
   <g id="text_95">
    <!-- 2 -->
    <g transform="translate(594.608 179.1364) scale(0.128 -0.128)">
     <use xlink:href="#DejaVuSans-32"/>
    </g>
   </g>
   <g id="text_96">
    <!-- 3 -->
    <g transform="translate(616.928 179.1364) scale(0.128 -0.128)">
     <use xlink:href="#DejaVuSans-33"/>
    </g>
   </g>
   <g id="text_97">
    <!-- 0 -->
    <g transform="translate(192.848 201.4564) scale(0.128 -0.128)">
     <use xlink:href="#DejaVuSans-30"/>
    </g>
   </g>
   <g id="text_98">
    <!-- 1 -->
    <g transform="translate(215.168 201.4564) scale(0.128 -0.128)">
     <use xlink:href="#DejaVuSans-31"/>
    </g>
   </g>
   <g id="text_99">
    <!-- 2 -->
    <g transform="translate(237.488 201.4564) scale(0.128 -0.128)">
     <use xlink:href="#DejaVuSans-32"/>
    </g>
   </g>
   <g id="text_100">
    <!-- 3 -->
    <g transform="translate(259.808 201.4564) scale(0.128 -0.128)">
     <use xlink:href="#DejaVuSans-33"/>
    </g>
   </g>
   <g id="text_101">
    <!-- 0 -->
    <g transform="translate(282.128 201.4564) scale(0.128 -0.128)">
     <use xlink:href="#DejaVuSans-30"/>
    </g>
   </g>
   <g id="text_102">
    <!-- 1 -->
    <g transform="translate(304.448 201.4564) scale(0.128 -0.128)">
     <use xlink:href="#DejaVuSans-31"/>
    </g>
   </g>
   <g id="text_103">
    <!-- 2 -->
    <g transform="translate(326.768 201.4564) scale(0.128 -0.128)">
     <use xlink:href="#DejaVuSans-32"/>
    </g>
   </g>
   <g id="text_104">
    <!-- 3 -->
    <g transform="translate(349.088 201.4564) scale(0.128 -0.128)">
     <use xlink:href="#DejaVuSans-33"/>
    </g>
   </g>
   <g id="text_105">
    <!-- 0 -->
    <g transform="translate(549.968 201.4564) scale(0.128 -0.128)">
     <use xlink:href="#DejaVuSans-30"/>
    </g>
   </g>
   <g id="text_106">
    <!-- 1 -->
    <g transform="translate(572.288 201.4564) scale(0.128 -0.128)">
     <use xlink:href="#DejaVuSans-31"/>
    </g>
   </g>
   <g id="text_107">
    <!-- 2 -->
    <g transform="translate(594.608 201.4564) scale(0.128 -0.128)">
     <use xlink:href="#DejaVuSans-32"/>
    </g>
   </g>
   <g id="text_108">
    <!-- 3 -->
    <g transform="translate(616.928 201.4564) scale(0.128 -0.128)">
     <use xlink:href="#DejaVuSans-33"/>
    </g>
   </g>
  </g>
 </g>
 <defs>
  <clipPath id="pa26d9cc9d7">
   <rect x="7.2" y="7.2" width="1116" height="200.88"/>
  </clipPath>
 </defs>
</svg>
