<?xml version="1.0" encoding="utf-8" standalone="no"?>
<!DOCTYPE svg PUBLIC "-//W3C//DTD SVG 1.1//EN"
  "http://www.w3.org/Graphics/SVG/1.1/DTD/svg11.dtd">
<svg xmlns:xlink="http://www.w3.org/1999/xlink" width="1130.4pt" height="209.7pt" viewBox="0 0 1130.4 209.7" xmlns="http://www.w3.org/2000/svg" version="1.1">
 <metadata>
  <rdf:RDF xmlns:dc="http://purl.org/dc/elements/1.1/" xmlns:cc="http://creativecommons.org/ns#" xmlns:rdf="http://www.w3.org/1999/02/22-rdf-syntax-ns#">
   <cc:Work>
    <dc:type rdf:resource="http://purl.org/dc/dcmitype/StillImage"/>
    <dc:date>2025-05-10T21:57:29.061897</dc:date>
    <dc:format>image/svg+xml</dc:format>
    <dc:creator>
     <cc:Agent>
      <dc:title>Matplotlib v3.6.3, https://matplotlib.org/</dc:title>
     </cc:Agent>
    </dc:creator>
   </cc:Work>
  </rdf:RDF>
 </metadata>
 <defs>
  <style type="text/css">*{stroke-linejoin: round; stroke-linecap: butt}</style>
 </defs>
 <g id="figure_1">
  <g id="patch_1">
   <path d="M 0 209.7 
L 1130.4 209.7 
L 1130.4 0 
L 0 0 
z
" style="fill: #ffffff"/>
  </g>
  <g id="axes_1">
   <g id="PatchCollection_1">
    <path d="M 7.2 35.1 
L 35.1 35.1 
L 35.1 7.2 
L 7.2 7.2 
z
" clip-path="url(#p72ea401229)" style="fill: #fcb225; stroke: #000000; stroke-width: 0.8"/>
    <path d="M 35.1 35.1 
L 63 35.1 
L 63 7.2 
L 35.1 7.2 
z
" clip-path="url(#p72ea401229)" style="fill: #fcb225; stroke: #000000; stroke-width: 0.8"/>
    <path d="M 63 35.1 
L 90.9 35.1 
L 90.9 7.2 
L 63 7.2 
z
" clip-path="url(#p72ea401229)" style="fill: #fcb225; stroke: #000000; stroke-width: 0.8"/>
    <path d="M 537.3 35.1 
L 565.2 35.1 
L 565.2 7.2 
L 537.3 7.2 
z
" clip-path="url(#p72ea401229)" style="fill: #5add4a; stroke: #000000; stroke-width: 0.8"/>
    <path d="M 565.2 35.1 
L 593.1 35.1 
L 593.1 7.2 
L 565.2 7.2 
z
" clip-path="url(#p72ea401229)" style="fill: #60bdfd; stroke: #000000; stroke-width: 0.8"/>
    <path d="M 621 35.1 
L 648.9 35.1 
L 648.9 7.2 
L 621 7.2 
z
" clip-path="url(#p72ea401229)" style="fill: #5add4a; stroke: #000000; stroke-width: 0.8"/>
    <path d="M 648.9 35.1 
L 676.8 35.1 
L 676.8 7.2 
L 648.9 7.2 
z
" clip-path="url(#p72ea401229)" style="fill: #60bdfd; stroke: #000000; stroke-width: 0.8"/>
    <path d="M 704.7 35.1 
L 732.6 35.1 
L 732.6 7.2 
L 704.7 7.2 
z
" clip-path="url(#p72ea401229)" style="fill: #5add4a; stroke: #000000; stroke-width: 0.8"/>
    <path d="M 732.6 35.1 
L 760.5 35.1 
L 760.5 7.2 
L 732.6 7.2 
z
" clip-path="url(#p72ea401229)" style="fill: #60bdfd; stroke: #000000; stroke-width: 0.8"/>
    <path d="M 35.1 63 
L 63 63 
L 63 35.1 
L 35.1 35.1 
z
" clip-path="url(#p72ea401229)" style="fill: #fcb225; stroke: #000000; stroke-width: 0.8"/>
    <path d="M 63 63 
L 90.9 63 
L 90.9 35.1 
L 63 35.1 
z
" clip-path="url(#p72ea401229)" style="fill: #fcb225; stroke: #000000; stroke-width: 0.8"/>
    <path d="M 90.9 63 
L 118.8 63 
L 118.8 35.1 
L 90.9 35.1 
z
" clip-path="url(#p72ea401229)" style="fill: #fcb225; stroke: #000000; stroke-width: 0.8"/>
    <path d="M 481.5 63 
L 509.4 63 
L 509.4 35.1 
L 481.5 35.1 
z
" clip-path="url(#p72ea401229)" style="fill: #5add4a; stroke: #000000; stroke-width: 0.8"/>
    <path d="M 509.4 63 
L 537.3 63 
L 537.3 35.1 
L 509.4 35.1 
z
" clip-path="url(#p72ea401229)" style="fill: #60bdfd; stroke: #000000; stroke-width: 0.8"/>
    <path d="M 565.2 63 
L 593.1 63 
L 593.1 35.1 
L 565.2 35.1 
z
" clip-path="url(#p72ea401229)" style="fill: #5add4a; stroke: #000000; stroke-width: 0.8"/>
    <path d="M 593.1 63 
L 621 63 
L 621 35.1 
L 593.1 35.1 
z
" clip-path="url(#p72ea401229)" style="fill: #60bdfd; stroke: #000000; stroke-width: 0.8"/>
    <path d="M 648.9 63 
L 676.8 63 
L 676.8 35.1 
L 648.9 35.1 
z
" clip-path="url(#p72ea401229)" style="fill: #5add4a; stroke: #000000; stroke-width: 0.8"/>
    <path d="M 676.8 63 
L 704.7 63 
L 704.7 35.1 
L 676.8 35.1 
z
" clip-path="url(#p72ea401229)" style="fill: #60bdfd; stroke: #000000; stroke-width: 0.8"/>
    <path d="M 63 90.9 
L 90.9 90.9 
L 90.9 63 
L 63 63 
z
" clip-path="url(#p72ea401229)" style="fill: #fcb225; stroke: #000000; stroke-width: 0.8"/>
    <path d="M 90.9 90.9 
L 118.8 90.9 
L 118.8 63 
L 90.9 63 
z
" clip-path="url(#p72ea401229)" style="fill: #fcb225; stroke: #000000; stroke-width: 0.8"/>
    <path d="M 118.8 90.9 
L 146.7 90.9 
L 146.7 63 
L 118.8 63 
z
" clip-path="url(#p72ea401229)" style="fill: #fcb225; stroke: #000000; stroke-width: 0.8"/>
    <path d="M 425.7 90.9 
L 453.6 90.9 
L 453.6 63 
L 425.7 63 
z
" clip-path="url(#p72ea401229)" style="fill: #5add4a; stroke: #000000; stroke-width: 0.8"/>
    <path d="M 453.6 90.9 
L 481.5 90.9 
L 481.5 63 
L 453.6 63 
z
" clip-path="url(#p72ea401229)" style="fill: #60bdfd; stroke: #000000; stroke-width: 0.8"/>
    <path d="M 509.4 90.9 
L 537.3 90.9 
L 537.3 63 
L 509.4 63 
z
" clip-path="url(#p72ea401229)" style="fill: #5add4a; stroke: #000000; stroke-width: 0.8"/>
    <path d="M 537.3 90.9 
L 565.2 90.9 
L 565.2 63 
L 537.3 63 
z
" clip-path="url(#p72ea401229)" style="fill: #60bdfd; stroke: #000000; stroke-width: 0.8"/>
    <path d="M 593.1 90.9 
L 621 90.9 
L 621 63 
L 593.1 63 
z
" clip-path="url(#p72ea401229)" style="fill: #5add4a; stroke: #000000; stroke-width: 0.8"/>
    <path d="M 621 90.9 
L 648.9 90.9 
L 648.9 63 
L 621 63 
z
" clip-path="url(#p72ea401229)" style="fill: #60bdfd; stroke: #000000; stroke-width: 0.8"/>
    <path d="M 90.9 118.8 
L 118.8 118.8 
L 118.8 90.9 
L 90.9 90.9 
z
" clip-path="url(#p72ea401229)" style="fill: #fcb225; stroke: #000000; stroke-width: 0.8"/>
    <path d="M 118.8 118.8 
L 146.7 118.8 
L 146.7 90.9 
L 118.8 90.9 
z
" clip-path="url(#p72ea401229)" style="fill: #fcb225; stroke: #000000; stroke-width: 0.8"/>
    <path d="M 146.7 118.8 
L 174.6 118.8 
L 174.6 90.9 
L 146.7 90.9 
z
" clip-path="url(#p72ea401229)" style="fill: #fcb225; stroke: #000000; stroke-width: 0.8"/>
    <path d="M 369.9 118.8 
L 397.8 118.8 
L 397.8 90.9 
L 369.9 90.9 
z
" clip-path="url(#p72ea401229)" style="fill: #5add4a; stroke: #000000; stroke-width: 0.8"/>
    <path d="M 397.8 118.8 
L 425.7 118.8 
L 425.7 90.9 
L 397.8 90.9 
z
" clip-path="url(#p72ea401229)" style="fill: #60bdfd; stroke: #000000; stroke-width: 0.8"/>
    <path d="M 453.6 118.8 
L 481.5 118.8 
L 481.5 90.9 
L 453.6 90.9 
z
" clip-path="url(#p72ea401229)" style="fill: #5add4a; stroke: #000000; stroke-width: 0.8"/>
    <path d="M 481.5 118.8 
L 509.4 118.8 
L 509.4 90.9 
L 481.5 90.9 
z
" clip-path="url(#p72ea401229)" style="fill: #60bdfd; stroke: #000000; stroke-width: 0.8"/>
    <path d="M 537.3 118.8 
L 565.2 118.8 
L 565.2 90.9 
L 537.3 90.9 
z
" clip-path="url(#p72ea401229)" style="fill: #5add4a; stroke: #000000; stroke-width: 0.8"/>
    <path d="M 565.2 118.8 
L 593.1 118.8 
L 593.1 90.9 
L 565.2 90.9 
z
" clip-path="url(#p72ea401229)" style="fill: #60bdfd; stroke: #000000; stroke-width: 0.8"/>
    <path d="M 118.8 146.7 
L 146.7 146.7 
L 146.7 118.8 
L 118.8 118.8 
z
" clip-path="url(#p72ea401229)" style="fill: #fcb225; stroke: #000000; stroke-width: 0.8"/>
    <path d="M 146.7 146.7 
L 174.6 146.7 
L 174.6 118.8 
L 146.7 118.8 
z
" clip-path="url(#p72ea401229)" style="fill: #fcb225; stroke: #000000; stroke-width: 0.8"/>
    <path d="M 174.6 146.7 
L 202.5 146.7 
L 202.5 118.8 
L 174.6 118.8 
z
" clip-path="url(#p72ea401229)" style="fill: #fcb225; stroke: #000000; stroke-width: 0.8"/>
    <path d="M 314.1 146.7 
L 342 146.7 
L 342 118.8 
L 314.1 118.8 
z
" clip-path="url(#p72ea401229)" style="fill: #5add4a; stroke: #000000; stroke-width: 0.8"/>
    <path d="M 342 146.7 
L 369.9 146.7 
L 369.9 118.8 
L 342 118.8 
z
" clip-path="url(#p72ea401229)" style="fill: #60bdfd; stroke: #000000; stroke-width: 0.8"/>
    <path d="M 397.8 146.7 
L 425.7 146.7 
L 425.7 118.8 
L 397.8 118.8 
z
" clip-path="url(#p72ea401229)" style="fill: #5add4a; stroke: #000000; stroke-width: 0.8"/>
    <path d="M 425.7 146.7 
L 453.6 146.7 
L 453.6 118.8 
L 425.7 118.8 
z
" clip-path="url(#p72ea401229)" style="fill: #60bdfd; stroke: #000000; stroke-width: 0.8"/>
    <path d="M 481.5 146.7 
L 509.4 146.7 
L 509.4 118.8 
L 481.5 118.8 
z
" clip-path="url(#p72ea401229)" style="fill: #5add4a; stroke: #000000; stroke-width: 0.8"/>
    <path d="M 509.4 146.7 
L 537.3 146.7 
L 537.3 118.8 
L 509.4 118.8 
z
" clip-path="url(#p72ea401229)" style="fill: #60bdfd; stroke: #000000; stroke-width: 0.8"/>
    <path d="M 146.7 174.6 
L 174.6 174.6 
L 174.6 146.7 
L 146.7 146.7 
z
" clip-path="url(#p72ea401229)" style="fill: #fcb225; stroke: #000000; stroke-width: 0.8"/>
    <path d="M 174.6 174.6 
L 202.5 174.6 
L 202.5 146.7 
L 174.6 146.7 
z
" clip-path="url(#p72ea401229)" style="fill: #fcb225; stroke: #000000; stroke-width: 0.8"/>
    <path d="M 258.3 174.6 
L 286.2 174.6 
L 286.2 146.7 
L 258.3 146.7 
z
" clip-path="url(#p72ea401229)" style="fill: #5add4a; stroke: #000000; stroke-width: 0.8"/>
    <path d="M 286.2 174.6 
L 314.1 174.6 
L 314.1 146.7 
L 286.2 146.7 
z
" clip-path="url(#p72ea401229)" style="fill: #60bdfd; stroke: #000000; stroke-width: 0.8"/>
    <path d="M 314.1 174.6 
L 342 174.6 
L 342 146.7 
L 314.1 146.7 
z
" clip-path="url(#p72ea401229)" style="fill: #fcb225; stroke: #000000; stroke-width: 0.8"/>
    <path d="M 342 174.6 
L 369.9 174.6 
L 369.9 146.7 
L 342 146.7 
z
" clip-path="url(#p72ea401229)" style="fill: #5add4a; stroke: #000000; stroke-width: 0.8"/>
    <path d="M 369.9 174.6 
L 397.8 174.6 
L 397.8 146.7 
L 369.9 146.7 
z
" clip-path="url(#p72ea401229)" style="fill: #60bdfd; stroke: #000000; stroke-width: 0.8"/>
    <path d="M 425.7 174.6 
L 453.6 174.6 
L 453.6 146.7 
L 425.7 146.7 
z
" clip-path="url(#p72ea401229)" style="fill: #5add4a; stroke: #000000; stroke-width: 0.8"/>
    <path d="M 453.6 174.6 
L 481.5 174.6 
L 481.5 146.7 
L 453.6 146.7 
z
" clip-path="url(#p72ea401229)" style="fill: #60bdfd; stroke: #000000; stroke-width: 0.8"/>
    <path d="M 174.6 202.5 
L 202.5 202.5 
L 202.5 174.6 
L 174.6 174.6 
z
" clip-path="url(#p72ea401229)" style="fill: #fcb225; stroke: #000000; stroke-width: 0.8"/>
    <path d="M 202.5 202.5 
L 230.4 202.5 
L 230.4 174.6 
L 202.5 174.6 
z
" clip-path="url(#p72ea401229)" style="fill: #5add4a; stroke: #000000; stroke-width: 0.8"/>
    <path d="M 230.4 202.5 
L 258.3 202.5 
L 258.3 174.6 
L 230.4 174.6 
z
" clip-path="url(#p72ea401229)" style="fill: #60bdfd; stroke: #000000; stroke-width: 0.8"/>
    <path d="M 258.3 202.5 
L 286.2 202.5 
L 286.2 174.6 
L 258.3 174.6 
z
" clip-path="url(#p72ea401229)" style="fill: #fcb225; stroke: #000000; stroke-width: 0.8"/>
    <path d="M 286.2 202.5 
L 314.1 202.5 
L 314.1 174.6 
L 286.2 174.6 
z
" clip-path="url(#p72ea401229)" style="fill: #5add4a; stroke: #000000; stroke-width: 0.8"/>
    <path d="M 314.1 202.5 
L 342 202.5 
L 342 174.6 
L 314.1 174.6 
z
" clip-path="url(#p72ea401229)" style="fill: #60bdfd; stroke: #000000; stroke-width: 0.8"/>
    <path d="M 342 202.5 
L 369.9 202.5 
L 369.9 174.6 
L 342 174.6 
z
" clip-path="url(#p72ea401229)" style="fill: #fcb225; stroke: #000000; stroke-width: 0.8"/>
    <path d="M 369.9 202.5 
L 397.8 202.5 
L 397.8 174.6 
L 369.9 174.6 
z
" clip-path="url(#p72ea401229)" style="fill: #5add4a; stroke: #000000; stroke-width: 0.8"/>
    <path d="M 397.8 202.5 
L 425.7 202.5 
L 425.7 174.6 
L 397.8 174.6 
z
" clip-path="url(#p72ea401229)" style="fill: #60bdfd; stroke: #000000; stroke-width: 0.8"/>
   </g>
   <g id="text_1">
    <!-- 0 -->
    <g transform="translate(16.06 26.8205) scale(0.16 -0.16)">
     <defs>
      <path id="DejaVuSans-30" d="M 2034 4250 
Q 1547 4250 1301 3770 
Q 1056 3291 1056 2328 
Q 1056 1369 1301 889 
Q 1547 409 2034 409 
Q 2525 409 2770 889 
Q 3016 1369 3016 2328 
Q 3016 3291 2770 3770 
Q 2525 4250 2034 4250 
z
M 2034 4750 
Q 2819 4750 3233 4129 
Q 3647 3509 3647 2328 
Q 3647 1150 3233 529 
Q 2819 -91 2034 -91 
Q 1250 -91 836 529 
Q 422 1150 422 2328 
Q 422 3509 836 4129 
Q 1250 4750 2034 4750 
z
" transform="scale(0.015625)"/>
     </defs>
     <use xlink:href="#DejaVuSans-30"/>
    </g>
   </g>
   <g id="text_2">
    <!-- 1 -->
    <g transform="translate(43.96 26.8205) scale(0.16 -0.16)">
     <defs>
      <path id="DejaVuSans-31" d="M 794 531 
L 1825 531 
L 1825 4091 
L 703 3866 
L 703 4441 
L 1819 4666 
L 2450 4666 
L 2450 531 
L 3481 531 
L 3481 0 
L 794 0 
L 794 531 
z
" transform="scale(0.015625)"/>
     </defs>
     <use xlink:href="#DejaVuSans-31"/>
    </g>
   </g>
   <g id="text_3">
    <!-- 2 -->
    <g transform="translate(71.86 26.8205) scale(0.16 -0.16)">
     <defs>
      <path id="DejaVuSans-32" d="M 1228 531 
L 3431 531 
L 3431 0 
L 469 0 
L 469 531 
Q 828 903 1448 1529 
Q 2069 2156 2228 2338 
Q 2531 2678 2651 2914 
Q 2772 3150 2772 3378 
Q 2772 3750 2511 3984 
Q 2250 4219 1831 4219 
Q 1534 4219 1204 4116 
Q 875 4013 500 3803 
L 500 4441 
Q 881 4594 1212 4672 
Q 1544 4750 1819 4750 
Q 2544 4750 2975 4387 
Q 3406 4025 3406 3419 
Q 3406 3131 3298 2873 
Q 3191 2616 2906 2266 
Q 2828 2175 2409 1742 
Q 1991 1309 1228 531 
z
" transform="scale(0.015625)"/>
     </defs>
     <use xlink:href="#DejaVuSans-32"/>
    </g>
   </g>
   <g id="text_4">
    <!-- 0 -->
    <g transform="translate(546.16 26.8205) scale(0.16 -0.16)">
     <use xlink:href="#DejaVuSans-30"/>
    </g>
   </g>
   <g id="text_5">
    <!-- 0 -->
    <g transform="translate(574.06 26.8205) scale(0.16 -0.16)">
     <use xlink:href="#DejaVuSans-30"/>
    </g>
   </g>
   <g id="text_6">
    <!-- 1 -->
    <g transform="translate(629.86 26.8205) scale(0.16 -0.16)">
     <use xlink:href="#DejaVuSans-31"/>
    </g>
   </g>
   <g id="text_7">
    <!-- 1 -->
    <g transform="translate(657.76 26.8205) scale(0.16 -0.16)">
     <use xlink:href="#DejaVuSans-31"/>
    </g>
   </g>
   <g id="text_8">
    <!-- 2 -->
    <g transform="translate(713.56 26.8205) scale(0.16 -0.16)">
     <use xlink:href="#DejaVuSans-32"/>
    </g>
   </g>
   <g id="text_9">
    <!-- 2 -->
    <g transform="translate(741.46 26.8205) scale(0.16 -0.16)">
     <use xlink:href="#DejaVuSans-32"/>
    </g>
   </g>
   <g id="text_10">
    <!-- 0 -->
    <g transform="translate(43.96 54.7205) scale(0.16 -0.16)">
     <use xlink:href="#DejaVuSans-30"/>
    </g>
   </g>
   <g id="text_11">
    <!-- 1 -->
    <g transform="translate(71.86 54.7205) scale(0.16 -0.16)">
     <use xlink:href="#DejaVuSans-31"/>
    </g>
   </g>
   <g id="text_12">
    <!-- 2 -->
    <g transform="translate(99.76 54.7205) scale(0.16 -0.16)">
     <use xlink:href="#DejaVuSans-32"/>
    </g>
   </g>
   <g id="text_13">
    <!-- 0 -->
    <g transform="translate(490.36 54.7205) scale(0.16 -0.16)">
     <use xlink:href="#DejaVuSans-30"/>
    </g>
   </g>
   <g id="text_14">
    <!-- 0 -->
    <g transform="translate(518.26 54.7205) scale(0.16 -0.16)">
     <use xlink:href="#DejaVuSans-30"/>
    </g>
   </g>
   <g id="text_15">
    <!-- 1 -->
    <g transform="translate(574.06 54.7205) scale(0.16 -0.16)">
     <use xlink:href="#DejaVuSans-31"/>
    </g>
   </g>
   <g id="text_16">
    <!-- 1 -->
    <g transform="translate(601.96 54.7205) scale(0.16 -0.16)">
     <use xlink:href="#DejaVuSans-31"/>
    </g>
   </g>
   <g id="text_17">
    <!-- 2 -->
    <g transform="translate(657.76 54.7205) scale(0.16 -0.16)">
     <use xlink:href="#DejaVuSans-32"/>
    </g>
   </g>
   <g id="text_18">
    <!-- 2 -->
    <g transform="translate(685.66 54.7205) scale(0.16 -0.16)">
     <use xlink:href="#DejaVuSans-32"/>
    </g>
   </g>
   <g id="text_19">
    <!-- 0 -->
    <g transform="translate(71.86 82.6205) scale(0.16 -0.16)">
     <use xlink:href="#DejaVuSans-30"/>
    </g>
   </g>
   <g id="text_20">
    <!-- 1 -->
    <g transform="translate(99.76 82.6205) scale(0.16 -0.16)">
     <use xlink:href="#DejaVuSans-31"/>
    </g>
   </g>
   <g id="text_21">
    <!-- 2 -->
    <g transform="translate(127.66 82.6205) scale(0.16 -0.16)">
     <use xlink:href="#DejaVuSans-32"/>
    </g>
   </g>
   <g id="text_22">
    <!-- 0 -->
    <g transform="translate(434.56 82.6205) scale(0.16 -0.16)">
     <use xlink:href="#DejaVuSans-30"/>
    </g>
   </g>
   <g id="text_23">
    <!-- 0 -->
    <g transform="translate(462.46 82.6205) scale(0.16 -0.16)">
     <use xlink:href="#DejaVuSans-30"/>
    </g>
   </g>
   <g id="text_24">
    <!-- 1 -->
    <g transform="translate(518.26 82.6205) scale(0.16 -0.16)">
     <use xlink:href="#DejaVuSans-31"/>
    </g>
   </g>
   <g id="text_25">
    <!-- 1 -->
    <g transform="translate(546.16 82.6205) scale(0.16 -0.16)">
     <use xlink:href="#DejaVuSans-31"/>
    </g>
   </g>
   <g id="text_26">
    <!-- 2 -->
    <g transform="translate(601.96 82.6205) scale(0.16 -0.16)">
     <use xlink:href="#DejaVuSans-32"/>
    </g>
   </g>
   <g id="text_27">
    <!-- 2 -->
    <g transform="translate(629.86 82.6205) scale(0.16 -0.16)">
     <use xlink:href="#DejaVuSans-32"/>
    </g>
   </g>
   <g id="text_28">
    <!-- 0 -->
    <g transform="translate(99.76 110.5205) scale(0.16 -0.16)">
     <use xlink:href="#DejaVuSans-30"/>
    </g>
   </g>
   <g id="text_29">
    <!-- 1 -->
    <g transform="translate(127.66 110.5205) scale(0.16 -0.16)">
     <use xlink:href="#DejaVuSans-31"/>
    </g>
   </g>
   <g id="text_30">
    <!-- 2 -->
    <g transform="translate(155.56 110.5205) scale(0.16 -0.16)">
     <use xlink:href="#DejaVuSans-32"/>
    </g>
   </g>
   <g id="text_31">
    <!-- 0 -->
    <g transform="translate(378.76 110.5205) scale(0.16 -0.16)">
     <use xlink:href="#DejaVuSans-30"/>
    </g>
   </g>
   <g id="text_32">
    <!-- 0 -->
    <g transform="translate(406.66 110.5205) scale(0.16 -0.16)">
     <use xlink:href="#DejaVuSans-30"/>
    </g>
   </g>
   <g id="text_33">
    <!-- 1 -->
    <g transform="translate(462.46 110.5205) scale(0.16 -0.16)">
     <use xlink:href="#DejaVuSans-31"/>
    </g>
   </g>
   <g id="text_34">
    <!-- 1 -->
    <g transform="translate(490.36 110.5205) scale(0.16 -0.16)">
     <use xlink:href="#DejaVuSans-31"/>
    </g>
   </g>
   <g id="text_35">
    <!-- 2 -->
    <g transform="translate(546.16 110.5205) scale(0.16 -0.16)">
     <use xlink:href="#DejaVuSans-32"/>
    </g>
   </g>
   <g id="text_36">
    <!-- 2 -->
    <g transform="translate(574.06 110.5205) scale(0.16 -0.16)">
     <use xlink:href="#DejaVuSans-32"/>
    </g>
   </g>
   <g id="text_37">
    <!-- 0 -->
    <g transform="translate(127.66 138.4205) scale(0.16 -0.16)">
     <use xlink:href="#DejaVuSans-30"/>
    </g>
   </g>
   <g id="text_38">
    <!-- 1 -->
    <g transform="translate(155.56 138.4205) scale(0.16 -0.16)">
     <use xlink:href="#DejaVuSans-31"/>
    </g>
   </g>
   <g id="text_39">
    <!-- 2 -->
    <g transform="translate(183.46 138.4205) scale(0.16 -0.16)">
     <use xlink:href="#DejaVuSans-32"/>
    </g>
   </g>
   <g id="text_40">
    <!-- 0 -->
    <g transform="translate(322.96 138.4205) scale(0.16 -0.16)">
     <use xlink:href="#DejaVuSans-30"/>
    </g>
   </g>
   <g id="text_41">
    <!-- 0 -->
    <g transform="translate(350.86 138.4205) scale(0.16 -0.16)">
     <use xlink:href="#DejaVuSans-30"/>
    </g>
   </g>
   <g id="text_42">
    <!-- 1 -->
    <g transform="translate(406.66 138.4205) scale(0.16 -0.16)">
     <use xlink:href="#DejaVuSans-31"/>
    </g>
   </g>
   <g id="text_43">
    <!-- 1 -->
    <g transform="translate(434.56 138.4205) scale(0.16 -0.16)">
     <use xlink:href="#DejaVuSans-31"/>
    </g>
   </g>
   <g id="text_44">
    <!-- 2 -->
    <g transform="translate(490.36 138.4205) scale(0.16 -0.16)">
     <use xlink:href="#DejaVuSans-32"/>
    </g>
   </g>
   <g id="text_45">
    <!-- 2 -->
    <g transform="translate(518.26 138.4205) scale(0.16 -0.16)">
     <use xlink:href="#DejaVuSans-32"/>
    </g>
   </g>
   <g id="text_46">
    <!-- 0 -->
    <g transform="translate(155.56 166.3205) scale(0.16 -0.16)">
     <use xlink:href="#DejaVuSans-30"/>
    </g>
   </g>
   <g id="text_47">
    <!-- 1 -->
    <g transform="translate(183.46 166.3205) scale(0.16 -0.16)">
     <use xlink:href="#DejaVuSans-31"/>
    </g>
   </g>
   <g id="text_48">
    <!-- 0 -->
    <g transform="translate(267.16 166.3205) scale(0.16 -0.16)">
     <use xlink:href="#DejaVuSans-30"/>
    </g>
   </g>
   <g id="text_49">
    <!-- 0 -->
    <g transform="translate(295.06 166.3205) scale(0.16 -0.16)">
     <use xlink:href="#DejaVuSans-30"/>
    </g>
   </g>
   <g id="text_50">
    <!-- 2 -->
    <g transform="translate(322.96 166.3205) scale(0.16 -0.16)">
     <use xlink:href="#DejaVuSans-32"/>
    </g>
   </g>
   <g id="text_51">
    <!-- 1 -->
    <g transform="translate(350.86 166.3205) scale(0.16 -0.16)">
     <use xlink:href="#DejaVuSans-31"/>
    </g>
   </g>
   <g id="text_52">
    <!-- 1 -->
    <g transform="translate(378.76 166.3205) scale(0.16 -0.16)">
     <use xlink:href="#DejaVuSans-31"/>
    </g>
   </g>
   <g id="text_53">
    <!-- 2 -->
    <g transform="translate(434.56 166.3205) scale(0.16 -0.16)">
     <use xlink:href="#DejaVuSans-32"/>
    </g>
   </g>
   <g id="text_54">
    <!-- 2 -->
    <g transform="translate(462.46 166.3205) scale(0.16 -0.16)">
     <use xlink:href="#DejaVuSans-32"/>
    </g>
   </g>
   <g id="text_55">
    <!-- 0 -->
    <g transform="translate(183.46 194.2205) scale(0.16 -0.16)">
     <use xlink:href="#DejaVuSans-30"/>
    </g>
   </g>
   <g id="text_56">
    <!-- 0 -->
    <g transform="translate(211.36 194.2205) scale(0.16 -0.16)">
     <use xlink:href="#DejaVuSans-30"/>
    </g>
   </g>
   <g id="text_57">
    <!-- 0 -->
    <g transform="translate(239.26 194.2205) scale(0.16 -0.16)">
     <use xlink:href="#DejaVuSans-30"/>
    </g>
   </g>
   <g id="text_58">
    <!-- 1 -->
    <g transform="translate(267.16 194.2205) scale(0.16 -0.16)">
     <use xlink:href="#DejaVuSans-31"/>
    </g>
   </g>
   <g id="text_59">
    <!-- 1 -->
    <g transform="translate(295.06 194.2205) scale(0.16 -0.16)">
     <use xlink:href="#DejaVuSans-31"/>
    </g>
   </g>
   <g id="text_60">
    <!-- 1 -->
    <g transform="translate(322.96 194.2205) scale(0.16 -0.16)">
     <use xlink:href="#DejaVuSans-31"/>
    </g>
   </g>
   <g id="text_61">
    <!-- 2 -->
    <g transform="translate(350.86 194.2205) scale(0.16 -0.16)">
     <use xlink:href="#DejaVuSans-32"/>
    </g>
   </g>
   <g id="text_62">
    <!-- 2 -->
    <g transform="translate(378.76 194.2205) scale(0.16 -0.16)">
     <use xlink:href="#DejaVuSans-32"/>
    </g>
   </g>
   <g id="text_63">
    <!-- 2 -->
    <g transform="translate(406.66 194.2205) scale(0.16 -0.16)">
     <use xlink:href="#DejaVuSans-32"/>
    </g>
   </g>
  </g>
 </g>
 <defs>
  <clipPath id="p72ea401229">
   <rect x="7.2" y="7.2" width="1116" height="195.3"/>
  </clipPath>
 </defs>
</svg>
