<?xml version="1.0" encoding="utf-8" standalone="no"?>
<!DOCTYPE svg PUBLIC "-//W3C//DTD SVG 1.1//EN"
  "http://www.w3.org/Graphics/SVG/1.1/DTD/svg11.dtd">
<svg xmlns:xlink="http://www.w3.org/1999/xlink" width="1130.4pt" height="94.114286pt" viewBox="0 0 1130.4 94.114286" xmlns="http://www.w3.org/2000/svg" version="1.1">
 <metadata>
  <rdf:RDF xmlns:dc="http://purl.org/dc/elements/1.1/" xmlns:cc="http://creativecommons.org/ns#" xmlns:rdf="http://www.w3.org/1999/02/22-rdf-syntax-ns#">
   <cc:Work>
    <dc:type rdf:resource="http://purl.org/dc/dcmitype/StillImage"/>
    <dc:date>2025-05-10T21:57:37.887424</dc:date>
    <dc:format>image/svg+xml</dc:format>
    <dc:creator>
     <cc:Agent>
      <dc:title>Matplotlib v3.6.3, https://matplotlib.org/</dc:title>
     </cc:Agent>
    </dc:creator>
   </cc:Work>
  </rdf:RDF>
 </metadata>
 <defs>
  <style type="text/css">*{stroke-linejoin: round; stroke-linecap: butt}</style>
 </defs>
 <g id="figure_1">
  <g id="patch_1">
   <path d="M 0 94.114286 
L 1130.4 94.114286 
L 1130.4 -0 
L 0 -0 
z
" style="fill: #ffffff"/>
  </g>
  <g id="axes_1">
   <g id="PatchCollection_1">
    <path d="M 7.2 27.128571 
L 27.128571 27.128571 
L 27.128571 7.2 
L 7.2 7.2 
z
" clip-path="url(#pb1815b595d)" style="fill: #fcb225; stroke: #000000; stroke-width: 0.571429"/>
    <path d="M 27.128571 27.128571 
L 47.057143 27.128571 
L 47.057143 7.2 
L 27.128571 7.2 
z
" clip-path="url(#pb1815b595d)" style="fill: #fcb225; stroke: #000000; stroke-width: 0.571429"/>
    <path d="M 47.057143 27.128571 
L 66.985714 27.128571 
L 66.985714 7.2 
L 47.057143 7.2 
z
" clip-path="url(#pb1815b595d)" style="fill: #fcb225; stroke: #000000; stroke-width: 0.571429"/>
    <path d="M 66.985714 27.128571 
L 86.914286 27.128571 
L 86.914286 7.2 
L 66.985714 7.2 
z
" clip-path="url(#pb1815b595d)" style="fill: #fcb225; stroke: #000000; stroke-width: 0.571429"/>
    <path d="M 206.485714 27.128571 
L 226.414286 27.128571 
L 226.414286 7.2 
L 206.485714 7.2 
z
" clip-path="url(#pb1815b595d)" style="fill: #5add4a; stroke: #000000; stroke-width: 0.571429"/>
    <path d="M 226.414286 27.128571 
L 246.342857 27.128571 
L 246.342857 7.2 
L 226.414286 7.2 
z
" clip-path="url(#pb1815b595d)" style="fill: #60bdfd; stroke: #000000; stroke-width: 0.571429"/>
    <path d="M 246.342857 27.128571 
L 266.271429 27.128571 
L 266.271429 7.2 
L 246.342857 7.2 
z
" clip-path="url(#pb1815b595d)" style="fill: #fcb225; stroke: #000000; stroke-width: 0.571429"/>
    <path d="M 266.271429 27.128571 
L 286.2 27.128571 
L 286.2 7.2 
L 266.271429 7.2 
z
" clip-path="url(#pb1815b595d)" style="fill: #5add4a; stroke: #000000; stroke-width: 0.571429"/>
    <path d="M 286.2 27.128571 
L 306.128571 27.128571 
L 306.128571 7.2 
L 286.2 7.2 
z
" clip-path="url(#pb1815b595d)" style="fill: #60bdfd; stroke: #000000; stroke-width: 0.571429"/>
    <path d="M 306.128571 27.128571 
L 326.057143 27.128571 
L 326.057143 7.2 
L 306.128571 7.2 
z
" clip-path="url(#pb1815b595d)" style="fill: #fcb225; stroke: #000000; stroke-width: 0.571429"/>
    <path d="M 326.057143 27.128571 
L 345.985714 27.128571 
L 345.985714 7.2 
L 326.057143 7.2 
z
" clip-path="url(#pb1815b595d)" style="fill: #5add4a; stroke: #000000; stroke-width: 0.571429"/>
    <path d="M 345.985714 27.128571 
L 365.914286 27.128571 
L 365.914286 7.2 
L 345.985714 7.2 
z
" clip-path="url(#pb1815b595d)" style="fill: #60bdfd; stroke: #000000; stroke-width: 0.571429"/>
    <path d="M 365.914286 27.128571 
L 385.842857 27.128571 
L 385.842857 7.2 
L 365.914286 7.2 
z
" clip-path="url(#pb1815b595d)" style="fill: #fcb225; stroke: #000000; stroke-width: 0.571429"/>
    <path d="M 385.842857 27.128571 
L 405.771429 27.128571 
L 405.771429 7.2 
L 385.842857 7.2 
z
" clip-path="url(#pb1815b595d)" style="fill: #5add4a; stroke: #000000; stroke-width: 0.571429"/>
    <path d="M 405.771429 27.128571 
L 425.7 27.128571 
L 425.7 7.2 
L 405.771429 7.2 
z
" clip-path="url(#pb1815b595d)" style="fill: #60bdfd; stroke: #000000; stroke-width: 0.571429"/>
    <path d="M 425.7 27.128571 
L 445.628571 27.128571 
L 445.628571 7.2 
L 425.7 7.2 
z
" clip-path="url(#pb1815b595d)" style="fill: #fcb225; stroke: #000000; stroke-width: 0.571429"/>
    <path d="M 445.628571 27.128571 
L 465.557143 27.128571 
L 465.557143 7.2 
L 445.628571 7.2 
z
" clip-path="url(#pb1815b595d)" style="fill: #5add4a; stroke: #000000; stroke-width: 0.571429"/>
    <path d="M 465.557143 27.128571 
L 485.485714 27.128571 
L 485.485714 7.2 
L 465.557143 7.2 
z
" clip-path="url(#pb1815b595d)" style="fill: #60bdfd; stroke: #000000; stroke-width: 0.571429"/>
    <path d="M 485.485714 27.128571 
L 505.414286 27.128571 
L 505.414286 7.2 
L 485.485714 7.2 
z
" clip-path="url(#pb1815b595d)" style="fill: #fcb225; stroke: #000000; stroke-width: 0.571429"/>
    <path d="M 505.414286 27.128571 
L 525.342857 27.128571 
L 525.342857 7.2 
L 505.414286 7.2 
z
" clip-path="url(#pb1815b595d)" style="fill: #5add4a; stroke: #000000; stroke-width: 0.571429"/>
    <path d="M 525.342857 27.128571 
L 545.271429 27.128571 
L 545.271429 7.2 
L 525.342857 7.2 
z
" clip-path="url(#pb1815b595d)" style="fill: #60bdfd; stroke: #000000; stroke-width: 0.571429"/>
    <path d="M 545.271429 27.128571 
L 565.2 27.128571 
L 565.2 7.2 
L 545.271429 7.2 
z
" clip-path="url(#pb1815b595d)" style="fill: #fcb225; stroke: #000000; stroke-width: 0.571429"/>
    <path d="M 565.2 27.128571 
L 585.128571 27.128571 
L 585.128571 7.2 
L 565.2 7.2 
z
" clip-path="url(#pb1815b595d)" style="fill: #5add4a; stroke: #000000; stroke-width: 0.571429"/>
    <path d="M 585.128571 27.128571 
L 605.057143 27.128571 
L 605.057143 7.2 
L 585.128571 7.2 
z
" clip-path="url(#pb1815b595d)" style="fill: #60bdfd; stroke: #000000; stroke-width: 0.571429"/>
    <path d="M 624.985714 27.128571 
L 644.914286 27.128571 
L 644.914286 7.2 
L 624.985714 7.2 
z
" clip-path="url(#pb1815b595d)" style="fill: #5add4a; stroke: #000000; stroke-width: 0.571429"/>
    <path d="M 644.914286 27.128571 
L 664.842857 27.128571 
L 664.842857 7.2 
L 644.914286 7.2 
z
" clip-path="url(#pb1815b595d)" style="fill: #60bdfd; stroke: #000000; stroke-width: 0.571429"/>
    <path d="M 684.771429 27.128571 
L 704.7 27.128571 
L 704.7 7.2 
L 684.771429 7.2 
z
" clip-path="url(#pb1815b595d)" style="fill: #5add4a; stroke: #000000; stroke-width: 0.571429"/>
    <path d="M 704.7 27.128571 
L 724.628571 27.128571 
L 724.628571 7.2 
L 704.7 7.2 
z
" clip-path="url(#pb1815b595d)" style="fill: #60bdfd; stroke: #000000; stroke-width: 0.571429"/>
    <path d="M 744.557143 27.128571 
L 764.485714 27.128571 
L 764.485714 7.2 
L 744.557143 7.2 
z
" clip-path="url(#pb1815b595d)" style="fill: #5add4a; stroke: #000000; stroke-width: 0.571429"/>
    <path d="M 764.485714 27.128571 
L 784.414286 27.128571 
L 784.414286 7.2 
L 764.485714 7.2 
z
" clip-path="url(#pb1815b595d)" style="fill: #60bdfd; stroke: #000000; stroke-width: 0.571429"/>
    <path d="M 27.128571 47.057143 
L 47.057143 47.057143 
L 47.057143 27.128571 
L 27.128571 27.128571 
z
" clip-path="url(#pb1815b595d)" style="fill: #fcb225; stroke: #000000; stroke-width: 0.571429"/>
    <path d="M 47.057143 47.057143 
L 66.985714 47.057143 
L 66.985714 27.128571 
L 47.057143 27.128571 
z
" clip-path="url(#pb1815b595d)" style="fill: #fcb225; stroke: #000000; stroke-width: 0.571429"/>
    <path d="M 66.985714 47.057143 
L 86.914286 47.057143 
L 86.914286 27.128571 
L 66.985714 27.128571 
z
" clip-path="url(#pb1815b595d)" style="fill: #fcb225; stroke: #000000; stroke-width: 0.571429"/>
    <path d="M 166.628571 47.057143 
L 186.557143 47.057143 
L 186.557143 27.128571 
L 166.628571 27.128571 
z
" clip-path="url(#pb1815b595d)" style="fill: #5add4a; stroke: #000000; stroke-width: 0.571429"/>
    <path d="M 186.557143 47.057143 
L 206.485714 47.057143 
L 206.485714 27.128571 
L 186.557143 27.128571 
z
" clip-path="url(#pb1815b595d)" style="fill: #60bdfd; stroke: #000000; stroke-width: 0.571429"/>
    <path d="M 206.485714 47.057143 
L 226.414286 47.057143 
L 226.414286 27.128571 
L 206.485714 27.128571 
z
" clip-path="url(#pb1815b595d)" style="fill: #fcb225; stroke: #000000; stroke-width: 0.571429"/>
    <path d="M 226.414286 47.057143 
L 246.342857 47.057143 
L 246.342857 27.128571 
L 226.414286 27.128571 
z
" clip-path="url(#pb1815b595d)" style="fill: #5add4a; stroke: #000000; stroke-width: 0.571429"/>
    <path d="M 246.342857 47.057143 
L 266.271429 47.057143 
L 266.271429 27.128571 
L 246.342857 27.128571 
z
" clip-path="url(#pb1815b595d)" style="fill: #60bdfd; stroke: #000000; stroke-width: 0.571429"/>
    <path d="M 266.271429 47.057143 
L 286.2 47.057143 
L 286.2 27.128571 
L 266.271429 27.128571 
z
" clip-path="url(#pb1815b595d)" style="fill: #fcb225; stroke: #000000; stroke-width: 0.571429"/>
    <path d="M 286.2 47.057143 
L 306.128571 47.057143 
L 306.128571 27.128571 
L 286.2 27.128571 
z
" clip-path="url(#pb1815b595d)" style="fill: #5add4a; stroke: #000000; stroke-width: 0.571429"/>
    <path d="M 306.128571 47.057143 
L 326.057143 47.057143 
L 326.057143 27.128571 
L 306.128571 27.128571 
z
" clip-path="url(#pb1815b595d)" style="fill: #60bdfd; stroke: #000000; stroke-width: 0.571429"/>
    <path d="M 326.057143 47.057143 
L 345.985714 47.057143 
L 345.985714 27.128571 
L 326.057143 27.128571 
z
" clip-path="url(#pb1815b595d)" style="fill: #fcb225; stroke: #000000; stroke-width: 0.571429"/>
    <path d="M 345.985714 47.057143 
L 365.914286 47.057143 
L 365.914286 27.128571 
L 345.985714 27.128571 
z
" clip-path="url(#pb1815b595d)" style="fill: #5add4a; stroke: #000000; stroke-width: 0.571429"/>
    <path d="M 365.914286 47.057143 
L 385.842857 47.057143 
L 385.842857 27.128571 
L 365.914286 27.128571 
z
" clip-path="url(#pb1815b595d)" style="fill: #60bdfd; stroke: #000000; stroke-width: 0.571429"/>
    <path d="M 385.842857 47.057143 
L 405.771429 47.057143 
L 405.771429 27.128571 
L 385.842857 27.128571 
z
" clip-path="url(#pb1815b595d)" style="fill: #fcb225; stroke: #000000; stroke-width: 0.571429"/>
    <path d="M 405.771429 47.057143 
L 425.7 47.057143 
L 425.7 27.128571 
L 405.771429 27.128571 
z
" clip-path="url(#pb1815b595d)" style="fill: #5add4a; stroke: #000000; stroke-width: 0.571429"/>
    <path d="M 425.7 47.057143 
L 445.628571 47.057143 
L 445.628571 27.128571 
L 425.7 27.128571 
z
" clip-path="url(#pb1815b595d)" style="fill: #60bdfd; stroke: #000000; stroke-width: 0.571429"/>
    <path d="M 445.628571 47.057143 
L 465.557143 47.057143 
L 465.557143 27.128571 
L 445.628571 27.128571 
z
" clip-path="url(#pb1815b595d)" style="fill: #fcb225; stroke: #000000; stroke-width: 0.571429"/>
    <path d="M 465.557143 47.057143 
L 485.485714 47.057143 
L 485.485714 27.128571 
L 465.557143 27.128571 
z
" clip-path="url(#pb1815b595d)" style="fill: #5add4a; stroke: #000000; stroke-width: 0.571429"/>
    <path d="M 485.485714 47.057143 
L 505.414286 47.057143 
L 505.414286 27.128571 
L 485.485714 27.128571 
z
" clip-path="url(#pb1815b595d)" style="fill: #60bdfd; stroke: #000000; stroke-width: 0.571429"/>
    <path d="M 505.414286 47.057143 
L 525.342857 47.057143 
L 525.342857 27.128571 
L 505.414286 27.128571 
z
" clip-path="url(#pb1815b595d)" style="fill: #fcb225; stroke: #000000; stroke-width: 0.571429"/>
    <path d="M 525.342857 47.057143 
L 545.271429 47.057143 
L 545.271429 27.128571 
L 525.342857 27.128571 
z
" clip-path="url(#pb1815b595d)" style="fill: #5add4a; stroke: #000000; stroke-width: 0.571429"/>
    <path d="M 545.271429 47.057143 
L 565.2 47.057143 
L 565.2 27.128571 
L 545.271429 27.128571 
z
" clip-path="url(#pb1815b595d)" style="fill: #60bdfd; stroke: #000000; stroke-width: 0.571429"/>
    <path d="M 565.2 47.057143 
L 585.128571 47.057143 
L 585.128571 27.128571 
L 565.2 27.128571 
z
" clip-path="url(#pb1815b595d)" style="fill: #fcb225; stroke: #000000; stroke-width: 0.571429"/>
    <path d="M 585.128571 47.057143 
L 605.057143 47.057143 
L 605.057143 27.128571 
L 585.128571 27.128571 
z
" clip-path="url(#pb1815b595d)" style="fill: #5add4a; stroke: #000000; stroke-width: 0.571429"/>
    <path d="M 605.057143 47.057143 
L 624.985714 47.057143 
L 624.985714 27.128571 
L 605.057143 27.128571 
z
" clip-path="url(#pb1815b595d)" style="fill: #60bdfd; stroke: #000000; stroke-width: 0.571429"/>
    <path d="M 644.914286 47.057143 
L 664.842857 47.057143 
L 664.842857 27.128571 
L 644.914286 27.128571 
z
" clip-path="url(#pb1815b595d)" style="fill: #5add4a; stroke: #000000; stroke-width: 0.571429"/>
    <path d="M 664.842857 47.057143 
L 684.771429 47.057143 
L 684.771429 27.128571 
L 664.842857 27.128571 
z
" clip-path="url(#pb1815b595d)" style="fill: #60bdfd; stroke: #000000; stroke-width: 0.571429"/>
    <path d="M 704.7 47.057143 
L 724.628571 47.057143 
L 724.628571 27.128571 
L 704.7 27.128571 
z
" clip-path="url(#pb1815b595d)" style="fill: #5add4a; stroke: #000000; stroke-width: 0.571429"/>
    <path d="M 724.628571 47.057143 
L 744.557143 47.057143 
L 744.557143 27.128571 
L 724.628571 27.128571 
z
" clip-path="url(#pb1815b595d)" style="fill: #60bdfd; stroke: #000000; stroke-width: 0.571429"/>
    <path d="M 47.057143 66.985714 
L 66.985714 66.985714 
L 66.985714 47.057143 
L 47.057143 47.057143 
z
" clip-path="url(#pb1815b595d)" style="fill: #fcb225; stroke: #000000; stroke-width: 0.571429"/>
    <path d="M 66.985714 66.985714 
L 86.914286 66.985714 
L 86.914286 47.057143 
L 66.985714 47.057143 
z
" clip-path="url(#pb1815b595d)" style="fill: #fcb225; stroke: #000000; stroke-width: 0.571429"/>
    <path d="M 126.771429 66.985714 
L 146.7 66.985714 
L 146.7 47.057143 
L 126.771429 47.057143 
z
" clip-path="url(#pb1815b595d)" style="fill: #5add4a; stroke: #000000; stroke-width: 0.571429"/>
    <path d="M 146.7 66.985714 
L 166.628571 66.985714 
L 166.628571 47.057143 
L 146.7 47.057143 
z
" clip-path="url(#pb1815b595d)" style="fill: #60bdfd; stroke: #000000; stroke-width: 0.571429"/>
    <path d="M 166.628571 66.985714 
L 186.557143 66.985714 
L 186.557143 47.057143 
L 166.628571 47.057143 
z
" clip-path="url(#pb1815b595d)" style="fill: #fcb225; stroke: #000000; stroke-width: 0.571429"/>
    <path d="M 186.557143 66.985714 
L 206.485714 66.985714 
L 206.485714 47.057143 
L 186.557143 47.057143 
z
" clip-path="url(#pb1815b595d)" style="fill: #5add4a; stroke: #000000; stroke-width: 0.571429"/>
    <path d="M 206.485714 66.985714 
L 226.414286 66.985714 
L 226.414286 47.057143 
L 206.485714 47.057143 
z
" clip-path="url(#pb1815b595d)" style="fill: #60bdfd; stroke: #000000; stroke-width: 0.571429"/>
    <path d="M 226.414286 66.985714 
L 246.342857 66.985714 
L 246.342857 47.057143 
L 226.414286 47.057143 
z
" clip-path="url(#pb1815b595d)" style="fill: #fcb225; stroke: #000000; stroke-width: 0.571429"/>
    <path d="M 246.342857 66.985714 
L 266.271429 66.985714 
L 266.271429 47.057143 
L 246.342857 47.057143 
z
" clip-path="url(#pb1815b595d)" style="fill: #5add4a; stroke: #000000; stroke-width: 0.571429"/>
    <path d="M 266.271429 66.985714 
L 286.2 66.985714 
L 286.2 47.057143 
L 266.271429 47.057143 
z
" clip-path="url(#pb1815b595d)" style="fill: #60bdfd; stroke: #000000; stroke-width: 0.571429"/>
    <path d="M 286.2 66.985714 
L 306.128571 66.985714 
L 306.128571 47.057143 
L 286.2 47.057143 
z
" clip-path="url(#pb1815b595d)" style="fill: #fcb225; stroke: #000000; stroke-width: 0.571429"/>
    <path d="M 306.128571 66.985714 
L 326.057143 66.985714 
L 326.057143 47.057143 
L 306.128571 47.057143 
z
" clip-path="url(#pb1815b595d)" style="fill: #5add4a; stroke: #000000; stroke-width: 0.571429"/>
    <path d="M 326.057143 66.985714 
L 345.985714 66.985714 
L 345.985714 47.057143 
L 326.057143 47.057143 
z
" clip-path="url(#pb1815b595d)" style="fill: #60bdfd; stroke: #000000; stroke-width: 0.571429"/>
    <path d="M 345.985714 66.985714 
L 365.914286 66.985714 
L 365.914286 47.057143 
L 345.985714 47.057143 
z
" clip-path="url(#pb1815b595d)" style="fill: #fcb225; stroke: #000000; stroke-width: 0.571429"/>
    <path d="M 365.914286 66.985714 
L 385.842857 66.985714 
L 385.842857 47.057143 
L 365.914286 47.057143 
z
" clip-path="url(#pb1815b595d)" style="fill: #5add4a; stroke: #000000; stroke-width: 0.571429"/>
    <path d="M 385.842857 66.985714 
L 405.771429 66.985714 
L 405.771429 47.057143 
L 385.842857 47.057143 
z
" clip-path="url(#pb1815b595d)" style="fill: #60bdfd; stroke: #000000; stroke-width: 0.571429"/>
    <path d="M 405.771429 66.985714 
L 425.7 66.985714 
L 425.7 47.057143 
L 405.771429 47.057143 
z
" clip-path="url(#pb1815b595d)" style="fill: #fcb225; stroke: #000000; stroke-width: 0.571429"/>
    <path d="M 425.7 66.985714 
L 445.628571 66.985714 
L 445.628571 47.057143 
L 425.7 47.057143 
z
" clip-path="url(#pb1815b595d)" style="fill: #5add4a; stroke: #000000; stroke-width: 0.571429"/>
    <path d="M 445.628571 66.985714 
L 465.557143 66.985714 
L 465.557143 47.057143 
L 445.628571 47.057143 
z
" clip-path="url(#pb1815b595d)" style="fill: #60bdfd; stroke: #000000; stroke-width: 0.571429"/>
    <path d="M 465.557143 66.985714 
L 485.485714 66.985714 
L 485.485714 47.057143 
L 465.557143 47.057143 
z
" clip-path="url(#pb1815b595d)" style="fill: #fcb225; stroke: #000000; stroke-width: 0.571429"/>
    <path d="M 485.485714 66.985714 
L 505.414286 66.985714 
L 505.414286 47.057143 
L 485.485714 47.057143 
z
" clip-path="url(#pb1815b595d)" style="fill: #5add4a; stroke: #000000; stroke-width: 0.571429"/>
    <path d="M 505.414286 66.985714 
L 525.342857 66.985714 
L 525.342857 47.057143 
L 505.414286 47.057143 
z
" clip-path="url(#pb1815b595d)" style="fill: #60bdfd; stroke: #000000; stroke-width: 0.571429"/>
    <path d="M 525.342857 66.985714 
L 545.271429 66.985714 
L 545.271429 47.057143 
L 525.342857 47.057143 
z
" clip-path="url(#pb1815b595d)" style="fill: #fcb225; stroke: #000000; stroke-width: 0.571429"/>
    <path d="M 545.271429 66.985714 
L 565.2 66.985714 
L 565.2 47.057143 
L 545.271429 47.057143 
z
" clip-path="url(#pb1815b595d)" style="fill: #5add4a; stroke: #000000; stroke-width: 0.571429"/>
    <path d="M 565.2 66.985714 
L 585.128571 66.985714 
L 585.128571 47.057143 
L 565.2 47.057143 
z
" clip-path="url(#pb1815b595d)" style="fill: #60bdfd; stroke: #000000; stroke-width: 0.571429"/>
    <path d="M 585.128571 66.985714 
L 605.057143 66.985714 
L 605.057143 47.057143 
L 585.128571 47.057143 
z
" clip-path="url(#pb1815b595d)" style="fill: #fcb225; stroke: #000000; stroke-width: 0.571429"/>
    <path d="M 605.057143 66.985714 
L 624.985714 66.985714 
L 624.985714 47.057143 
L 605.057143 47.057143 
z
" clip-path="url(#pb1815b595d)" style="fill: #5add4a; stroke: #000000; stroke-width: 0.571429"/>
    <path d="M 624.985714 66.985714 
L 644.914286 66.985714 
L 644.914286 47.057143 
L 624.985714 47.057143 
z
" clip-path="url(#pb1815b595d)" style="fill: #60bdfd; stroke: #000000; stroke-width: 0.571429"/>
    <path d="M 664.842857 66.985714 
L 684.771429 66.985714 
L 684.771429 47.057143 
L 664.842857 47.057143 
z
" clip-path="url(#pb1815b595d)" style="fill: #5add4a; stroke: #000000; stroke-width: 0.571429"/>
    <path d="M 684.771429 66.985714 
L 704.7 66.985714 
L 704.7 47.057143 
L 684.771429 47.057143 
z
" clip-path="url(#pb1815b595d)" style="fill: #60bdfd; stroke: #000000; stroke-width: 0.571429"/>
    <path d="M 66.985714 86.914286 
L 86.914286 86.914286 
L 86.914286 66.985714 
L 66.985714 66.985714 
z
" clip-path="url(#pb1815b595d)" style="fill: #fcb225; stroke: #000000; stroke-width: 0.571429"/>
    <path d="M 86.914286 86.914286 
L 106.842857 86.914286 
L 106.842857 66.985714 
L 86.914286 66.985714 
z
" clip-path="url(#pb1815b595d)" style="fill: #5add4a; stroke: #000000; stroke-width: 0.571429"/>
    <path d="M 106.842857 86.914286 
L 126.771429 86.914286 
L 126.771429 66.985714 
L 106.842857 66.985714 
z
" clip-path="url(#pb1815b595d)" style="fill: #60bdfd; stroke: #000000; stroke-width: 0.571429"/>
    <path d="M 126.771429 86.914286 
L 146.7 86.914286 
L 146.7 66.985714 
L 126.771429 66.985714 
z
" clip-path="url(#pb1815b595d)" style="fill: #fcb225; stroke: #000000; stroke-width: 0.571429"/>
    <path d="M 146.7 86.914286 
L 166.628571 86.914286 
L 166.628571 66.985714 
L 146.7 66.985714 
z
" clip-path="url(#pb1815b595d)" style="fill: #5add4a; stroke: #000000; stroke-width: 0.571429"/>
    <path d="M 166.628571 86.914286 
L 186.557143 86.914286 
L 186.557143 66.985714 
L 166.628571 66.985714 
z
" clip-path="url(#pb1815b595d)" style="fill: #60bdfd; stroke: #000000; stroke-width: 0.571429"/>
    <path d="M 186.557143 86.914286 
L 206.485714 86.914286 
L 206.485714 66.985714 
L 186.557143 66.985714 
z
" clip-path="url(#pb1815b595d)" style="fill: #fcb225; stroke: #000000; stroke-width: 0.571429"/>
    <path d="M 206.485714 86.914286 
L 226.414286 86.914286 
L 226.414286 66.985714 
L 206.485714 66.985714 
z
" clip-path="url(#pb1815b595d)" style="fill: #5add4a; stroke: #000000; stroke-width: 0.571429"/>
    <path d="M 226.414286 86.914286 
L 246.342857 86.914286 
L 246.342857 66.985714 
L 226.414286 66.985714 
z
" clip-path="url(#pb1815b595d)" style="fill: #60bdfd; stroke: #000000; stroke-width: 0.571429"/>
    <path d="M 246.342857 86.914286 
L 266.271429 86.914286 
L 266.271429 66.985714 
L 246.342857 66.985714 
z
" clip-path="url(#pb1815b595d)" style="fill: #fcb225; stroke: #000000; stroke-width: 0.571429"/>
    <path d="M 266.271429 86.914286 
L 286.2 86.914286 
L 286.2 66.985714 
L 266.271429 66.985714 
z
" clip-path="url(#pb1815b595d)" style="fill: #5add4a; stroke: #000000; stroke-width: 0.571429"/>
    <path d="M 286.2 86.914286 
L 306.128571 86.914286 
L 306.128571 66.985714 
L 286.2 66.985714 
z
" clip-path="url(#pb1815b595d)" style="fill: #60bdfd; stroke: #000000; stroke-width: 0.571429"/>
    <path d="M 306.128571 86.914286 
L 326.057143 86.914286 
L 326.057143 66.985714 
L 306.128571 66.985714 
z
" clip-path="url(#pb1815b595d)" style="fill: #fcb225; stroke: #000000; stroke-width: 0.571429"/>
    <path d="M 326.057143 86.914286 
L 345.985714 86.914286 
L 345.985714 66.985714 
L 326.057143 66.985714 
z
" clip-path="url(#pb1815b595d)" style="fill: #5add4a; stroke: #000000; stroke-width: 0.571429"/>
    <path d="M 345.985714 86.914286 
L 365.914286 86.914286 
L 365.914286 66.985714 
L 345.985714 66.985714 
z
" clip-path="url(#pb1815b595d)" style="fill: #60bdfd; stroke: #000000; stroke-width: 0.571429"/>
    <path d="M 365.914286 86.914286 
L 385.842857 86.914286 
L 385.842857 66.985714 
L 365.914286 66.985714 
z
" clip-path="url(#pb1815b595d)" style="fill: #fcb225; stroke: #000000; stroke-width: 0.571429"/>
    <path d="M 385.842857 86.914286 
L 405.771429 86.914286 
L 405.771429 66.985714 
L 385.842857 66.985714 
z
" clip-path="url(#pb1815b595d)" style="fill: #5add4a; stroke: #000000; stroke-width: 0.571429"/>
    <path d="M 405.771429 86.914286 
L 425.7 86.914286 
L 425.7 66.985714 
L 405.771429 66.985714 
z
" clip-path="url(#pb1815b595d)" style="fill: #60bdfd; stroke: #000000; stroke-width: 0.571429"/>
    <path d="M 425.7 86.914286 
L 445.628571 86.914286 
L 445.628571 66.985714 
L 425.7 66.985714 
z
" clip-path="url(#pb1815b595d)" style="fill: #fcb225; stroke: #000000; stroke-width: 0.571429"/>
    <path d="M 445.628571 86.914286 
L 465.557143 86.914286 
L 465.557143 66.985714 
L 445.628571 66.985714 
z
" clip-path="url(#pb1815b595d)" style="fill: #5add4a; stroke: #000000; stroke-width: 0.571429"/>
    <path d="M 465.557143 86.914286 
L 485.485714 86.914286 
L 485.485714 66.985714 
L 465.557143 66.985714 
z
" clip-path="url(#pb1815b595d)" style="fill: #60bdfd; stroke: #000000; stroke-width: 0.571429"/>
    <path d="M 485.485714 86.914286 
L 505.414286 86.914286 
L 505.414286 66.985714 
L 485.485714 66.985714 
z
" clip-path="url(#pb1815b595d)" style="fill: #fcb225; stroke: #000000; stroke-width: 0.571429"/>
    <path d="M 505.414286 86.914286 
L 525.342857 86.914286 
L 525.342857 66.985714 
L 505.414286 66.985714 
z
" clip-path="url(#pb1815b595d)" style="fill: #5add4a; stroke: #000000; stroke-width: 0.571429"/>
    <path d="M 525.342857 86.914286 
L 545.271429 86.914286 
L 545.271429 66.985714 
L 525.342857 66.985714 
z
" clip-path="url(#pb1815b595d)" style="fill: #60bdfd; stroke: #000000; stroke-width: 0.571429"/>
    <path d="M 545.271429 86.914286 
L 565.2 86.914286 
L 565.2 66.985714 
L 545.271429 66.985714 
z
" clip-path="url(#pb1815b595d)" style="fill: #fcb225; stroke: #000000; stroke-width: 0.571429"/>
    <path d="M 565.2 86.914286 
L 585.128571 86.914286 
L 585.128571 66.985714 
L 565.2 66.985714 
z
" clip-path="url(#pb1815b595d)" style="fill: #5add4a; stroke: #000000; stroke-width: 0.571429"/>
    <path d="M 585.128571 86.914286 
L 605.057143 86.914286 
L 605.057143 66.985714 
L 585.128571 66.985714 
z
" clip-path="url(#pb1815b595d)" style="fill: #60bdfd; stroke: #000000; stroke-width: 0.571429"/>
    <path d="M 605.057143 86.914286 
L 624.985714 86.914286 
L 624.985714 66.985714 
L 605.057143 66.985714 
z
" clip-path="url(#pb1815b595d)" style="fill: #fcb225; stroke: #000000; stroke-width: 0.571429"/>
    <path d="M 624.985714 86.914286 
L 644.914286 86.914286 
L 644.914286 66.985714 
L 624.985714 66.985714 
z
" clip-path="url(#pb1815b595d)" style="fill: #5add4a; stroke: #000000; stroke-width: 0.571429"/>
    <path d="M 644.914286 86.914286 
L 664.842857 86.914286 
L 664.842857 66.985714 
L 644.914286 66.985714 
z
" clip-path="url(#pb1815b595d)" style="fill: #60bdfd; stroke: #000000; stroke-width: 0.571429"/>
   </g>
   <g id="text_1">
    <!-- 0 -->
    <g transform="translate(13.528571 21.214643) scale(0.114286 -0.114286)">
     <defs>
      <path id="DejaVuSans-30" d="M 2034 4250 
Q 1547 4250 1301 3770 
Q 1056 3291 1056 2328 
Q 1056 1369 1301 889 
Q 1547 409 2034 409 
Q 2525 409 2770 889 
Q 3016 1369 3016 2328 
Q 3016 3291 2770 3770 
Q 2525 4250 2034 4250 
z
M 2034 4750 
Q 2819 4750 3233 4129 
Q 3647 3509 3647 2328 
Q 3647 1150 3233 529 
Q 2819 -91 2034 -91 
Q 1250 -91 836 529 
Q 422 1150 422 2328 
Q 422 3509 836 4129 
Q 1250 4750 2034 4750 
z
" transform="scale(0.015625)"/>
     </defs>
     <use xlink:href="#DejaVuSans-30"/>
    </g>
   </g>
   <g id="text_2">
    <!-- 1 -->
    <g transform="translate(33.457143 21.214643) scale(0.114286 -0.114286)">
     <defs>
      <path id="DejaVuSans-31" d="M 794 531 
L 1825 531 
L 1825 4091 
L 703 3866 
L 703 4441 
L 1819 4666 
L 2450 4666 
L 2450 531 
L 3481 531 
L 3481 0 
L 794 0 
L 794 531 
z
" transform="scale(0.015625)"/>
     </defs>
     <use xlink:href="#DejaVuSans-31"/>
    </g>
   </g>
   <g id="text_3">
    <!-- 2 -->
    <g transform="translate(53.385714 21.214643) scale(0.114286 -0.114286)">
     <defs>
      <path id="DejaVuSans-32" d="M 1228 531 
L 3431 531 
L 3431 0 
L 469 0 
L 469 531 
Q 828 903 1448 1529 
Q 2069 2156 2228 2338 
Q 2531 2678 2651 2914 
Q 2772 3150 2772 3378 
Q 2772 3750 2511 3984 
Q 2250 4219 1831 4219 
Q 1534 4219 1204 4116 
Q 875 4013 500 3803 
L 500 4441 
Q 881 4594 1212 4672 
Q 1544 4750 1819 4750 
Q 2544 4750 2975 4387 
Q 3406 4025 3406 3419 
Q 3406 3131 3298 2873 
Q 3191 2616 2906 2266 
Q 2828 2175 2409 1742 
Q 1991 1309 1228 531 
z
" transform="scale(0.015625)"/>
     </defs>
     <use xlink:href="#DejaVuSans-32"/>
    </g>
   </g>
   <g id="text_4">
    <!-- 3 -->
    <g transform="translate(73.314286 21.214643) scale(0.114286 -0.114286)">
     <defs>
      <path id="DejaVuSans-33" d="M 2597 2516 
Q 3050 2419 3304 2112 
Q 3559 1806 3559 1356 
Q 3559 666 3084 287 
Q 2609 -91 1734 -91 
Q 1441 -91 1130 -33 
Q 819 25 488 141 
L 488 750 
Q 750 597 1062 519 
Q 1375 441 1716 441 
Q 2309 441 2620 675 
Q 2931 909 2931 1356 
Q 2931 1769 2642 2001 
Q 2353 2234 1838 2234 
L 1294 2234 
L 1294 2753 
L 1863 2753 
Q 2328 2753 2575 2939 
Q 2822 3125 2822 3475 
Q 2822 3834 2567 4026 
Q 2313 4219 1838 4219 
Q 1578 4219 1281 4162 
Q 984 4106 628 3988 
L 628 4550 
Q 988 4650 1302 4700 
Q 1616 4750 1894 4750 
Q 2613 4750 3031 4423 
Q 3450 4097 3450 3541 
Q 3450 3153 3228 2886 
Q 3006 2619 2597 2516 
z
" transform="scale(0.015625)"/>
     </defs>
     <use xlink:href="#DejaVuSans-33"/>
    </g>
   </g>
   <g id="text_5">
    <!-- 0 -->
    <g transform="translate(212.814286 21.214643) scale(0.114286 -0.114286)">
     <use xlink:href="#DejaVuSans-30"/>
    </g>
   </g>
   <g id="text_6">
    <!-- 0 -->
    <g transform="translate(232.742857 21.214643) scale(0.114286 -0.114286)">
     <use xlink:href="#DejaVuSans-30"/>
    </g>
   </g>
   <g id="text_7">
    <!-- 4 -->
    <g transform="translate(252.671429 21.214643) scale(0.114286 -0.114286)">
     <defs>
      <path id="DejaVuSans-34" d="M 2419 4116 
L 825 1625 
L 2419 1625 
L 2419 4116 
z
M 2253 4666 
L 3047 4666 
L 3047 1625 
L 3713 1625 
L 3713 1100 
L 3047 1100 
L 3047 0 
L 2419 0 
L 2419 1100 
L 313 1100 
L 313 1709 
L 2253 4666 
z
" transform="scale(0.015625)"/>
     </defs>
     <use xlink:href="#DejaVuSans-34"/>
    </g>
   </g>
   <g id="text_8">
    <!-- 1 -->
    <g transform="translate(272.6 21.214643) scale(0.114286 -0.114286)">
     <use xlink:href="#DejaVuSans-31"/>
    </g>
   </g>
   <g id="text_9">
    <!-- 1 -->
    <g transform="translate(292.528571 21.214643) scale(0.114286 -0.114286)">
     <use xlink:href="#DejaVuSans-31"/>
    </g>
   </g>
   <g id="text_10">
    <!-- 5 -->
    <g transform="translate(312.457143 21.214643) scale(0.114286 -0.114286)">
     <defs>
      <path id="DejaVuSans-35" d="M 691 4666 
L 3169 4666 
L 3169 4134 
L 1269 4134 
L 1269 2991 
Q 1406 3038 1543 3061 
Q 1681 3084 1819 3084 
Q 2600 3084 3056 2656 
Q 3513 2228 3513 1497 
Q 3513 744 3044 326 
Q 2575 -91 1722 -91 
Q 1428 -91 1123 -41 
Q 819 9 494 109 
L 494 744 
Q 775 591 1075 516 
Q 1375 441 1709 441 
Q 2250 441 2565 725 
Q 2881 1009 2881 1497 
Q 2881 1984 2565 2268 
Q 2250 2553 1709 2553 
Q 1456 2553 1204 2497 
Q 953 2441 691 2322 
L 691 4666 
z
" transform="scale(0.015625)"/>
     </defs>
     <use xlink:href="#DejaVuSans-35"/>
    </g>
   </g>
   <g id="text_11">
    <!-- 2 -->
    <g transform="translate(332.385714 21.214643) scale(0.114286 -0.114286)">
     <use xlink:href="#DejaVuSans-32"/>
    </g>
   </g>
   <g id="text_12">
    <!-- 2 -->
    <g transform="translate(352.314286 21.214643) scale(0.114286 -0.114286)">
     <use xlink:href="#DejaVuSans-32"/>
    </g>
   </g>
   <g id="text_13">
    <!-- 6 -->
    <g transform="translate(372.242857 21.214643) scale(0.114286 -0.114286)">
     <defs>
      <path id="DejaVuSans-36" d="M 2113 2584 
Q 1688 2584 1439 2293 
Q 1191 2003 1191 1497 
Q 1191 994 1439 701 
Q 1688 409 2113 409 
Q 2538 409 2786 701 
Q 3034 994 3034 1497 
Q 3034 2003 2786 2293 
Q 2538 2584 2113 2584 
z
M 3366 4563 
L 3366 3988 
Q 3128 4100 2886 4159 
Q 2644 4219 2406 4219 
Q 1781 4219 1451 3797 
Q 1122 3375 1075 2522 
Q 1259 2794 1537 2939 
Q 1816 3084 2150 3084 
Q 2853 3084 3261 2657 
Q 3669 2231 3669 1497 
Q 3669 778 3244 343 
Q 2819 -91 2113 -91 
Q 1303 -91 875 529 
Q 447 1150 447 2328 
Q 447 3434 972 4092 
Q 1497 4750 2381 4750 
Q 2619 4750 2861 4703 
Q 3103 4656 3366 4563 
z
" transform="scale(0.015625)"/>
     </defs>
     <use xlink:href="#DejaVuSans-36"/>
    </g>
   </g>
   <g id="text_14">
    <!-- 3 -->
    <g transform="translate(392.171429 21.214643) scale(0.114286 -0.114286)">
     <use xlink:href="#DejaVuSans-33"/>
    </g>
   </g>
   <g id="text_15">
    <!-- 3 -->
    <g transform="translate(412.1 21.214643) scale(0.114286 -0.114286)">
     <use xlink:href="#DejaVuSans-33"/>
    </g>
   </g>
   <g id="text_16">
    <!-- 7 -->
    <g transform="translate(432.028571 21.214643) scale(0.114286 -0.114286)">
     <defs>
      <path id="DejaVuSans-37" d="M 525 4666 
L 3525 4666 
L 3525 4397 
L 1831 0 
L 1172 0 
L 2766 4134 
L 525 4134 
L 525 4666 
z
" transform="scale(0.015625)"/>
     </defs>
     <use xlink:href="#DejaVuSans-37"/>
    </g>
   </g>
   <g id="text_17">
    <!-- 4 -->
    <g transform="translate(451.957143 21.214643) scale(0.114286 -0.114286)">
     <use xlink:href="#DejaVuSans-34"/>
    </g>
   </g>
   <g id="text_18">
    <!-- 4 -->
    <g transform="translate(471.885714 21.214643) scale(0.114286 -0.114286)">
     <use xlink:href="#DejaVuSans-34"/>
    </g>
   </g>
   <g id="text_19">
    <!-- 8 -->
    <g transform="translate(491.814286 21.214643) scale(0.114286 -0.114286)">
     <defs>
      <path id="DejaVuSans-38" d="M 2034 2216 
Q 1584 2216 1326 1975 
Q 1069 1734 1069 1313 
Q 1069 891 1326 650 
Q 1584 409 2034 409 
Q 2484 409 2743 651 
Q 3003 894 3003 1313 
Q 3003 1734 2745 1975 
Q 2488 2216 2034 2216 
z
M 1403 2484 
Q 997 2584 770 2862 
Q 544 3141 544 3541 
Q 544 4100 942 4425 
Q 1341 4750 2034 4750 
Q 2731 4750 3128 4425 
Q 3525 4100 3525 3541 
Q 3525 3141 3298 2862 
Q 3072 2584 2669 2484 
Q 3125 2378 3379 2068 
Q 3634 1759 3634 1313 
Q 3634 634 3220 271 
Q 2806 -91 2034 -91 
Q 1263 -91 848 271 
Q 434 634 434 1313 
Q 434 1759 690 2068 
Q 947 2378 1403 2484 
z
M 1172 3481 
Q 1172 3119 1398 2916 
Q 1625 2713 2034 2713 
Q 2441 2713 2670 2916 
Q 2900 3119 2900 3481 
Q 2900 3844 2670 4047 
Q 2441 4250 2034 4250 
Q 1625 4250 1398 4047 
Q 1172 3844 1172 3481 
z
" transform="scale(0.015625)"/>
     </defs>
     <use xlink:href="#DejaVuSans-38"/>
    </g>
   </g>
   <g id="text_20">
    <!-- 5 -->
    <g transform="translate(511.742857 21.214643) scale(0.114286 -0.114286)">
     <use xlink:href="#DejaVuSans-35"/>
    </g>
   </g>
   <g id="text_21">
    <!-- 5 -->
    <g transform="translate(531.671429 21.214643) scale(0.114286 -0.114286)">
     <use xlink:href="#DejaVuSans-35"/>
    </g>
   </g>
   <g id="text_22">
    <!-- 9 -->
    <g transform="translate(551.6 21.214643) scale(0.114286 -0.114286)">
     <defs>
      <path id="DejaVuSans-39" d="M 703 97 
L 703 672 
Q 941 559 1184 500 
Q 1428 441 1663 441 
Q 2288 441 2617 861 
Q 2947 1281 2994 2138 
Q 2813 1869 2534 1725 
Q 2256 1581 1919 1581 
Q 1219 1581 811 2004 
Q 403 2428 403 3163 
Q 403 3881 828 4315 
Q 1253 4750 1959 4750 
Q 2769 4750 3195 4129 
Q 3622 3509 3622 2328 
Q 3622 1225 3098 567 
Q 2575 -91 1691 -91 
Q 1453 -91 1209 -44 
Q 966 3 703 97 
z
M 1959 2075 
Q 2384 2075 2632 2365 
Q 2881 2656 2881 3163 
Q 2881 3666 2632 3958 
Q 2384 4250 1959 4250 
Q 1534 4250 1286 3958 
Q 1038 3666 1038 3163 
Q 1038 2656 1286 2365 
Q 1534 2075 1959 2075 
z
" transform="scale(0.015625)"/>
     </defs>
     <use xlink:href="#DejaVuSans-39"/>
    </g>
   </g>
   <g id="text_23">
    <!-- 6 -->
    <g transform="translate(571.528571 21.214643) scale(0.114286 -0.114286)">
     <use xlink:href="#DejaVuSans-36"/>
    </g>
   </g>
   <g id="text_24">
    <!-- 6 -->
    <g transform="translate(591.457143 21.214643) scale(0.114286 -0.114286)">
     <use xlink:href="#DejaVuSans-36"/>
    </g>
   </g>
   <g id="text_25">
    <!-- 7 -->
    <g transform="translate(631.314286 21.214643) scale(0.114286 -0.114286)">
     <use xlink:href="#DejaVuSans-37"/>
    </g>
   </g>
   <g id="text_26">
    <!-- 7 -->
    <g transform="translate(651.242857 21.214643) scale(0.114286 -0.114286)">
     <use xlink:href="#DejaVuSans-37"/>
    </g>
   </g>
   <g id="text_27">
    <!-- 8 -->
    <g transform="translate(691.1 21.214643) scale(0.114286 -0.114286)">
     <use xlink:href="#DejaVuSans-38"/>
    </g>
   </g>
   <g id="text_28">
    <!-- 8 -->
    <g transform="translate(711.028571 21.214643) scale(0.114286 -0.114286)">
     <use xlink:href="#DejaVuSans-38"/>
    </g>
   </g>
   <g id="text_29">
    <!-- 9 -->
    <g transform="translate(750.885714 21.214643) scale(0.114286 -0.114286)">
     <use xlink:href="#DejaVuSans-39"/>
    </g>
   </g>
   <g id="text_30">
    <!-- 9 -->
    <g transform="translate(770.814286 21.214643) scale(0.114286 -0.114286)">
     <use xlink:href="#DejaVuSans-39"/>
    </g>
   </g>
   <g id="text_31">
    <!-- 0 -->
    <g transform="translate(33.457143 41.143214) scale(0.114286 -0.114286)">
     <use xlink:href="#DejaVuSans-30"/>
    </g>
   </g>
   <g id="text_32">
    <!-- 1 -->
    <g transform="translate(53.385714 41.143214) scale(0.114286 -0.114286)">
     <use xlink:href="#DejaVuSans-31"/>
    </g>
   </g>
   <g id="text_33">
    <!-- 2 -->
    <g transform="translate(73.314286 41.143214) scale(0.114286 -0.114286)">
     <use xlink:href="#DejaVuSans-32"/>
    </g>
   </g>
   <g id="text_34">
    <!-- 0 -->
    <g transform="translate(172.957143 41.143214) scale(0.114286 -0.114286)">
     <use xlink:href="#DejaVuSans-30"/>
    </g>
   </g>
   <g id="text_35">
    <!-- 0 -->
    <g transform="translate(192.885714 41.143214) scale(0.114286 -0.114286)">
     <use xlink:href="#DejaVuSans-30"/>
    </g>
   </g>
   <g id="text_36">
    <!-- 3 -->
    <g transform="translate(212.814286 41.143214) scale(0.114286 -0.114286)">
     <use xlink:href="#DejaVuSans-33"/>
    </g>
   </g>
   <g id="text_37">
    <!-- 1 -->
    <g transform="translate(232.742857 41.143214) scale(0.114286 -0.114286)">
     <use xlink:href="#DejaVuSans-31"/>
    </g>
   </g>
   <g id="text_38">
    <!-- 1 -->
    <g transform="translate(252.671429 41.143214) scale(0.114286 -0.114286)">
     <use xlink:href="#DejaVuSans-31"/>
    </g>
   </g>
   <g id="text_39">
    <!-- 4 -->
    <g transform="translate(272.6 41.143214) scale(0.114286 -0.114286)">
     <use xlink:href="#DejaVuSans-34"/>
    </g>
   </g>
   <g id="text_40">
    <!-- 2 -->
    <g transform="translate(292.528571 41.143214) scale(0.114286 -0.114286)">
     <use xlink:href="#DejaVuSans-32"/>
    </g>
   </g>
   <g id="text_41">
    <!-- 2 -->
    <g transform="translate(312.457143 41.143214) scale(0.114286 -0.114286)">
     <use xlink:href="#DejaVuSans-32"/>
    </g>
   </g>
   <g id="text_42">
    <!-- 5 -->
    <g transform="translate(332.385714 41.143214) scale(0.114286 -0.114286)">
     <use xlink:href="#DejaVuSans-35"/>
    </g>
   </g>
   <g id="text_43">
    <!-- 3 -->
    <g transform="translate(352.314286 41.143214) scale(0.114286 -0.114286)">
     <use xlink:href="#DejaVuSans-33"/>
    </g>
   </g>
   <g id="text_44">
    <!-- 3 -->
    <g transform="translate(372.242857 41.143214) scale(0.114286 -0.114286)">
     <use xlink:href="#DejaVuSans-33"/>
    </g>
   </g>
   <g id="text_45">
    <!-- 6 -->
    <g transform="translate(392.171429 41.143214) scale(0.114286 -0.114286)">
     <use xlink:href="#DejaVuSans-36"/>
    </g>
   </g>
   <g id="text_46">
    <!-- 4 -->
    <g transform="translate(412.1 41.143214) scale(0.114286 -0.114286)">
     <use xlink:href="#DejaVuSans-34"/>
    </g>
   </g>
   <g id="text_47">
    <!-- 4 -->
    <g transform="translate(432.028571 41.143214) scale(0.114286 -0.114286)">
     <use xlink:href="#DejaVuSans-34"/>
    </g>
   </g>
   <g id="text_48">
    <!-- 7 -->
    <g transform="translate(451.957143 41.143214) scale(0.114286 -0.114286)">
     <use xlink:href="#DejaVuSans-37"/>
    </g>
   </g>
   <g id="text_49">
    <!-- 5 -->
    <g transform="translate(471.885714 41.143214) scale(0.114286 -0.114286)">
     <use xlink:href="#DejaVuSans-35"/>
    </g>
   </g>
   <g id="text_50">
    <!-- 5 -->
    <g transform="translate(491.814286 41.143214) scale(0.114286 -0.114286)">
     <use xlink:href="#DejaVuSans-35"/>
    </g>
   </g>
   <g id="text_51">
    <!-- 8 -->
    <g transform="translate(511.742857 41.143214) scale(0.114286 -0.114286)">
     <use xlink:href="#DejaVuSans-38"/>
    </g>
   </g>
   <g id="text_52">
    <!-- 6 -->
    <g transform="translate(531.671429 41.143214) scale(0.114286 -0.114286)">
     <use xlink:href="#DejaVuSans-36"/>
    </g>
   </g>
   <g id="text_53">
    <!-- 6 -->
    <g transform="translate(551.6 41.143214) scale(0.114286 -0.114286)">
     <use xlink:href="#DejaVuSans-36"/>
    </g>
   </g>
   <g id="text_54">
    <!-- 9 -->
    <g transform="translate(571.528571 41.143214) scale(0.114286 -0.114286)">
     <use xlink:href="#DejaVuSans-39"/>
    </g>
   </g>
   <g id="text_55">
    <!-- 7 -->
    <g transform="translate(591.457143 41.143214) scale(0.114286 -0.114286)">
     <use xlink:href="#DejaVuSans-37"/>
    </g>
   </g>
   <g id="text_56">
    <!-- 7 -->
    <g transform="translate(611.385714 41.143214) scale(0.114286 -0.114286)">
     <use xlink:href="#DejaVuSans-37"/>
    </g>
   </g>
   <g id="text_57">
    <!-- 8 -->
    <g transform="translate(651.242857 41.143214) scale(0.114286 -0.114286)">
     <use xlink:href="#DejaVuSans-38"/>
    </g>
   </g>
   <g id="text_58">
    <!-- 8 -->
    <g transform="translate(671.171429 41.143214) scale(0.114286 -0.114286)">
     <use xlink:href="#DejaVuSans-38"/>
    </g>
   </g>
   <g id="text_59">
    <!-- 9 -->
    <g transform="translate(711.028571 41.143214) scale(0.114286 -0.114286)">
     <use xlink:href="#DejaVuSans-39"/>
    </g>
   </g>
   <g id="text_60">
    <!-- 9 -->
    <g transform="translate(730.957143 41.143214) scale(0.114286 -0.114286)">
     <use xlink:href="#DejaVuSans-39"/>
    </g>
   </g>
   <g id="text_61">
    <!-- 0 -->
    <g transform="translate(53.385714 61.071786) scale(0.114286 -0.114286)">
     <use xlink:href="#DejaVuSans-30"/>
    </g>
   </g>
   <g id="text_62">
    <!-- 1 -->
    <g transform="translate(73.314286 61.071786) scale(0.114286 -0.114286)">
     <use xlink:href="#DejaVuSans-31"/>
    </g>
   </g>
   <g id="text_63">
    <!-- 0 -->
    <g transform="translate(133.1 61.071786) scale(0.114286 -0.114286)">
     <use xlink:href="#DejaVuSans-30"/>
    </g>
   </g>
   <g id="text_64">
    <!-- 0 -->
    <g transform="translate(153.028571 61.071786) scale(0.114286 -0.114286)">
     <use xlink:href="#DejaVuSans-30"/>
    </g>
   </g>
   <g id="text_65">
    <!-- 2 -->
    <g transform="translate(172.957143 61.071786) scale(0.114286 -0.114286)">
     <use xlink:href="#DejaVuSans-32"/>
    </g>
   </g>
   <g id="text_66">
    <!-- 1 -->
    <g transform="translate(192.885714 61.071786) scale(0.114286 -0.114286)">
     <use xlink:href="#DejaVuSans-31"/>
    </g>
   </g>
   <g id="text_67">
    <!-- 1 -->
    <g transform="translate(212.814286 61.071786) scale(0.114286 -0.114286)">
     <use xlink:href="#DejaVuSans-31"/>
    </g>
   </g>
   <g id="text_68">
    <!-- 3 -->
    <g transform="translate(232.742857 61.071786) scale(0.114286 -0.114286)">
     <use xlink:href="#DejaVuSans-33"/>
    </g>
   </g>
   <g id="text_69">
    <!-- 2 -->
    <g transform="translate(252.671429 61.071786) scale(0.114286 -0.114286)">
     <use xlink:href="#DejaVuSans-32"/>
    </g>
   </g>
   <g id="text_70">
    <!-- 2 -->
    <g transform="translate(272.6 61.071786) scale(0.114286 -0.114286)">
     <use xlink:href="#DejaVuSans-32"/>
    </g>
   </g>
   <g id="text_71">
    <!-- 4 -->
    <g transform="translate(292.528571 61.071786) scale(0.114286 -0.114286)">
     <use xlink:href="#DejaVuSans-34"/>
    </g>
   </g>
   <g id="text_72">
    <!-- 3 -->
    <g transform="translate(312.457143 61.071786) scale(0.114286 -0.114286)">
     <use xlink:href="#DejaVuSans-33"/>
    </g>
   </g>
   <g id="text_73">
    <!-- 3 -->
    <g transform="translate(332.385714 61.071786) scale(0.114286 -0.114286)">
     <use xlink:href="#DejaVuSans-33"/>
    </g>
   </g>
   <g id="text_74">
    <!-- 5 -->
    <g transform="translate(352.314286 61.071786) scale(0.114286 -0.114286)">
     <use xlink:href="#DejaVuSans-35"/>
    </g>
   </g>
   <g id="text_75">
    <!-- 4 -->
    <g transform="translate(372.242857 61.071786) scale(0.114286 -0.114286)">
     <use xlink:href="#DejaVuSans-34"/>
    </g>
   </g>
   <g id="text_76">
    <!-- 4 -->
    <g transform="translate(392.171429 61.071786) scale(0.114286 -0.114286)">
     <use xlink:href="#DejaVuSans-34"/>
    </g>
   </g>
   <g id="text_77">
    <!-- 6 -->
    <g transform="translate(412.1 61.071786) scale(0.114286 -0.114286)">
     <use xlink:href="#DejaVuSans-36"/>
    </g>
   </g>
   <g id="text_78">
    <!-- 5 -->
    <g transform="translate(432.028571 61.071786) scale(0.114286 -0.114286)">
     <use xlink:href="#DejaVuSans-35"/>
    </g>
   </g>
   <g id="text_79">
    <!-- 5 -->
    <g transform="translate(451.957143 61.071786) scale(0.114286 -0.114286)">
     <use xlink:href="#DejaVuSans-35"/>
    </g>
   </g>
   <g id="text_80">
    <!-- 7 -->
    <g transform="translate(471.885714 61.071786) scale(0.114286 -0.114286)">
     <use xlink:href="#DejaVuSans-37"/>
    </g>
   </g>
   <g id="text_81">
    <!-- 6 -->
    <g transform="translate(491.814286 61.071786) scale(0.114286 -0.114286)">
     <use xlink:href="#DejaVuSans-36"/>
    </g>
   </g>
   <g id="text_82">
    <!-- 6 -->
    <g transform="translate(511.742857 61.071786) scale(0.114286 -0.114286)">
     <use xlink:href="#DejaVuSans-36"/>
    </g>
   </g>
   <g id="text_83">
    <!-- 8 -->
    <g transform="translate(531.671429 61.071786) scale(0.114286 -0.114286)">
     <use xlink:href="#DejaVuSans-38"/>
    </g>
   </g>
   <g id="text_84">
    <!-- 7 -->
    <g transform="translate(551.6 61.071786) scale(0.114286 -0.114286)">
     <use xlink:href="#DejaVuSans-37"/>
    </g>
   </g>
   <g id="text_85">
    <!-- 7 -->
    <g transform="translate(571.528571 61.071786) scale(0.114286 -0.114286)">
     <use xlink:href="#DejaVuSans-37"/>
    </g>
   </g>
   <g id="text_86">
    <!-- 9 -->
    <g transform="translate(591.457143 61.071786) scale(0.114286 -0.114286)">
     <use xlink:href="#DejaVuSans-39"/>
    </g>
   </g>
   <g id="text_87">
    <!-- 8 -->
    <g transform="translate(611.385714 61.071786) scale(0.114286 -0.114286)">
     <use xlink:href="#DejaVuSans-38"/>
    </g>
   </g>
   <g id="text_88">
    <!-- 8 -->
    <g transform="translate(631.314286 61.071786) scale(0.114286 -0.114286)">
     <use xlink:href="#DejaVuSans-38"/>
    </g>
   </g>
   <g id="text_89">
    <!-- 9 -->
    <g transform="translate(671.171429 61.071786) scale(0.114286 -0.114286)">
     <use xlink:href="#DejaVuSans-39"/>
    </g>
   </g>
   <g id="text_90">
    <!-- 9 -->
    <g transform="translate(691.1 61.071786) scale(0.114286 -0.114286)">
     <use xlink:href="#DejaVuSans-39"/>
    </g>
   </g>
   <g id="text_91">
    <!-- 0 -->
    <g transform="translate(73.314286 81.000357) scale(0.114286 -0.114286)">
     <use xlink:href="#DejaVuSans-30"/>
    </g>
   </g>
   <g id="text_92">
    <!-- 0 -->
    <g transform="translate(93.242857 81.000357) scale(0.114286 -0.114286)">
     <use xlink:href="#DejaVuSans-30"/>
    </g>
   </g>
   <g id="text_93">
    <!-- 0 -->
    <g transform="translate(113.171429 81.000357) scale(0.114286 -0.114286)">
     <use xlink:href="#DejaVuSans-30"/>
    </g>
   </g>
   <g id="text_94">
    <!-- 1 -->
    <g transform="translate(133.1 81.000357) scale(0.114286 -0.114286)">
     <use xlink:href="#DejaVuSans-31"/>
    </g>
   </g>
   <g id="text_95">
    <!-- 1 -->
    <g transform="translate(153.028571 81.000357) scale(0.114286 -0.114286)">
     <use xlink:href="#DejaVuSans-31"/>
    </g>
   </g>
   <g id="text_96">
    <!-- 1 -->
    <g transform="translate(172.957143 81.000357) scale(0.114286 -0.114286)">
     <use xlink:href="#DejaVuSans-31"/>
    </g>
   </g>
   <g id="text_97">
    <!-- 2 -->
    <g transform="translate(192.885714 81.000357) scale(0.114286 -0.114286)">
     <use xlink:href="#DejaVuSans-32"/>
    </g>
   </g>
   <g id="text_98">
    <!-- 2 -->
    <g transform="translate(212.814286 81.000357) scale(0.114286 -0.114286)">
     <use xlink:href="#DejaVuSans-32"/>
    </g>
   </g>
   <g id="text_99">
    <!-- 2 -->
    <g transform="translate(232.742857 81.000357) scale(0.114286 -0.114286)">
     <use xlink:href="#DejaVuSans-32"/>
    </g>
   </g>
   <g id="text_100">
    <!-- 3 -->
    <g transform="translate(252.671429 81.000357) scale(0.114286 -0.114286)">
     <use xlink:href="#DejaVuSans-33"/>
    </g>
   </g>
   <g id="text_101">
    <!-- 3 -->
    <g transform="translate(272.6 81.000357) scale(0.114286 -0.114286)">
     <use xlink:href="#DejaVuSans-33"/>
    </g>
   </g>
   <g id="text_102">
    <!-- 3 -->
    <g transform="translate(292.528571 81.000357) scale(0.114286 -0.114286)">
     <use xlink:href="#DejaVuSans-33"/>
    </g>
   </g>
   <g id="text_103">
    <!-- 4 -->
    <g transform="translate(312.457143 81.000357) scale(0.114286 -0.114286)">
     <use xlink:href="#DejaVuSans-34"/>
    </g>
   </g>
   <g id="text_104">
    <!-- 4 -->
    <g transform="translate(332.385714 81.000357) scale(0.114286 -0.114286)">
     <use xlink:href="#DejaVuSans-34"/>
    </g>
   </g>
   <g id="text_105">
    <!-- 4 -->
    <g transform="translate(352.314286 81.000357) scale(0.114286 -0.114286)">
     <use xlink:href="#DejaVuSans-34"/>
    </g>
   </g>
   <g id="text_106">
    <!-- 5 -->
    <g transform="translate(372.242857 81.000357) scale(0.114286 -0.114286)">
     <use xlink:href="#DejaVuSans-35"/>
    </g>
   </g>
   <g id="text_107">
    <!-- 5 -->
    <g transform="translate(392.171429 81.000357) scale(0.114286 -0.114286)">
     <use xlink:href="#DejaVuSans-35"/>
    </g>
   </g>
   <g id="text_108">
    <!-- 5 -->
    <g transform="translate(412.1 81.000357) scale(0.114286 -0.114286)">
     <use xlink:href="#DejaVuSans-35"/>
    </g>
   </g>
   <g id="text_109">
    <!-- 6 -->
    <g transform="translate(432.028571 81.000357) scale(0.114286 -0.114286)">
     <use xlink:href="#DejaVuSans-36"/>
    </g>
   </g>
   <g id="text_110">
    <!-- 6 -->
    <g transform="translate(451.957143 81.000357) scale(0.114286 -0.114286)">
     <use xlink:href="#DejaVuSans-36"/>
    </g>
   </g>
   <g id="text_111">
    <!-- 6 -->
    <g transform="translate(471.885714 81.000357) scale(0.114286 -0.114286)">
     <use xlink:href="#DejaVuSans-36"/>
    </g>
   </g>
   <g id="text_112">
    <!-- 7 -->
    <g transform="translate(491.814286 81.000357) scale(0.114286 -0.114286)">
     <use xlink:href="#DejaVuSans-37"/>
    </g>
   </g>
   <g id="text_113">
    <!-- 7 -->
    <g transform="translate(511.742857 81.000357) scale(0.114286 -0.114286)">
     <use xlink:href="#DejaVuSans-37"/>
    </g>
   </g>
   <g id="text_114">
    <!-- 7 -->
    <g transform="translate(531.671429 81.000357) scale(0.114286 -0.114286)">
     <use xlink:href="#DejaVuSans-37"/>
    </g>
   </g>
   <g id="text_115">
    <!-- 8 -->
    <g transform="translate(551.6 81.000357) scale(0.114286 -0.114286)">
     <use xlink:href="#DejaVuSans-38"/>
    </g>
   </g>
   <g id="text_116">
    <!-- 8 -->
    <g transform="translate(571.528571 81.000357) scale(0.114286 -0.114286)">
     <use xlink:href="#DejaVuSans-38"/>
    </g>
   </g>
   <g id="text_117">
    <!-- 8 -->
    <g transform="translate(591.457143 81.000357) scale(0.114286 -0.114286)">
     <use xlink:href="#DejaVuSans-38"/>
    </g>
   </g>
   <g id="text_118">
    <!-- 9 -->
    <g transform="translate(611.385714 81.000357) scale(0.114286 -0.114286)">
     <use xlink:href="#DejaVuSans-39"/>
    </g>
   </g>
   <g id="text_119">
    <!-- 9 -->
    <g transform="translate(631.314286 81.000357) scale(0.114286 -0.114286)">
     <use xlink:href="#DejaVuSans-39"/>
    </g>
   </g>
   <g id="text_120">
    <!-- 9 -->
    <g transform="translate(651.242857 81.000357) scale(0.114286 -0.114286)">
     <use xlink:href="#DejaVuSans-39"/>
    </g>
   </g>
  </g>
 </g>
 <defs>
  <clipPath id="pb1815b595d">
   <rect x="7.2" y="7.2" width="1116" height="79.714286"/>
  </clipPath>
 </defs>
</svg>
