<?xml version="1.0" encoding="utf-8" standalone="no"?>
<!DOCTYPE svg PUBLIC "-//W3C//DTD SVG 1.1//EN"
  "http://www.w3.org/Graphics/SVG/1.1/DTD/svg11.dtd">
<svg xmlns:xlink="http://www.w3.org/1999/xlink" width="1130.4pt" height="84.15pt" viewBox="0 0 1130.4 84.15" xmlns="http://www.w3.org/2000/svg" version="1.1">
 <metadata>
  <rdf:RDF xmlns:dc="http://purl.org/dc/elements/1.1/" xmlns:cc="http://creativecommons.org/ns#" xmlns:rdf="http://www.w3.org/1999/02/22-rdf-syntax-ns#">
   <cc:Work>
    <dc:type rdf:resource="http://purl.org/dc/dcmitype/StillImage"/>
    <dc:date>2025-05-10T21:57:28.588122</dc:date>
    <dc:format>image/svg+xml</dc:format>
    <dc:creator>
     <cc:Agent>
      <dc:title>Matplotlib v3.6.3, https://matplotlib.org/</dc:title>
     </cc:Agent>
    </dc:creator>
   </cc:Work>
  </rdf:RDF>
 </metadata>
 <defs>
  <style type="text/css">*{stroke-linejoin: round; stroke-linecap: butt}</style>
 </defs>
 <g id="figure_1">
  <g id="patch_1">
   <path d="M 0 84.15 
L 1130.4 84.15 
L 1130.4 -0 
L 0 -0 
z
" style="fill: #ffffff"/>
  </g>
  <g id="axes_1">
   <g id="PatchCollection_1">
    <path d="M 7.2 76.95 
L 76.95 76.95 
L 76.95 7.2 
L 7.2 7.2 
z
" clip-path="url(#p413e0da2f4)" style="fill: #fcb225; stroke: #000000; stroke-width: 2"/>
    <path d="M 76.95 76.95 
L 146.7 76.95 
L 146.7 7.2 
L 76.95 7.2 
z
" clip-path="url(#p413e0da2f4)" style="fill: #5add4a; stroke: #000000; stroke-width: 2"/>
    <path d="M 146.7 76.95 
L 216.45 76.95 
L 216.45 7.2 
L 146.7 7.2 
z
" clip-path="url(#p413e0da2f4)" style="fill: #60bdfd; stroke: #000000; stroke-width: 2"/>
    <path d="M 216.45 76.95 
L 286.2 76.95 
L 286.2 7.2 
L 216.45 7.2 
z
" clip-path="url(#p413e0da2f4)" style="fill: #fcb225; stroke: #000000; stroke-width: 2"/>
    <path d="M 286.2 76.95 
L 355.95 76.95 
L 355.95 7.2 
L 286.2 7.2 
z
" clip-path="url(#p413e0da2f4)" style="fill: #5add4a; stroke: #000000; stroke-width: 2"/>
    <path d="M 355.95 76.95 
L 425.7 76.95 
L 425.7 7.2 
L 355.95 7.2 
z
" clip-path="url(#p413e0da2f4)" style="fill: #60bdfd; stroke: #000000; stroke-width: 2"/>
    <path d="M 425.7 76.95 
L 495.45 76.95 
L 495.45 7.2 
L 425.7 7.2 
z
" clip-path="url(#p413e0da2f4)" style="fill: #fcb225; stroke: #000000; stroke-width: 2"/>
    <path d="M 495.45 76.95 
L 565.2 76.95 
L 565.2 7.2 
L 495.45 7.2 
z
" clip-path="url(#p413e0da2f4)" style="fill: #5add4a; stroke: #000000; stroke-width: 2"/>
    <path d="M 565.2 76.95 
L 634.95 76.95 
L 634.95 7.2 
L 565.2 7.2 
z
" clip-path="url(#p413e0da2f4)" style="fill: #60bdfd; stroke: #000000; stroke-width: 2"/>
   </g>
   <g id="text_1">
    <!-- 0 -->
    <g transform="translate(29.35 56.25125) scale(0.4 -0.4)">
     <defs>
      <path id="DejaVuSans-30" d="M 2034 4250 
Q 1547 4250 1301 3770 
Q 1056 3291 1056 2328 
Q 1056 1369 1301 889 
Q 1547 409 2034 409 
Q 2525 409 2770 889 
Q 3016 1369 3016 2328 
Q 3016 3291 2770 3770 
Q 2525 4250 2034 4250 
z
M 2034 4750 
Q 2819 4750 3233 4129 
Q 3647 3509 3647 2328 
Q 3647 1150 3233 529 
Q 2819 -91 2034 -91 
Q 1250 -91 836 529 
Q 422 1150 422 2328 
Q 422 3509 836 4129 
Q 1250 4750 2034 4750 
z
" transform="scale(0.015625)"/>
     </defs>
     <use xlink:href="#DejaVuSans-30"/>
    </g>
   </g>
   <g id="text_2">
    <!-- 0 -->
    <g transform="translate(99.1 56.25125) scale(0.4 -0.4)">
     <use xlink:href="#DejaVuSans-30"/>
    </g>
   </g>
   <g id="text_3">
    <!-- 0 -->
    <g transform="translate(168.85 56.25125) scale(0.4 -0.4)">
     <use xlink:href="#DejaVuSans-30"/>
    </g>
   </g>
   <g id="text_4">
    <!-- 1 -->
    <g transform="translate(238.6 56.25125) scale(0.4 -0.4)">
     <defs>
      <path id="DejaVuSans-31" d="M 794 531 
L 1825 531 
L 1825 4091 
L 703 3866 
L 703 4441 
L 1819 4666 
L 2450 4666 
L 2450 531 
L 3481 531 
L 3481 0 
L 794 0 
L 794 531 
z
" transform="scale(0.015625)"/>
     </defs>
     <use xlink:href="#DejaVuSans-31"/>
    </g>
   </g>
   <g id="text_5">
    <!-- 1 -->
    <g transform="translate(308.35 56.25125) scale(0.4 -0.4)">
     <use xlink:href="#DejaVuSans-31"/>
    </g>
   </g>
   <g id="text_6">
    <!-- 1 -->
    <g transform="translate(378.1 56.25125) scale(0.4 -0.4)">
     <use xlink:href="#DejaVuSans-31"/>
    </g>
   </g>
   <g id="text_7">
    <!-- 2 -->
    <g transform="translate(447.85 56.25125) scale(0.4 -0.4)">
     <defs>
      <path id="DejaVuSans-32" d="M 1228 531 
L 3431 531 
L 3431 0 
L 469 0 
L 469 531 
Q 828 903 1448 1529 
Q 2069 2156 2228 2338 
Q 2531 2678 2651 2914 
Q 2772 3150 2772 3378 
Q 2772 3750 2511 3984 
Q 2250 4219 1831 4219 
Q 1534 4219 1204 4116 
Q 875 4013 500 3803 
L 500 4441 
Q 881 4594 1212 4672 
Q 1544 4750 1819 4750 
Q 2544 4750 2975 4387 
Q 3406 4025 3406 3419 
Q 3406 3131 3298 2873 
Q 3191 2616 2906 2266 
Q 2828 2175 2409 1742 
Q 1991 1309 1228 531 
z
" transform="scale(0.015625)"/>
     </defs>
     <use xlink:href="#DejaVuSans-32"/>
    </g>
   </g>
   <g id="text_8">
    <!-- 2 -->
    <g transform="translate(517.6 56.25125) scale(0.4 -0.4)">
     <use xlink:href="#DejaVuSans-32"/>
    </g>
   </g>
   <g id="text_9">
    <!-- 2 -->
    <g transform="translate(587.35 56.25125) scale(0.4 -0.4)">
     <use xlink:href="#DejaVuSans-32"/>
    </g>
   </g>
  </g>
 </g>
 <defs>
  <clipPath id="p413e0da2f4">
   <rect x="7.2" y="7.2" width="1116" height="69.75"/>
  </clipPath>
 </defs>
</svg>
