<?xml version="1.0" encoding="utf-8" standalone="no"?>
<!DOCTYPE svg PUBLIC "-//W3C//DTD SVG 1.1//EN"
  "http://www.w3.org/Graphics/SVG/1.1/DTD/svg11.dtd">
<svg xmlns:xlink="http://www.w3.org/1999/xlink" width="1130.4pt" height="223.65pt" viewBox="0 0 1130.4 223.65" xmlns="http://www.w3.org/2000/svg" version="1.1">
 <metadata>
  <rdf:RDF xmlns:dc="http://purl.org/dc/elements/1.1/" xmlns:cc="http://creativecommons.org/ns#" xmlns:rdf="http://www.w3.org/1999/02/22-rdf-syntax-ns#">
   <cc:Work>
    <dc:type rdf:resource="http://purl.org/dc/dcmitype/StillImage"/>
    <dc:date>2025-05-10T21:57:27.288053</dc:date>
    <dc:format>image/svg+xml</dc:format>
    <dc:creator>
     <cc:Agent>
      <dc:title>Matplotlib v3.6.3, https://matplotlib.org/</dc:title>
     </cc:Agent>
    </dc:creator>
   </cc:Work>
  </rdf:RDF>
 </metadata>
 <defs>
  <style type="text/css">*{stroke-linejoin: round; stroke-linecap: butt}</style>
 </defs>
 <g id="figure_1">
  <g id="patch_1">
   <path d="M 0 223.65 
L 1130.4 223.65 
L 1130.4 0 
L 0 0 
z
" style="fill: #ffffff"/>
  </g>
  <g id="axes_1">
   <g id="PatchCollection_1">
    <path d="M 7.2 76.95 
L 76.95 76.95 
L 76.95 7.2 
L 7.2 7.2 
z
" clip-path="url(#pfebc43af5f)" style="fill: #fcb225; stroke: #000000; stroke-width: 2"/>
    <path d="M 495.45 76.95 
L 565.2 76.95 
L 565.2 7.2 
L 495.45 7.2 
z
" clip-path="url(#pfebc43af5f)" style="fill: #5add4a; stroke: #000000; stroke-width: 2"/>
    <path d="M 565.2 76.95 
L 634.95 76.95 
L 634.95 7.2 
L 565.2 7.2 
z
" clip-path="url(#pfebc43af5f)" style="fill: #60bdfd; stroke: #000000; stroke-width: 2"/>
    <path d="M 76.95 146.7 
L 146.7 146.7 
L 146.7 76.95 
L 76.95 76.95 
z
" clip-path="url(#pfebc43af5f)" style="fill: #fcb225; stroke: #000000; stroke-width: 2"/>
    <path d="M 355.95 146.7 
L 425.7 146.7 
L 425.7 76.95 
L 355.95 76.95 
z
" clip-path="url(#pfebc43af5f)" style="fill: #5add4a; stroke: #000000; stroke-width: 2"/>
    <path d="M 425.7 146.7 
L 495.45 146.7 
L 495.45 76.95 
L 425.7 76.95 
z
" clip-path="url(#pfebc43af5f)" style="fill: #60bdfd; stroke: #000000; stroke-width: 2"/>
    <path d="M 146.7 216.45 
L 216.45 216.45 
L 216.45 146.7 
L 146.7 146.7 
z
" clip-path="url(#pfebc43af5f)" style="fill: #fcb225; stroke: #000000; stroke-width: 2"/>
    <path d="M 216.45 216.45 
L 286.2 216.45 
L 286.2 146.7 
L 216.45 146.7 
z
" clip-path="url(#pfebc43af5f)" style="fill: #5add4a; stroke: #000000; stroke-width: 2"/>
    <path d="M 286.2 216.45 
L 355.95 216.45 
L 355.95 146.7 
L 286.2 146.7 
z
" clip-path="url(#pfebc43af5f)" style="fill: #60bdfd; stroke: #000000; stroke-width: 2"/>
   </g>
   <g id="text_1">
    <!-- 0 -->
    <g transform="translate(29.35 56.25125) scale(0.4 -0.4)">
     <defs>
      <path id="DejaVuSans-30" d="M 2034 4250 
Q 1547 4250 1301 3770 
Q 1056 3291 1056 2328 
Q 1056 1369 1301 889 
Q 1547 409 2034 409 
Q 2525 409 2770 889 
Q 3016 1369 3016 2328 
Q 3016 3291 2770 3770 
Q 2525 4250 2034 4250 
z
M 2034 4750 
Q 2819 4750 3233 4129 
Q 3647 3509 3647 2328 
Q 3647 1150 3233 529 
Q 2819 -91 2034 -91 
Q 1250 -91 836 529 
Q 422 1150 422 2328 
Q 422 3509 836 4129 
Q 1250 4750 2034 4750 
z
" transform="scale(0.015625)"/>
     </defs>
     <use xlink:href="#DejaVuSans-30"/>
    </g>
   </g>
   <g id="text_2">
    <!-- 0 -->
    <g transform="translate(517.6 56.25125) scale(0.4 -0.4)">
     <use xlink:href="#DejaVuSans-30"/>
    </g>
   </g>
   <g id="text_3">
    <!-- 0 -->
    <g transform="translate(587.35 56.25125) scale(0.4 -0.4)">
     <use xlink:href="#DejaVuSans-30"/>
    </g>
   </g>
   <g id="text_4">
    <!-- 0 -->
    <g transform="translate(99.1 126.00125) scale(0.4 -0.4)">
     <use xlink:href="#DejaVuSans-30"/>
    </g>
   </g>
   <g id="text_5">
    <!-- 0 -->
    <g transform="translate(378.1 126.00125) scale(0.4 -0.4)">
     <use xlink:href="#DejaVuSans-30"/>
    </g>
   </g>
   <g id="text_6">
    <!-- 0 -->
    <g transform="translate(447.85 126.00125) scale(0.4 -0.4)">
     <use xlink:href="#DejaVuSans-30"/>
    </g>
   </g>
   <g id="text_7">
    <!-- 0 -->
    <g transform="translate(168.85 195.75125) scale(0.4 -0.4)">
     <use xlink:href="#DejaVuSans-30"/>
    </g>
   </g>
   <g id="text_8">
    <!-- 0 -->
    <g transform="translate(238.6 195.75125) scale(0.4 -0.4)">
     <use xlink:href="#DejaVuSans-30"/>
    </g>
   </g>
   <g id="text_9">
    <!-- 0 -->
    <g transform="translate(308.35 195.75125) scale(0.4 -0.4)">
     <use xlink:href="#DejaVuSans-30"/>
    </g>
   </g>
  </g>
 </g>
 <defs>
  <clipPath id="pfebc43af5f">
   <rect x="7.2" y="7.2" width="1116" height="209.25"/>
  </clipPath>
 </defs>
</svg>
