<?xml version="1.0" encoding="utf-8" standalone="no"?>
<!DOCTYPE svg PUBLIC "-//W3C//DTD SVG 1.1//EN"
  "http://www.w3.org/Graphics/SVG/1.1/DTD/svg11.dtd">
<svg xmlns:xlink="http://www.w3.org/1999/xlink" width="1130.4pt" height="262.4pt" viewBox="0 0 1130.4 262.4" xmlns="http://www.w3.org/2000/svg" version="1.1">
 <metadata>
  <rdf:RDF xmlns:dc="http://purl.org/dc/elements/1.1/" xmlns:cc="http://creativecommons.org/ns#" xmlns:rdf="http://www.w3.org/1999/02/22-rdf-syntax-ns#">
   <cc:Work>
    <dc:type rdf:resource="http://purl.org/dc/dcmitype/StillImage"/>
    <dc:date>2025-05-10T21:57:27.617916</dc:date>
    <dc:format>image/svg+xml</dc:format>
    <dc:creator>
     <cc:Agent>
      <dc:title>Matplotlib v3.6.3, https://matplotlib.org/</dc:title>
     </cc:Agent>
    </dc:creator>
   </cc:Work>
  </rdf:RDF>
 </metadata>
 <defs>
  <style type="text/css">*{stroke-linejoin: round; stroke-linecap: butt}</style>
 </defs>
 <g id="figure_1">
  <g id="patch_1">
   <path d="M 0 262.4 
L 1130.4 262.4 
L 1130.4 0 
L 0 0 
z
" style="fill: #ffffff"/>
  </g>
  <g id="axes_1">
   <g id="PatchCollection_1">
    <path d="M 7.2 38.2 
L 38.2 38.2 
L 38.2 7.2 
L 7.2 7.2 
z
" clip-path="url(#p57a6563bc4)" style="fill: #fcb225; stroke: #000000; stroke-width: 0.888889"/>
    <path d="M 689.2 38.2 
L 720.2 38.2 
L 720.2 7.2 
L 689.2 7.2 
z
" clip-path="url(#p57a6563bc4)" style="fill: #5add4a; stroke: #000000; stroke-width: 0.888889"/>
    <path d="M 720.2 38.2 
L 751.2 38.2 
L 751.2 7.2 
L 720.2 7.2 
z
" clip-path="url(#p57a6563bc4)" style="fill: #60bdfd; stroke: #000000; stroke-width: 0.888889"/>
    <path d="M 38.2 69.2 
L 69.2 69.2 
L 69.2 38.2 
L 38.2 38.2 
z
" clip-path="url(#p57a6563bc4)" style="fill: #fcb225; stroke: #000000; stroke-width: 0.888889"/>
    <path d="M 627.2 69.2 
L 658.2 69.2 
L 658.2 38.2 
L 627.2 38.2 
z
" clip-path="url(#p57a6563bc4)" style="fill: #5add4a; stroke: #000000; stroke-width: 0.888889"/>
    <path d="M 658.2 69.2 
L 689.2 69.2 
L 689.2 38.2 
L 658.2 38.2 
z
" clip-path="url(#p57a6563bc4)" style="fill: #60bdfd; stroke: #000000; stroke-width: 0.888889"/>
    <path d="M 69.2 100.2 
L 100.2 100.2 
L 100.2 69.2 
L 69.2 69.2 
z
" clip-path="url(#p57a6563bc4)" style="fill: #fcb225; stroke: #000000; stroke-width: 0.888889"/>
    <path d="M 565.2 100.2 
L 596.2 100.2 
L 596.2 69.2 
L 565.2 69.2 
z
" clip-path="url(#p57a6563bc4)" style="fill: #5add4a; stroke: #000000; stroke-width: 0.888889"/>
    <path d="M 596.2 100.2 
L 627.2 100.2 
L 627.2 69.2 
L 596.2 69.2 
z
" clip-path="url(#p57a6563bc4)" style="fill: #60bdfd; stroke: #000000; stroke-width: 0.888889"/>
    <path d="M 100.2 131.2 
L 131.2 131.2 
L 131.2 100.2 
L 100.2 100.2 
z
" clip-path="url(#p57a6563bc4)" style="fill: #fcb225; stroke: #000000; stroke-width: 0.888889"/>
    <path d="M 503.2 131.2 
L 534.2 131.2 
L 534.2 100.2 
L 503.2 100.2 
z
" clip-path="url(#p57a6563bc4)" style="fill: #5add4a; stroke: #000000; stroke-width: 0.888889"/>
    <path d="M 534.2 131.2 
L 565.2 131.2 
L 565.2 100.2 
L 534.2 100.2 
z
" clip-path="url(#p57a6563bc4)" style="fill: #60bdfd; stroke: #000000; stroke-width: 0.888889"/>
    <path d="M 131.2 162.2 
L 162.2 162.2 
L 162.2 131.2 
L 131.2 131.2 
z
" clip-path="url(#p57a6563bc4)" style="fill: #fcb225; stroke: #000000; stroke-width: 0.888889"/>
    <path d="M 441.2 162.2 
L 472.2 162.2 
L 472.2 131.2 
L 441.2 131.2 
z
" clip-path="url(#p57a6563bc4)" style="fill: #5add4a; stroke: #000000; stroke-width: 0.888889"/>
    <path d="M 472.2 162.2 
L 503.2 162.2 
L 503.2 131.2 
L 472.2 131.2 
z
" clip-path="url(#p57a6563bc4)" style="fill: #60bdfd; stroke: #000000; stroke-width: 0.888889"/>
    <path d="M 162.2 193.2 
L 193.2 193.2 
L 193.2 162.2 
L 162.2 162.2 
z
" clip-path="url(#p57a6563bc4)" style="fill: #fcb225; stroke: #000000; stroke-width: 0.888889"/>
    <path d="M 379.2 193.2 
L 410.2 193.2 
L 410.2 162.2 
L 379.2 162.2 
z
" clip-path="url(#p57a6563bc4)" style="fill: #5add4a; stroke: #000000; stroke-width: 0.888889"/>
    <path d="M 410.2 193.2 
L 441.2 193.2 
L 441.2 162.2 
L 410.2 162.2 
z
" clip-path="url(#p57a6563bc4)" style="fill: #60bdfd; stroke: #000000; stroke-width: 0.888889"/>
    <path d="M 193.2 224.2 
L 224.2 224.2 
L 224.2 193.2 
L 193.2 193.2 
z
" clip-path="url(#p57a6563bc4)" style="fill: #fcb225; stroke: #000000; stroke-width: 0.888889"/>
    <path d="M 317.2 224.2 
L 348.2 224.2 
L 348.2 193.2 
L 317.2 193.2 
z
" clip-path="url(#p57a6563bc4)" style="fill: #5add4a; stroke: #000000; stroke-width: 0.888889"/>
    <path d="M 348.2 224.2 
L 379.2 224.2 
L 379.2 193.2 
L 348.2 193.2 
z
" clip-path="url(#p57a6563bc4)" style="fill: #60bdfd; stroke: #000000; stroke-width: 0.888889"/>
    <path d="M 224.2 255.2 
L 255.2 255.2 
L 255.2 224.2 
L 224.2 224.2 
z
" clip-path="url(#p57a6563bc4)" style="fill: #fcb225; stroke: #000000; stroke-width: 0.888889"/>
    <path d="M 255.2 255.2 
L 286.2 255.2 
L 286.2 224.2 
L 255.2 224.2 
z
" clip-path="url(#p57a6563bc4)" style="fill: #5add4a; stroke: #000000; stroke-width: 0.888889"/>
    <path d="M 286.2 255.2 
L 317.2 255.2 
L 317.2 224.2 
L 286.2 224.2 
z
" clip-path="url(#p57a6563bc4)" style="fill: #60bdfd; stroke: #000000; stroke-width: 0.888889"/>
   </g>
   <g id="text_1">
    <!-- 0 -->
    <g transform="translate(17.044444 29.000556) scale(0.177778 -0.177778)">
     <defs>
      <path id="DejaVuSans-30" d="M 2034 4250 
Q 1547 4250 1301 3770 
Q 1056 3291 1056 2328 
Q 1056 1369 1301 889 
Q 1547 409 2034 409 
Q 2525 409 2770 889 
Q 3016 1369 3016 2328 
Q 3016 3291 2770 3770 
Q 2525 4250 2034 4250 
z
M 2034 4750 
Q 2819 4750 3233 4129 
Q 3647 3509 3647 2328 
Q 3647 1150 3233 529 
Q 2819 -91 2034 -91 
Q 1250 -91 836 529 
Q 422 1150 422 2328 
Q 422 3509 836 4129 
Q 1250 4750 2034 4750 
z
" transform="scale(0.015625)"/>
     </defs>
     <use xlink:href="#DejaVuSans-30"/>
    </g>
   </g>
   <g id="text_2">
    <!-- 0 -->
    <g transform="translate(699.044444 29.000556) scale(0.177778 -0.177778)">
     <use xlink:href="#DejaVuSans-30"/>
    </g>
   </g>
   <g id="text_3">
    <!-- 0 -->
    <g transform="translate(730.044444 29.000556) scale(0.177778 -0.177778)">
     <use xlink:href="#DejaVuSans-30"/>
    </g>
   </g>
   <g id="text_4">
    <!-- 0 -->
    <g transform="translate(48.044444 60.000556) scale(0.177778 -0.177778)">
     <use xlink:href="#DejaVuSans-30"/>
    </g>
   </g>
   <g id="text_5">
    <!-- 0 -->
    <g transform="translate(637.044444 60.000556) scale(0.177778 -0.177778)">
     <use xlink:href="#DejaVuSans-30"/>
    </g>
   </g>
   <g id="text_6">
    <!-- 0 -->
    <g transform="translate(668.044444 60.000556) scale(0.177778 -0.177778)">
     <use xlink:href="#DejaVuSans-30"/>
    </g>
   </g>
   <g id="text_7">
    <!-- 0 -->
    <g transform="translate(79.044444 91.000556) scale(0.177778 -0.177778)">
     <use xlink:href="#DejaVuSans-30"/>
    </g>
   </g>
   <g id="text_8">
    <!-- 0 -->
    <g transform="translate(575.044444 91.000556) scale(0.177778 -0.177778)">
     <use xlink:href="#DejaVuSans-30"/>
    </g>
   </g>
   <g id="text_9">
    <!-- 0 -->
    <g transform="translate(606.044444 91.000556) scale(0.177778 -0.177778)">
     <use xlink:href="#DejaVuSans-30"/>
    </g>
   </g>
   <g id="text_10">
    <!-- 0 -->
    <g transform="translate(110.044444 122.000556) scale(0.177778 -0.177778)">
     <use xlink:href="#DejaVuSans-30"/>
    </g>
   </g>
   <g id="text_11">
    <!-- 0 -->
    <g transform="translate(513.044444 122.000556) scale(0.177778 -0.177778)">
     <use xlink:href="#DejaVuSans-30"/>
    </g>
   </g>
   <g id="text_12">
    <!-- 0 -->
    <g transform="translate(544.044444 122.000556) scale(0.177778 -0.177778)">
     <use xlink:href="#DejaVuSans-30"/>
    </g>
   </g>
   <g id="text_13">
    <!-- 0 -->
    <g transform="translate(141.044444 153.000556) scale(0.177778 -0.177778)">
     <use xlink:href="#DejaVuSans-30"/>
    </g>
   </g>
   <g id="text_14">
    <!-- 0 -->
    <g transform="translate(451.044444 153.000556) scale(0.177778 -0.177778)">
     <use xlink:href="#DejaVuSans-30"/>
    </g>
   </g>
   <g id="text_15">
    <!-- 0 -->
    <g transform="translate(482.044444 153.000556) scale(0.177778 -0.177778)">
     <use xlink:href="#DejaVuSans-30"/>
    </g>
   </g>
   <g id="text_16">
    <!-- 0 -->
    <g transform="translate(172.044444 184.000556) scale(0.177778 -0.177778)">
     <use xlink:href="#DejaVuSans-30"/>
    </g>
   </g>
   <g id="text_17">
    <!-- 0 -->
    <g transform="translate(389.044444 184.000556) scale(0.177778 -0.177778)">
     <use xlink:href="#DejaVuSans-30"/>
    </g>
   </g>
   <g id="text_18">
    <!-- 0 -->
    <g transform="translate(420.044444 184.000556) scale(0.177778 -0.177778)">
     <use xlink:href="#DejaVuSans-30"/>
    </g>
   </g>
   <g id="text_19">
    <!-- 0 -->
    <g transform="translate(203.044444 215.000556) scale(0.177778 -0.177778)">
     <use xlink:href="#DejaVuSans-30"/>
    </g>
   </g>
   <g id="text_20">
    <!-- 0 -->
    <g transform="translate(327.044444 215.000556) scale(0.177778 -0.177778)">
     <use xlink:href="#DejaVuSans-30"/>
    </g>
   </g>
   <g id="text_21">
    <!-- 0 -->
    <g transform="translate(358.044444 215.000556) scale(0.177778 -0.177778)">
     <use xlink:href="#DejaVuSans-30"/>
    </g>
   </g>
   <g id="text_22">
    <!-- 0 -->
    <g transform="translate(234.044444 246.000556) scale(0.177778 -0.177778)">
     <use xlink:href="#DejaVuSans-30"/>
    </g>
   </g>
   <g id="text_23">
    <!-- 0 -->
    <g transform="translate(265.044444 246.000556) scale(0.177778 -0.177778)">
     <use xlink:href="#DejaVuSans-30"/>
    </g>
   </g>
   <g id="text_24">
    <!-- 0 -->
    <g transform="translate(296.044444 246.000556) scale(0.177778 -0.177778)">
     <use xlink:href="#DejaVuSans-30"/>
    </g>
   </g>
  </g>
 </g>
 <defs>
  <clipPath id="p57a6563bc4">
   <rect x="7.2" y="7.2" width="1116" height="248"/>
  </clipPath>
 </defs>
</svg>
