<?xml version="1.0" encoding="utf-8" standalone="no"?>
<!DOCTYPE svg PUBLIC "-//W3C//DTD SVG 1.1//EN"
  "http://www.w3.org/Graphics/SVG/1.1/DTD/svg11.dtd">
<svg xmlns:xlink="http://www.w3.org/1999/xlink" width="1130.4pt" height="200.4pt" viewBox="0 0 1130.4 200.4" xmlns="http://www.w3.org/2000/svg" version="1.1">
 <metadata>
  <rdf:RDF xmlns:dc="http://purl.org/dc/elements/1.1/" xmlns:cc="http://creativecommons.org/ns#" xmlns:rdf="http://www.w3.org/1999/02/22-rdf-syntax-ns#">
   <cc:Work>
    <dc:type rdf:resource="http://purl.org/dc/dcmitype/StillImage"/>
    <dc:date>2025-05-10T21:57:28.967799</dc:date>
    <dc:format>image/svg+xml</dc:format>
    <dc:creator>
     <cc:Agent>
      <dc:title>Matplotlib v3.6.3, https://matplotlib.org/</dc:title>
     </cc:Agent>
    </dc:creator>
   </cc:Work>
  </rdf:RDF>
 </metadata>
 <defs>
  <style type="text/css">*{stroke-linejoin: round; stroke-linecap: butt}</style>
 </defs>
 <g id="figure_1">
  <g id="patch_1">
   <path d="M 0 200.4 
L 1130.4 200.4 
L 1130.4 -0 
L 0 -0 
z
" style="fill: #ffffff"/>
  </g>
  <g id="axes_1">
   <g id="PatchCollection_1">
    <path d="M 7.2 38.2 
L 38.2 38.2 
L 38.2 7.2 
L 7.2 7.2 
z
" clip-path="url(#p73a6610d9f)" style="fill: #fcb225; stroke: #000000; stroke-width: 0.888889"/>
    <path d="M 38.2 38.2 
L 69.2 38.2 
L 69.2 7.2 
L 38.2 7.2 
z
" clip-path="url(#p73a6610d9f)" style="fill: #fcb225; stroke: #000000; stroke-width: 0.888889"/>
    <path d="M 69.2 38.2 
L 100.2 38.2 
L 100.2 7.2 
L 69.2 7.2 
z
" clip-path="url(#p73a6610d9f)" style="fill: #fcb225; stroke: #000000; stroke-width: 0.888889"/>
    <path d="M 503.2 38.2 
L 534.2 38.2 
L 534.2 7.2 
L 503.2 7.2 
z
" clip-path="url(#p73a6610d9f)" style="fill: #5add4a; stroke: #000000; stroke-width: 0.888889"/>
    <path d="M 534.2 38.2 
L 565.2 38.2 
L 565.2 7.2 
L 534.2 7.2 
z
" clip-path="url(#p73a6610d9f)" style="fill: #60bdfd; stroke: #000000; stroke-width: 0.888889"/>
    <path d="M 596.2 38.2 
L 627.2 38.2 
L 627.2 7.2 
L 596.2 7.2 
z
" clip-path="url(#p73a6610d9f)" style="fill: #5add4a; stroke: #000000; stroke-width: 0.888889"/>
    <path d="M 627.2 38.2 
L 658.2 38.2 
L 658.2 7.2 
L 627.2 7.2 
z
" clip-path="url(#p73a6610d9f)" style="fill: #60bdfd; stroke: #000000; stroke-width: 0.888889"/>
    <path d="M 689.2 38.2 
L 720.2 38.2 
L 720.2 7.2 
L 689.2 7.2 
z
" clip-path="url(#p73a6610d9f)" style="fill: #5add4a; stroke: #000000; stroke-width: 0.888889"/>
    <path d="M 720.2 38.2 
L 751.2 38.2 
L 751.2 7.2 
L 720.2 7.2 
z
" clip-path="url(#p73a6610d9f)" style="fill: #60bdfd; stroke: #000000; stroke-width: 0.888889"/>
    <path d="M 38.2 69.2 
L 69.2 69.2 
L 69.2 38.2 
L 38.2 38.2 
z
" clip-path="url(#p73a6610d9f)" style="fill: #fcb225; stroke: #000000; stroke-width: 0.888889"/>
    <path d="M 69.2 69.2 
L 100.2 69.2 
L 100.2 38.2 
L 69.2 38.2 
z
" clip-path="url(#p73a6610d9f)" style="fill: #fcb225; stroke: #000000; stroke-width: 0.888889"/>
    <path d="M 100.2 69.2 
L 131.2 69.2 
L 131.2 38.2 
L 100.2 38.2 
z
" clip-path="url(#p73a6610d9f)" style="fill: #fcb225; stroke: #000000; stroke-width: 0.888889"/>
    <path d="M 441.2 69.2 
L 472.2 69.2 
L 472.2 38.2 
L 441.2 38.2 
z
" clip-path="url(#p73a6610d9f)" style="fill: #5add4a; stroke: #000000; stroke-width: 0.888889"/>
    <path d="M 472.2 69.2 
L 503.2 69.2 
L 503.2 38.2 
L 472.2 38.2 
z
" clip-path="url(#p73a6610d9f)" style="fill: #60bdfd; stroke: #000000; stroke-width: 0.888889"/>
    <path d="M 534.2 69.2 
L 565.2 69.2 
L 565.2 38.2 
L 534.2 38.2 
z
" clip-path="url(#p73a6610d9f)" style="fill: #5add4a; stroke: #000000; stroke-width: 0.888889"/>
    <path d="M 565.2 69.2 
L 596.2 69.2 
L 596.2 38.2 
L 565.2 38.2 
z
" clip-path="url(#p73a6610d9f)" style="fill: #60bdfd; stroke: #000000; stroke-width: 0.888889"/>
    <path d="M 627.2 69.2 
L 658.2 69.2 
L 658.2 38.2 
L 627.2 38.2 
z
" clip-path="url(#p73a6610d9f)" style="fill: #5add4a; stroke: #000000; stroke-width: 0.888889"/>
    <path d="M 658.2 69.2 
L 689.2 69.2 
L 689.2 38.2 
L 658.2 38.2 
z
" clip-path="url(#p73a6610d9f)" style="fill: #60bdfd; stroke: #000000; stroke-width: 0.888889"/>
    <path d="M 69.2 100.2 
L 100.2 100.2 
L 100.2 69.2 
L 69.2 69.2 
z
" clip-path="url(#p73a6610d9f)" style="fill: #fcb225; stroke: #000000; stroke-width: 0.888889"/>
    <path d="M 100.2 100.2 
L 131.2 100.2 
L 131.2 69.2 
L 100.2 69.2 
z
" clip-path="url(#p73a6610d9f)" style="fill: #fcb225; stroke: #000000; stroke-width: 0.888889"/>
    <path d="M 131.2 100.2 
L 162.2 100.2 
L 162.2 69.2 
L 131.2 69.2 
z
" clip-path="url(#p73a6610d9f)" style="fill: #fcb225; stroke: #000000; stroke-width: 0.888889"/>
    <path d="M 379.2 100.2 
L 410.2 100.2 
L 410.2 69.2 
L 379.2 69.2 
z
" clip-path="url(#p73a6610d9f)" style="fill: #5add4a; stroke: #000000; stroke-width: 0.888889"/>
    <path d="M 410.2 100.2 
L 441.2 100.2 
L 441.2 69.2 
L 410.2 69.2 
z
" clip-path="url(#p73a6610d9f)" style="fill: #60bdfd; stroke: #000000; stroke-width: 0.888889"/>
    <path d="M 472.2 100.2 
L 503.2 100.2 
L 503.2 69.2 
L 472.2 69.2 
z
" clip-path="url(#p73a6610d9f)" style="fill: #5add4a; stroke: #000000; stroke-width: 0.888889"/>
    <path d="M 503.2 100.2 
L 534.2 100.2 
L 534.2 69.2 
L 503.2 69.2 
z
" clip-path="url(#p73a6610d9f)" style="fill: #60bdfd; stroke: #000000; stroke-width: 0.888889"/>
    <path d="M 565.2 100.2 
L 596.2 100.2 
L 596.2 69.2 
L 565.2 69.2 
z
" clip-path="url(#p73a6610d9f)" style="fill: #5add4a; stroke: #000000; stroke-width: 0.888889"/>
    <path d="M 596.2 100.2 
L 627.2 100.2 
L 627.2 69.2 
L 596.2 69.2 
z
" clip-path="url(#p73a6610d9f)" style="fill: #60bdfd; stroke: #000000; stroke-width: 0.888889"/>
    <path d="M 100.2 131.2 
L 131.2 131.2 
L 131.2 100.2 
L 100.2 100.2 
z
" clip-path="url(#p73a6610d9f)" style="fill: #fcb225; stroke: #000000; stroke-width: 0.888889"/>
    <path d="M 131.2 131.2 
L 162.2 131.2 
L 162.2 100.2 
L 131.2 100.2 
z
" clip-path="url(#p73a6610d9f)" style="fill: #fcb225; stroke: #000000; stroke-width: 0.888889"/>
    <path d="M 162.2 131.2 
L 193.2 131.2 
L 193.2 100.2 
L 162.2 100.2 
z
" clip-path="url(#p73a6610d9f)" style="fill: #fcb225; stroke: #000000; stroke-width: 0.888889"/>
    <path d="M 317.2 131.2 
L 348.2 131.2 
L 348.2 100.2 
L 317.2 100.2 
z
" clip-path="url(#p73a6610d9f)" style="fill: #5add4a; stroke: #000000; stroke-width: 0.888889"/>
    <path d="M 348.2 131.2 
L 379.2 131.2 
L 379.2 100.2 
L 348.2 100.2 
z
" clip-path="url(#p73a6610d9f)" style="fill: #60bdfd; stroke: #000000; stroke-width: 0.888889"/>
    <path d="M 410.2 131.2 
L 441.2 131.2 
L 441.2 100.2 
L 410.2 100.2 
z
" clip-path="url(#p73a6610d9f)" style="fill: #5add4a; stroke: #000000; stroke-width: 0.888889"/>
    <path d="M 441.2 131.2 
L 472.2 131.2 
L 472.2 100.2 
L 441.2 100.2 
z
" clip-path="url(#p73a6610d9f)" style="fill: #60bdfd; stroke: #000000; stroke-width: 0.888889"/>
    <path d="M 503.2 131.2 
L 534.2 131.2 
L 534.2 100.2 
L 503.2 100.2 
z
" clip-path="url(#p73a6610d9f)" style="fill: #5add4a; stroke: #000000; stroke-width: 0.888889"/>
    <path d="M 534.2 131.2 
L 565.2 131.2 
L 565.2 100.2 
L 534.2 100.2 
z
" clip-path="url(#p73a6610d9f)" style="fill: #60bdfd; stroke: #000000; stroke-width: 0.888889"/>
    <path d="M 131.2 162.2 
L 162.2 162.2 
L 162.2 131.2 
L 131.2 131.2 
z
" clip-path="url(#p73a6610d9f)" style="fill: #fcb225; stroke: #000000; stroke-width: 0.888889"/>
    <path d="M 162.2 162.2 
L 193.2 162.2 
L 193.2 131.2 
L 162.2 131.2 
z
" clip-path="url(#p73a6610d9f)" style="fill: #fcb225; stroke: #000000; stroke-width: 0.888889"/>
    <path d="M 255.2 162.2 
L 286.2 162.2 
L 286.2 131.2 
L 255.2 131.2 
z
" clip-path="url(#p73a6610d9f)" style="fill: #5add4a; stroke: #000000; stroke-width: 0.888889"/>
    <path d="M 286.2 162.2 
L 317.2 162.2 
L 317.2 131.2 
L 286.2 131.2 
z
" clip-path="url(#p73a6610d9f)" style="fill: #60bdfd; stroke: #000000; stroke-width: 0.888889"/>
    <path d="M 317.2 162.2 
L 348.2 162.2 
L 348.2 131.2 
L 317.2 131.2 
z
" clip-path="url(#p73a6610d9f)" style="fill: #fcb225; stroke: #000000; stroke-width: 0.888889"/>
    <path d="M 348.2 162.2 
L 379.2 162.2 
L 379.2 131.2 
L 348.2 131.2 
z
" clip-path="url(#p73a6610d9f)" style="fill: #5add4a; stroke: #000000; stroke-width: 0.888889"/>
    <path d="M 379.2 162.2 
L 410.2 162.2 
L 410.2 131.2 
L 379.2 131.2 
z
" clip-path="url(#p73a6610d9f)" style="fill: #60bdfd; stroke: #000000; stroke-width: 0.888889"/>
    <path d="M 441.2 162.2 
L 472.2 162.2 
L 472.2 131.2 
L 441.2 131.2 
z
" clip-path="url(#p73a6610d9f)" style="fill: #5add4a; stroke: #000000; stroke-width: 0.888889"/>
    <path d="M 472.2 162.2 
L 503.2 162.2 
L 503.2 131.2 
L 472.2 131.2 
z
" clip-path="url(#p73a6610d9f)" style="fill: #60bdfd; stroke: #000000; stroke-width: 0.888889"/>
    <path d="M 162.2 193.2 
L 193.2 193.2 
L 193.2 162.2 
L 162.2 162.2 
z
" clip-path="url(#p73a6610d9f)" style="fill: #fcb225; stroke: #000000; stroke-width: 0.888889"/>
    <path d="M 193.2 193.2 
L 224.2 193.2 
L 224.2 162.2 
L 193.2 162.2 
z
" clip-path="url(#p73a6610d9f)" style="fill: #5add4a; stroke: #000000; stroke-width: 0.888889"/>
    <path d="M 224.2 193.2 
L 255.2 193.2 
L 255.2 162.2 
L 224.2 162.2 
z
" clip-path="url(#p73a6610d9f)" style="fill: #60bdfd; stroke: #000000; stroke-width: 0.888889"/>
    <path d="M 255.2 193.2 
L 286.2 193.2 
L 286.2 162.2 
L 255.2 162.2 
z
" clip-path="url(#p73a6610d9f)" style="fill: #fcb225; stroke: #000000; stroke-width: 0.888889"/>
    <path d="M 286.2 193.2 
L 317.2 193.2 
L 317.2 162.2 
L 286.2 162.2 
z
" clip-path="url(#p73a6610d9f)" style="fill: #5add4a; stroke: #000000; stroke-width: 0.888889"/>
    <path d="M 317.2 193.2 
L 348.2 193.2 
L 348.2 162.2 
L 317.2 162.2 
z
" clip-path="url(#p73a6610d9f)" style="fill: #60bdfd; stroke: #000000; stroke-width: 0.888889"/>
    <path d="M 348.2 193.2 
L 379.2 193.2 
L 379.2 162.2 
L 348.2 162.2 
z
" clip-path="url(#p73a6610d9f)" style="fill: #fcb225; stroke: #000000; stroke-width: 0.888889"/>
    <path d="M 379.2 193.2 
L 410.2 193.2 
L 410.2 162.2 
L 379.2 162.2 
z
" clip-path="url(#p73a6610d9f)" style="fill: #5add4a; stroke: #000000; stroke-width: 0.888889"/>
    <path d="M 410.2 193.2 
L 441.2 193.2 
L 441.2 162.2 
L 410.2 162.2 
z
" clip-path="url(#p73a6610d9f)" style="fill: #60bdfd; stroke: #000000; stroke-width: 0.888889"/>
   </g>
   <g id="text_1">
    <!-- 0 -->
    <g transform="translate(17.044444 29.000556) scale(0.177778 -0.177778)">
     <defs>
      <path id="DejaVuSans-30" d="M 2034 4250 
Q 1547 4250 1301 3770 
Q 1056 3291 1056 2328 
Q 1056 1369 1301 889 
Q 1547 409 2034 409 
Q 2525 409 2770 889 
Q 3016 1369 3016 2328 
Q 3016 3291 2770 3770 
Q 2525 4250 2034 4250 
z
M 2034 4750 
Q 2819 4750 3233 4129 
Q 3647 3509 3647 2328 
Q 3647 1150 3233 529 
Q 2819 -91 2034 -91 
Q 1250 -91 836 529 
Q 422 1150 422 2328 
Q 422 3509 836 4129 
Q 1250 4750 2034 4750 
z
" transform="scale(0.015625)"/>
     </defs>
     <use xlink:href="#DejaVuSans-30"/>
    </g>
   </g>
   <g id="text_2">
    <!-- 1 -->
    <g transform="translate(48.044444 29.000556) scale(0.177778 -0.177778)">
     <defs>
      <path id="DejaVuSans-31" d="M 794 531 
L 1825 531 
L 1825 4091 
L 703 3866 
L 703 4441 
L 1819 4666 
L 2450 4666 
L 2450 531 
L 3481 531 
L 3481 0 
L 794 0 
L 794 531 
z
" transform="scale(0.015625)"/>
     </defs>
     <use xlink:href="#DejaVuSans-31"/>
    </g>
   </g>
   <g id="text_3">
    <!-- 2 -->
    <g transform="translate(79.044444 29.000556) scale(0.177778 -0.177778)">
     <defs>
      <path id="DejaVuSans-32" d="M 1228 531 
L 3431 531 
L 3431 0 
L 469 0 
L 469 531 
Q 828 903 1448 1529 
Q 2069 2156 2228 2338 
Q 2531 2678 2651 2914 
Q 2772 3150 2772 3378 
Q 2772 3750 2511 3984 
Q 2250 4219 1831 4219 
Q 1534 4219 1204 4116 
Q 875 4013 500 3803 
L 500 4441 
Q 881 4594 1212 4672 
Q 1544 4750 1819 4750 
Q 2544 4750 2975 4387 
Q 3406 4025 3406 3419 
Q 3406 3131 3298 2873 
Q 3191 2616 2906 2266 
Q 2828 2175 2409 1742 
Q 1991 1309 1228 531 
z
" transform="scale(0.015625)"/>
     </defs>
     <use xlink:href="#DejaVuSans-32"/>
    </g>
   </g>
   <g id="text_4">
    <!-- 0 -->
    <g transform="translate(513.044444 29.000556) scale(0.177778 -0.177778)">
     <use xlink:href="#DejaVuSans-30"/>
    </g>
   </g>
   <g id="text_5">
    <!-- 0 -->
    <g transform="translate(544.044444 29.000556) scale(0.177778 -0.177778)">
     <use xlink:href="#DejaVuSans-30"/>
    </g>
   </g>
   <g id="text_6">
    <!-- 1 -->
    <g transform="translate(606.044444 29.000556) scale(0.177778 -0.177778)">
     <use xlink:href="#DejaVuSans-31"/>
    </g>
   </g>
   <g id="text_7">
    <!-- 1 -->
    <g transform="translate(637.044444 29.000556) scale(0.177778 -0.177778)">
     <use xlink:href="#DejaVuSans-31"/>
    </g>
   </g>
   <g id="text_8">
    <!-- 2 -->
    <g transform="translate(699.044444 29.000556) scale(0.177778 -0.177778)">
     <use xlink:href="#DejaVuSans-32"/>
    </g>
   </g>
   <g id="text_9">
    <!-- 2 -->
    <g transform="translate(730.044444 29.000556) scale(0.177778 -0.177778)">
     <use xlink:href="#DejaVuSans-32"/>
    </g>
   </g>
   <g id="text_10">
    <!-- 0 -->
    <g transform="translate(48.044444 60.000556) scale(0.177778 -0.177778)">
     <use xlink:href="#DejaVuSans-30"/>
    </g>
   </g>
   <g id="text_11">
    <!-- 1 -->
    <g transform="translate(79.044444 60.000556) scale(0.177778 -0.177778)">
     <use xlink:href="#DejaVuSans-31"/>
    </g>
   </g>
   <g id="text_12">
    <!-- 2 -->
    <g transform="translate(110.044444 60.000556) scale(0.177778 -0.177778)">
     <use xlink:href="#DejaVuSans-32"/>
    </g>
   </g>
   <g id="text_13">
    <!-- 0 -->
    <g transform="translate(451.044444 60.000556) scale(0.177778 -0.177778)">
     <use xlink:href="#DejaVuSans-30"/>
    </g>
   </g>
   <g id="text_14">
    <!-- 0 -->
    <g transform="translate(482.044444 60.000556) scale(0.177778 -0.177778)">
     <use xlink:href="#DejaVuSans-30"/>
    </g>
   </g>
   <g id="text_15">
    <!-- 1 -->
    <g transform="translate(544.044444 60.000556) scale(0.177778 -0.177778)">
     <use xlink:href="#DejaVuSans-31"/>
    </g>
   </g>
   <g id="text_16">
    <!-- 1 -->
    <g transform="translate(575.044444 60.000556) scale(0.177778 -0.177778)">
     <use xlink:href="#DejaVuSans-31"/>
    </g>
   </g>
   <g id="text_17">
    <!-- 2 -->
    <g transform="translate(637.044444 60.000556) scale(0.177778 -0.177778)">
     <use xlink:href="#DejaVuSans-32"/>
    </g>
   </g>
   <g id="text_18">
    <!-- 2 -->
    <g transform="translate(668.044444 60.000556) scale(0.177778 -0.177778)">
     <use xlink:href="#DejaVuSans-32"/>
    </g>
   </g>
   <g id="text_19">
    <!-- 0 -->
    <g transform="translate(79.044444 91.000556) scale(0.177778 -0.177778)">
     <use xlink:href="#DejaVuSans-30"/>
    </g>
   </g>
   <g id="text_20">
    <!-- 1 -->
    <g transform="translate(110.044444 91.000556) scale(0.177778 -0.177778)">
     <use xlink:href="#DejaVuSans-31"/>
    </g>
   </g>
   <g id="text_21">
    <!-- 2 -->
    <g transform="translate(141.044444 91.000556) scale(0.177778 -0.177778)">
     <use xlink:href="#DejaVuSans-32"/>
    </g>
   </g>
   <g id="text_22">
    <!-- 0 -->
    <g transform="translate(389.044444 91.000556) scale(0.177778 -0.177778)">
     <use xlink:href="#DejaVuSans-30"/>
    </g>
   </g>
   <g id="text_23">
    <!-- 0 -->
    <g transform="translate(420.044444 91.000556) scale(0.177778 -0.177778)">
     <use xlink:href="#DejaVuSans-30"/>
    </g>
   </g>
   <g id="text_24">
    <!-- 1 -->
    <g transform="translate(482.044444 91.000556) scale(0.177778 -0.177778)">
     <use xlink:href="#DejaVuSans-31"/>
    </g>
   </g>
   <g id="text_25">
    <!-- 1 -->
    <g transform="translate(513.044444 91.000556) scale(0.177778 -0.177778)">
     <use xlink:href="#DejaVuSans-31"/>
    </g>
   </g>
   <g id="text_26">
    <!-- 2 -->
    <g transform="translate(575.044444 91.000556) scale(0.177778 -0.177778)">
     <use xlink:href="#DejaVuSans-32"/>
    </g>
   </g>
   <g id="text_27">
    <!-- 2 -->
    <g transform="translate(606.044444 91.000556) scale(0.177778 -0.177778)">
     <use xlink:href="#DejaVuSans-32"/>
    </g>
   </g>
   <g id="text_28">
    <!-- 0 -->
    <g transform="translate(110.044444 122.000556) scale(0.177778 -0.177778)">
     <use xlink:href="#DejaVuSans-30"/>
    </g>
   </g>
   <g id="text_29">
    <!-- 1 -->
    <g transform="translate(141.044444 122.000556) scale(0.177778 -0.177778)">
     <use xlink:href="#DejaVuSans-31"/>
    </g>
   </g>
   <g id="text_30">
    <!-- 2 -->
    <g transform="translate(172.044444 122.000556) scale(0.177778 -0.177778)">
     <use xlink:href="#DejaVuSans-32"/>
    </g>
   </g>
   <g id="text_31">
    <!-- 0 -->
    <g transform="translate(327.044444 122.000556) scale(0.177778 -0.177778)">
     <use xlink:href="#DejaVuSans-30"/>
    </g>
   </g>
   <g id="text_32">
    <!-- 0 -->
    <g transform="translate(358.044444 122.000556) scale(0.177778 -0.177778)">
     <use xlink:href="#DejaVuSans-30"/>
    </g>
   </g>
   <g id="text_33">
    <!-- 1 -->
    <g transform="translate(420.044444 122.000556) scale(0.177778 -0.177778)">
     <use xlink:href="#DejaVuSans-31"/>
    </g>
   </g>
   <g id="text_34">
    <!-- 1 -->
    <g transform="translate(451.044444 122.000556) scale(0.177778 -0.177778)">
     <use xlink:href="#DejaVuSans-31"/>
    </g>
   </g>
   <g id="text_35">
    <!-- 2 -->
    <g transform="translate(513.044444 122.000556) scale(0.177778 -0.177778)">
     <use xlink:href="#DejaVuSans-32"/>
    </g>
   </g>
   <g id="text_36">
    <!-- 2 -->
    <g transform="translate(544.044444 122.000556) scale(0.177778 -0.177778)">
     <use xlink:href="#DejaVuSans-32"/>
    </g>
   </g>
   <g id="text_37">
    <!-- 0 -->
    <g transform="translate(141.044444 153.000556) scale(0.177778 -0.177778)">
     <use xlink:href="#DejaVuSans-30"/>
    </g>
   </g>
   <g id="text_38">
    <!-- 1 -->
    <g transform="translate(172.044444 153.000556) scale(0.177778 -0.177778)">
     <use xlink:href="#DejaVuSans-31"/>
    </g>
   </g>
   <g id="text_39">
    <!-- 0 -->
    <g transform="translate(265.044444 153.000556) scale(0.177778 -0.177778)">
     <use xlink:href="#DejaVuSans-30"/>
    </g>
   </g>
   <g id="text_40">
    <!-- 0 -->
    <g transform="translate(296.044444 153.000556) scale(0.177778 -0.177778)">
     <use xlink:href="#DejaVuSans-30"/>
    </g>
   </g>
   <g id="text_41">
    <!-- 2 -->
    <g transform="translate(327.044444 153.000556) scale(0.177778 -0.177778)">
     <use xlink:href="#DejaVuSans-32"/>
    </g>
   </g>
   <g id="text_42">
    <!-- 1 -->
    <g transform="translate(358.044444 153.000556) scale(0.177778 -0.177778)">
     <use xlink:href="#DejaVuSans-31"/>
    </g>
   </g>
   <g id="text_43">
    <!-- 1 -->
    <g transform="translate(389.044444 153.000556) scale(0.177778 -0.177778)">
     <use xlink:href="#DejaVuSans-31"/>
    </g>
   </g>
   <g id="text_44">
    <!-- 2 -->
    <g transform="translate(451.044444 153.000556) scale(0.177778 -0.177778)">
     <use xlink:href="#DejaVuSans-32"/>
    </g>
   </g>
   <g id="text_45">
    <!-- 2 -->
    <g transform="translate(482.044444 153.000556) scale(0.177778 -0.177778)">
     <use xlink:href="#DejaVuSans-32"/>
    </g>
   </g>
   <g id="text_46">
    <!-- 0 -->
    <g transform="translate(172.044444 184.000556) scale(0.177778 -0.177778)">
     <use xlink:href="#DejaVuSans-30"/>
    </g>
   </g>
   <g id="text_47">
    <!-- 0 -->
    <g transform="translate(203.044444 184.000556) scale(0.177778 -0.177778)">
     <use xlink:href="#DejaVuSans-30"/>
    </g>
   </g>
   <g id="text_48">
    <!-- 0 -->
    <g transform="translate(234.044444 184.000556) scale(0.177778 -0.177778)">
     <use xlink:href="#DejaVuSans-30"/>
    </g>
   </g>
   <g id="text_49">
    <!-- 1 -->
    <g transform="translate(265.044444 184.000556) scale(0.177778 -0.177778)">
     <use xlink:href="#DejaVuSans-31"/>
    </g>
   </g>
   <g id="text_50">
    <!-- 1 -->
    <g transform="translate(296.044444 184.000556) scale(0.177778 -0.177778)">
     <use xlink:href="#DejaVuSans-31"/>
    </g>
   </g>
   <g id="text_51">
    <!-- 1 -->
    <g transform="translate(327.044444 184.000556) scale(0.177778 -0.177778)">
     <use xlink:href="#DejaVuSans-31"/>
    </g>
   </g>
   <g id="text_52">
    <!-- 2 -->
    <g transform="translate(358.044444 184.000556) scale(0.177778 -0.177778)">
     <use xlink:href="#DejaVuSans-32"/>
    </g>
   </g>
   <g id="text_53">
    <!-- 2 -->
    <g transform="translate(389.044444 184.000556) scale(0.177778 -0.177778)">
     <use xlink:href="#DejaVuSans-32"/>
    </g>
   </g>
   <g id="text_54">
    <!-- 2 -->
    <g transform="translate(420.044444 184.000556) scale(0.177778 -0.177778)">
     <use xlink:href="#DejaVuSans-32"/>
    </g>
   </g>
  </g>
 </g>
 <defs>
  <clipPath id="p73a6610d9f">
   <rect x="7.2" y="7.2" width="1116" height="186"/>
  </clipPath>
 </defs>
</svg>
