<?xml version="1.0" encoding="utf-8" standalone="no"?>
<!DOCTYPE svg PUBLIC "-//W3C//DTD SVG 1.1//EN"
  "http://www.w3.org/Graphics/SVG/1.1/DTD/svg11.dtd">
<svg xmlns:xlink="http://www.w3.org/1999/xlink" width="1130.4pt" height="126pt" viewBox="0 0 1130.4 126" xmlns="http://www.w3.org/2000/svg" version="1.1">
 <metadata>
  <rdf:RDF xmlns:dc="http://purl.org/dc/elements/1.1/" xmlns:cc="http://creativecommons.org/ns#" xmlns:rdf="http://www.w3.org/1999/02/22-rdf-syntax-ns#">
   <cc:Work>
    <dc:type rdf:resource="http://purl.org/dc/dcmitype/StillImage"/>
    <dc:date>2025-05-10T21:57:28.650900</dc:date>
    <dc:format>image/svg+xml</dc:format>
    <dc:creator>
     <cc:Agent>
      <dc:title>Matplotlib v3.6.3, https://matplotlib.org/</dc:title>
     </cc:Agent>
    </dc:creator>
   </cc:Work>
  </rdf:RDF>
 </metadata>
 <defs>
  <style type="text/css">*{stroke-linejoin: round; stroke-linecap: butt}</style>
 </defs>
 <g id="figure_1">
  <g id="patch_1">
   <path d="M 0 126 
L 1130.4 126 
L 1130.4 -0 
L 0 -0 
z
" style="fill: #ffffff"/>
  </g>
  <g id="axes_1">
   <g id="PatchCollection_1">
    <path d="M 7.2 63 
L 63 63 
L 63 7.2 
L 7.2 7.2 
z
" clip-path="url(#p3ebde6fcf6)" style="fill: #fcb225; stroke: #000000; stroke-width: 1.6"/>
    <path d="M 63 63 
L 118.8 63 
L 118.8 7.2 
L 63 7.2 
z
" clip-path="url(#p3ebde6fcf6)" style="fill: #fcb225; stroke: #000000; stroke-width: 1.6"/>
    <path d="M 230.4 63 
L 286.2 63 
L 286.2 7.2 
L 230.4 7.2 
z
" clip-path="url(#p3ebde6fcf6)" style="fill: #5add4a; stroke: #000000; stroke-width: 1.6"/>
    <path d="M 286.2 63 
L 342 63 
L 342 7.2 
L 286.2 7.2 
z
" clip-path="url(#p3ebde6fcf6)" style="fill: #60bdfd; stroke: #000000; stroke-width: 1.6"/>
    <path d="M 342 63 
L 397.8 63 
L 397.8 7.2 
L 342 7.2 
z
" clip-path="url(#p3ebde6fcf6)" style="fill: #fcb225; stroke: #000000; stroke-width: 1.6"/>
    <path d="M 397.8 63 
L 453.6 63 
L 453.6 7.2 
L 397.8 7.2 
z
" clip-path="url(#p3ebde6fcf6)" style="fill: #5add4a; stroke: #000000; stroke-width: 1.6"/>
    <path d="M 453.6 63 
L 509.4 63 
L 509.4 7.2 
L 453.6 7.2 
z
" clip-path="url(#p3ebde6fcf6)" style="fill: #60bdfd; stroke: #000000; stroke-width: 1.6"/>
    <path d="M 565.2 63 
L 621 63 
L 621 7.2 
L 565.2 7.2 
z
" clip-path="url(#p3ebde6fcf6)" style="fill: #5add4a; stroke: #000000; stroke-width: 1.6"/>
    <path d="M 621 63 
L 676.8 63 
L 676.8 7.2 
L 621 7.2 
z
" clip-path="url(#p3ebde6fcf6)" style="fill: #60bdfd; stroke: #000000; stroke-width: 1.6"/>
    <path d="M 63 118.8 
L 118.8 118.8 
L 118.8 63 
L 63 63 
z
" clip-path="url(#p3ebde6fcf6)" style="fill: #fcb225; stroke: #000000; stroke-width: 1.6"/>
    <path d="M 118.8 118.8 
L 174.6 118.8 
L 174.6 63 
L 118.8 63 
z
" clip-path="url(#p3ebde6fcf6)" style="fill: #5add4a; stroke: #000000; stroke-width: 1.6"/>
    <path d="M 174.6 118.8 
L 230.4 118.8 
L 230.4 63 
L 174.6 63 
z
" clip-path="url(#p3ebde6fcf6)" style="fill: #60bdfd; stroke: #000000; stroke-width: 1.6"/>
    <path d="M 230.4 118.8 
L 286.2 118.8 
L 286.2 63 
L 230.4 63 
z
" clip-path="url(#p3ebde6fcf6)" style="fill: #fcb225; stroke: #000000; stroke-width: 1.6"/>
    <path d="M 286.2 118.8 
L 342 118.8 
L 342 63 
L 286.2 63 
z
" clip-path="url(#p3ebde6fcf6)" style="fill: #5add4a; stroke: #000000; stroke-width: 1.6"/>
    <path d="M 342 118.8 
L 397.8 118.8 
L 397.8 63 
L 342 63 
z
" clip-path="url(#p3ebde6fcf6)" style="fill: #60bdfd; stroke: #000000; stroke-width: 1.6"/>
    <path d="M 397.8 118.8 
L 453.6 118.8 
L 453.6 63 
L 397.8 63 
z
" clip-path="url(#p3ebde6fcf6)" style="fill: #fcb225; stroke: #000000; stroke-width: 1.6"/>
    <path d="M 453.6 118.8 
L 509.4 118.8 
L 509.4 63 
L 453.6 63 
z
" clip-path="url(#p3ebde6fcf6)" style="fill: #5add4a; stroke: #000000; stroke-width: 1.6"/>
    <path d="M 509.4 118.8 
L 565.2 118.8 
L 565.2 63 
L 509.4 63 
z
" clip-path="url(#p3ebde6fcf6)" style="fill: #60bdfd; stroke: #000000; stroke-width: 1.6"/>
   </g>
   <g id="text_1">
    <!-- 0 -->
    <g transform="translate(24.92 46.441) scale(0.32 -0.32)">
     <defs>
      <path id="DejaVuSans-30" d="M 2034 4250 
Q 1547 4250 1301 3770 
Q 1056 3291 1056 2328 
Q 1056 1369 1301 889 
Q 1547 409 2034 409 
Q 2525 409 2770 889 
Q 3016 1369 3016 2328 
Q 3016 3291 2770 3770 
Q 2525 4250 2034 4250 
z
M 2034 4750 
Q 2819 4750 3233 4129 
Q 3647 3509 3647 2328 
Q 3647 1150 3233 529 
Q 2819 -91 2034 -91 
Q 1250 -91 836 529 
Q 422 1150 422 2328 
Q 422 3509 836 4129 
Q 1250 4750 2034 4750 
z
" transform="scale(0.015625)"/>
     </defs>
     <use xlink:href="#DejaVuSans-30"/>
    </g>
   </g>
   <g id="text_2">
    <!-- 1 -->
    <g transform="translate(80.72 46.441) scale(0.32 -0.32)">
     <defs>
      <path id="DejaVuSans-31" d="M 794 531 
L 1825 531 
L 1825 4091 
L 703 3866 
L 703 4441 
L 1819 4666 
L 2450 4666 
L 2450 531 
L 3481 531 
L 3481 0 
L 794 0 
L 794 531 
z
" transform="scale(0.015625)"/>
     </defs>
     <use xlink:href="#DejaVuSans-31"/>
    </g>
   </g>
   <g id="text_3">
    <!-- 0 -->
    <g transform="translate(248.12 46.441) scale(0.32 -0.32)">
     <use xlink:href="#DejaVuSans-30"/>
    </g>
   </g>
   <g id="text_4">
    <!-- 0 -->
    <g transform="translate(303.92 46.441) scale(0.32 -0.32)">
     <use xlink:href="#DejaVuSans-30"/>
    </g>
   </g>
   <g id="text_5">
    <!-- 2 -->
    <g transform="translate(359.72 46.441) scale(0.32 -0.32)">
     <defs>
      <path id="DejaVuSans-32" d="M 1228 531 
L 3431 531 
L 3431 0 
L 469 0 
L 469 531 
Q 828 903 1448 1529 
Q 2069 2156 2228 2338 
Q 2531 2678 2651 2914 
Q 2772 3150 2772 3378 
Q 2772 3750 2511 3984 
Q 2250 4219 1831 4219 
Q 1534 4219 1204 4116 
Q 875 4013 500 3803 
L 500 4441 
Q 881 4594 1212 4672 
Q 1544 4750 1819 4750 
Q 2544 4750 2975 4387 
Q 3406 4025 3406 3419 
Q 3406 3131 3298 2873 
Q 3191 2616 2906 2266 
Q 2828 2175 2409 1742 
Q 1991 1309 1228 531 
z
" transform="scale(0.015625)"/>
     </defs>
     <use xlink:href="#DejaVuSans-32"/>
    </g>
   </g>
   <g id="text_6">
    <!-- 1 -->
    <g transform="translate(415.52 46.441) scale(0.32 -0.32)">
     <use xlink:href="#DejaVuSans-31"/>
    </g>
   </g>
   <g id="text_7">
    <!-- 1 -->
    <g transform="translate(471.32 46.441) scale(0.32 -0.32)">
     <use xlink:href="#DejaVuSans-31"/>
    </g>
   </g>
   <g id="text_8">
    <!-- 2 -->
    <g transform="translate(582.92 46.441) scale(0.32 -0.32)">
     <use xlink:href="#DejaVuSans-32"/>
    </g>
   </g>
   <g id="text_9">
    <!-- 2 -->
    <g transform="translate(638.72 46.441) scale(0.32 -0.32)">
     <use xlink:href="#DejaVuSans-32"/>
    </g>
   </g>
   <g id="text_10">
    <!-- 0 -->
    <g transform="translate(80.72 102.241) scale(0.32 -0.32)">
     <use xlink:href="#DejaVuSans-30"/>
    </g>
   </g>
   <g id="text_11">
    <!-- 0 -->
    <g transform="translate(136.52 102.241) scale(0.32 -0.32)">
     <use xlink:href="#DejaVuSans-30"/>
    </g>
   </g>
   <g id="text_12">
    <!-- 0 -->
    <g transform="translate(192.32 102.241) scale(0.32 -0.32)">
     <use xlink:href="#DejaVuSans-30"/>
    </g>
   </g>
   <g id="text_13">
    <!-- 1 -->
    <g transform="translate(248.12 102.241) scale(0.32 -0.32)">
     <use xlink:href="#DejaVuSans-31"/>
    </g>
   </g>
   <g id="text_14">
    <!-- 1 -->
    <g transform="translate(303.92 102.241) scale(0.32 -0.32)">
     <use xlink:href="#DejaVuSans-31"/>
    </g>
   </g>
   <g id="text_15">
    <!-- 1 -->
    <g transform="translate(359.72 102.241) scale(0.32 -0.32)">
     <use xlink:href="#DejaVuSans-31"/>
    </g>
   </g>
   <g id="text_16">
    <!-- 2 -->
    <g transform="translate(415.52 102.241) scale(0.32 -0.32)">
     <use xlink:href="#DejaVuSans-32"/>
    </g>
   </g>
   <g id="text_17">
    <!-- 2 -->
    <g transform="translate(471.32 102.241) scale(0.32 -0.32)">
     <use xlink:href="#DejaVuSans-32"/>
    </g>
   </g>
   <g id="text_18">
    <!-- 2 -->
    <g transform="translate(527.12 102.241) scale(0.32 -0.32)">
     <use xlink:href="#DejaVuSans-32"/>
    </g>
   </g>
  </g>
 </g>
 <defs>
  <clipPath id="p3ebde6fcf6">
   <rect x="7.2" y="7.2" width="1116" height="111.6"/>
  </clipPath>
 </defs>
</svg>
