<?xml version="1.0" encoding="utf-8" standalone="no"?>
<!DOCTYPE svg PUBLIC "-//W3C//DTD SVG 1.1//EN"
  "http://www.w3.org/Graphics/SVG/1.1/DTD/svg11.dtd">
<svg xmlns:xlink="http://www.w3.org/1999/xlink" width="1130.4pt" height="268.036364pt" viewBox="0 0 1130.4 268.036364" xmlns="http://www.w3.org/2000/svg" version="1.1">
 <metadata>
  <rdf:RDF xmlns:dc="http://purl.org/dc/elements/1.1/" xmlns:cc="http://creativecommons.org/ns#" xmlns:rdf="http://www.w3.org/1999/02/22-rdf-syntax-ns#">
   <cc:Work>
    <dc:type rdf:resource="http://purl.org/dc/dcmitype/StillImage"/>
    <dc:date>2025-05-10T21:57:27.761049</dc:date>
    <dc:format>image/svg+xml</dc:format>
    <dc:creator>
     <cc:Agent>
      <dc:title>Matplotlib v3.6.3, https://matplotlib.org/</dc:title>
     </cc:Agent>
    </dc:creator>
   </cc:Work>
  </rdf:RDF>
 </metadata>
 <defs>
  <style type="text/css">*{stroke-linejoin: round; stroke-linecap: butt}</style>
 </defs>
 <g id="figure_1">
  <g id="patch_1">
   <path d="M 0 268.036364 
L 1130.4 268.036364 
L 1130.4 0 
L 0 0 
z
" style="fill: #ffffff"/>
  </g>
  <g id="axes_1">
   <g id="PatchCollection_1">
    <path d="M 7.2 32.563636 
L 32.563636 32.563636 
L 32.563636 7.2 
L 7.2 7.2 
z
" clip-path="url(#pc4d2348c63)" style="fill: #fcb225; stroke: #000000; stroke-width: 0.727273"/>
    <path d="M 717.381818 32.563636 
L 742.745455 32.563636 
L 742.745455 7.2 
L 717.381818 7.2 
z
" clip-path="url(#pc4d2348c63)" style="fill: #5add4a; stroke: #000000; stroke-width: 0.727273"/>
    <path d="M 742.745455 32.563636 
L 768.109091 32.563636 
L 768.109091 7.2 
L 742.745455 7.2 
z
" clip-path="url(#pc4d2348c63)" style="fill: #60bdfd; stroke: #000000; stroke-width: 0.727273"/>
    <path d="M 32.563636 57.927273 
L 57.927273 57.927273 
L 57.927273 32.563636 
L 32.563636 32.563636 
z
" clip-path="url(#pc4d2348c63)" style="fill: #fcb225; stroke: #000000; stroke-width: 0.727273"/>
    <path d="M 666.654545 57.927273 
L 692.018182 57.927273 
L 692.018182 32.563636 
L 666.654545 32.563636 
z
" clip-path="url(#pc4d2348c63)" style="fill: #5add4a; stroke: #000000; stroke-width: 0.727273"/>
    <path d="M 692.018182 57.927273 
L 717.381818 57.927273 
L 717.381818 32.563636 
L 692.018182 32.563636 
z
" clip-path="url(#pc4d2348c63)" style="fill: #60bdfd; stroke: #000000; stroke-width: 0.727273"/>
    <path d="M 57.927273 83.290909 
L 83.290909 83.290909 
L 83.290909 57.927273 
L 57.927273 57.927273 
z
" clip-path="url(#pc4d2348c63)" style="fill: #fcb225; stroke: #000000; stroke-width: 0.727273"/>
    <path d="M 615.927273 83.290909 
L 641.290909 83.290909 
L 641.290909 57.927273 
L 615.927273 57.927273 
z
" clip-path="url(#pc4d2348c63)" style="fill: #5add4a; stroke: #000000; stroke-width: 0.727273"/>
    <path d="M 641.290909 83.290909 
L 666.654545 83.290909 
L 666.654545 57.927273 
L 641.290909 57.927273 
z
" clip-path="url(#pc4d2348c63)" style="fill: #60bdfd; stroke: #000000; stroke-width: 0.727273"/>
    <path d="M 83.290909 108.654545 
L 108.654545 108.654545 
L 108.654545 83.290909 
L 83.290909 83.290909 
z
" clip-path="url(#pc4d2348c63)" style="fill: #fcb225; stroke: #000000; stroke-width: 0.727273"/>
    <path d="M 565.2 108.654545 
L 590.563636 108.654545 
L 590.563636 83.290909 
L 565.2 83.290909 
z
" clip-path="url(#pc4d2348c63)" style="fill: #5add4a; stroke: #000000; stroke-width: 0.727273"/>
    <path d="M 590.563636 108.654545 
L 615.927273 108.654545 
L 615.927273 83.290909 
L 590.563636 83.290909 
z
" clip-path="url(#pc4d2348c63)" style="fill: #60bdfd; stroke: #000000; stroke-width: 0.727273"/>
    <path d="M 108.654545 134.018182 
L 134.018182 134.018182 
L 134.018182 108.654545 
L 108.654545 108.654545 
z
" clip-path="url(#pc4d2348c63)" style="fill: #fcb225; stroke: #000000; stroke-width: 0.727273"/>
    <path d="M 514.472727 134.018182 
L 539.836364 134.018182 
L 539.836364 108.654545 
L 514.472727 108.654545 
z
" clip-path="url(#pc4d2348c63)" style="fill: #5add4a; stroke: #000000; stroke-width: 0.727273"/>
    <path d="M 539.836364 134.018182 
L 565.2 134.018182 
L 565.2 108.654545 
L 539.836364 108.654545 
z
" clip-path="url(#pc4d2348c63)" style="fill: #60bdfd; stroke: #000000; stroke-width: 0.727273"/>
    <path d="M 134.018182 159.381818 
L 159.381818 159.381818 
L 159.381818 134.018182 
L 134.018182 134.018182 
z
" clip-path="url(#pc4d2348c63)" style="fill: #fcb225; stroke: #000000; stroke-width: 0.727273"/>
    <path d="M 463.745455 159.381818 
L 489.109091 159.381818 
L 489.109091 134.018182 
L 463.745455 134.018182 
z
" clip-path="url(#pc4d2348c63)" style="fill: #5add4a; stroke: #000000; stroke-width: 0.727273"/>
    <path d="M 489.109091 159.381818 
L 514.472727 159.381818 
L 514.472727 134.018182 
L 489.109091 134.018182 
z
" clip-path="url(#pc4d2348c63)" style="fill: #60bdfd; stroke: #000000; stroke-width: 0.727273"/>
    <path d="M 159.381818 184.745455 
L 184.745455 184.745455 
L 184.745455 159.381818 
L 159.381818 159.381818 
z
" clip-path="url(#pc4d2348c63)" style="fill: #fcb225; stroke: #000000; stroke-width: 0.727273"/>
    <path d="M 413.018182 184.745455 
L 438.381818 184.745455 
L 438.381818 159.381818 
L 413.018182 159.381818 
z
" clip-path="url(#pc4d2348c63)" style="fill: #5add4a; stroke: #000000; stroke-width: 0.727273"/>
    <path d="M 438.381818 184.745455 
L 463.745455 184.745455 
L 463.745455 159.381818 
L 438.381818 159.381818 
z
" clip-path="url(#pc4d2348c63)" style="fill: #60bdfd; stroke: #000000; stroke-width: 0.727273"/>
    <path d="M 184.745455 210.109091 
L 210.109091 210.109091 
L 210.109091 184.745455 
L 184.745455 184.745455 
z
" clip-path="url(#pc4d2348c63)" style="fill: #fcb225; stroke: #000000; stroke-width: 0.727273"/>
    <path d="M 362.290909 210.109091 
L 387.654545 210.109091 
L 387.654545 184.745455 
L 362.290909 184.745455 
z
" clip-path="url(#pc4d2348c63)" style="fill: #5add4a; stroke: #000000; stroke-width: 0.727273"/>
    <path d="M 387.654545 210.109091 
L 413.018182 210.109091 
L 413.018182 184.745455 
L 387.654545 184.745455 
z
" clip-path="url(#pc4d2348c63)" style="fill: #60bdfd; stroke: #000000; stroke-width: 0.727273"/>
    <path d="M 210.109091 235.472727 
L 235.472727 235.472727 
L 235.472727 210.109091 
L 210.109091 210.109091 
z
" clip-path="url(#pc4d2348c63)" style="fill: #fcb225; stroke: #000000; stroke-width: 0.727273"/>
    <path d="M 311.563636 235.472727 
L 336.927273 235.472727 
L 336.927273 210.109091 
L 311.563636 210.109091 
z
" clip-path="url(#pc4d2348c63)" style="fill: #5add4a; stroke: #000000; stroke-width: 0.727273"/>
    <path d="M 336.927273 235.472727 
L 362.290909 235.472727 
L 362.290909 210.109091 
L 336.927273 210.109091 
z
" clip-path="url(#pc4d2348c63)" style="fill: #60bdfd; stroke: #000000; stroke-width: 0.727273"/>
    <path d="M 235.472727 260.836364 
L 260.836364 260.836364 
L 260.836364 235.472727 
L 235.472727 235.472727 
z
" clip-path="url(#pc4d2348c63)" style="fill: #fcb225; stroke: #000000; stroke-width: 0.727273"/>
    <path d="M 260.836364 260.836364 
L 286.2 260.836364 
L 286.2 235.472727 
L 260.836364 235.472727 
z
" clip-path="url(#pc4d2348c63)" style="fill: #5add4a; stroke: #000000; stroke-width: 0.727273"/>
    <path d="M 286.2 260.836364 
L 311.563636 260.836364 
L 311.563636 235.472727 
L 286.2 235.472727 
z
" clip-path="url(#pc4d2348c63)" style="fill: #60bdfd; stroke: #000000; stroke-width: 0.727273"/>
   </g>
   <g id="text_1">
    <!-- 0 -->
    <g transform="translate(15.254545 25.036818) scale(0.145455 -0.145455)">
     <defs>
      <path id="DejaVuSans-30" d="M 2034 4250 
Q 1547 4250 1301 3770 
Q 1056 3291 1056 2328 
Q 1056 1369 1301 889 
Q 1547 409 2034 409 
Q 2525 409 2770 889 
Q 3016 1369 3016 2328 
Q 3016 3291 2770 3770 
Q 2525 4250 2034 4250 
z
M 2034 4750 
Q 2819 4750 3233 4129 
Q 3647 3509 3647 2328 
Q 3647 1150 3233 529 
Q 2819 -91 2034 -91 
Q 1250 -91 836 529 
Q 422 1150 422 2328 
Q 422 3509 836 4129 
Q 1250 4750 2034 4750 
z
" transform="scale(0.015625)"/>
     </defs>
     <use xlink:href="#DejaVuSans-30"/>
    </g>
   </g>
   <g id="text_2">
    <!-- 0 -->
    <g transform="translate(725.436364 25.036818) scale(0.145455 -0.145455)">
     <use xlink:href="#DejaVuSans-30"/>
    </g>
   </g>
   <g id="text_3">
    <!-- 0 -->
    <g transform="translate(750.8 25.036818) scale(0.145455 -0.145455)">
     <use xlink:href="#DejaVuSans-30"/>
    </g>
   </g>
   <g id="text_4">
    <!-- 0 -->
    <g transform="translate(40.618182 50.400455) scale(0.145455 -0.145455)">
     <use xlink:href="#DejaVuSans-30"/>
    </g>
   </g>
   <g id="text_5">
    <!-- 0 -->
    <g transform="translate(674.709091 50.400455) scale(0.145455 -0.145455)">
     <use xlink:href="#DejaVuSans-30"/>
    </g>
   </g>
   <g id="text_6">
    <!-- 0 -->
    <g transform="translate(700.072727 50.400455) scale(0.145455 -0.145455)">
     <use xlink:href="#DejaVuSans-30"/>
    </g>
   </g>
   <g id="text_7">
    <!-- 0 -->
    <g transform="translate(65.981818 75.764091) scale(0.145455 -0.145455)">
     <use xlink:href="#DejaVuSans-30"/>
    </g>
   </g>
   <g id="text_8">
    <!-- 0 -->
    <g transform="translate(623.981818 75.764091) scale(0.145455 -0.145455)">
     <use xlink:href="#DejaVuSans-30"/>
    </g>
   </g>
   <g id="text_9">
    <!-- 0 -->
    <g transform="translate(649.345455 75.764091) scale(0.145455 -0.145455)">
     <use xlink:href="#DejaVuSans-30"/>
    </g>
   </g>
   <g id="text_10">
    <!-- 0 -->
    <g transform="translate(91.345455 101.127727) scale(0.145455 -0.145455)">
     <use xlink:href="#DejaVuSans-30"/>
    </g>
   </g>
   <g id="text_11">
    <!-- 0 -->
    <g transform="translate(573.254545 101.127727) scale(0.145455 -0.145455)">
     <use xlink:href="#DejaVuSans-30"/>
    </g>
   </g>
   <g id="text_12">
    <!-- 0 -->
    <g transform="translate(598.618182 101.127727) scale(0.145455 -0.145455)">
     <use xlink:href="#DejaVuSans-30"/>
    </g>
   </g>
   <g id="text_13">
    <!-- 0 -->
    <g transform="translate(116.709091 126.491364) scale(0.145455 -0.145455)">
     <use xlink:href="#DejaVuSans-30"/>
    </g>
   </g>
   <g id="text_14">
    <!-- 0 -->
    <g transform="translate(522.527273 126.491364) scale(0.145455 -0.145455)">
     <use xlink:href="#DejaVuSans-30"/>
    </g>
   </g>
   <g id="text_15">
    <!-- 0 -->
    <g transform="translate(547.890909 126.491364) scale(0.145455 -0.145455)">
     <use xlink:href="#DejaVuSans-30"/>
    </g>
   </g>
   <g id="text_16">
    <!-- 0 -->
    <g transform="translate(142.072727 151.855) scale(0.145455 -0.145455)">
     <use xlink:href="#DejaVuSans-30"/>
    </g>
   </g>
   <g id="text_17">
    <!-- 0 -->
    <g transform="translate(471.8 151.855) scale(0.145455 -0.145455)">
     <use xlink:href="#DejaVuSans-30"/>
    </g>
   </g>
   <g id="text_18">
    <!-- 0 -->
    <g transform="translate(497.163636 151.855) scale(0.145455 -0.145455)">
     <use xlink:href="#DejaVuSans-30"/>
    </g>
   </g>
   <g id="text_19">
    <!-- 0 -->
    <g transform="translate(167.436364 177.218636) scale(0.145455 -0.145455)">
     <use xlink:href="#DejaVuSans-30"/>
    </g>
   </g>
   <g id="text_20">
    <!-- 0 -->
    <g transform="translate(421.072727 177.218636) scale(0.145455 -0.145455)">
     <use xlink:href="#DejaVuSans-30"/>
    </g>
   </g>
   <g id="text_21">
    <!-- 0 -->
    <g transform="translate(446.436364 177.218636) scale(0.145455 -0.145455)">
     <use xlink:href="#DejaVuSans-30"/>
    </g>
   </g>
   <g id="text_22">
    <!-- 0 -->
    <g transform="translate(192.8 202.582273) scale(0.145455 -0.145455)">
     <use xlink:href="#DejaVuSans-30"/>
    </g>
   </g>
   <g id="text_23">
    <!-- 0 -->
    <g transform="translate(370.345455 202.582273) scale(0.145455 -0.145455)">
     <use xlink:href="#DejaVuSans-30"/>
    </g>
   </g>
   <g id="text_24">
    <!-- 0 -->
    <g transform="translate(395.709091 202.582273) scale(0.145455 -0.145455)">
     <use xlink:href="#DejaVuSans-30"/>
    </g>
   </g>
   <g id="text_25">
    <!-- 0 -->
    <g transform="translate(218.163636 227.945909) scale(0.145455 -0.145455)">
     <use xlink:href="#DejaVuSans-30"/>
    </g>
   </g>
   <g id="text_26">
    <!-- 0 -->
    <g transform="translate(319.618182 227.945909) scale(0.145455 -0.145455)">
     <use xlink:href="#DejaVuSans-30"/>
    </g>
   </g>
   <g id="text_27">
    <!-- 0 -->
    <g transform="translate(344.981818 227.945909) scale(0.145455 -0.145455)">
     <use xlink:href="#DejaVuSans-30"/>
    </g>
   </g>
   <g id="text_28">
    <!-- 0 -->
    <g transform="translate(243.527273 253.309545) scale(0.145455 -0.145455)">
     <use xlink:href="#DejaVuSans-30"/>
    </g>
   </g>
   <g id="text_29">
    <!-- 0 -->
    <g transform="translate(268.890909 253.309545) scale(0.145455 -0.145455)">
     <use xlink:href="#DejaVuSans-30"/>
    </g>
   </g>
   <g id="text_30">
    <!-- 0 -->
    <g transform="translate(294.254545 253.309545) scale(0.145455 -0.145455)">
     <use xlink:href="#DejaVuSans-30"/>
    </g>
   </g>
  </g>
 </g>
 <defs>
  <clipPath id="pc4d2348c63">
   <rect x="7.2" y="7.2" width="1116" height="253.636364"/>
  </clipPath>
 </defs>
</svg>
